<?xml version="1.0" standalone="no"?>
<!DOCTYPE svg PUBLIC "-//W3C//DTD SVG 1.1//EN" "http://www.w3.org/Graphics/SVG/1.1/DTD/svg11.dtd" >
<svg xmlns="http://www.w3.org/2000/svg">
<metadata>
Created by FontPrep 20130207 at Thu Sep 21 16:09:58 2017
 By Clement Jaquier
Copyright (c) 2014 by Rene' Bieder. All rights reserved.
</metadata>
<defs>
<font id="68f373d054daf2a81b49b69e720ffafb" horiz-adv-x='1024' >
  <font-face 
    font-family="GalanoGrotesqueDEMO-Bold"
    font-weight="700"
    font-stretch="normal"
    units-per-em="2048"
    panose-1="0 0 8 0 0 0 0 0 0 0"
    ascent="1638"
    descent="-410"
    x-height="1028"
    cap-height="1372"
    bbox="-55 -389 2361 1577"
    underline-thickness="102"
    underline-position="-102"
    unicode-range="U+0020-FB02"
  />
<missing-glyph horiz-adv-x="1581" 
d="M773 483q44 -1 74 -31t30 -71t-30 -71t-75 -30t-74 30q-28 30 -28 71t29 72q30 30 74 30zM795 1067q125 1 201 -69t75 -166q0 -96 -56 -152q-56 -55 -153 -72v-59h-172v182h90q49 0 80 24q31 23 31 61t-28 64t-72 25q-102 0 -119 -104l-178 35q12 96 94 164t207 67z
M791 1288q-246 0 -419 -172t-173 -431t173 -431t418 -172q246 0 418 172t172 430t-172 431t-417 173zM790 1401q296 0 504 -205t209 -512q0 -307 -209 -511q-208 -204 -504 -204t-505 204t-209 511t209 512t505 205z" />
    <glyph glyph-name="fi" unicode="fi" horiz-adv-x="1343" 
d="M1208 1028v-1028h-327v768h-377v-768h-326v768h-147v260h147v80q0 180 114 288t304 107q94 0 186 -35l-59 -258q-57 12 -100 12t-81 -33q-38 -34 -38 -95v-66h704zM1233 1330q1 -77 -53 -129t-137 -52t-136 51t-53 130t54 133q54 55 135 55t135 -56t55 -132z" />
    <glyph glyph-name="fl" unicode="fl" horiz-adv-x="1337" 
d="M1219 1475v-1475h-328v1475h328zM627 1223q-49 0 -86 -35t-37 -94v-66h282v-260h-282v-768h-326v768h-147v260h147v80q0 180 114 288t300 107q104 0 203 -43l-70 -254q-49 17 -98 17z" />
    <glyph glyph-name=".notdef" horiz-adv-x="1581" 
d="M773 483q44 -1 74 -31t30 -71t-30 -71t-75 -30t-74 30q-28 30 -28 71t29 72q30 30 74 30zM795 1067q125 1 201 -69t75 -166q0 -96 -56 -152q-56 -55 -153 -72v-59h-172v182h90q49 0 80 24q31 23 31 61t-28 64t-72 25q-102 0 -119 -104l-178 35q12 96 94 164t207 67z
M791 1288q-246 0 -419 -172t-173 -431t173 -431t418 -172q246 0 418 172t172 430t-172 431t-417 173zM790 1401q296 0 504 -205t209 -512q0 -307 -209 -511q-208 -204 -504 -204t-505 204t-209 511t209 512t505 205z" />
    <glyph glyph-name=".null" horiz-adv-x="0" 
 />
    <glyph glyph-name="nonmarkingreturn" horiz-adv-x="681" 
 />
    <glyph glyph-name="space" unicode=" " horiz-adv-x="475" 
 />
    <glyph glyph-name="exclam" unicode="!" horiz-adv-x="608" 
d="M308 352q81 0 134 -53q54 -53 54 -130t-52 -128t-135 -51q-82 0 -135 51t-53 128t53 130t134 53zM487 1372v-63l-20 -840h-324l-20 840v63h364z" />
    <glyph glyph-name="quotedbl" unicode="&#x22;" horiz-adv-x="917" 
d="M512 727v645h309v-645h-309zM96 727v645h310v-645h-310z" />
    <glyph glyph-name="numbersign" unicode="#" horiz-adv-x="1456" 
d="M874 791h-237l-59 -240h237zM1147 791l-60 -240h209l-69 -252h-203l-74 -299h-270l74 299h-238l-74 -299h-270l74 299h-209l67 252h203l60 240h-207l65 251h203l82 330h270l-82 -330h240l82 330h270l-82 -330h209l-69 -251h-201z" />
    <glyph glyph-name="dollar" unicode="$" horiz-adv-x="1243" 
d="M1161 432q-1 -170 -111 -275t-284 -132v-230h-272v236q-170 37 -286 143t-132 262l319 62q14 -115 85 -166t161 -51q90 1 142 37t53 94q0 86 -117 112l-260 58q-352 76 -353 364q0 164 106 269t282 135v227h272v-234q164 -37 267 -141t118 -258l-311 -53q-8 113 -74 162
t-147 49t-127 -37t-48 -92q0 -84 101 -107l264 -59q352 -80 352 -375z" />
    <glyph glyph-name="percent" unicode="%" 
d="M1632 471q28 -1 46 -19t18 -49t-18 -50t-46 -19q-27 0 -46 19t-19 49t18 50t47 19zM899 471h51q31 0 31 -28t-31 -27h-51v55zM2087 545h-82v-144l-125 144h-70v-281h88v133l121 -133h68v281zM1452 264v281h-88v-281h88zM1069 449q0 41 -28 69t-72 27h-154v-281h84v88h8
l70 -88h106l-77 92q63 25 63 93zM784 334h-139v37h125v63h-125v37h139v74h-227v-281h227v70zM545 545h-99l-59 -166l-55 166h-96l110 -281h88zM1784 403q0 59 -45 103t-107 43q-62 0 -108 -43q-45 -42 -45 -102t45 -102t107 -42t108 42q45 42 45 101zM1212 549
q-51 0 -83 -24t-31 -68q0 -59 78 -82l55 -15q18 -6 18 -14q1 -18 -33 -18t-40 32l-89 -14q16 -86 130 -86q49 0 85 23t35 69q0 59 -80 82l-55 15q-12 4 -12 20q0 17 26 17t37 -33l84 14q-14 82 -125 82zM1968 905q0 -45 -28 -74t-70 -29t-69 30q-28 28 -27 73q0 45 28 75
q29 30 70 30q40 0 68 -30t28 -75zM391 803v207h43q47 0 79 -30t32 -75t-31 -74t-80 -28h-43zM1599 1116h-139l-110 -217l-105 217h-143v-424h129v180l78 -180h84l77 180v-180h129v424zM1055 803h-207v55h188v96h-188v56h207v106h-336v-424h336v111zM258 1116v-424h184
q104 0 168 60t64 152t-64 152t-168 60h-184zM2101 904q0 93 -66 158q-67 64 -163 64t-164 -64t-68 -158q0 -93 68 -156q68 -64 164 -64t162 64t67 156zM2361 1372v-1372h-2361v1372h2361z" />
    <glyph glyph-name="ampersand" unicode="&#x26;" horiz-adv-x="1429" 
d="M634 233q102 0 185 54l-317 276q-98 -61 -98 -146t64 -135t166 -49zM626 -31q-240 0 -393 118q-152 118 -151 312q0 223 231 351q-96 128 -96 284t128 262t328 106q201 0 315 -106t140 -282l-303 -53q-14 180 -153 180q-60 0 -100 -34t-40 -92q0 -57 33 -109t121 -130
l291 -252q12 53 12 119v92h297v-92q0 -184 -67 -330l184 -159l-191 -211l-174 153q-172 -127 -412 -127z" />
    <glyph glyph-name="quotesingle" unicode="'" horiz-adv-x="499" 
d="M96 727v645h310v-645h-310z" />
    <glyph glyph-name="parenleft" unicode="(" horiz-adv-x="778" 
d="M418 686q0 -192 68 -340q68 -150 221 -311l-232 -203q-403 375 -403 856t403 856l225 -203q-150 -163 -216 -313t-66 -342z" />
    <glyph glyph-name="parenright" unicode=")" horiz-adv-x="778" 
d="M707 688q0 -483 -406 -856l-229 203q152 163 220 313t68 340t-68 340t-214 313l223 203q406 -373 406 -856z" />
    <glyph glyph-name="asterisk" unicode="*" horiz-adv-x="915" 
d="M557 717h-199v217l-200 -115l-90 158l208 121l-208 119l90 157l200 -114v215h199v-215l201 114l90 -157l-209 -119l209 -121l-90 -158l-201 115v-217z" />
    <glyph glyph-name="plus" unicode="+" horiz-adv-x="1173" 
d="M1071 487h-350v-356h-268v356h-351v269h351v356h268v-356h350v-269z" />
    <glyph glyph-name="comma" unicode="," horiz-adv-x="540" 
d="M489 319v-8l-235 -581h-248l121 589h362z" />
    <glyph glyph-name="hyphen" unicode="-" horiz-adv-x="923" 
d="M801 399h-678v277h678v-277z" />
    <glyph glyph-name="period" unicode="." horiz-adv-x="503" 
d="M252 358q80 0 134 -54t54 -131t-53 -130t-134 -53t-134 52t-53 130t53 132t133 54z" />
    <glyph glyph-name="slash" unicode="/" horiz-adv-x="890" 
d="M860 1518l-590 -1665h-239l590 1665h239z" />
    <glyph glyph-name="zero" unicode="0" horiz-adv-x="1359" 
d="M680 266q122 0 194 114t72 306t-73 306t-193 114t-193 -114q-71 -114 -71 -306t72 -306t192 -114zM680 1403q272 0 439 -198q167 -197 167 -519t-167 -520t-439 -197q-272 0 -438 198q-166 197 -166 519t166 520t438 197z" />
    <glyph glyph-name="one" unicode="1" horiz-adv-x="796" 
d="M659 1372v-1372h-327v983l-328 -168v303l442 254h213z" />
    <glyph glyph-name="two" unicode="2" horiz-adv-x="1122" 
d="M1055 295v-295h-996v221l473 445q147 135 165 190q19 54 19 114t-46 105q-47 45 -123 45q-178 0 -197 -221l-313 59q10 205 149 325q140 120 360 120t357 -121t137 -324q0 -133 -66 -234t-222 -249l-197 -180h500z" />
    <glyph glyph-name="three" unicode="3" horiz-adv-x="1181" 
d="M1108 412q0 -196 -143 -319q-143 -124 -365 -124t-367 118t-167 316l319 60q15 -101 69 -157t142 -56t143 46t55 118t-48 112q-50 40 -138 41h-157v250h143q86 0 135 41t49 111q0 71 -50 113t-134 42t-139 -55t-64 -166l-309 60q23 203 162 321t354 119q215 0 351 -121
q136 -122 136 -312t-147 -276q170 -86 170 -282z" />
    <glyph glyph-name="four" unicode="4" horiz-adv-x="1282" 
d="M750 522v525l-371 -525h371zM1233 252h-166v-252h-317v252h-713v303l612 817h418v-850h166v-270z" />
    <glyph glyph-name="five" unicode="5" horiz-adv-x="1179" 
d="M629 891q225 0 354 -120q129 -119 129 -327t-142 -342t-372 -133q-230 0 -380 124q-151 124 -157 347l320 64q2 -124 63 -186q62 -62 152 -62t144 52t54 133t-54 127t-142 46h-471l25 758h901v-293h-607l-8 -188h191z" />
    <glyph glyph-name="six" unicode="6" horiz-adv-x="1251" 
d="M649 246q82 0 144 57q61 57 61 143t-61 142t-143 57q-82 0 -142 -57q-59 -58 -59 -144t59 -142t141 -56zM712 891q204 0 334 -126t130 -330t-146 -335t-373 -131q-266 1 -424 183t-157 510q0 389 190 579q156 162 396 162q184 0 313 -87t172 -249l-318 -61
q-39 117 -180 116q-96 0 -168 -78q-92 -100 -92 -278q119 125 323 125z" />
    <glyph glyph-name="seven" unicode="7" horiz-adv-x="1050" 
d="M1010 1372v-244l-449 -1128h-362l446 1077h-618v295h983z" />
    <glyph glyph-name="eight" unicode="8" horiz-adv-x="1173" 
d="M585 236q79 0 135 45t56 121t-56 121q-56 44 -135 44t-132 -44t-53 -122q0 -77 52 -121q54 -44 133 -44zM586 1149q-76 0 -127 -42t-51 -117t51 -117t127 -42t129 43t53 117t-53 116t-129 42zM587 -31q-241 0 -391 114t-149 292q0 113 65 197t185 130q-203 94 -203 316
q0 170 138 278t356 107q218 0 355 -108q138 -108 138 -277q1 -222 -204 -316q119 -47 183 -131t64 -196q0 -178 -148 -292t-389 -114z" />
    <glyph glyph-name="nine" unicode="9" horiz-adv-x="1251" 
d="M602 727q82 0 141 57q59 58 59 144t-60 142t-141 56t-143 -57t-62 -143t62 -142t144 -57zM594 1403q266 0 424 -182t158 -510q0 -387 -191 -580q-158 -162 -395 -162q-184 0 -314 87q-129 87 -172 249l318 62q35 -117 180 -117q96 0 168 78q88 98 92 278
q-122 -125 -324 -125t-332 126t-130 330t145 335q146 131 373 131z" />
    <glyph glyph-name="colon" unicode=":" horiz-adv-x="503" 
d="M252 358q80 0 134 -54t54 -131t-53 -130t-134 -53t-134 52t-53 130t53 132t133 54zM252 1016q80 0 134 -54t54 -132t-53 -130q-53 -53 -134 -53t-134 53t-53 130q0 78 53 132t133 54z" />
    <glyph glyph-name="semicolon" unicode=";" horiz-adv-x="573" 
d="M489 319v-8l-235 -581h-248l121 589h362zM321 1016q81 0 134 -54t53 -132t-53 -130q-53 -53 -134 -53t-135 52q-53 52 -53 130t53 133q54 54 135 54z" />
    <glyph glyph-name="less" unicode="&#x3c;" 
d="M1632 471q28 -1 46 -19t18 -49t-18 -50t-46 -19q-27 0 -46 19t-19 49t18 50t47 19zM899 471h51q31 0 31 -28t-31 -27h-51v55zM2087 545h-82v-144l-125 144h-70v-281h88v133l121 -133h68v281zM1452 264v281h-88v-281h88zM1069 449q0 41 -28 69t-72 27h-154v-281h84v88h8
l70 -88h106l-77 92q63 25 63 93zM784 334h-139v37h125v63h-125v37h139v74h-227v-281h227v70zM545 545h-99l-59 -166l-55 166h-96l110 -281h88zM1784 403q0 59 -45 103t-107 43q-62 0 -108 -43q-45 -42 -45 -102t45 -102t107 -42t108 42q45 42 45 101zM1212 549
q-51 0 -83 -24t-31 -68q0 -59 78 -82l55 -15q18 -6 18 -14q1 -18 -33 -18t-40 32l-89 -14q16 -86 130 -86q49 0 85 23t35 69q0 59 -80 82l-55 15q-12 4 -12 20q0 17 26 17t37 -33l84 14q-14 82 -125 82zM1968 905q0 -45 -28 -74t-70 -29t-69 30q-28 28 -27 73q0 45 28 75
q29 30 70 30q40 0 68 -30t28 -75zM391 803v207h43q47 0 79 -30t32 -75t-31 -74t-80 -28h-43zM1599 1116h-139l-110 -217l-105 217h-143v-424h129v180l78 -180h84l77 180v-180h129v424zM1055 803h-207v55h188v96h-188v56h207v106h-336v-424h336v111zM258 1116v-424h184
q104 0 168 60t64 152t-64 152t-168 60h-184zM2101 904q0 93 -66 158q-67 64 -163 64t-164 -64t-68 -158q0 -93 68 -156q68 -64 164 -64t162 64t67 156zM2361 1372v-1372h-2361v1372h2361z" />
    <glyph glyph-name="equal" unicode="=" 
d="M1632 471q28 -1 46 -19t18 -49t-18 -50t-46 -19q-27 0 -46 19t-19 49t18 50t47 19zM899 471h51q31 0 31 -28t-31 -27h-51v55zM2087 545h-82v-144l-125 144h-70v-281h88v133l121 -133h68v281zM1452 264v281h-88v-281h88zM1069 449q0 41 -28 69t-72 27h-154v-281h84v88h8
l70 -88h106l-77 92q63 25 63 93zM784 334h-139v37h125v63h-125v37h139v74h-227v-281h227v70zM545 545h-99l-59 -166l-55 166h-96l110 -281h88zM1784 403q0 59 -45 103t-107 43q-62 0 -108 -43q-45 -42 -45 -102t45 -102t107 -42t108 42q45 42 45 101zM1212 549
q-51 0 -83 -24t-31 -68q0 -59 78 -82l55 -15q18 -6 18 -14q1 -18 -33 -18t-40 32l-89 -14q16 -86 130 -86q49 0 85 23t35 69q0 59 -80 82l-55 15q-12 4 -12 20q0 17 26 17t37 -33l84 14q-14 82 -125 82zM1968 905q0 -45 -28 -74t-70 -29t-69 30q-28 28 -27 73q0 45 28 75
q29 30 70 30q40 0 68 -30t28 -75zM391 803v207h43q47 0 79 -30t32 -75t-31 -74t-80 -28h-43zM1599 1116h-139l-110 -217l-105 217h-143v-424h129v180l78 -180h84l77 180v-180h129v424zM1055 803h-207v55h188v96h-188v56h207v106h-336v-424h336v111zM258 1116v-424h184
q104 0 168 60t64 152t-64 152t-168 60h-184zM2101 904q0 93 -66 158q-67 64 -163 64t-164 -64t-68 -158q0 -93 68 -156q68 -64 164 -64t162 64t67 156zM2361 1372v-1372h-2361v1372h2361z" />
    <glyph glyph-name="greater" unicode="&#x3e;" 
d="M1632 471q28 -1 46 -19t18 -49t-18 -50t-46 -19q-27 0 -46 19t-19 49t18 50t47 19zM899 471h51q31 0 31 -28t-31 -27h-51v55zM2087 545h-82v-144l-125 144h-70v-281h88v133l121 -133h68v281zM1452 264v281h-88v-281h88zM1069 449q0 41 -28 69t-72 27h-154v-281h84v88h8
l70 -88h106l-77 92q63 25 63 93zM784 334h-139v37h125v63h-125v37h139v74h-227v-281h227v70zM545 545h-99l-59 -166l-55 166h-96l110 -281h88zM1784 403q0 59 -45 103t-107 43q-62 0 -108 -43q-45 -42 -45 -102t45 -102t107 -42t108 42q45 42 45 101zM1212 549
q-51 0 -83 -24t-31 -68q0 -59 78 -82l55 -15q18 -6 18 -14q1 -18 -33 -18t-40 32l-89 -14q16 -86 130 -86q49 0 85 23t35 69q0 59 -80 82l-55 15q-12 4 -12 20q0 17 26 17t37 -33l84 14q-14 82 -125 82zM1968 905q0 -45 -28 -74t-70 -29t-69 30q-28 28 -27 73q0 45 28 75
q29 30 70 30q40 0 68 -30t28 -75zM391 803v207h43q47 0 79 -30t32 -75t-31 -74t-80 -28h-43zM1599 1116h-139l-110 -217l-105 217h-143v-424h129v180l78 -180h84l77 180v-180h129v424zM1055 803h-207v55h188v96h-188v56h207v106h-336v-424h336v111zM258 1116v-424h184
q104 0 168 60t64 152t-64 152t-168 60h-184zM2101 904q0 93 -66 158q-67 64 -163 64t-164 -64t-68 -158q0 -93 68 -156q68 -64 164 -64t162 64t67 156zM2361 1372v-1372h-2361v1372h2361z" />
    <glyph glyph-name="question" unicode="?" horiz-adv-x="1112" 
d="M542 352q81 0 134 -53t53 -130t-52 -128t-134 -51t-135 51q-54 51 -54 128t54 130t134 53zM581 1403q220 0 353 -124t133 -318q0 -150 -97 -251t-268 -135v-102h-311v330h164q84 0 136 41q52 40 52 110t-47 116t-126 46t-131 -52t-66 -140l-318 63q23 178 164 297
q142 119 362 119z" />
    <glyph glyph-name="at" unicode="@" horiz-adv-x="1916" 
d="M950 348q80 0 138 58t59 150q0 92 -58 150q-59 58 -139 58t-137 -56t-57 -150t57 -152t137 -58zM1374 961v-570q0 -45 30 -69t73 -25q81 0 123 99t42 229q0 272 -192 443t-484 171q-292 1 -492 -193t-200 -487t198 -483t480 -190t502 169l92 -145q-238 -193 -595 -193
t-606 237q-249 238 -249 602t252 606t616 241q364 0 611 -218q246 -218 246 -552q0 -183 -84 -333q-43 -77 -124 -123t-190 -46q-182 0 -247 125q-98 -121 -276 -121t-293 115q-115 114 -115 306t116 308t279 115q162 0 260 -94v76h227z" />
    <glyph glyph-name="A" unicode="A" horiz-adv-x="1492" 
d="M924 541l-176 450l-175 -450h351zM1493 0h-360l-97 250h-577l-97 -250h-362l573 1372h347z" />
    <glyph glyph-name="B" unicode="B" horiz-adv-x="1355" 
d="M457 272h315q80 0 124 41t44 111t-45 110t-117 39h-321v-301zM457 1100v-295h295q76 0 120 42t46 108q0 65 -44 105t-110 40h-307zM1284 368q0 -160 -117 -264t-336 -104h-712v1372h710q189 0 303 -102t113 -273q1 -129 -71 -205t-154 -83v-9q106 -8 185 -90t79 -242z
" />
    <glyph glyph-name="C" unicode="C" horiz-adv-x="1564" 
d="M72 685q0 302 212 510t517 208q258 0 449 -143t241 -383l-332 -78q-31 145 -126 220t-245 75t-265 -117q-113 -117 -113 -291t114 -292t262 -118q304 0 375 304l332 -66q-47 -254 -235 -399t-476 -145q-286 0 -498 206q-212 207 -212 509z" />
    <glyph glyph-name="D" unicode="D" horiz-adv-x="1484" 
d="M457 293h192q193 -1 309 107t115 286q0 178 -116 286t-308 107h-192v-786zM119 1372h543q338 0 544 -189t207 -497q0 -308 -207 -496q-207 -190 -544 -190h-543v1372z" />
    <glyph glyph-name="E" unicode="E" horiz-adv-x="1280" 
d="M1188 291v-291h-1069v1372h1063v-291h-725v-258h665v-274h-665v-258h731z" />
    <glyph glyph-name="F" unicode="F" horiz-adv-x="1224" 
d="M457 1075v-289h643v-294h-643v-492h-338v1372h1061v-297h-723z" />
    <glyph glyph-name="G" unicode="G" horiz-adv-x="1593" 
d="M758 809h755q8 -66 9 -125q0 -311 -201 -513t-511 -202t-524 207t-214 509t212 510t521 208q236 0 418 -108t252 -304l-326 -94q-100 197 -344 197q-168 0 -281 -117q-112 -117 -112 -291t116 -292t287 -118q133 0 228 66t135 180h-420v287z" />
    <glyph glyph-name="H" unicode="H" horiz-adv-x="1490" 
d="M1370 1372v-1372h-336v543h-577v-543h-338v1372h338v-534h577v534h336z" />
    <glyph glyph-name="I" unicode="I" horiz-adv-x="575" 
d="M457 0h-338v1372h338v-1372z" />
    <glyph glyph-name="J" unicode="J" horiz-adv-x="1245" 
d="M1130 1372v-878q0 -231 -152 -378q-153 -146 -391 -146t-383 124q-144 125 -175 336l327 66q10 -106 68 -166t154 -60t155 62t60 162v878h337z" />
    <glyph glyph-name="K" unicode="K" horiz-adv-x="1413" 
d="M457 516v-516h-338v1372h338v-545h49l467 545h405l-583 -688l624 -684h-442l-449 516h-71z" />
    <glyph glyph-name="L" unicode="L" horiz-adv-x="1202" 
d="M1133 295v-295h-1014v1372h338v-1077h676z" />
    <glyph glyph-name="M" unicode="M" horiz-adv-x="1820" 
d="M1702 1372v-1372h-328v684l-358 -684h-209l-361 688v-688h-327v1372h332l460 -850l461 850h330z" />
    <glyph glyph-name="N" unicode="N" horiz-adv-x="1550" 
d="M1430 1372v-1372h-279l-694 795v-795h-338v1372h280l695 -819v819h336z" />
    <glyph glyph-name="O" unicode="O" horiz-adv-x="1605" 
d="M803 279q169 -1 281 115t112 291t-113 292t-281 117t-280 -117t-112 -292t112 -291q113 -115 281 -115zM803 1403q307 0 519 -209t212 -509t-212 -508t-519 -208t-519 208t-212 508t212 509t519 209z" />
    <glyph glyph-name="P" unicode="P" horiz-adv-x="1359" 
d="M457 702h299q98 0 154 52t56 139q0 86 -56 138q-58 52 -154 52h-299v-381zM119 1372h676q231 0 367 -130t136 -345t-140 -346t-378 -131h-323v-420h-338v1372z" />
    <glyph glyph-name="Q" unicode="Q" horiz-adv-x="1605" 
d="M802 1094q-168 0 -280 -117t-112 -292t112 -291t281 -116t281 116t112 291t-113 292t-281 117zM1534 675q0 -310 -240 -523l226 -271l-254 -225l-281 334q-98 -20 -182 -21q-307 0 -519 208t-212 508t212 509t519 209t519 -209t212 -519z" />
    <glyph glyph-name="R" unicode="R" horiz-adv-x="1390" 
d="M457 754h319q90 0 145 45q54 45 54 120t-54 119t-145 45h-319v-329zM457 471v-471h-338v1372h694q223 0 358 -124t135 -308t-96 -300t-264 -153l430 -487h-407l-414 471h-98z" />
    <glyph glyph-name="S" unicode="S" horiz-adv-x="1323" 
d="M648 1403q234 1 386 -105t191 -292l-332 -68q-18 92 -86 142t-152 50t-135 -40t-51 -99q0 -90 111 -114l284 -64q377 -84 377 -399q0 -211 -162 -328q-163 -117 -403 -117t-407 110t-193 306l348 68q49 -203 270 -203q94 0 149 39q54 39 54 95t-28 85t-99 43l-287 61
q-369 84 -368 398q0 199 149 315q150 116 384 117z" />
    <glyph glyph-name="T" unicode="T" horiz-adv-x="1306" 
d="M1266 1077h-445v-1077h-336v1077h-444v295h1225v-295z" />
    <glyph glyph-name="U" unicode="U" horiz-adv-x="1460" 
d="M1346 1372v-754q0 -295 -167 -472t-445 -177t-448 177t-171 472v754h338v-754q-1 -156 77 -246t204 -91q126 0 200 91t74 246v754h338z" />
    <glyph glyph-name="V" unicode="V" horiz-adv-x="1521" 
d="M1507 1372l-583 -1372h-326l-584 1372h373l373 -909l375 909h372z" />
    <glyph glyph-name="W" unicode="W" horiz-adv-x="1992" 
d="M1980 1372l-391 -1372h-362l-230 848l-231 -848h-360l-392 1372h346l240 -864l236 864h321l236 -864l239 864h348z" />
    <glyph glyph-name="X" unicode="X" horiz-adv-x="1398" 
d="M985 0l-287 467l-284 -467h-400l430 688l-426 684h400l280 -463l283 463h399l-426 -684l430 -688h-399z" />
    <glyph glyph-name="Y" unicode="Y" horiz-adv-x="1445" 
d="M889 0h-344v426l-531 946h369l338 -602l334 602h377l-543 -942v-430z" />
    <glyph glyph-name="Z" unicode="Z" horiz-adv-x="1300" 
d="M1223 285v-285h-1139v217l692 870h-672v285h1102v-258l-641 -829h658z" />
    <glyph glyph-name="bracketleft" unicode="[" horiz-adv-x="839" 
d="M424 1249v-1149h340v-268h-645v1686h645v-269h-340z" />
    <glyph glyph-name="backslash" unicode="\" horiz-adv-x="890" 
d="M860 -147h-239l-590 1665h239z" />
    <glyph glyph-name="bracketright" unicode="]" horiz-adv-x="839" 
d="M721 1518v-1686h-645v268h340v1149h-340v269h645z" />
    <glyph glyph-name="asciicircum" unicode="^" 
d="M1632 471q28 -1 46 -19t18 -49t-18 -50t-46 -19q-27 0 -46 19t-19 49t18 50t47 19zM899 471h51q31 0 31 -28t-31 -27h-51v55zM2087 545h-82v-144l-125 144h-70v-281h88v133l121 -133h68v281zM1452 264v281h-88v-281h88zM1069 449q0 41 -28 69t-72 27h-154v-281h84v88h8
l70 -88h106l-77 92q63 25 63 93zM784 334h-139v37h125v63h-125v37h139v74h-227v-281h227v70zM545 545h-99l-59 -166l-55 166h-96l110 -281h88zM1784 403q0 59 -45 103t-107 43q-62 0 -108 -43q-45 -42 -45 -102t45 -102t107 -42t108 42q45 42 45 101zM1212 549
q-51 0 -83 -24t-31 -68q0 -59 78 -82l55 -15q18 -6 18 -14q1 -18 -33 -18t-40 32l-89 -14q16 -86 130 -86q49 0 85 23t35 69q0 59 -80 82l-55 15q-12 4 -12 20q0 17 26 17t37 -33l84 14q-14 82 -125 82zM1968 905q0 -45 -28 -74t-70 -29t-69 30q-28 28 -27 73q0 45 28 75
q29 30 70 30q40 0 68 -30t28 -75zM391 803v207h43q47 0 79 -30t32 -75t-31 -74t-80 -28h-43zM1599 1116h-139l-110 -217l-105 217h-143v-424h129v180l78 -180h84l77 180v-180h129v424zM1055 803h-207v55h188v96h-188v56h207v106h-336v-424h336v111zM258 1116v-424h184
q104 0 168 60t64 152t-64 152t-168 60h-184zM2101 904q0 93 -66 158q-67 64 -163 64t-164 -64t-68 -158q0 -93 68 -156q68 -64 164 -64t162 64t67 156zM2361 1372v-1372h-2361v1372h2361z" />
    <glyph glyph-name="underscore" unicode="_" horiz-adv-x="1105" 
d="M1065 -358h-1024v243h1024v-243z" />
    <glyph glyph-name="grave" unicode="`" 
d="M1632 471q28 -1 46 -19t18 -49t-18 -50t-46 -19q-27 0 -46 19t-19 49t18 50t47 19zM899 471h51q31 0 31 -28t-31 -27h-51v55zM2087 545h-82v-144l-125 144h-70v-281h88v133l121 -133h68v281zM1452 264v281h-88v-281h88zM1069 449q0 41 -28 69t-72 27h-154v-281h84v88h8
l70 -88h106l-77 92q63 25 63 93zM784 334h-139v37h125v63h-125v37h139v74h-227v-281h227v70zM545 545h-99l-59 -166l-55 166h-96l110 -281h88zM1784 403q0 59 -45 103t-107 43q-62 0 -108 -43q-45 -42 -45 -102t45 -102t107 -42t108 42q45 42 45 101zM1212 549
q-51 0 -83 -24t-31 -68q0 -59 78 -82l55 -15q18 -6 18 -14q1 -18 -33 -18t-40 32l-89 -14q16 -86 130 -86q49 0 85 23t35 69q0 59 -80 82l-55 15q-12 4 -12 20q0 17 26 17t37 -33l84 14q-14 82 -125 82zM1968 905q0 -45 -28 -74t-70 -29t-69 30q-28 28 -27 73q0 45 28 75
q29 30 70 30q40 0 68 -30t28 -75zM391 803v207h43q47 0 79 -30t32 -75t-31 -74t-80 -28h-43zM1599 1116h-139l-110 -217l-105 217h-143v-424h129v180l78 -180h84l77 180v-180h129v424zM1055 803h-207v55h188v96h-188v56h207v106h-336v-424h336v111zM258 1116v-424h184
q104 0 168 60t64 152t-64 152t-168 60h-184zM2101 904q0 93 -66 158q-67 64 -163 64t-164 -64t-68 -158q0 -93 68 -156q68 -64 164 -64t162 64t67 156zM2361 1372v-1372h-2361v1372h2361z" />
    <glyph glyph-name="a" unicode="a" horiz-adv-x="1318" 
d="M618 248q106 0 180 75t74 191t-74 191t-180 75t-176 -74t-70 -193q0 -117 70 -191t176 -74zM1200 1028v-1028h-328v82q-124 -113 -326 -113t-348 153q-146 154 -146 392t146 392t348 153q202 0 326 -113v82h328z" />
    <glyph glyph-name="b" unicode="b" horiz-adv-x="1318" 
d="M446 513q0 -117 75 -191t181 -74t175 74t69 192t-69 192t-175 74t-181 -76t-75 -191zM773 1059q202 0 348 -154q147 -155 147 -393t-146 -390t-349 -153q-202 0 -327 113v-82h-327v1475h327v-529q125 113 327 113z" />
    <glyph glyph-name="c" unicode="c" horiz-adv-x="1187" 
d="M829 590q-40 182 -231 182q-96 0 -164 -73t-68 -187t68 -184q67 -72 178 -72q172 0 224 180l301 -65q-39 -180 -185 -291t-340 -111q-236 0 -398 153q-162 154 -163 392q0 238 163 392t398 153q190 0 336 -109t189 -286z" />
    <glyph glyph-name="d" unicode="d" horiz-adv-x="1318" 
d="M618 248q106 0 180 75t74 191t-74 191t-180 75t-176 -74t-70 -193q0 -117 70 -191t176 -74zM1200 1475v-1475h-328v82q-124 -113 -326 -113t-348 153q-146 154 -146 392t146 392t348 153q202 0 326 -113v529h328z" />
    <glyph glyph-name="e" unicode="e" horiz-adv-x="1177" 
d="M597 793q-73 0 -134 -43t-84 -119h424q-23 80 -78 121t-128 41zM1126 430h-753q19 -92 79 -145t142 -54q154 0 219 119l291 -59q-66 -160 -198 -241t-312 -81q-227 0 -385 153q-158 154 -158 392t158 392t384 153q225 1 377 -149t156 -396v-84z" />
    <glyph glyph-name="f" unicode="f" horiz-adv-x="772" 
d="M504 1028h282v-260h-282v-768h-326v768h-147v260h147v80q0 180 114 288t300 107q104 0 203 -43l-70 -254q-123 40 -184 -18q-37 -35 -37 -94v-66z" />
    <glyph glyph-name="g" unicode="g" horiz-adv-x="1298" 
d="M613 328q103 0 173 66t70 168q0 101 -70 168t-174 67t-174 -66q-68 -66 -68 -168t70 -169q70 -66 173 -66zM1178 1028v-926q0 -231 -159 -361t-417 -130q-367 0 -516 248l272 147q60 -72 112 -100t148 -27q96 0 168 66q70 66 70 184v29q-114 -98 -314 -98t-345 144
t-145 357t144 355q146 142 346 142t314 -97v67h322z" />
    <glyph glyph-name="h" unicode="h" horiz-adv-x="1267" 
d="M756 1059q186 0 296 -118t109 -310v-631h-325v561q0 91 -50 147t-138 56q-89 0 -145 -72t-57 -215v-477h-327v1475h327v-545q124 129 310 129z" />
    <glyph glyph-name="i" unicode="i" horiz-adv-x="598" 
d="M463 0h-328v1028h328v-1028zM299 1518q82 0 136 -56t54 -132q0 -77 -54 -129t-136 -52t-135 52t-53 130q0 79 53 133t135 54z" />
    <glyph glyph-name="j" unicode="j" horiz-adv-x="620" 
d="M81 -84q33 0 57 23t24 59v1030h325v-1067q0 -150 -89 -240t-238 -90q-109 0 -215 43l49 258q53 -16 87 -16zM322 1518q82 0 136 -56t54 -132q0 -77 -54 -129t-136 -52t-136 52q-53 52 -53 130q-1 79 53 133t136 54z" />
    <glyph glyph-name="k" unicode="k" horiz-adv-x="1253" 
d="M446 371v-371h-327v1475h327v-797h46l325 350h395l-450 -489l498 -539h-420l-334 371h-60z" />
    <glyph glyph-name="l" unicode="l" horiz-adv-x="565" 
d="M446 0h-327v1475h327v-1475z" />
    <glyph glyph-name="m" unicode="m" horiz-adv-x="1947" 
d="M1450 1059q168 0 281 -116t112 -300v-643h-325v573q0 87 -50 139t-132 52t-136 -67t-55 -193v-504h-328v573q0 87 -49 139t-133 52t-136 -67t-53 -193v-504h-327v1028h327v-94q113 125 304 125q227 0 335 -174q134 174 365 174z" />
    <glyph glyph-name="n" unicode="n" horiz-adv-x="1265" 
d="M756 1059q186 0 296 -118t109 -310v-631h-325v561q0 91 -50 147t-138 56q-89 0 -145 -71t-57 -216v-477h-327v1028h327v-98q124 129 310 129z" />
    <glyph glyph-name="o" unicode="o" horiz-adv-x="1234" 
d="M619 248q102 0 176 75q73 75 73 191t-74 192q-75 74 -175 74t-177 -74q-76 -75 -76 -192q0 -118 76 -192q75 -74 177 -74zM51 514q0 238 165 390t403 151q237 0 401 -152q164 -153 164 -391t-164 -390t-402 -151q-238 0 -402 152q-165 153 -165 391z" />
    <glyph glyph-name="p" unicode="p" horiz-adv-x="1318" 
d="M446 513q0 -117 75 -191t181 -74t175 74t69 192t-69 192t-175 74t-181 -76t-75 -191zM773 1059q202 0 348 -154q147 -155 147 -393t-146 -390t-349 -153q-202 0 -327 113v-430h-327v1376h327v-82q125 113 327 113z" />
    <glyph glyph-name="q" unicode="q" horiz-adv-x="1318" 
d="M618 248q106 0 180 75t74 191t-74 191t-180 75t-176 -74t-70 -193q0 -117 70 -191t176 -74zM1200 1028v-1376h-328v430q-124 -113 -326 -113t-348 153q-146 154 -146 392t146 392t348 153q202 0 326 -113v82h328z" />
    <glyph glyph-name="r" unicode="r" horiz-adv-x="894" 
d="M801 1042q41 0 73 -8l-14 -327h-59q-354 0 -355 -385v-322h-327v1028h327v-197q128 211 355 211z" />
    <glyph glyph-name="s" unicode="s" horiz-adv-x="1054" 
d="M551 213q61 0 97 24t36 58q0 57 -102 76l-209 41q-299 55 -299 299q0 158 123 253t315 95t316 -80t155 -215l-299 -59q-8 51 -54 86t-112 35t-95 -24q-28 -24 -28 -57q0 -55 78 -71l242 -49q141 -31 213 -112t71 -198q0 -166 -129 -256t-331 -90q-201 1 -333 75t-157 224
l320 66q20 -121 182 -121z" />
    <glyph glyph-name="t" unicode="t" horiz-adv-x="886" 
d="M600 -31q-194 1 -302 105t-108 305v389h-186v260h186v303h328v-303h303v-260h-303v-356q0 -150 137 -150q78 0 150 41l76 -258q-141 -76 -281 -76z" />
    <glyph glyph-name="u" unicode="u" horiz-adv-x="1265" 
d="M1147 1028v-1028h-328v98q-123 -129 -309 -129t-296 118t-110 310v631h326v-561q0 -90 49 -146q49 -57 138 -57t146 71q56 71 56 216v477h328z" />
    <glyph glyph-name="v" unicode="v" horiz-adv-x="1214" 
d="M1200 1030l-426 -1030h-334l-426 1030h346l248 -635l246 635h346z" />
    <glyph glyph-name="w" unicode="w" horiz-adv-x="1628" 
d="M1614 1028l-330 -1030h-285l-184 557l-186 -557h-285l-330 1030h322l168 -553l194 553h232l194 -555l168 555h322z" />
    <glyph glyph-name="x" unicode="x" horiz-adv-x="1236" 
d="M852 498l340 -498h-377l-197 297l-198 -297h-375l338 498l-338 532h375l198 -319l197 319h377z" />
    <glyph glyph-name="y" unicode="y" horiz-adv-x="1236" 
d="M1223 1030l-594 -1378h-355l166 383l-426 995h353l243 -600l260 600h353z" />
    <glyph glyph-name="z" unicode="z" horiz-adv-x="1101" 
d="M1026 260v-260h-950v211l516 557h-504v260h920v-215l-516 -553h534z" />
    <glyph glyph-name="braceleft" unicode="{" horiz-adv-x="862" 
d="M539 1192v-301q0 -164 -127 -217q127 -53 127 -217v-301q0 -59 53 -60h194v-264h-272q-127 0 -204 74t-77 192v316q-1 50 -31 74t-91 44l-70 21v242l70 20q61 20 92 45t30 74v315q0 121 78 195t203 74h272v-267h-194q-53 0 -53 -59z" />
    <glyph glyph-name="bar" unicode="|" 
d="M1632 471q28 -1 46 -19t18 -49t-18 -50t-46 -19q-27 0 -46 19t-19 49t18 50t47 19zM899 471h51q31 0 31 -28t-31 -27h-51v55zM2087 545h-82v-144l-125 144h-70v-281h88v133l121 -133h68v281zM1452 264v281h-88v-281h88zM1069 449q0 41 -28 69t-72 27h-154v-281h84v88h8
l70 -88h106l-77 92q63 25 63 93zM784 334h-139v37h125v63h-125v37h139v74h-227v-281h227v70zM545 545h-99l-59 -166l-55 166h-96l110 -281h88zM1784 403q0 59 -45 103t-107 43q-62 0 -108 -43q-45 -42 -45 -102t45 -102t107 -42t108 42q45 42 45 101zM1212 549
q-51 0 -83 -24t-31 -68q0 -59 78 -82l55 -15q18 -6 18 -14q1 -18 -33 -18t-40 32l-89 -14q16 -86 130 -86q49 0 85 23t35 69q0 59 -80 82l-55 15q-12 4 -12 20q0 17 26 17t37 -33l84 14q-14 82 -125 82zM1968 905q0 -45 -28 -74t-70 -29t-69 30q-28 28 -27 73q0 45 28 75
q29 30 70 30q40 0 68 -30t28 -75zM391 803v207h43q47 0 79 -30t32 -75t-31 -74t-80 -28h-43zM1599 1116h-139l-110 -217l-105 217h-143v-424h129v180l78 -180h84l77 180v-180h129v424zM1055 803h-207v55h188v96h-188v56h207v106h-336v-424h336v111zM258 1116v-424h184
q104 0 168 60t64 152t-64 152t-168 60h-184zM2101 904q0 93 -66 158q-67 64 -163 64t-164 -64t-68 -158q0 -93 68 -156q68 -64 164 -64t162 64t67 156zM2361 1372v-1372h-2361v1372h2361z" />
    <glyph glyph-name="braceright" unicode="}" horiz-adv-x="862" 
d="M627 98q0 -122 -77 -194t-202 -72h-272v264h192q55 0 56 60v301q0 164 127 217q-127 53 -127 217v301q0 59 -56 59h-192v267h272q125 0 202 -74t77 -195v-315q1 -49 31 -74t94 -45l69 -20v-242l-69 -21q-62 -20 -94 -45t-31 -73v-316z" />
    <glyph glyph-name="asciitilde" unicode="~" 
d="M1632 471q28 -1 46 -19t18 -49t-18 -50t-46 -19q-27 0 -46 19t-19 49t18 50t47 19zM899 471h51q31 0 31 -28t-31 -27h-51v55zM2087 545h-82v-144l-125 144h-70v-281h88v133l121 -133h68v281zM1452 264v281h-88v-281h88zM1069 449q0 41 -28 69t-72 27h-154v-281h84v88h8
l70 -88h106l-77 92q63 25 63 93zM784 334h-139v37h125v63h-125v37h139v74h-227v-281h227v70zM545 545h-99l-59 -166l-55 166h-96l110 -281h88zM1784 403q0 59 -45 103t-107 43q-62 0 -108 -43q-45 -42 -45 -102t45 -102t107 -42t108 42q45 42 45 101zM1212 549
q-51 0 -83 -24t-31 -68q0 -59 78 -82l55 -15q18 -6 18 -14q1 -18 -33 -18t-40 32l-89 -14q16 -86 130 -86q49 0 85 23t35 69q0 59 -80 82l-55 15q-12 4 -12 20q0 17 26 17t37 -33l84 14q-14 82 -125 82zM1968 905q0 -45 -28 -74t-70 -29t-69 30q-28 28 -27 73q0 45 28 75
q29 30 70 30q40 0 68 -30t28 -75zM391 803v207h43q47 0 79 -30t32 -75t-31 -74t-80 -28h-43zM1599 1116h-139l-110 -217l-105 217h-143v-424h129v180l78 -180h84l77 180v-180h129v424zM1055 803h-207v55h188v96h-188v56h207v106h-336v-424h336v111zM258 1116v-424h184
q104 0 168 60t64 152t-64 152t-168 60h-184zM2101 904q0 93 -66 158q-67 64 -163 64t-164 -64t-68 -158q0 -93 68 -156q68 -64 164 -64t162 64t67 156zM2361 1372v-1372h-2361v1372h2361z" />
    <glyph glyph-name="exclamdown" unicode="&#xa1;" horiz-adv-x="608" 
d="M487 -326h-364v64l20 840h324l20 -840v-64zM308 694q-81 0 -134 54t-53 130q0 77 53 128t135 51t134 -51q53 -51 53 -128q0 -76 -54 -130t-134 -54z" />
    <glyph glyph-name="cent" unicode="&#xa2;" horiz-adv-x="1187" 
d="M829 590q-40 182 -231 182q-96 0 -164 -73t-68 -187t68 -184q67 -72 178 -72q172 0 224 180l301 -65q-31 -147 -137 -249t-255 -138v-250h-272v252q-186 43 -304 185t-118 343t118 343t304 185v248h272v-246q145 -35 251 -135t141 -245z" />
    <glyph glyph-name="sterling" unicode="&#xa3;" horiz-adv-x="1263" 
d="M557 293h649v-293h-1130v211l151 45v221h-151v281h151v174q0 211 134 341q135 130 351 130t347 -128t147 -335l-315 -57q-20 215 -174 215q-72 0 -116 -45t-44 -121v-174h340v-281h-340v-184z" />
    <glyph glyph-name="yen" unicode="&#xa5;" horiz-adv-x="1429" 
d="M1235 678v-211h-358v-88h358v-213h-358v-166h-338v166h-342v213h342v88h-342v211h235l-397 694h358l316 -569l311 569h375l-410 -694h250z" />
    <glyph glyph-name="section" unicode="&#xa7;" 
d="M1632 471q28 -1 46 -19t18 -49t-18 -50t-46 -19q-27 0 -46 19t-19 49t18 50t47 19zM899 471h51q31 0 31 -28t-31 -27h-51v55zM2087 545h-82v-144l-125 144h-70v-281h88v133l121 -133h68v281zM1452 264v281h-88v-281h88zM1069 449q0 41 -28 69t-72 27h-154v-281h84v88h8
l70 -88h106l-77 92q63 25 63 93zM784 334h-139v37h125v63h-125v37h139v74h-227v-281h227v70zM545 545h-99l-59 -166l-55 166h-96l110 -281h88zM1784 403q0 59 -45 103t-107 43q-62 0 -108 -43q-45 -42 -45 -102t45 -102t107 -42t108 42q45 42 45 101zM1212 549
q-51 0 -83 -24t-31 -68q0 -59 78 -82l55 -15q18 -6 18 -14q1 -18 -33 -18t-40 32l-89 -14q16 -86 130 -86q49 0 85 23t35 69q0 59 -80 82l-55 15q-12 4 -12 20q0 17 26 17t37 -33l84 14q-14 82 -125 82zM1968 905q0 -45 -28 -74t-70 -29t-69 30q-28 28 -27 73q0 45 28 75
q29 30 70 30q40 0 68 -30t28 -75zM391 803v207h43q47 0 79 -30t32 -75t-31 -74t-80 -28h-43zM1599 1116h-139l-110 -217l-105 217h-143v-424h129v180l78 -180h84l77 180v-180h129v424zM1055 803h-207v55h188v96h-188v56h207v106h-336v-424h336v111zM258 1116v-424h184
q104 0 168 60t64 152t-64 152t-168 60h-184zM2101 904q0 93 -66 158q-67 64 -163 64t-164 -64t-68 -158q0 -93 68 -156q68 -64 164 -64t162 64t67 156zM2361 1372v-1372h-2361v1372h2361z" />
    <glyph glyph-name="dieresis" unicode="&#xa8;" 
d="M1632 471q28 -1 46 -19t18 -49t-18 -50t-46 -19q-27 0 -46 19t-19 49t18 50t47 19zM899 471h51q31 0 31 -28t-31 -27h-51v55zM2087 545h-82v-144l-125 144h-70v-281h88v133l121 -133h68v281zM1452 264v281h-88v-281h88zM1069 449q0 41 -28 69t-72 27h-154v-281h84v88h8
l70 -88h106l-77 92q63 25 63 93zM784 334h-139v37h125v63h-125v37h139v74h-227v-281h227v70zM545 545h-99l-59 -166l-55 166h-96l110 -281h88zM1784 403q0 59 -45 103t-107 43q-62 0 -108 -43q-45 -42 -45 -102t45 -102t107 -42t108 42q45 42 45 101zM1212 549
q-51 0 -83 -24t-31 -68q0 -59 78 -82l55 -15q18 -6 18 -14q1 -18 -33 -18t-40 32l-89 -14q16 -86 130 -86q49 0 85 23t35 69q0 59 -80 82l-55 15q-12 4 -12 20q0 17 26 17t37 -33l84 14q-14 82 -125 82zM1968 905q0 -45 -28 -74t-70 -29t-69 30q-28 28 -27 73q0 45 28 75
q29 30 70 30q40 0 68 -30t28 -75zM391 803v207h43q47 0 79 -30t32 -75t-31 -74t-80 -28h-43zM1599 1116h-139l-110 -217l-105 217h-143v-424h129v180l78 -180h84l77 180v-180h129v424zM1055 803h-207v55h188v96h-188v56h207v106h-336v-424h336v111zM258 1116v-424h184
q104 0 168 60t64 152t-64 152t-168 60h-184zM2101 904q0 93 -66 158q-67 64 -163 64t-164 -64t-68 -158q0 -93 68 -156q68 -64 164 -64t162 64t67 156zM2361 1372v-1372h-2361v1372h2361z" />
    <glyph glyph-name="copyright" unicode="&#xa9;" 
d="M1632 471q28 -1 46 -19t18 -49t-18 -50t-46 -19q-27 0 -46 19t-19 49t18 50t47 19zM899 471h51q31 0 31 -28t-31 -27h-51v55zM2087 545h-82v-144l-125 144h-70v-281h88v133l121 -133h68v281zM1452 264v281h-88v-281h88zM1069 449q0 41 -28 69t-72 27h-154v-281h84v88h8
l70 -88h106l-77 92q63 25 63 93zM784 334h-139v37h125v63h-125v37h139v74h-227v-281h227v70zM545 545h-99l-59 -166l-55 166h-96l110 -281h88zM1784 403q0 59 -45 103t-107 43q-62 0 -108 -43q-45 -42 -45 -102t45 -102t107 -42t108 42q45 42 45 101zM1212 549
q-51 0 -83 -24t-31 -68q0 -59 78 -82l55 -15q18 -6 18 -14q1 -18 -33 -18t-40 32l-89 -14q16 -86 130 -86q49 0 85 23t35 69q0 59 -80 82l-55 15q-12 4 -12 20q0 17 26 17t37 -33l84 14q-14 82 -125 82zM1968 905q0 -45 -28 -74t-70 -29t-69 30q-28 28 -27 73q0 45 28 75
q29 30 70 30q40 0 68 -30t28 -75zM391 803v207h43q47 0 79 -30t32 -75t-31 -74t-80 -28h-43zM1599 1116h-139l-110 -217l-105 217h-143v-424h129v180l78 -180h84l77 180v-180h129v424zM1055 803h-207v55h188v96h-188v56h207v106h-336v-424h336v111zM258 1116v-424h184
q104 0 168 60t64 152t-64 152t-168 60h-184zM2101 904q0 93 -66 158q-67 64 -163 64t-164 -64t-68 -158q0 -93 68 -156q68 -64 164 -64t162 64t67 156zM2361 1372v-1372h-2361v1372h2361z" />
    <glyph glyph-name="ordfeminine" unicode="&#xaa;" horiz-adv-x="798" 
d="M387 827q55 0 89 29t34 78v31h-119q-41 -1 -65 -19t-25 -49q0 -70 86 -70zM430 1380q134 0 224 -70t89 -210v-416h-233v39q-76 -57 -190 -57t-184 61t-70 161t79 156q80 57 217 58h148v20q2 37 -22 61t-64 23q-76 0 -100 -76l-213 44q56 206 319 206z" />
    <glyph glyph-name="guillemotleft" unicode="&#xab;" horiz-adv-x="1034" 
d="M461 537l215 364h307l-215 -364l215 -365h-307zM51 537l215 364h307l-215 -364l215 -365h-307z" />
    <glyph glyph-name="registered" unicode="&#xae;" 
d="M1632 471q28 -1 46 -19t18 -49t-18 -50t-46 -19q-27 0 -46 19t-19 49t18 50t47 19zM899 471h51q31 0 31 -28t-31 -27h-51v55zM2087 545h-82v-144l-125 144h-70v-281h88v133l121 -133h68v281zM1452 264v281h-88v-281h88zM1069 449q0 41 -28 69t-72 27h-154v-281h84v88h8
l70 -88h106l-77 92q63 25 63 93zM784 334h-139v37h125v63h-125v37h139v74h-227v-281h227v70zM545 545h-99l-59 -166l-55 166h-96l110 -281h88zM1784 403q0 59 -45 103t-107 43q-62 0 -108 -43q-45 -42 -45 -102t45 -102t107 -42t108 42q45 42 45 101zM1212 549
q-51 0 -83 -24t-31 -68q0 -59 78 -82l55 -15q18 -6 18 -14q1 -18 -33 -18t-40 32l-89 -14q16 -86 130 -86q49 0 85 23t35 69q0 59 -80 82l-55 15q-12 4 -12 20q0 17 26 17t37 -33l84 14q-14 82 -125 82zM1968 905q0 -45 -28 -74t-70 -29t-69 30q-28 28 -27 73q0 45 28 75
q29 30 70 30q40 0 68 -30t28 -75zM391 803v207h43q47 0 79 -30t32 -75t-31 -74t-80 -28h-43zM1599 1116h-139l-110 -217l-105 217h-143v-424h129v180l78 -180h84l77 180v-180h129v424zM1055 803h-207v55h188v96h-188v56h207v106h-336v-424h336v111zM258 1116v-424h184
q104 0 168 60t64 152t-64 152t-168 60h-184zM2101 904q0 93 -66 158q-67 64 -163 64t-164 -64t-68 -158q0 -93 68 -156q68 -64 164 -64t162 64t67 156zM2361 1372v-1372h-2361v1372h2361z" />
    <glyph glyph-name="macron" unicode="&#xaf;" 
d="M1632 471q28 -1 46 -19t18 -49t-18 -50t-46 -19q-27 0 -46 19t-19 49t18 50t47 19zM899 471h51q31 0 31 -28t-31 -27h-51v55zM2087 545h-82v-144l-125 144h-70v-281h88v133l121 -133h68v281zM1452 264v281h-88v-281h88zM1069 449q0 41 -28 69t-72 27h-154v-281h84v88h8
l70 -88h106l-77 92q63 25 63 93zM784 334h-139v37h125v63h-125v37h139v74h-227v-281h227v70zM545 545h-99l-59 -166l-55 166h-96l110 -281h88zM1784 403q0 59 -45 103t-107 43q-62 0 -108 -43q-45 -42 -45 -102t45 -102t107 -42t108 42q45 42 45 101zM1212 549
q-51 0 -83 -24t-31 -68q0 -59 78 -82l55 -15q18 -6 18 -14q1 -18 -33 -18t-40 32l-89 -14q16 -86 130 -86q49 0 85 23t35 69q0 59 -80 82l-55 15q-12 4 -12 20q0 17 26 17t37 -33l84 14q-14 82 -125 82zM1968 905q0 -45 -28 -74t-70 -29t-69 30q-28 28 -27 73q0 45 28 75
q29 30 70 30q40 0 68 -30t28 -75zM391 803v207h43q47 0 79 -30t32 -75t-31 -74t-80 -28h-43zM1599 1116h-139l-110 -217l-105 217h-143v-424h129v180l78 -180h84l77 180v-180h129v424zM1055 803h-207v55h188v96h-188v56h207v106h-336v-424h336v111zM258 1116v-424h184
q104 0 168 60t64 152t-64 152t-168 60h-184zM2101 904q0 93 -66 158q-67 64 -163 64t-164 -64t-68 -158q0 -93 68 -156q68 -64 164 -64t162 64t67 156zM2361 1372v-1372h-2361v1372h2361z" />
    <glyph glyph-name="degree" unicode="&#xb0;" 
d="M1632 471q28 -1 46 -19t18 -49t-18 -50t-46 -19q-27 0 -46 19t-19 49t18 50t47 19zM899 471h51q31 0 31 -28t-31 -27h-51v55zM2087 545h-82v-144l-125 144h-70v-281h88v133l121 -133h68v281zM1452 264v281h-88v-281h88zM1069 449q0 41 -28 69t-72 27h-154v-281h84v88h8
l70 -88h106l-77 92q63 25 63 93zM784 334h-139v37h125v63h-125v37h139v74h-227v-281h227v70zM545 545h-99l-59 -166l-55 166h-96l110 -281h88zM1784 403q0 59 -45 103t-107 43q-62 0 -108 -43q-45 -42 -45 -102t45 -102t107 -42t108 42q45 42 45 101zM1212 549
q-51 0 -83 -24t-31 -68q0 -59 78 -82l55 -15q18 -6 18 -14q1 -18 -33 -18t-40 32l-89 -14q16 -86 130 -86q49 0 85 23t35 69q0 59 -80 82l-55 15q-12 4 -12 20q0 17 26 17t37 -33l84 14q-14 82 -125 82zM1968 905q0 -45 -28 -74t-70 -29t-69 30q-28 28 -27 73q0 45 28 75
q29 30 70 30q40 0 68 -30t28 -75zM391 803v207h43q47 0 79 -30t32 -75t-31 -74t-80 -28h-43zM1599 1116h-139l-110 -217l-105 217h-143v-424h129v180l78 -180h84l77 180v-180h129v424zM1055 803h-207v55h188v96h-188v56h207v106h-336v-424h336v111zM258 1116v-424h184
q104 0 168 60t64 152t-64 152t-168 60h-184zM2101 904q0 93 -66 158q-67 64 -163 64t-164 -64t-68 -158q0 -93 68 -156q68 -64 164 -64t162 64t67 156zM2361 1372v-1372h-2361v1372h2361z" />
    <glyph glyph-name="plusminus" unicode="&#xb1;" 
d="M1632 471q28 -1 46 -19t18 -49t-18 -50t-46 -19q-27 0 -46 19t-19 49t18 50t47 19zM899 471h51q31 0 31 -28t-31 -27h-51v55zM2087 545h-82v-144l-125 144h-70v-281h88v133l121 -133h68v281zM1452 264v281h-88v-281h88zM1069 449q0 41 -28 69t-72 27h-154v-281h84v88h8
l70 -88h106l-77 92q63 25 63 93zM784 334h-139v37h125v63h-125v37h139v74h-227v-281h227v70zM545 545h-99l-59 -166l-55 166h-96l110 -281h88zM1784 403q0 59 -45 103t-107 43q-62 0 -108 -43q-45 -42 -45 -102t45 -102t107 -42t108 42q45 42 45 101zM1212 549
q-51 0 -83 -24t-31 -68q0 -59 78 -82l55 -15q18 -6 18 -14q1 -18 -33 -18t-40 32l-89 -14q16 -86 130 -86q49 0 85 23t35 69q0 59 -80 82l-55 15q-12 4 -12 20q0 17 26 17t37 -33l84 14q-14 82 -125 82zM1968 905q0 -45 -28 -74t-70 -29t-69 30q-28 28 -27 73q0 45 28 75
q29 30 70 30q40 0 68 -30t28 -75zM391 803v207h43q47 0 79 -30t32 -75t-31 -74t-80 -28h-43zM1599 1116h-139l-110 -217l-105 217h-143v-424h129v180l78 -180h84l77 180v-180h129v424zM1055 803h-207v55h188v96h-188v56h207v106h-336v-424h336v111zM258 1116v-424h184
q104 0 168 60t64 152t-64 152t-168 60h-184zM2101 904q0 93 -66 158q-67 64 -163 64t-164 -64t-68 -158q0 -93 68 -156q68 -64 164 -64t162 64t67 156zM2361 1372v-1372h-2361v1372h2361z" />
    <glyph glyph-name="acute" unicode="&#xb4;" 
d="M1632 471q28 -1 46 -19t18 -49t-18 -50t-46 -19q-27 0 -46 19t-19 49t18 50t47 19zM899 471h51q31 0 31 -28t-31 -27h-51v55zM2087 545h-82v-144l-125 144h-70v-281h88v133l121 -133h68v281zM1452 264v281h-88v-281h88zM1069 449q0 41 -28 69t-72 27h-154v-281h84v88h8
l70 -88h106l-77 92q63 25 63 93zM784 334h-139v37h125v63h-125v37h139v74h-227v-281h227v70zM545 545h-99l-59 -166l-55 166h-96l110 -281h88zM1784 403q0 59 -45 103t-107 43q-62 0 -108 -43q-45 -42 -45 -102t45 -102t107 -42t108 42q45 42 45 101zM1212 549
q-51 0 -83 -24t-31 -68q0 -59 78 -82l55 -15q18 -6 18 -14q1 -18 -33 -18t-40 32l-89 -14q16 -86 130 -86q49 0 85 23t35 69q0 59 -80 82l-55 15q-12 4 -12 20q0 17 26 17t37 -33l84 14q-14 82 -125 82zM1968 905q0 -45 -28 -74t-70 -29t-69 30q-28 28 -27 73q0 45 28 75
q29 30 70 30q40 0 68 -30t28 -75zM391 803v207h43q47 0 79 -30t32 -75t-31 -74t-80 -28h-43zM1599 1116h-139l-110 -217l-105 217h-143v-424h129v180l78 -180h84l77 180v-180h129v424zM1055 803h-207v55h188v96h-188v56h207v106h-336v-424h336v111zM258 1116v-424h184
q104 0 168 60t64 152t-64 152t-168 60h-184zM2101 904q0 93 -66 158q-67 64 -163 64t-164 -64t-68 -158q0 -93 68 -156q68 -64 164 -64t162 64t67 156zM2361 1372v-1372h-2361v1372h2361z" />
    <glyph glyph-name="paragraph" unicode="&#xb6;" 
d="M1632 471q28 -1 46 -19t18 -49t-18 -50t-46 -19q-27 0 -46 19t-19 49t18 50t47 19zM899 471h51q31 0 31 -28t-31 -27h-51v55zM2087 545h-82v-144l-125 144h-70v-281h88v133l121 -133h68v281zM1452 264v281h-88v-281h88zM1069 449q0 41 -28 69t-72 27h-154v-281h84v88h8
l70 -88h106l-77 92q63 25 63 93zM784 334h-139v37h125v63h-125v37h139v74h-227v-281h227v70zM545 545h-99l-59 -166l-55 166h-96l110 -281h88zM1784 403q0 59 -45 103t-107 43q-62 0 -108 -43q-45 -42 -45 -102t45 -102t107 -42t108 42q45 42 45 101zM1212 549
q-51 0 -83 -24t-31 -68q0 -59 78 -82l55 -15q18 -6 18 -14q1 -18 -33 -18t-40 32l-89 -14q16 -86 130 -86q49 0 85 23t35 69q0 59 -80 82l-55 15q-12 4 -12 20q0 17 26 17t37 -33l84 14q-14 82 -125 82zM1968 905q0 -45 -28 -74t-70 -29t-69 30q-28 28 -27 73q0 45 28 75
q29 30 70 30q40 0 68 -30t28 -75zM391 803v207h43q47 0 79 -30t32 -75t-31 -74t-80 -28h-43zM1599 1116h-139l-110 -217l-105 217h-143v-424h129v180l78 -180h84l77 180v-180h129v424zM1055 803h-207v55h188v96h-188v56h207v106h-336v-424h336v111zM258 1116v-424h184
q104 0 168 60t64 152t-64 152t-168 60h-184zM2101 904q0 93 -66 158q-67 64 -163 64t-164 -64t-68 -158q0 -93 68 -156q68 -64 164 -64t162 64t67 156zM2361 1372v-1372h-2361v1372h2361z" />
    <glyph glyph-name="periodcentered" unicode="&#xb7;" horiz-adv-x="503" 
d="M252 719q80 0 134 -54t54 -131q0 -76 -53 -130t-134 -54t-134 52t-53 130t53 133q53 54 133 54z" />
    <glyph glyph-name="cedilla" unicode="&#xb8;" 
d="M1632 471q28 -1 46 -19t18 -49t-18 -50t-46 -19q-27 0 -46 19t-19 49t18 50t47 19zM899 471h51q31 0 31 -28t-31 -27h-51v55zM2087 545h-82v-144l-125 144h-70v-281h88v133l121 -133h68v281zM1452 264v281h-88v-281h88zM1069 449q0 41 -28 69t-72 27h-154v-281h84v88h8
l70 -88h106l-77 92q63 25 63 93zM784 334h-139v37h125v63h-125v37h139v74h-227v-281h227v70zM545 545h-99l-59 -166l-55 166h-96l110 -281h88zM1784 403q0 59 -45 103t-107 43q-62 0 -108 -43q-45 -42 -45 -102t45 -102t107 -42t108 42q45 42 45 101zM1212 549
q-51 0 -83 -24t-31 -68q0 -59 78 -82l55 -15q18 -6 18 -14q1 -18 -33 -18t-40 32l-89 -14q16 -86 130 -86q49 0 85 23t35 69q0 59 -80 82l-55 15q-12 4 -12 20q0 17 26 17t37 -33l84 14q-14 82 -125 82zM1968 905q0 -45 -28 -74t-70 -29t-69 30q-28 28 -27 73q0 45 28 75
q29 30 70 30q40 0 68 -30t28 -75zM391 803v207h43q47 0 79 -30t32 -75t-31 -74t-80 -28h-43zM1599 1116h-139l-110 -217l-105 217h-143v-424h129v180l78 -180h84l77 180v-180h129v424zM1055 803h-207v55h188v96h-188v56h207v106h-336v-424h336v111zM258 1116v-424h184
q104 0 168 60t64 152t-64 152t-168 60h-184zM2101 904q0 93 -66 158q-67 64 -163 64t-164 -64t-68 -158q0 -93 68 -156q68 -64 164 -64t162 64t67 156zM2361 1372v-1372h-2361v1372h2361z" />
    <glyph glyph-name="ordmasculine" unicode="&#xba;" horiz-adv-x="864" 
d="M289 1022q0 -62 41 -106t101 -44t104 43q43 43 43 107t-43 107q-43 45 -103 45t-102 -44q-41 -44 -41 -108zM430 666q-156 0 -266 100t-109 257q-1 157 109 257t268 100t268 -100t109 -257q0 -157 -111 -257q-112 -100 -268 -100z" />
    <glyph glyph-name="guillemotright" unicode="&#xbb;" horiz-adv-x="1034" 
d="M461 172l215 365l-215 364h307l215 -364l-215 -365h-307zM51 172l215 365l-215 364h307l215 -364l-215 -365h-307z" />
    <glyph glyph-name="onequarter" unicode="&#xbc;" 
d="M1632 471q28 -1 46 -19t18 -49t-18 -50t-46 -19q-27 0 -46 19t-19 49t18 50t47 19zM899 471h51q31 0 31 -28t-31 -27h-51v55zM2087 545h-82v-144l-125 144h-70v-281h88v133l121 -133h68v281zM1452 264v281h-88v-281h88zM1069 449q0 41 -28 69t-72 27h-154v-281h84v88h8
l70 -88h106l-77 92q63 25 63 93zM784 334h-139v37h125v63h-125v37h139v74h-227v-281h227v70zM545 545h-99l-59 -166l-55 166h-96l110 -281h88zM1784 403q0 59 -45 103t-107 43q-62 0 -108 -43q-45 -42 -45 -102t45 -102t107 -42t108 42q45 42 45 101zM1212 549
q-51 0 -83 -24t-31 -68q0 -59 78 -82l55 -15q18 -6 18 -14q1 -18 -33 -18t-40 32l-89 -14q16 -86 130 -86q49 0 85 23t35 69q0 59 -80 82l-55 15q-12 4 -12 20q0 17 26 17t37 -33l84 14q-14 82 -125 82zM1968 905q0 -45 -28 -74t-70 -29t-69 30q-28 28 -27 73q0 45 28 75
q29 30 70 30q40 0 68 -30t28 -75zM391 803v207h43q47 0 79 -30t32 -75t-31 -74t-80 -28h-43zM1599 1116h-139l-110 -217l-105 217h-143v-424h129v180l78 -180h84l77 180v-180h129v424zM1055 803h-207v55h188v96h-188v56h207v106h-336v-424h336v111zM258 1116v-424h184
q104 0 168 60t64 152t-64 152t-168 60h-184zM2101 904q0 93 -66 158q-67 64 -163 64t-164 -64t-68 -158q0 -93 68 -156q68 -64 164 -64t162 64t67 156zM2361 1372v-1372h-2361v1372h2361z" />
    <glyph glyph-name="onehalf" unicode="&#xbd;" 
d="M1632 471q28 -1 46 -19t18 -49t-18 -50t-46 -19q-27 0 -46 19t-19 49t18 50t47 19zM899 471h51q31 0 31 -28t-31 -27h-51v55zM2087 545h-82v-144l-125 144h-70v-281h88v133l121 -133h68v281zM1452 264v281h-88v-281h88zM1069 449q0 41 -28 69t-72 27h-154v-281h84v88h8
l70 -88h106l-77 92q63 25 63 93zM784 334h-139v37h125v63h-125v37h139v74h-227v-281h227v70zM545 545h-99l-59 -166l-55 166h-96l110 -281h88zM1784 403q0 59 -45 103t-107 43q-62 0 -108 -43q-45 -42 -45 -102t45 -102t107 -42t108 42q45 42 45 101zM1212 549
q-51 0 -83 -24t-31 -68q0 -59 78 -82l55 -15q18 -6 18 -14q1 -18 -33 -18t-40 32l-89 -14q16 -86 130 -86q49 0 85 23t35 69q0 59 -80 82l-55 15q-12 4 -12 20q0 17 26 17t37 -33l84 14q-14 82 -125 82zM1968 905q0 -45 -28 -74t-70 -29t-69 30q-28 28 -27 73q0 45 28 75
q29 30 70 30q40 0 68 -30t28 -75zM391 803v207h43q47 0 79 -30t32 -75t-31 -74t-80 -28h-43zM1599 1116h-139l-110 -217l-105 217h-143v-424h129v180l78 -180h84l77 180v-180h129v424zM1055 803h-207v55h188v96h-188v56h207v106h-336v-424h336v111zM258 1116v-424h184
q104 0 168 60t64 152t-64 152t-168 60h-184zM2101 904q0 93 -66 158q-67 64 -163 64t-164 -64t-68 -158q0 -93 68 -156q68 -64 164 -64t162 64t67 156zM2361 1372v-1372h-2361v1372h2361z" />
    <glyph glyph-name="threequarters" unicode="&#xbe;" 
d="M1632 471q28 -1 46 -19t18 -49t-18 -50t-46 -19q-27 0 -46 19t-19 49t18 50t47 19zM899 471h51q31 0 31 -28t-31 -27h-51v55zM2087 545h-82v-144l-125 144h-70v-281h88v133l121 -133h68v281zM1452 264v281h-88v-281h88zM1069 449q0 41 -28 69t-72 27h-154v-281h84v88h8
l70 -88h106l-77 92q63 25 63 93zM784 334h-139v37h125v63h-125v37h139v74h-227v-281h227v70zM545 545h-99l-59 -166l-55 166h-96l110 -281h88zM1784 403q0 59 -45 103t-107 43q-62 0 -108 -43q-45 -42 -45 -102t45 -102t107 -42t108 42q45 42 45 101zM1212 549
q-51 0 -83 -24t-31 -68q0 -59 78 -82l55 -15q18 -6 18 -14q1 -18 -33 -18t-40 32l-89 -14q16 -86 130 -86q49 0 85 23t35 69q0 59 -80 82l-55 15q-12 4 -12 20q0 17 26 17t37 -33l84 14q-14 82 -125 82zM1968 905q0 -45 -28 -74t-70 -29t-69 30q-28 28 -27 73q0 45 28 75
q29 30 70 30q40 0 68 -30t28 -75zM391 803v207h43q47 0 79 -30t32 -75t-31 -74t-80 -28h-43zM1599 1116h-139l-110 -217l-105 217h-143v-424h129v180l78 -180h84l77 180v-180h129v424zM1055 803h-207v55h188v96h-188v56h207v106h-336v-424h336v111zM258 1116v-424h184
q104 0 168 60t64 152t-64 152t-168 60h-184zM2101 904q0 93 -66 158q-67 64 -163 64t-164 -64t-68 -158q0 -93 68 -156q68 -64 164 -64t162 64t67 156zM2361 1372v-1372h-2361v1372h2361z" />
    <glyph glyph-name="questiondown" unicode="&#xbf;" horiz-adv-x="1112" 
d="M45 86q0 150 97 251t268 134v102h311v-329h-164q-84 0 -136 -41t-52 -111t47 -116t125 -46t130 52t66 141l320 -64q-23 -176 -165 -296q-142 -119 -362 -119t-352 124q-133 124 -133 318zM569 694q-80 0 -134 54t-54 131q0 76 53 127t135 51t134 -51q53 -51 53 -127
q0 -77 -54 -131t-133 -54z" />
    <glyph glyph-name="Agrave" unicode="&#xc0;" 
d="M1632 471q28 -1 46 -19t18 -49t-18 -50t-46 -19q-27 0 -46 19t-19 49t18 50t47 19zM899 471h51q31 0 31 -28t-31 -27h-51v55zM2087 545h-82v-144l-125 144h-70v-281h88v133l121 -133h68v281zM1452 264v281h-88v-281h88zM1069 449q0 41 -28 69t-72 27h-154v-281h84v88h8
l70 -88h106l-77 92q63 25 63 93zM784 334h-139v37h125v63h-125v37h139v74h-227v-281h227v70zM545 545h-99l-59 -166l-55 166h-96l110 -281h88zM1784 403q0 59 -45 103t-107 43q-62 0 -108 -43q-45 -42 -45 -102t45 -102t107 -42t108 42q45 42 45 101zM1212 549
q-51 0 -83 -24t-31 -68q0 -59 78 -82l55 -15q18 -6 18 -14q1 -18 -33 -18t-40 32l-89 -14q16 -86 130 -86q49 0 85 23t35 69q0 59 -80 82l-55 15q-12 4 -12 20q0 17 26 17t37 -33l84 14q-14 82 -125 82zM1968 905q0 -45 -28 -74t-70 -29t-69 30q-28 28 -27 73q0 45 28 75
q29 30 70 30q40 0 68 -30t28 -75zM391 803v207h43q47 0 79 -30t32 -75t-31 -74t-80 -28h-43zM1599 1116h-139l-110 -217l-105 217h-143v-424h129v180l78 -180h84l77 180v-180h129v424zM1055 803h-207v55h188v96h-188v56h207v106h-336v-424h336v111zM258 1116v-424h184
q104 0 168 60t64 152t-64 152t-168 60h-184zM2101 904q0 93 -66 158q-67 64 -163 64t-164 -64t-68 -158q0 -93 68 -156q68 -64 164 -64t162 64t67 156zM2361 1372v-1372h-2361v1372h2361z" />
    <glyph glyph-name="Aacute" unicode="&#xc1;" 
d="M1632 471q28 -1 46 -19t18 -49t-18 -50t-46 -19q-27 0 -46 19t-19 49t18 50t47 19zM899 471h51q31 0 31 -28t-31 -27h-51v55zM2087 545h-82v-144l-125 144h-70v-281h88v133l121 -133h68v281zM1452 264v281h-88v-281h88zM1069 449q0 41 -28 69t-72 27h-154v-281h84v88h8
l70 -88h106l-77 92q63 25 63 93zM784 334h-139v37h125v63h-125v37h139v74h-227v-281h227v70zM545 545h-99l-59 -166l-55 166h-96l110 -281h88zM1784 403q0 59 -45 103t-107 43q-62 0 -108 -43q-45 -42 -45 -102t45 -102t107 -42t108 42q45 42 45 101zM1212 549
q-51 0 -83 -24t-31 -68q0 -59 78 -82l55 -15q18 -6 18 -14q1 -18 -33 -18t-40 32l-89 -14q16 -86 130 -86q49 0 85 23t35 69q0 59 -80 82l-55 15q-12 4 -12 20q0 17 26 17t37 -33l84 14q-14 82 -125 82zM1968 905q0 -45 -28 -74t-70 -29t-69 30q-28 28 -27 73q0 45 28 75
q29 30 70 30q40 0 68 -30t28 -75zM391 803v207h43q47 0 79 -30t32 -75t-31 -74t-80 -28h-43zM1599 1116h-139l-110 -217l-105 217h-143v-424h129v180l78 -180h84l77 180v-180h129v424zM1055 803h-207v55h188v96h-188v56h207v106h-336v-424h336v111zM258 1116v-424h184
q104 0 168 60t64 152t-64 152t-168 60h-184zM2101 904q0 93 -66 158q-67 64 -163 64t-164 -64t-68 -158q0 -93 68 -156q68 -64 164 -64t162 64t67 156zM2361 1372v-1372h-2361v1372h2361z" />
    <glyph glyph-name="Acircumflex" unicode="&#xc2;" 
d="M1632 471q28 -1 46 -19t18 -49t-18 -50t-46 -19q-27 0 -46 19t-19 49t18 50t47 19zM899 471h51q31 0 31 -28t-31 -27h-51v55zM2087 545h-82v-144l-125 144h-70v-281h88v133l121 -133h68v281zM1452 264v281h-88v-281h88zM1069 449q0 41 -28 69t-72 27h-154v-281h84v88h8
l70 -88h106l-77 92q63 25 63 93zM784 334h-139v37h125v63h-125v37h139v74h-227v-281h227v70zM545 545h-99l-59 -166l-55 166h-96l110 -281h88zM1784 403q0 59 -45 103t-107 43q-62 0 -108 -43q-45 -42 -45 -102t45 -102t107 -42t108 42q45 42 45 101zM1212 549
q-51 0 -83 -24t-31 -68q0 -59 78 -82l55 -15q18 -6 18 -14q1 -18 -33 -18t-40 32l-89 -14q16 -86 130 -86q49 0 85 23t35 69q0 59 -80 82l-55 15q-12 4 -12 20q0 17 26 17t37 -33l84 14q-14 82 -125 82zM1968 905q0 -45 -28 -74t-70 -29t-69 30q-28 28 -27 73q0 45 28 75
q29 30 70 30q40 0 68 -30t28 -75zM391 803v207h43q47 0 79 -30t32 -75t-31 -74t-80 -28h-43zM1599 1116h-139l-110 -217l-105 217h-143v-424h129v180l78 -180h84l77 180v-180h129v424zM1055 803h-207v55h188v96h-188v56h207v106h-336v-424h336v111zM258 1116v-424h184
q104 0 168 60t64 152t-64 152t-168 60h-184zM2101 904q0 93 -66 158q-67 64 -163 64t-164 -64t-68 -158q0 -93 68 -156q68 -64 164 -64t162 64t67 156zM2361 1372v-1372h-2361v1372h2361z" />
    <glyph glyph-name="Atilde" unicode="&#xc3;" 
d="M1632 471q28 -1 46 -19t18 -49t-18 -50t-46 -19q-27 0 -46 19t-19 49t18 50t47 19zM899 471h51q31 0 31 -28t-31 -27h-51v55zM2087 545h-82v-144l-125 144h-70v-281h88v133l121 -133h68v281zM1452 264v281h-88v-281h88zM1069 449q0 41 -28 69t-72 27h-154v-281h84v88h8
l70 -88h106l-77 92q63 25 63 93zM784 334h-139v37h125v63h-125v37h139v74h-227v-281h227v70zM545 545h-99l-59 -166l-55 166h-96l110 -281h88zM1784 403q0 59 -45 103t-107 43q-62 0 -108 -43q-45 -42 -45 -102t45 -102t107 -42t108 42q45 42 45 101zM1212 549
q-51 0 -83 -24t-31 -68q0 -59 78 -82l55 -15q18 -6 18 -14q1 -18 -33 -18t-40 32l-89 -14q16 -86 130 -86q49 0 85 23t35 69q0 59 -80 82l-55 15q-12 4 -12 20q0 17 26 17t37 -33l84 14q-14 82 -125 82zM1968 905q0 -45 -28 -74t-70 -29t-69 30q-28 28 -27 73q0 45 28 75
q29 30 70 30q40 0 68 -30t28 -75zM391 803v207h43q47 0 79 -30t32 -75t-31 -74t-80 -28h-43zM1599 1116h-139l-110 -217l-105 217h-143v-424h129v180l78 -180h84l77 180v-180h129v424zM1055 803h-207v55h188v96h-188v56h207v106h-336v-424h336v111zM258 1116v-424h184
q104 0 168 60t64 152t-64 152t-168 60h-184zM2101 904q0 93 -66 158q-67 64 -163 64t-164 -64t-68 -158q0 -93 68 -156q68 -64 164 -64t162 64t67 156zM2361 1372v-1372h-2361v1372h2361z" />
    <glyph glyph-name="Adieresis" unicode="&#xc4;" 
d="M1632 471q28 -1 46 -19t18 -49t-18 -50t-46 -19q-27 0 -46 19t-19 49t18 50t47 19zM899 471h51q31 0 31 -28t-31 -27h-51v55zM2087 545h-82v-144l-125 144h-70v-281h88v133l121 -133h68v281zM1452 264v281h-88v-281h88zM1069 449q0 41 -28 69t-72 27h-154v-281h84v88h8
l70 -88h106l-77 92q63 25 63 93zM784 334h-139v37h125v63h-125v37h139v74h-227v-281h227v70zM545 545h-99l-59 -166l-55 166h-96l110 -281h88zM1784 403q0 59 -45 103t-107 43q-62 0 -108 -43q-45 -42 -45 -102t45 -102t107 -42t108 42q45 42 45 101zM1212 549
q-51 0 -83 -24t-31 -68q0 -59 78 -82l55 -15q18 -6 18 -14q1 -18 -33 -18t-40 32l-89 -14q16 -86 130 -86q49 0 85 23t35 69q0 59 -80 82l-55 15q-12 4 -12 20q0 17 26 17t37 -33l84 14q-14 82 -125 82zM1968 905q0 -45 -28 -74t-70 -29t-69 30q-28 28 -27 73q0 45 28 75
q29 30 70 30q40 0 68 -30t28 -75zM391 803v207h43q47 0 79 -30t32 -75t-31 -74t-80 -28h-43zM1599 1116h-139l-110 -217l-105 217h-143v-424h129v180l78 -180h84l77 180v-180h129v424zM1055 803h-207v55h188v96h-188v56h207v106h-336v-424h336v111zM258 1116v-424h184
q104 0 168 60t64 152t-64 152t-168 60h-184zM2101 904q0 93 -66 158q-67 64 -163 64t-164 -64t-68 -158q0 -93 68 -156q68 -64 164 -64t162 64t67 156zM2361 1372v-1372h-2361v1372h2361z" />
    <glyph glyph-name="Aring" unicode="&#xc5;" 
d="M1632 471q28 -1 46 -19t18 -49t-18 -50t-46 -19q-27 0 -46 19t-19 49t18 50t47 19zM899 471h51q31 0 31 -28t-31 -27h-51v55zM2087 545h-82v-144l-125 144h-70v-281h88v133l121 -133h68v281zM1452 264v281h-88v-281h88zM1069 449q0 41 -28 69t-72 27h-154v-281h84v88h8
l70 -88h106l-77 92q63 25 63 93zM784 334h-139v37h125v63h-125v37h139v74h-227v-281h227v70zM545 545h-99l-59 -166l-55 166h-96l110 -281h88zM1784 403q0 59 -45 103t-107 43q-62 0 -108 -43q-45 -42 -45 -102t45 -102t107 -42t108 42q45 42 45 101zM1212 549
q-51 0 -83 -24t-31 -68q0 -59 78 -82l55 -15q18 -6 18 -14q1 -18 -33 -18t-40 32l-89 -14q16 -86 130 -86q49 0 85 23t35 69q0 59 -80 82l-55 15q-12 4 -12 20q0 17 26 17t37 -33l84 14q-14 82 -125 82zM1968 905q0 -45 -28 -74t-70 -29t-69 30q-28 28 -27 73q0 45 28 75
q29 30 70 30q40 0 68 -30t28 -75zM391 803v207h43q47 0 79 -30t32 -75t-31 -74t-80 -28h-43zM1599 1116h-139l-110 -217l-105 217h-143v-424h129v180l78 -180h84l77 180v-180h129v424zM1055 803h-207v55h188v96h-188v56h207v106h-336v-424h336v111zM258 1116v-424h184
q104 0 168 60t64 152t-64 152t-168 60h-184zM2101 904q0 93 -66 158q-67 64 -163 64t-164 -64t-68 -158q0 -93 68 -156q68 -64 164 -64t162 64t67 156zM2361 1372v-1372h-2361v1372h2361z" />
    <glyph glyph-name="AE" unicode="&#xc6;" horiz-adv-x="2142" 
d="M995 514v494l-295 -494h295zM2062 291v-291h-1067v223h-469l-133 -223h-393l879 1372h1177v-291h-725v-258h668v-274h-668v-258h731z" />
    <glyph glyph-name="Ccedilla" unicode="&#xc7;" 
d="M1632 471q28 -1 46 -19t18 -49t-18 -50t-46 -19q-27 0 -46 19t-19 49t18 50t47 19zM899 471h51q31 0 31 -28t-31 -27h-51v55zM2087 545h-82v-144l-125 144h-70v-281h88v133l121 -133h68v281zM1452 264v281h-88v-281h88zM1069 449q0 41 -28 69t-72 27h-154v-281h84v88h8
l70 -88h106l-77 92q63 25 63 93zM784 334h-139v37h125v63h-125v37h139v74h-227v-281h227v70zM545 545h-99l-59 -166l-55 166h-96l110 -281h88zM1784 403q0 59 -45 103t-107 43q-62 0 -108 -43q-45 -42 -45 -102t45 -102t107 -42t108 42q45 42 45 101zM1212 549
q-51 0 -83 -24t-31 -68q0 -59 78 -82l55 -15q18 -6 18 -14q1 -18 -33 -18t-40 32l-89 -14q16 -86 130 -86q49 0 85 23t35 69q0 59 -80 82l-55 15q-12 4 -12 20q0 17 26 17t37 -33l84 14q-14 82 -125 82zM1968 905q0 -45 -28 -74t-70 -29t-69 30q-28 28 -27 73q0 45 28 75
q29 30 70 30q40 0 68 -30t28 -75zM391 803v207h43q47 0 79 -30t32 -75t-31 -74t-80 -28h-43zM1599 1116h-139l-110 -217l-105 217h-143v-424h129v180l78 -180h84l77 180v-180h129v424zM1055 803h-207v55h188v96h-188v56h207v106h-336v-424h336v111zM258 1116v-424h184
q104 0 168 60t64 152t-64 152t-168 60h-184zM2101 904q0 93 -66 158q-67 64 -163 64t-164 -64t-68 -158q0 -93 68 -156q68 -64 164 -64t162 64t67 156zM2361 1372v-1372h-2361v1372h2361z" />
    <glyph glyph-name="Egrave" unicode="&#xc8;" 
d="M1632 471q28 -1 46 -19t18 -49t-18 -50t-46 -19q-27 0 -46 19t-19 49t18 50t47 19zM899 471h51q31 0 31 -28t-31 -27h-51v55zM2087 545h-82v-144l-125 144h-70v-281h88v133l121 -133h68v281zM1452 264v281h-88v-281h88zM1069 449q0 41 -28 69t-72 27h-154v-281h84v88h8
l70 -88h106l-77 92q63 25 63 93zM784 334h-139v37h125v63h-125v37h139v74h-227v-281h227v70zM545 545h-99l-59 -166l-55 166h-96l110 -281h88zM1784 403q0 59 -45 103t-107 43q-62 0 -108 -43q-45 -42 -45 -102t45 -102t107 -42t108 42q45 42 45 101zM1212 549
q-51 0 -83 -24t-31 -68q0 -59 78 -82l55 -15q18 -6 18 -14q1 -18 -33 -18t-40 32l-89 -14q16 -86 130 -86q49 0 85 23t35 69q0 59 -80 82l-55 15q-12 4 -12 20q0 17 26 17t37 -33l84 14q-14 82 -125 82zM1968 905q0 -45 -28 -74t-70 -29t-69 30q-28 28 -27 73q0 45 28 75
q29 30 70 30q40 0 68 -30t28 -75zM391 803v207h43q47 0 79 -30t32 -75t-31 -74t-80 -28h-43zM1599 1116h-139l-110 -217l-105 217h-143v-424h129v180l78 -180h84l77 180v-180h129v424zM1055 803h-207v55h188v96h-188v56h207v106h-336v-424h336v111zM258 1116v-424h184
q104 0 168 60t64 152t-64 152t-168 60h-184zM2101 904q0 93 -66 158q-67 64 -163 64t-164 -64t-68 -158q0 -93 68 -156q68 -64 164 -64t162 64t67 156zM2361 1372v-1372h-2361v1372h2361z" />
    <glyph glyph-name="Eacute" unicode="&#xc9;" 
d="M1632 471q28 -1 46 -19t18 -49t-18 -50t-46 -19q-27 0 -46 19t-19 49t18 50t47 19zM899 471h51q31 0 31 -28t-31 -27h-51v55zM2087 545h-82v-144l-125 144h-70v-281h88v133l121 -133h68v281zM1452 264v281h-88v-281h88zM1069 449q0 41 -28 69t-72 27h-154v-281h84v88h8
l70 -88h106l-77 92q63 25 63 93zM784 334h-139v37h125v63h-125v37h139v74h-227v-281h227v70zM545 545h-99l-59 -166l-55 166h-96l110 -281h88zM1784 403q0 59 -45 103t-107 43q-62 0 -108 -43q-45 -42 -45 -102t45 -102t107 -42t108 42q45 42 45 101zM1212 549
q-51 0 -83 -24t-31 -68q0 -59 78 -82l55 -15q18 -6 18 -14q1 -18 -33 -18t-40 32l-89 -14q16 -86 130 -86q49 0 85 23t35 69q0 59 -80 82l-55 15q-12 4 -12 20q0 17 26 17t37 -33l84 14q-14 82 -125 82zM1968 905q0 -45 -28 -74t-70 -29t-69 30q-28 28 -27 73q0 45 28 75
q29 30 70 30q40 0 68 -30t28 -75zM391 803v207h43q47 0 79 -30t32 -75t-31 -74t-80 -28h-43zM1599 1116h-139l-110 -217l-105 217h-143v-424h129v180l78 -180h84l77 180v-180h129v424zM1055 803h-207v55h188v96h-188v56h207v106h-336v-424h336v111zM258 1116v-424h184
q104 0 168 60t64 152t-64 152t-168 60h-184zM2101 904q0 93 -66 158q-67 64 -163 64t-164 -64t-68 -158q0 -93 68 -156q68 -64 164 -64t162 64t67 156zM2361 1372v-1372h-2361v1372h2361z" />
    <glyph glyph-name="Ecircumflex" unicode="&#xca;" 
d="M1632 471q28 -1 46 -19t18 -49t-18 -50t-46 -19q-27 0 -46 19t-19 49t18 50t47 19zM899 471h51q31 0 31 -28t-31 -27h-51v55zM2087 545h-82v-144l-125 144h-70v-281h88v133l121 -133h68v281zM1452 264v281h-88v-281h88zM1069 449q0 41 -28 69t-72 27h-154v-281h84v88h8
l70 -88h106l-77 92q63 25 63 93zM784 334h-139v37h125v63h-125v37h139v74h-227v-281h227v70zM545 545h-99l-59 -166l-55 166h-96l110 -281h88zM1784 403q0 59 -45 103t-107 43q-62 0 -108 -43q-45 -42 -45 -102t45 -102t107 -42t108 42q45 42 45 101zM1212 549
q-51 0 -83 -24t-31 -68q0 -59 78 -82l55 -15q18 -6 18 -14q1 -18 -33 -18t-40 32l-89 -14q16 -86 130 -86q49 0 85 23t35 69q0 59 -80 82l-55 15q-12 4 -12 20q0 17 26 17t37 -33l84 14q-14 82 -125 82zM1968 905q0 -45 -28 -74t-70 -29t-69 30q-28 28 -27 73q0 45 28 75
q29 30 70 30q40 0 68 -30t28 -75zM391 803v207h43q47 0 79 -30t32 -75t-31 -74t-80 -28h-43zM1599 1116h-139l-110 -217l-105 217h-143v-424h129v180l78 -180h84l77 180v-180h129v424zM1055 803h-207v55h188v96h-188v56h207v106h-336v-424h336v111zM258 1116v-424h184
q104 0 168 60t64 152t-64 152t-168 60h-184zM2101 904q0 93 -66 158q-67 64 -163 64t-164 -64t-68 -158q0 -93 68 -156q68 -64 164 -64t162 64t67 156zM2361 1372v-1372h-2361v1372h2361z" />
    <glyph glyph-name="Edieresis" unicode="&#xcb;" 
d="M1632 471q28 -1 46 -19t18 -49t-18 -50t-46 -19q-27 0 -46 19t-19 49t18 50t47 19zM899 471h51q31 0 31 -28t-31 -27h-51v55zM2087 545h-82v-144l-125 144h-70v-281h88v133l121 -133h68v281zM1452 264v281h-88v-281h88zM1069 449q0 41 -28 69t-72 27h-154v-281h84v88h8
l70 -88h106l-77 92q63 25 63 93zM784 334h-139v37h125v63h-125v37h139v74h-227v-281h227v70zM545 545h-99l-59 -166l-55 166h-96l110 -281h88zM1784 403q0 59 -45 103t-107 43q-62 0 -108 -43q-45 -42 -45 -102t45 -102t107 -42t108 42q45 42 45 101zM1212 549
q-51 0 -83 -24t-31 -68q0 -59 78 -82l55 -15q18 -6 18 -14q1 -18 -33 -18t-40 32l-89 -14q16 -86 130 -86q49 0 85 23t35 69q0 59 -80 82l-55 15q-12 4 -12 20q0 17 26 17t37 -33l84 14q-14 82 -125 82zM1968 905q0 -45 -28 -74t-70 -29t-69 30q-28 28 -27 73q0 45 28 75
q29 30 70 30q40 0 68 -30t28 -75zM391 803v207h43q47 0 79 -30t32 -75t-31 -74t-80 -28h-43zM1599 1116h-139l-110 -217l-105 217h-143v-424h129v180l78 -180h84l77 180v-180h129v424zM1055 803h-207v55h188v96h-188v56h207v106h-336v-424h336v111zM258 1116v-424h184
q104 0 168 60t64 152t-64 152t-168 60h-184zM2101 904q0 93 -66 158q-67 64 -163 64t-164 -64t-68 -158q0 -93 68 -156q68 -64 164 -64t162 64t67 156zM2361 1372v-1372h-2361v1372h2361z" />
    <glyph glyph-name="Igrave" unicode="&#xcc;" 
d="M1632 471q28 -1 46 -19t18 -49t-18 -50t-46 -19q-27 0 -46 19t-19 49t18 50t47 19zM899 471h51q31 0 31 -28t-31 -27h-51v55zM2087 545h-82v-144l-125 144h-70v-281h88v133l121 -133h68v281zM1452 264v281h-88v-281h88zM1069 449q0 41 -28 69t-72 27h-154v-281h84v88h8
l70 -88h106l-77 92q63 25 63 93zM784 334h-139v37h125v63h-125v37h139v74h-227v-281h227v70zM545 545h-99l-59 -166l-55 166h-96l110 -281h88zM1784 403q0 59 -45 103t-107 43q-62 0 -108 -43q-45 -42 -45 -102t45 -102t107 -42t108 42q45 42 45 101zM1212 549
q-51 0 -83 -24t-31 -68q0 -59 78 -82l55 -15q18 -6 18 -14q1 -18 -33 -18t-40 32l-89 -14q16 -86 130 -86q49 0 85 23t35 69q0 59 -80 82l-55 15q-12 4 -12 20q0 17 26 17t37 -33l84 14q-14 82 -125 82zM1968 905q0 -45 -28 -74t-70 -29t-69 30q-28 28 -27 73q0 45 28 75
q29 30 70 30q40 0 68 -30t28 -75zM391 803v207h43q47 0 79 -30t32 -75t-31 -74t-80 -28h-43zM1599 1116h-139l-110 -217l-105 217h-143v-424h129v180l78 -180h84l77 180v-180h129v424zM1055 803h-207v55h188v96h-188v56h207v106h-336v-424h336v111zM258 1116v-424h184
q104 0 168 60t64 152t-64 152t-168 60h-184zM2101 904q0 93 -66 158q-67 64 -163 64t-164 -64t-68 -158q0 -93 68 -156q68 -64 164 -64t162 64t67 156zM2361 1372v-1372h-2361v1372h2361z" />
    <glyph glyph-name="Iacute" unicode="&#xcd;" 
d="M1632 471q28 -1 46 -19t18 -49t-18 -50t-46 -19q-27 0 -46 19t-19 49t18 50t47 19zM899 471h51q31 0 31 -28t-31 -27h-51v55zM2087 545h-82v-144l-125 144h-70v-281h88v133l121 -133h68v281zM1452 264v281h-88v-281h88zM1069 449q0 41 -28 69t-72 27h-154v-281h84v88h8
l70 -88h106l-77 92q63 25 63 93zM784 334h-139v37h125v63h-125v37h139v74h-227v-281h227v70zM545 545h-99l-59 -166l-55 166h-96l110 -281h88zM1784 403q0 59 -45 103t-107 43q-62 0 -108 -43q-45 -42 -45 -102t45 -102t107 -42t108 42q45 42 45 101zM1212 549
q-51 0 -83 -24t-31 -68q0 -59 78 -82l55 -15q18 -6 18 -14q1 -18 -33 -18t-40 32l-89 -14q16 -86 130 -86q49 0 85 23t35 69q0 59 -80 82l-55 15q-12 4 -12 20q0 17 26 17t37 -33l84 14q-14 82 -125 82zM1968 905q0 -45 -28 -74t-70 -29t-69 30q-28 28 -27 73q0 45 28 75
q29 30 70 30q40 0 68 -30t28 -75zM391 803v207h43q47 0 79 -30t32 -75t-31 -74t-80 -28h-43zM1599 1116h-139l-110 -217l-105 217h-143v-424h129v180l78 -180h84l77 180v-180h129v424zM1055 803h-207v55h188v96h-188v56h207v106h-336v-424h336v111zM258 1116v-424h184
q104 0 168 60t64 152t-64 152t-168 60h-184zM2101 904q0 93 -66 158q-67 64 -163 64t-164 -64t-68 -158q0 -93 68 -156q68 -64 164 -64t162 64t67 156zM2361 1372v-1372h-2361v1372h2361z" />
    <glyph glyph-name="Icircumflex" unicode="&#xce;" 
d="M1632 471q28 -1 46 -19t18 -49t-18 -50t-46 -19q-27 0 -46 19t-19 49t18 50t47 19zM899 471h51q31 0 31 -28t-31 -27h-51v55zM2087 545h-82v-144l-125 144h-70v-281h88v133l121 -133h68v281zM1452 264v281h-88v-281h88zM1069 449q0 41 -28 69t-72 27h-154v-281h84v88h8
l70 -88h106l-77 92q63 25 63 93zM784 334h-139v37h125v63h-125v37h139v74h-227v-281h227v70zM545 545h-99l-59 -166l-55 166h-96l110 -281h88zM1784 403q0 59 -45 103t-107 43q-62 0 -108 -43q-45 -42 -45 -102t45 -102t107 -42t108 42q45 42 45 101zM1212 549
q-51 0 -83 -24t-31 -68q0 -59 78 -82l55 -15q18 -6 18 -14q1 -18 -33 -18t-40 32l-89 -14q16 -86 130 -86q49 0 85 23t35 69q0 59 -80 82l-55 15q-12 4 -12 20q0 17 26 17t37 -33l84 14q-14 82 -125 82zM1968 905q0 -45 -28 -74t-70 -29t-69 30q-28 28 -27 73q0 45 28 75
q29 30 70 30q40 0 68 -30t28 -75zM391 803v207h43q47 0 79 -30t32 -75t-31 -74t-80 -28h-43zM1599 1116h-139l-110 -217l-105 217h-143v-424h129v180l78 -180h84l77 180v-180h129v424zM1055 803h-207v55h188v96h-188v56h207v106h-336v-424h336v111zM258 1116v-424h184
q104 0 168 60t64 152t-64 152t-168 60h-184zM2101 904q0 93 -66 158q-67 64 -163 64t-164 -64t-68 -158q0 -93 68 -156q68 -64 164 -64t162 64t67 156zM2361 1372v-1372h-2361v1372h2361z" />
    <glyph glyph-name="Idieresis" unicode="&#xcf;" 
d="M1632 471q28 -1 46 -19t18 -49t-18 -50t-46 -19q-27 0 -46 19t-19 49t18 50t47 19zM899 471h51q31 0 31 -28t-31 -27h-51v55zM2087 545h-82v-144l-125 144h-70v-281h88v133l121 -133h68v281zM1452 264v281h-88v-281h88zM1069 449q0 41 -28 69t-72 27h-154v-281h84v88h8
l70 -88h106l-77 92q63 25 63 93zM784 334h-139v37h125v63h-125v37h139v74h-227v-281h227v70zM545 545h-99l-59 -166l-55 166h-96l110 -281h88zM1784 403q0 59 -45 103t-107 43q-62 0 -108 -43q-45 -42 -45 -102t45 -102t107 -42t108 42q45 42 45 101zM1212 549
q-51 0 -83 -24t-31 -68q0 -59 78 -82l55 -15q18 -6 18 -14q1 -18 -33 -18t-40 32l-89 -14q16 -86 130 -86q49 0 85 23t35 69q0 59 -80 82l-55 15q-12 4 -12 20q0 17 26 17t37 -33l84 14q-14 82 -125 82zM1968 905q0 -45 -28 -74t-70 -29t-69 30q-28 28 -27 73q0 45 28 75
q29 30 70 30q40 0 68 -30t28 -75zM391 803v207h43q47 0 79 -30t32 -75t-31 -74t-80 -28h-43zM1599 1116h-139l-110 -217l-105 217h-143v-424h129v180l78 -180h84l77 180v-180h129v424zM1055 803h-207v55h188v96h-188v56h207v106h-336v-424h336v111zM258 1116v-424h184
q104 0 168 60t64 152t-64 152t-168 60h-184zM2101 904q0 93 -66 158q-67 64 -163 64t-164 -64t-68 -158q0 -93 68 -156q68 -64 164 -64t162 64t67 156zM2361 1372v-1372h-2361v1372h2361z" />
    <glyph glyph-name="Eth" unicode="&#xd0;" 
d="M1632 471q28 -1 46 -19t18 -49t-18 -50t-46 -19q-27 0 -46 19t-19 49t18 50t47 19zM899 471h51q31 0 31 -28t-31 -27h-51v55zM2087 545h-82v-144l-125 144h-70v-281h88v133l121 -133h68v281zM1452 264v281h-88v-281h88zM1069 449q0 41 -28 69t-72 27h-154v-281h84v88h8
l70 -88h106l-77 92q63 25 63 93zM784 334h-139v37h125v63h-125v37h139v74h-227v-281h227v70zM545 545h-99l-59 -166l-55 166h-96l110 -281h88zM1784 403q0 59 -45 103t-107 43q-62 0 -108 -43q-45 -42 -45 -102t45 -102t107 -42t108 42q45 42 45 101zM1212 549
q-51 0 -83 -24t-31 -68q0 -59 78 -82l55 -15q18 -6 18 -14q1 -18 -33 -18t-40 32l-89 -14q16 -86 130 -86q49 0 85 23t35 69q0 59 -80 82l-55 15q-12 4 -12 20q0 17 26 17t37 -33l84 14q-14 82 -125 82zM1968 905q0 -45 -28 -74t-70 -29t-69 30q-28 28 -27 73q0 45 28 75
q29 30 70 30q40 0 68 -30t28 -75zM391 803v207h43q47 0 79 -30t32 -75t-31 -74t-80 -28h-43zM1599 1116h-139l-110 -217l-105 217h-143v-424h129v180l78 -180h84l77 180v-180h129v424zM1055 803h-207v55h188v96h-188v56h207v106h-336v-424h336v111zM258 1116v-424h184
q104 0 168 60t64 152t-64 152t-168 60h-184zM2101 904q0 93 -66 158q-67 64 -163 64t-164 -64t-68 -158q0 -93 68 -156q68 -64 164 -64t162 64t67 156zM2361 1372v-1372h-2361v1372h2361z" />
    <glyph glyph-name="Ntilde" unicode="&#xd1;" 
d="M1632 471q28 -1 46 -19t18 -49t-18 -50t-46 -19q-27 0 -46 19t-19 49t18 50t47 19zM899 471h51q31 0 31 -28t-31 -27h-51v55zM2087 545h-82v-144l-125 144h-70v-281h88v133l121 -133h68v281zM1452 264v281h-88v-281h88zM1069 449q0 41 -28 69t-72 27h-154v-281h84v88h8
l70 -88h106l-77 92q63 25 63 93zM784 334h-139v37h125v63h-125v37h139v74h-227v-281h227v70zM545 545h-99l-59 -166l-55 166h-96l110 -281h88zM1784 403q0 59 -45 103t-107 43q-62 0 -108 -43q-45 -42 -45 -102t45 -102t107 -42t108 42q45 42 45 101zM1212 549
q-51 0 -83 -24t-31 -68q0 -59 78 -82l55 -15q18 -6 18 -14q1 -18 -33 -18t-40 32l-89 -14q16 -86 130 -86q49 0 85 23t35 69q0 59 -80 82l-55 15q-12 4 -12 20q0 17 26 17t37 -33l84 14q-14 82 -125 82zM1968 905q0 -45 -28 -74t-70 -29t-69 30q-28 28 -27 73q0 45 28 75
q29 30 70 30q40 0 68 -30t28 -75zM391 803v207h43q47 0 79 -30t32 -75t-31 -74t-80 -28h-43zM1599 1116h-139l-110 -217l-105 217h-143v-424h129v180l78 -180h84l77 180v-180h129v424zM1055 803h-207v55h188v96h-188v56h207v106h-336v-424h336v111zM258 1116v-424h184
q104 0 168 60t64 152t-64 152t-168 60h-184zM2101 904q0 93 -66 158q-67 64 -163 64t-164 -64t-68 -158q0 -93 68 -156q68 -64 164 -64t162 64t67 156zM2361 1372v-1372h-2361v1372h2361z" />
    <glyph glyph-name="Ograve" unicode="&#xd2;" 
d="M1632 471q28 -1 46 -19t18 -49t-18 -50t-46 -19q-27 0 -46 19t-19 49t18 50t47 19zM899 471h51q31 0 31 -28t-31 -27h-51v55zM2087 545h-82v-144l-125 144h-70v-281h88v133l121 -133h68v281zM1452 264v281h-88v-281h88zM1069 449q0 41 -28 69t-72 27h-154v-281h84v88h8
l70 -88h106l-77 92q63 25 63 93zM784 334h-139v37h125v63h-125v37h139v74h-227v-281h227v70zM545 545h-99l-59 -166l-55 166h-96l110 -281h88zM1784 403q0 59 -45 103t-107 43q-62 0 -108 -43q-45 -42 -45 -102t45 -102t107 -42t108 42q45 42 45 101zM1212 549
q-51 0 -83 -24t-31 -68q0 -59 78 -82l55 -15q18 -6 18 -14q1 -18 -33 -18t-40 32l-89 -14q16 -86 130 -86q49 0 85 23t35 69q0 59 -80 82l-55 15q-12 4 -12 20q0 17 26 17t37 -33l84 14q-14 82 -125 82zM1968 905q0 -45 -28 -74t-70 -29t-69 30q-28 28 -27 73q0 45 28 75
q29 30 70 30q40 0 68 -30t28 -75zM391 803v207h43q47 0 79 -30t32 -75t-31 -74t-80 -28h-43zM1599 1116h-139l-110 -217l-105 217h-143v-424h129v180l78 -180h84l77 180v-180h129v424zM1055 803h-207v55h188v96h-188v56h207v106h-336v-424h336v111zM258 1116v-424h184
q104 0 168 60t64 152t-64 152t-168 60h-184zM2101 904q0 93 -66 158q-67 64 -163 64t-164 -64t-68 -158q0 -93 68 -156q68 -64 164 -64t162 64t67 156zM2361 1372v-1372h-2361v1372h2361z" />
    <glyph glyph-name="Oacute" unicode="&#xd3;" 
d="M1632 471q28 -1 46 -19t18 -49t-18 -50t-46 -19q-27 0 -46 19t-19 49t18 50t47 19zM899 471h51q31 0 31 -28t-31 -27h-51v55zM2087 545h-82v-144l-125 144h-70v-281h88v133l121 -133h68v281zM1452 264v281h-88v-281h88zM1069 449q0 41 -28 69t-72 27h-154v-281h84v88h8
l70 -88h106l-77 92q63 25 63 93zM784 334h-139v37h125v63h-125v37h139v74h-227v-281h227v70zM545 545h-99l-59 -166l-55 166h-96l110 -281h88zM1784 403q0 59 -45 103t-107 43q-62 0 -108 -43q-45 -42 -45 -102t45 -102t107 -42t108 42q45 42 45 101zM1212 549
q-51 0 -83 -24t-31 -68q0 -59 78 -82l55 -15q18 -6 18 -14q1 -18 -33 -18t-40 32l-89 -14q16 -86 130 -86q49 0 85 23t35 69q0 59 -80 82l-55 15q-12 4 -12 20q0 17 26 17t37 -33l84 14q-14 82 -125 82zM1968 905q0 -45 -28 -74t-70 -29t-69 30q-28 28 -27 73q0 45 28 75
q29 30 70 30q40 0 68 -30t28 -75zM391 803v207h43q47 0 79 -30t32 -75t-31 -74t-80 -28h-43zM1599 1116h-139l-110 -217l-105 217h-143v-424h129v180l78 -180h84l77 180v-180h129v424zM1055 803h-207v55h188v96h-188v56h207v106h-336v-424h336v111zM258 1116v-424h184
q104 0 168 60t64 152t-64 152t-168 60h-184zM2101 904q0 93 -66 158q-67 64 -163 64t-164 -64t-68 -158q0 -93 68 -156q68 -64 164 -64t162 64t67 156zM2361 1372v-1372h-2361v1372h2361z" />
    <glyph glyph-name="Ocircumflex" unicode="&#xd4;" 
d="M1632 471q28 -1 46 -19t18 -49t-18 -50t-46 -19q-27 0 -46 19t-19 49t18 50t47 19zM899 471h51q31 0 31 -28t-31 -27h-51v55zM2087 545h-82v-144l-125 144h-70v-281h88v133l121 -133h68v281zM1452 264v281h-88v-281h88zM1069 449q0 41 -28 69t-72 27h-154v-281h84v88h8
l70 -88h106l-77 92q63 25 63 93zM784 334h-139v37h125v63h-125v37h139v74h-227v-281h227v70zM545 545h-99l-59 -166l-55 166h-96l110 -281h88zM1784 403q0 59 -45 103t-107 43q-62 0 -108 -43q-45 -42 -45 -102t45 -102t107 -42t108 42q45 42 45 101zM1212 549
q-51 0 -83 -24t-31 -68q0 -59 78 -82l55 -15q18 -6 18 -14q1 -18 -33 -18t-40 32l-89 -14q16 -86 130 -86q49 0 85 23t35 69q0 59 -80 82l-55 15q-12 4 -12 20q0 17 26 17t37 -33l84 14q-14 82 -125 82zM1968 905q0 -45 -28 -74t-70 -29t-69 30q-28 28 -27 73q0 45 28 75
q29 30 70 30q40 0 68 -30t28 -75zM391 803v207h43q47 0 79 -30t32 -75t-31 -74t-80 -28h-43zM1599 1116h-139l-110 -217l-105 217h-143v-424h129v180l78 -180h84l77 180v-180h129v424zM1055 803h-207v55h188v96h-188v56h207v106h-336v-424h336v111zM258 1116v-424h184
q104 0 168 60t64 152t-64 152t-168 60h-184zM2101 904q0 93 -66 158q-67 64 -163 64t-164 -64t-68 -158q0 -93 68 -156q68 -64 164 -64t162 64t67 156zM2361 1372v-1372h-2361v1372h2361z" />
    <glyph glyph-name="Otilde" unicode="&#xd5;" 
d="M1632 471q28 -1 46 -19t18 -49t-18 -50t-46 -19q-27 0 -46 19t-19 49t18 50t47 19zM899 471h51q31 0 31 -28t-31 -27h-51v55zM2087 545h-82v-144l-125 144h-70v-281h88v133l121 -133h68v281zM1452 264v281h-88v-281h88zM1069 449q0 41 -28 69t-72 27h-154v-281h84v88h8
l70 -88h106l-77 92q63 25 63 93zM784 334h-139v37h125v63h-125v37h139v74h-227v-281h227v70zM545 545h-99l-59 -166l-55 166h-96l110 -281h88zM1784 403q0 59 -45 103t-107 43q-62 0 -108 -43q-45 -42 -45 -102t45 -102t107 -42t108 42q45 42 45 101zM1212 549
q-51 0 -83 -24t-31 -68q0 -59 78 -82l55 -15q18 -6 18 -14q1 -18 -33 -18t-40 32l-89 -14q16 -86 130 -86q49 0 85 23t35 69q0 59 -80 82l-55 15q-12 4 -12 20q0 17 26 17t37 -33l84 14q-14 82 -125 82zM1968 905q0 -45 -28 -74t-70 -29t-69 30q-28 28 -27 73q0 45 28 75
q29 30 70 30q40 0 68 -30t28 -75zM391 803v207h43q47 0 79 -30t32 -75t-31 -74t-80 -28h-43zM1599 1116h-139l-110 -217l-105 217h-143v-424h129v180l78 -180h84l77 180v-180h129v424zM1055 803h-207v55h188v96h-188v56h207v106h-336v-424h336v111zM258 1116v-424h184
q104 0 168 60t64 152t-64 152t-168 60h-184zM2101 904q0 93 -66 158q-67 64 -163 64t-164 -64t-68 -158q0 -93 68 -156q68 -64 164 -64t162 64t67 156zM2361 1372v-1372h-2361v1372h2361z" />
    <glyph glyph-name="Odieresis" unicode="&#xd6;" 
d="M1632 471q28 -1 46 -19t18 -49t-18 -50t-46 -19q-27 0 -46 19t-19 49t18 50t47 19zM899 471h51q31 0 31 -28t-31 -27h-51v55zM2087 545h-82v-144l-125 144h-70v-281h88v133l121 -133h68v281zM1452 264v281h-88v-281h88zM1069 449q0 41 -28 69t-72 27h-154v-281h84v88h8
l70 -88h106l-77 92q63 25 63 93zM784 334h-139v37h125v63h-125v37h139v74h-227v-281h227v70zM545 545h-99l-59 -166l-55 166h-96l110 -281h88zM1784 403q0 59 -45 103t-107 43q-62 0 -108 -43q-45 -42 -45 -102t45 -102t107 -42t108 42q45 42 45 101zM1212 549
q-51 0 -83 -24t-31 -68q0 -59 78 -82l55 -15q18 -6 18 -14q1 -18 -33 -18t-40 32l-89 -14q16 -86 130 -86q49 0 85 23t35 69q0 59 -80 82l-55 15q-12 4 -12 20q0 17 26 17t37 -33l84 14q-14 82 -125 82zM1968 905q0 -45 -28 -74t-70 -29t-69 30q-28 28 -27 73q0 45 28 75
q29 30 70 30q40 0 68 -30t28 -75zM391 803v207h43q47 0 79 -30t32 -75t-31 -74t-80 -28h-43zM1599 1116h-139l-110 -217l-105 217h-143v-424h129v180l78 -180h84l77 180v-180h129v424zM1055 803h-207v55h188v96h-188v56h207v106h-336v-424h336v111zM258 1116v-424h184
q104 0 168 60t64 152t-64 152t-168 60h-184zM2101 904q0 93 -66 158q-67 64 -163 64t-164 -64t-68 -158q0 -93 68 -156q68 -64 164 -64t162 64t67 156zM2361 1372v-1372h-2361v1372h2361z" />
    <glyph glyph-name="multiply" unicode="&#xd7;" 
d="M1632 471q28 -1 46 -19t18 -49t-18 -50t-46 -19q-27 0 -46 19t-19 49t18 50t47 19zM899 471h51q31 0 31 -28t-31 -27h-51v55zM2087 545h-82v-144l-125 144h-70v-281h88v133l121 -133h68v281zM1452 264v281h-88v-281h88zM1069 449q0 41 -28 69t-72 27h-154v-281h84v88h8
l70 -88h106l-77 92q63 25 63 93zM784 334h-139v37h125v63h-125v37h139v74h-227v-281h227v70zM545 545h-99l-59 -166l-55 166h-96l110 -281h88zM1784 403q0 59 -45 103t-107 43q-62 0 -108 -43q-45 -42 -45 -102t45 -102t107 -42t108 42q45 42 45 101zM1212 549
q-51 0 -83 -24t-31 -68q0 -59 78 -82l55 -15q18 -6 18 -14q1 -18 -33 -18t-40 32l-89 -14q16 -86 130 -86q49 0 85 23t35 69q0 59 -80 82l-55 15q-12 4 -12 20q0 17 26 17t37 -33l84 14q-14 82 -125 82zM1968 905q0 -45 -28 -74t-70 -29t-69 30q-28 28 -27 73q0 45 28 75
q29 30 70 30q40 0 68 -30t28 -75zM391 803v207h43q47 0 79 -30t32 -75t-31 -74t-80 -28h-43zM1599 1116h-139l-110 -217l-105 217h-143v-424h129v180l78 -180h84l77 180v-180h129v424zM1055 803h-207v55h188v96h-188v56h207v106h-336v-424h336v111zM258 1116v-424h184
q104 0 168 60t64 152t-64 152t-168 60h-184zM2101 904q0 93 -66 158q-67 64 -163 64t-164 -64t-68 -158q0 -93 68 -156q68 -64 164 -64t162 64t67 156zM2361 1372v-1372h-2361v1372h2361z" />
    <glyph glyph-name="Oslash" unicode="&#xd8;" horiz-adv-x="1605" 
d="M803 279q169 -1 281 115t112 290q0 94 -35 176l-538 -538q80 -43 180 -43zM410 684q0 -111 47 -201l553 553q-92 57 -207 58q-169 0 -281 -117t-112 -293zM1534 684q0 -299 -212 -507t-519 -208q-225 0 -412 121l-137 -137l-164 164l131 131q-150 188 -149 436
q0 301 212 510t519 209q244 0 436 -137l113 112l164 -164l-115 -114q133 -184 133 -416z" />
    <glyph glyph-name="Ugrave" unicode="&#xd9;" 
d="M1632 471q28 -1 46 -19t18 -49t-18 -50t-46 -19q-27 0 -46 19t-19 49t18 50t47 19zM899 471h51q31 0 31 -28t-31 -27h-51v55zM2087 545h-82v-144l-125 144h-70v-281h88v133l121 -133h68v281zM1452 264v281h-88v-281h88zM1069 449q0 41 -28 69t-72 27h-154v-281h84v88h8
l70 -88h106l-77 92q63 25 63 93zM784 334h-139v37h125v63h-125v37h139v74h-227v-281h227v70zM545 545h-99l-59 -166l-55 166h-96l110 -281h88zM1784 403q0 59 -45 103t-107 43q-62 0 -108 -43q-45 -42 -45 -102t45 -102t107 -42t108 42q45 42 45 101zM1212 549
q-51 0 -83 -24t-31 -68q0 -59 78 -82l55 -15q18 -6 18 -14q1 -18 -33 -18t-40 32l-89 -14q16 -86 130 -86q49 0 85 23t35 69q0 59 -80 82l-55 15q-12 4 -12 20q0 17 26 17t37 -33l84 14q-14 82 -125 82zM1968 905q0 -45 -28 -74t-70 -29t-69 30q-28 28 -27 73q0 45 28 75
q29 30 70 30q40 0 68 -30t28 -75zM391 803v207h43q47 0 79 -30t32 -75t-31 -74t-80 -28h-43zM1599 1116h-139l-110 -217l-105 217h-143v-424h129v180l78 -180h84l77 180v-180h129v424zM1055 803h-207v55h188v96h-188v56h207v106h-336v-424h336v111zM258 1116v-424h184
q104 0 168 60t64 152t-64 152t-168 60h-184zM2101 904q0 93 -66 158q-67 64 -163 64t-164 -64t-68 -158q0 -93 68 -156q68 -64 164 -64t162 64t67 156zM2361 1372v-1372h-2361v1372h2361z" />
    <glyph glyph-name="Uacute" unicode="&#xda;" 
d="M1632 471q28 -1 46 -19t18 -49t-18 -50t-46 -19q-27 0 -46 19t-19 49t18 50t47 19zM899 471h51q31 0 31 -28t-31 -27h-51v55zM2087 545h-82v-144l-125 144h-70v-281h88v133l121 -133h68v281zM1452 264v281h-88v-281h88zM1069 449q0 41 -28 69t-72 27h-154v-281h84v88h8
l70 -88h106l-77 92q63 25 63 93zM784 334h-139v37h125v63h-125v37h139v74h-227v-281h227v70zM545 545h-99l-59 -166l-55 166h-96l110 -281h88zM1784 403q0 59 -45 103t-107 43q-62 0 -108 -43q-45 -42 -45 -102t45 -102t107 -42t108 42q45 42 45 101zM1212 549
q-51 0 -83 -24t-31 -68q0 -59 78 -82l55 -15q18 -6 18 -14q1 -18 -33 -18t-40 32l-89 -14q16 -86 130 -86q49 0 85 23t35 69q0 59 -80 82l-55 15q-12 4 -12 20q0 17 26 17t37 -33l84 14q-14 82 -125 82zM1968 905q0 -45 -28 -74t-70 -29t-69 30q-28 28 -27 73q0 45 28 75
q29 30 70 30q40 0 68 -30t28 -75zM391 803v207h43q47 0 79 -30t32 -75t-31 -74t-80 -28h-43zM1599 1116h-139l-110 -217l-105 217h-143v-424h129v180l78 -180h84l77 180v-180h129v424zM1055 803h-207v55h188v96h-188v56h207v106h-336v-424h336v111zM258 1116v-424h184
q104 0 168 60t64 152t-64 152t-168 60h-184zM2101 904q0 93 -66 158q-67 64 -163 64t-164 -64t-68 -158q0 -93 68 -156q68 -64 164 -64t162 64t67 156zM2361 1372v-1372h-2361v1372h2361z" />
    <glyph glyph-name="Ucircumflex" unicode="&#xdb;" 
d="M1632 471q28 -1 46 -19t18 -49t-18 -50t-46 -19q-27 0 -46 19t-19 49t18 50t47 19zM899 471h51q31 0 31 -28t-31 -27h-51v55zM2087 545h-82v-144l-125 144h-70v-281h88v133l121 -133h68v281zM1452 264v281h-88v-281h88zM1069 449q0 41 -28 69t-72 27h-154v-281h84v88h8
l70 -88h106l-77 92q63 25 63 93zM784 334h-139v37h125v63h-125v37h139v74h-227v-281h227v70zM545 545h-99l-59 -166l-55 166h-96l110 -281h88zM1784 403q0 59 -45 103t-107 43q-62 0 -108 -43q-45 -42 -45 -102t45 -102t107 -42t108 42q45 42 45 101zM1212 549
q-51 0 -83 -24t-31 -68q0 -59 78 -82l55 -15q18 -6 18 -14q1 -18 -33 -18t-40 32l-89 -14q16 -86 130 -86q49 0 85 23t35 69q0 59 -80 82l-55 15q-12 4 -12 20q0 17 26 17t37 -33l84 14q-14 82 -125 82zM1968 905q0 -45 -28 -74t-70 -29t-69 30q-28 28 -27 73q0 45 28 75
q29 30 70 30q40 0 68 -30t28 -75zM391 803v207h43q47 0 79 -30t32 -75t-31 -74t-80 -28h-43zM1599 1116h-139l-110 -217l-105 217h-143v-424h129v180l78 -180h84l77 180v-180h129v424zM1055 803h-207v55h188v96h-188v56h207v106h-336v-424h336v111zM258 1116v-424h184
q104 0 168 60t64 152t-64 152t-168 60h-184zM2101 904q0 93 -66 158q-67 64 -163 64t-164 -64t-68 -158q0 -93 68 -156q68 -64 164 -64t162 64t67 156zM2361 1372v-1372h-2361v1372h2361z" />
    <glyph glyph-name="Udieresis" unicode="&#xdc;" 
d="M1632 471q28 -1 46 -19t18 -49t-18 -50t-46 -19q-27 0 -46 19t-19 49t18 50t47 19zM899 471h51q31 0 31 -28t-31 -27h-51v55zM2087 545h-82v-144l-125 144h-70v-281h88v133l121 -133h68v281zM1452 264v281h-88v-281h88zM1069 449q0 41 -28 69t-72 27h-154v-281h84v88h8
l70 -88h106l-77 92q63 25 63 93zM784 334h-139v37h125v63h-125v37h139v74h-227v-281h227v70zM545 545h-99l-59 -166l-55 166h-96l110 -281h88zM1784 403q0 59 -45 103t-107 43q-62 0 -108 -43q-45 -42 -45 -102t45 -102t107 -42t108 42q45 42 45 101zM1212 549
q-51 0 -83 -24t-31 -68q0 -59 78 -82l55 -15q18 -6 18 -14q1 -18 -33 -18t-40 32l-89 -14q16 -86 130 -86q49 0 85 23t35 69q0 59 -80 82l-55 15q-12 4 -12 20q0 17 26 17t37 -33l84 14q-14 82 -125 82zM1968 905q0 -45 -28 -74t-70 -29t-69 30q-28 28 -27 73q0 45 28 75
q29 30 70 30q40 0 68 -30t28 -75zM391 803v207h43q47 0 79 -30t32 -75t-31 -74t-80 -28h-43zM1599 1116h-139l-110 -217l-105 217h-143v-424h129v180l78 -180h84l77 180v-180h129v424zM1055 803h-207v55h188v96h-188v56h207v106h-336v-424h336v111zM258 1116v-424h184
q104 0 168 60t64 152t-64 152t-168 60h-184zM2101 904q0 93 -66 158q-67 64 -163 64t-164 -64t-68 -158q0 -93 68 -156q68 -64 164 -64t162 64t67 156zM2361 1372v-1372h-2361v1372h2361z" />
    <glyph glyph-name="Yacute" unicode="&#xdd;" 
d="M1632 471q28 -1 46 -19t18 -49t-18 -50t-46 -19q-27 0 -46 19t-19 49t18 50t47 19zM899 471h51q31 0 31 -28t-31 -27h-51v55zM2087 545h-82v-144l-125 144h-70v-281h88v133l121 -133h68v281zM1452 264v281h-88v-281h88zM1069 449q0 41 -28 69t-72 27h-154v-281h84v88h8
l70 -88h106l-77 92q63 25 63 93zM784 334h-139v37h125v63h-125v37h139v74h-227v-281h227v70zM545 545h-99l-59 -166l-55 166h-96l110 -281h88zM1784 403q0 59 -45 103t-107 43q-62 0 -108 -43q-45 -42 -45 -102t45 -102t107 -42t108 42q45 42 45 101zM1212 549
q-51 0 -83 -24t-31 -68q0 -59 78 -82l55 -15q18 -6 18 -14q1 -18 -33 -18t-40 32l-89 -14q16 -86 130 -86q49 0 85 23t35 69q0 59 -80 82l-55 15q-12 4 -12 20q0 17 26 17t37 -33l84 14q-14 82 -125 82zM1968 905q0 -45 -28 -74t-70 -29t-69 30q-28 28 -27 73q0 45 28 75
q29 30 70 30q40 0 68 -30t28 -75zM391 803v207h43q47 0 79 -30t32 -75t-31 -74t-80 -28h-43zM1599 1116h-139l-110 -217l-105 217h-143v-424h129v180l78 -180h84l77 180v-180h129v424zM1055 803h-207v55h188v96h-188v56h207v106h-336v-424h336v111zM258 1116v-424h184
q104 0 168 60t64 152t-64 152t-168 60h-184zM2101 904q0 93 -66 158q-67 64 -163 64t-164 -64t-68 -158q0 -93 68 -156q68 -64 164 -64t162 64t67 156zM2361 1372v-1372h-2361v1372h2361z" />
    <glyph glyph-name="Thorn" unicode="&#xde;" horiz-adv-x="1333" 
d="M457 498h274q92 0 148 51q55 51 55 135t-55 134t-148 50h-274v-370zM457 1157h307q225 0 363 -129q139 -129 139 -341t-142 -342t-372 -130h-295v-215h-338v1372h338v-215z" />
    <glyph glyph-name="germandbls" unicode="&#xdf;" horiz-adv-x="1359" 
d="M1303 416q0 -188 -127 -312t-332 -122q-143 0 -281 24l35 268q135 -20 210 -20t134 53t59 135t-71 135q-72 52 -201 52h-88v262h45q94 0 150 45q55 45 55 122t-54 127t-155 50q-100 0 -168 -70t-68 -188v-977h-327v952q0 250 157 404q158 154 400 154t388 -120
q144 -120 144 -303q0 -223 -172 -303q125 -37 196 -131t71 -237z" />
    <glyph glyph-name="agrave" unicode="&#xe0;" 
d="M1632 471q28 -1 46 -19t18 -49t-18 -50t-46 -19q-27 0 -46 19t-19 49t18 50t47 19zM899 471h51q31 0 31 -28t-31 -27h-51v55zM2087 545h-82v-144l-125 144h-70v-281h88v133l121 -133h68v281zM1452 264v281h-88v-281h88zM1069 449q0 41 -28 69t-72 27h-154v-281h84v88h8
l70 -88h106l-77 92q63 25 63 93zM784 334h-139v37h125v63h-125v37h139v74h-227v-281h227v70zM545 545h-99l-59 -166l-55 166h-96l110 -281h88zM1784 403q0 59 -45 103t-107 43q-62 0 -108 -43q-45 -42 -45 -102t45 -102t107 -42t108 42q45 42 45 101zM1212 549
q-51 0 -83 -24t-31 -68q0 -59 78 -82l55 -15q18 -6 18 -14q1 -18 -33 -18t-40 32l-89 -14q16 -86 130 -86q49 0 85 23t35 69q0 59 -80 82l-55 15q-12 4 -12 20q0 17 26 17t37 -33l84 14q-14 82 -125 82zM1968 905q0 -45 -28 -74t-70 -29t-69 30q-28 28 -27 73q0 45 28 75
q29 30 70 30q40 0 68 -30t28 -75zM391 803v207h43q47 0 79 -30t32 -75t-31 -74t-80 -28h-43zM1599 1116h-139l-110 -217l-105 217h-143v-424h129v180l78 -180h84l77 180v-180h129v424zM1055 803h-207v55h188v96h-188v56h207v106h-336v-424h336v111zM258 1116v-424h184
q104 0 168 60t64 152t-64 152t-168 60h-184zM2101 904q0 93 -66 158q-67 64 -163 64t-164 -64t-68 -158q0 -93 68 -156q68 -64 164 -64t162 64t67 156zM2361 1372v-1372h-2361v1372h2361z" />
    <glyph glyph-name="aacute" unicode="&#xe1;" 
d="M1632 471q28 -1 46 -19t18 -49t-18 -50t-46 -19q-27 0 -46 19t-19 49t18 50t47 19zM899 471h51q31 0 31 -28t-31 -27h-51v55zM2087 545h-82v-144l-125 144h-70v-281h88v133l121 -133h68v281zM1452 264v281h-88v-281h88zM1069 449q0 41 -28 69t-72 27h-154v-281h84v88h8
l70 -88h106l-77 92q63 25 63 93zM784 334h-139v37h125v63h-125v37h139v74h-227v-281h227v70zM545 545h-99l-59 -166l-55 166h-96l110 -281h88zM1784 403q0 59 -45 103t-107 43q-62 0 -108 -43q-45 -42 -45 -102t45 -102t107 -42t108 42q45 42 45 101zM1212 549
q-51 0 -83 -24t-31 -68q0 -59 78 -82l55 -15q18 -6 18 -14q1 -18 -33 -18t-40 32l-89 -14q16 -86 130 -86q49 0 85 23t35 69q0 59 -80 82l-55 15q-12 4 -12 20q0 17 26 17t37 -33l84 14q-14 82 -125 82zM1968 905q0 -45 -28 -74t-70 -29t-69 30q-28 28 -27 73q0 45 28 75
q29 30 70 30q40 0 68 -30t28 -75zM391 803v207h43q47 0 79 -30t32 -75t-31 -74t-80 -28h-43zM1599 1116h-139l-110 -217l-105 217h-143v-424h129v180l78 -180h84l77 180v-180h129v424zM1055 803h-207v55h188v96h-188v56h207v106h-336v-424h336v111zM258 1116v-424h184
q104 0 168 60t64 152t-64 152t-168 60h-184zM2101 904q0 93 -66 158q-67 64 -163 64t-164 -64t-68 -158q0 -93 68 -156q68 -64 164 -64t162 64t67 156zM2361 1372v-1372h-2361v1372h2361z" />
    <glyph glyph-name="acircumflex" unicode="&#xe2;" 
d="M1632 471q28 -1 46 -19t18 -49t-18 -50t-46 -19q-27 0 -46 19t-19 49t18 50t47 19zM899 471h51q31 0 31 -28t-31 -27h-51v55zM2087 545h-82v-144l-125 144h-70v-281h88v133l121 -133h68v281zM1452 264v281h-88v-281h88zM1069 449q0 41 -28 69t-72 27h-154v-281h84v88h8
l70 -88h106l-77 92q63 25 63 93zM784 334h-139v37h125v63h-125v37h139v74h-227v-281h227v70zM545 545h-99l-59 -166l-55 166h-96l110 -281h88zM1784 403q0 59 -45 103t-107 43q-62 0 -108 -43q-45 -42 -45 -102t45 -102t107 -42t108 42q45 42 45 101zM1212 549
q-51 0 -83 -24t-31 -68q0 -59 78 -82l55 -15q18 -6 18 -14q1 -18 -33 -18t-40 32l-89 -14q16 -86 130 -86q49 0 85 23t35 69q0 59 -80 82l-55 15q-12 4 -12 20q0 17 26 17t37 -33l84 14q-14 82 -125 82zM1968 905q0 -45 -28 -74t-70 -29t-69 30q-28 28 -27 73q0 45 28 75
q29 30 70 30q40 0 68 -30t28 -75zM391 803v207h43q47 0 79 -30t32 -75t-31 -74t-80 -28h-43zM1599 1116h-139l-110 -217l-105 217h-143v-424h129v180l78 -180h84l77 180v-180h129v424zM1055 803h-207v55h188v96h-188v56h207v106h-336v-424h336v111zM258 1116v-424h184
q104 0 168 60t64 152t-64 152t-168 60h-184zM2101 904q0 93 -66 158q-67 64 -163 64t-164 -64t-68 -158q0 -93 68 -156q68 -64 164 -64t162 64t67 156zM2361 1372v-1372h-2361v1372h2361z" />
    <glyph glyph-name="atilde" unicode="&#xe3;" 
d="M1632 471q28 -1 46 -19t18 -49t-18 -50t-46 -19q-27 0 -46 19t-19 49t18 50t47 19zM899 471h51q31 0 31 -28t-31 -27h-51v55zM2087 545h-82v-144l-125 144h-70v-281h88v133l121 -133h68v281zM1452 264v281h-88v-281h88zM1069 449q0 41 -28 69t-72 27h-154v-281h84v88h8
l70 -88h106l-77 92q63 25 63 93zM784 334h-139v37h125v63h-125v37h139v74h-227v-281h227v70zM545 545h-99l-59 -166l-55 166h-96l110 -281h88zM1784 403q0 59 -45 103t-107 43q-62 0 -108 -43q-45 -42 -45 -102t45 -102t107 -42t108 42q45 42 45 101zM1212 549
q-51 0 -83 -24t-31 -68q0 -59 78 -82l55 -15q18 -6 18 -14q1 -18 -33 -18t-40 32l-89 -14q16 -86 130 -86q49 0 85 23t35 69q0 59 -80 82l-55 15q-12 4 -12 20q0 17 26 17t37 -33l84 14q-14 82 -125 82zM1968 905q0 -45 -28 -74t-70 -29t-69 30q-28 28 -27 73q0 45 28 75
q29 30 70 30q40 0 68 -30t28 -75zM391 803v207h43q47 0 79 -30t32 -75t-31 -74t-80 -28h-43zM1599 1116h-139l-110 -217l-105 217h-143v-424h129v180l78 -180h84l77 180v-180h129v424zM1055 803h-207v55h188v96h-188v56h207v106h-336v-424h336v111zM258 1116v-424h184
q104 0 168 60t64 152t-64 152t-168 60h-184zM2101 904q0 93 -66 158q-67 64 -163 64t-164 -64t-68 -158q0 -93 68 -156q68 -64 164 -64t162 64t67 156zM2361 1372v-1372h-2361v1372h2361z" />
    <glyph glyph-name="adieresis" unicode="&#xe4;" 
d="M1632 471q28 -1 46 -19t18 -49t-18 -50t-46 -19q-27 0 -46 19t-19 49t18 50t47 19zM899 471h51q31 0 31 -28t-31 -27h-51v55zM2087 545h-82v-144l-125 144h-70v-281h88v133l121 -133h68v281zM1452 264v281h-88v-281h88zM1069 449q0 41 -28 69t-72 27h-154v-281h84v88h8
l70 -88h106l-77 92q63 25 63 93zM784 334h-139v37h125v63h-125v37h139v74h-227v-281h227v70zM545 545h-99l-59 -166l-55 166h-96l110 -281h88zM1784 403q0 59 -45 103t-107 43q-62 0 -108 -43q-45 -42 -45 -102t45 -102t107 -42t108 42q45 42 45 101zM1212 549
q-51 0 -83 -24t-31 -68q0 -59 78 -82l55 -15q18 -6 18 -14q1 -18 -33 -18t-40 32l-89 -14q16 -86 130 -86q49 0 85 23t35 69q0 59 -80 82l-55 15q-12 4 -12 20q0 17 26 17t37 -33l84 14q-14 82 -125 82zM1968 905q0 -45 -28 -74t-70 -29t-69 30q-28 28 -27 73q0 45 28 75
q29 30 70 30q40 0 68 -30t28 -75zM391 803v207h43q47 0 79 -30t32 -75t-31 -74t-80 -28h-43zM1599 1116h-139l-110 -217l-105 217h-143v-424h129v180l78 -180h84l77 180v-180h129v424zM1055 803h-207v55h188v96h-188v56h207v106h-336v-424h336v111zM258 1116v-424h184
q104 0 168 60t64 152t-64 152t-168 60h-184zM2101 904q0 93 -66 158q-67 64 -163 64t-164 -64t-68 -158q0 -93 68 -156q68 -64 164 -64t162 64t67 156zM2361 1372v-1372h-2361v1372h2361z" />
    <glyph glyph-name="aring" unicode="&#xe5;" 
d="M1632 471q28 -1 46 -19t18 -49t-18 -50t-46 -19q-27 0 -46 19t-19 49t18 50t47 19zM899 471h51q31 0 31 -28t-31 -27h-51v55zM2087 545h-82v-144l-125 144h-70v-281h88v133l121 -133h68v281zM1452 264v281h-88v-281h88zM1069 449q0 41 -28 69t-72 27h-154v-281h84v88h8
l70 -88h106l-77 92q63 25 63 93zM784 334h-139v37h125v63h-125v37h139v74h-227v-281h227v70zM545 545h-99l-59 -166l-55 166h-96l110 -281h88zM1784 403q0 59 -45 103t-107 43q-62 0 -108 -43q-45 -42 -45 -102t45 -102t107 -42t108 42q45 42 45 101zM1212 549
q-51 0 -83 -24t-31 -68q0 -59 78 -82l55 -15q18 -6 18 -14q1 -18 -33 -18t-40 32l-89 -14q16 -86 130 -86q49 0 85 23t35 69q0 59 -80 82l-55 15q-12 4 -12 20q0 17 26 17t37 -33l84 14q-14 82 -125 82zM1968 905q0 -45 -28 -74t-70 -29t-69 30q-28 28 -27 73q0 45 28 75
q29 30 70 30q40 0 68 -30t28 -75zM391 803v207h43q47 0 79 -30t32 -75t-31 -74t-80 -28h-43zM1599 1116h-139l-110 -217l-105 217h-143v-424h129v180l78 -180h84l77 180v-180h129v424zM1055 803h-207v55h188v96h-188v56h207v106h-336v-424h336v111zM258 1116v-424h184
q104 0 168 60t64 152t-64 152t-168 60h-184zM2101 904q0 93 -66 158q-67 64 -163 64t-164 -64t-68 -158q0 -93 68 -156q68 -64 164 -64t162 64t67 156zM2361 1372v-1372h-2361v1372h2361z" />
    <glyph glyph-name="ae" unicode="&#xe6;" horiz-adv-x="1835" 
d="M737 414h-225q-141 0 -141 -97q0 -49 39 -79q38 -30 114 -29q76 0 145 51t68 123v31zM1254 797q-80 -1 -142 -49t-80 -138h430q-18 92 -73 140t-135 47zM1784 418h-752q49 -186 230 -187q143 0 204 119l287 -59q-41 -143 -178 -233t-318 -89q-225 0 -383 146
q-154 -145 -411 -146q-199 0 -307 90t-109 240q0 151 112 231t318 80h260v47q0 68 -44 109q-43 41 -113 41t-113 -35t-51 -98l-303 61q23 143 146 234q124 90 330 90t333 -109q143 109 329 109q229 0 381 -153t152 -406v-82z" />
    <glyph glyph-name="ccedilla" unicode="&#xe7;" 
d="M1632 471q28 -1 46 -19t18 -49t-18 -50t-46 -19q-27 0 -46 19t-19 49t18 50t47 19zM899 471h51q31 0 31 -28t-31 -27h-51v55zM2087 545h-82v-144l-125 144h-70v-281h88v133l121 -133h68v281zM1452 264v281h-88v-281h88zM1069 449q0 41 -28 69t-72 27h-154v-281h84v88h8
l70 -88h106l-77 92q63 25 63 93zM784 334h-139v37h125v63h-125v37h139v74h-227v-281h227v70zM545 545h-99l-59 -166l-55 166h-96l110 -281h88zM1784 403q0 59 -45 103t-107 43q-62 0 -108 -43q-45 -42 -45 -102t45 -102t107 -42t108 42q45 42 45 101zM1212 549
q-51 0 -83 -24t-31 -68q0 -59 78 -82l55 -15q18 -6 18 -14q1 -18 -33 -18t-40 32l-89 -14q16 -86 130 -86q49 0 85 23t35 69q0 59 -80 82l-55 15q-12 4 -12 20q0 17 26 17t37 -33l84 14q-14 82 -125 82zM1968 905q0 -45 -28 -74t-70 -29t-69 30q-28 28 -27 73q0 45 28 75
q29 30 70 30q40 0 68 -30t28 -75zM391 803v207h43q47 0 79 -30t32 -75t-31 -74t-80 -28h-43zM1599 1116h-139l-110 -217l-105 217h-143v-424h129v180l78 -180h84l77 180v-180h129v424zM1055 803h-207v55h188v96h-188v56h207v106h-336v-424h336v111zM258 1116v-424h184
q104 0 168 60t64 152t-64 152t-168 60h-184zM2101 904q0 93 -66 158q-67 64 -163 64t-164 -64t-68 -158q0 -93 68 -156q68 -64 164 -64t162 64t67 156zM2361 1372v-1372h-2361v1372h2361z" />
    <glyph glyph-name="egrave" unicode="&#xe8;" 
d="M1632 471q28 -1 46 -19t18 -49t-18 -50t-46 -19q-27 0 -46 19t-19 49t18 50t47 19zM899 471h51q31 0 31 -28t-31 -27h-51v55zM2087 545h-82v-144l-125 144h-70v-281h88v133l121 -133h68v281zM1452 264v281h-88v-281h88zM1069 449q0 41 -28 69t-72 27h-154v-281h84v88h8
l70 -88h106l-77 92q63 25 63 93zM784 334h-139v37h125v63h-125v37h139v74h-227v-281h227v70zM545 545h-99l-59 -166l-55 166h-96l110 -281h88zM1784 403q0 59 -45 103t-107 43q-62 0 -108 -43q-45 -42 -45 -102t45 -102t107 -42t108 42q45 42 45 101zM1212 549
q-51 0 -83 -24t-31 -68q0 -59 78 -82l55 -15q18 -6 18 -14q1 -18 -33 -18t-40 32l-89 -14q16 -86 130 -86q49 0 85 23t35 69q0 59 -80 82l-55 15q-12 4 -12 20q0 17 26 17t37 -33l84 14q-14 82 -125 82zM1968 905q0 -45 -28 -74t-70 -29t-69 30q-28 28 -27 73q0 45 28 75
q29 30 70 30q40 0 68 -30t28 -75zM391 803v207h43q47 0 79 -30t32 -75t-31 -74t-80 -28h-43zM1599 1116h-139l-110 -217l-105 217h-143v-424h129v180l78 -180h84l77 180v-180h129v424zM1055 803h-207v55h188v96h-188v56h207v106h-336v-424h336v111zM258 1116v-424h184
q104 0 168 60t64 152t-64 152t-168 60h-184zM2101 904q0 93 -66 158q-67 64 -163 64t-164 -64t-68 -158q0 -93 68 -156q68 -64 164 -64t162 64t67 156zM2361 1372v-1372h-2361v1372h2361z" />
    <glyph glyph-name="eacute" unicode="&#xe9;" 
d="M1632 471q28 -1 46 -19t18 -49t-18 -50t-46 -19q-27 0 -46 19t-19 49t18 50t47 19zM899 471h51q31 0 31 -28t-31 -27h-51v55zM2087 545h-82v-144l-125 144h-70v-281h88v133l121 -133h68v281zM1452 264v281h-88v-281h88zM1069 449q0 41 -28 69t-72 27h-154v-281h84v88h8
l70 -88h106l-77 92q63 25 63 93zM784 334h-139v37h125v63h-125v37h139v74h-227v-281h227v70zM545 545h-99l-59 -166l-55 166h-96l110 -281h88zM1784 403q0 59 -45 103t-107 43q-62 0 -108 -43q-45 -42 -45 -102t45 -102t107 -42t108 42q45 42 45 101zM1212 549
q-51 0 -83 -24t-31 -68q0 -59 78 -82l55 -15q18 -6 18 -14q1 -18 -33 -18t-40 32l-89 -14q16 -86 130 -86q49 0 85 23t35 69q0 59 -80 82l-55 15q-12 4 -12 20q0 17 26 17t37 -33l84 14q-14 82 -125 82zM1968 905q0 -45 -28 -74t-70 -29t-69 30q-28 28 -27 73q0 45 28 75
q29 30 70 30q40 0 68 -30t28 -75zM391 803v207h43q47 0 79 -30t32 -75t-31 -74t-80 -28h-43zM1599 1116h-139l-110 -217l-105 217h-143v-424h129v180l78 -180h84l77 180v-180h129v424zM1055 803h-207v55h188v96h-188v56h207v106h-336v-424h336v111zM258 1116v-424h184
q104 0 168 60t64 152t-64 152t-168 60h-184zM2101 904q0 93 -66 158q-67 64 -163 64t-164 -64t-68 -158q0 -93 68 -156q68 -64 164 -64t162 64t67 156zM2361 1372v-1372h-2361v1372h2361z" />
    <glyph glyph-name="ecircumflex" unicode="&#xea;" 
d="M1632 471q28 -1 46 -19t18 -49t-18 -50t-46 -19q-27 0 -46 19t-19 49t18 50t47 19zM899 471h51q31 0 31 -28t-31 -27h-51v55zM2087 545h-82v-144l-125 144h-70v-281h88v133l121 -133h68v281zM1452 264v281h-88v-281h88zM1069 449q0 41 -28 69t-72 27h-154v-281h84v88h8
l70 -88h106l-77 92q63 25 63 93zM784 334h-139v37h125v63h-125v37h139v74h-227v-281h227v70zM545 545h-99l-59 -166l-55 166h-96l110 -281h88zM1784 403q0 59 -45 103t-107 43q-62 0 -108 -43q-45 -42 -45 -102t45 -102t107 -42t108 42q45 42 45 101zM1212 549
q-51 0 -83 -24t-31 -68q0 -59 78 -82l55 -15q18 -6 18 -14q1 -18 -33 -18t-40 32l-89 -14q16 -86 130 -86q49 0 85 23t35 69q0 59 -80 82l-55 15q-12 4 -12 20q0 17 26 17t37 -33l84 14q-14 82 -125 82zM1968 905q0 -45 -28 -74t-70 -29t-69 30q-28 28 -27 73q0 45 28 75
q29 30 70 30q40 0 68 -30t28 -75zM391 803v207h43q47 0 79 -30t32 -75t-31 -74t-80 -28h-43zM1599 1116h-139l-110 -217l-105 217h-143v-424h129v180l78 -180h84l77 180v-180h129v424zM1055 803h-207v55h188v96h-188v56h207v106h-336v-424h336v111zM258 1116v-424h184
q104 0 168 60t64 152t-64 152t-168 60h-184zM2101 904q0 93 -66 158q-67 64 -163 64t-164 -64t-68 -158q0 -93 68 -156q68 -64 164 -64t162 64t67 156zM2361 1372v-1372h-2361v1372h2361z" />
    <glyph glyph-name="edieresis" unicode="&#xeb;" 
d="M1632 471q28 -1 46 -19t18 -49t-18 -50t-46 -19q-27 0 -46 19t-19 49t18 50t47 19zM899 471h51q31 0 31 -28t-31 -27h-51v55zM2087 545h-82v-144l-125 144h-70v-281h88v133l121 -133h68v281zM1452 264v281h-88v-281h88zM1069 449q0 41 -28 69t-72 27h-154v-281h84v88h8
l70 -88h106l-77 92q63 25 63 93zM784 334h-139v37h125v63h-125v37h139v74h-227v-281h227v70zM545 545h-99l-59 -166l-55 166h-96l110 -281h88zM1784 403q0 59 -45 103t-107 43q-62 0 -108 -43q-45 -42 -45 -102t45 -102t107 -42t108 42q45 42 45 101zM1212 549
q-51 0 -83 -24t-31 -68q0 -59 78 -82l55 -15q18 -6 18 -14q1 -18 -33 -18t-40 32l-89 -14q16 -86 130 -86q49 0 85 23t35 69q0 59 -80 82l-55 15q-12 4 -12 20q0 17 26 17t37 -33l84 14q-14 82 -125 82zM1968 905q0 -45 -28 -74t-70 -29t-69 30q-28 28 -27 73q0 45 28 75
q29 30 70 30q40 0 68 -30t28 -75zM391 803v207h43q47 0 79 -30t32 -75t-31 -74t-80 -28h-43zM1599 1116h-139l-110 -217l-105 217h-143v-424h129v180l78 -180h84l77 180v-180h129v424zM1055 803h-207v55h188v96h-188v56h207v106h-336v-424h336v111zM258 1116v-424h184
q104 0 168 60t64 152t-64 152t-168 60h-184zM2101 904q0 93 -66 158q-67 64 -163 64t-164 -64t-68 -158q0 -93 68 -156q68 -64 164 -64t162 64t67 156zM2361 1372v-1372h-2361v1372h2361z" />
    <glyph glyph-name="igrave" unicode="&#xec;" 
d="M1632 471q28 -1 46 -19t18 -49t-18 -50t-46 -19q-27 0 -46 19t-19 49t18 50t47 19zM899 471h51q31 0 31 -28t-31 -27h-51v55zM2087 545h-82v-144l-125 144h-70v-281h88v133l121 -133h68v281zM1452 264v281h-88v-281h88zM1069 449q0 41 -28 69t-72 27h-154v-281h84v88h8
l70 -88h106l-77 92q63 25 63 93zM784 334h-139v37h125v63h-125v37h139v74h-227v-281h227v70zM545 545h-99l-59 -166l-55 166h-96l110 -281h88zM1784 403q0 59 -45 103t-107 43q-62 0 -108 -43q-45 -42 -45 -102t45 -102t107 -42t108 42q45 42 45 101zM1212 549
q-51 0 -83 -24t-31 -68q0 -59 78 -82l55 -15q18 -6 18 -14q1 -18 -33 -18t-40 32l-89 -14q16 -86 130 -86q49 0 85 23t35 69q0 59 -80 82l-55 15q-12 4 -12 20q0 17 26 17t37 -33l84 14q-14 82 -125 82zM1968 905q0 -45 -28 -74t-70 -29t-69 30q-28 28 -27 73q0 45 28 75
q29 30 70 30q40 0 68 -30t28 -75zM391 803v207h43q47 0 79 -30t32 -75t-31 -74t-80 -28h-43zM1599 1116h-139l-110 -217l-105 217h-143v-424h129v180l78 -180h84l77 180v-180h129v424zM1055 803h-207v55h188v96h-188v56h207v106h-336v-424h336v111zM258 1116v-424h184
q104 0 168 60t64 152t-64 152t-168 60h-184zM2101 904q0 93 -66 158q-67 64 -163 64t-164 -64t-68 -158q0 -93 68 -156q68 -64 164 -64t162 64t67 156zM2361 1372v-1372h-2361v1372h2361z" />
    <glyph glyph-name="iacute" unicode="&#xed;" 
d="M1632 471q28 -1 46 -19t18 -49t-18 -50t-46 -19q-27 0 -46 19t-19 49t18 50t47 19zM899 471h51q31 0 31 -28t-31 -27h-51v55zM2087 545h-82v-144l-125 144h-70v-281h88v133l121 -133h68v281zM1452 264v281h-88v-281h88zM1069 449q0 41 -28 69t-72 27h-154v-281h84v88h8
l70 -88h106l-77 92q63 25 63 93zM784 334h-139v37h125v63h-125v37h139v74h-227v-281h227v70zM545 545h-99l-59 -166l-55 166h-96l110 -281h88zM1784 403q0 59 -45 103t-107 43q-62 0 -108 -43q-45 -42 -45 -102t45 -102t107 -42t108 42q45 42 45 101zM1212 549
q-51 0 -83 -24t-31 -68q0 -59 78 -82l55 -15q18 -6 18 -14q1 -18 -33 -18t-40 32l-89 -14q16 -86 130 -86q49 0 85 23t35 69q0 59 -80 82l-55 15q-12 4 -12 20q0 17 26 17t37 -33l84 14q-14 82 -125 82zM1968 905q0 -45 -28 -74t-70 -29t-69 30q-28 28 -27 73q0 45 28 75
q29 30 70 30q40 0 68 -30t28 -75zM391 803v207h43q47 0 79 -30t32 -75t-31 -74t-80 -28h-43zM1599 1116h-139l-110 -217l-105 217h-143v-424h129v180l78 -180h84l77 180v-180h129v424zM1055 803h-207v55h188v96h-188v56h207v106h-336v-424h336v111zM258 1116v-424h184
q104 0 168 60t64 152t-64 152t-168 60h-184zM2101 904q0 93 -66 158q-67 64 -163 64t-164 -64t-68 -158q0 -93 68 -156q68 -64 164 -64t162 64t67 156zM2361 1372v-1372h-2361v1372h2361z" />
    <glyph glyph-name="icircumflex" unicode="&#xee;" 
d="M1632 471q28 -1 46 -19t18 -49t-18 -50t-46 -19q-27 0 -46 19t-19 49t18 50t47 19zM899 471h51q31 0 31 -28t-31 -27h-51v55zM2087 545h-82v-144l-125 144h-70v-281h88v133l121 -133h68v281zM1452 264v281h-88v-281h88zM1069 449q0 41 -28 69t-72 27h-154v-281h84v88h8
l70 -88h106l-77 92q63 25 63 93zM784 334h-139v37h125v63h-125v37h139v74h-227v-281h227v70zM545 545h-99l-59 -166l-55 166h-96l110 -281h88zM1784 403q0 59 -45 103t-107 43q-62 0 -108 -43q-45 -42 -45 -102t45 -102t107 -42t108 42q45 42 45 101zM1212 549
q-51 0 -83 -24t-31 -68q0 -59 78 -82l55 -15q18 -6 18 -14q1 -18 -33 -18t-40 32l-89 -14q16 -86 130 -86q49 0 85 23t35 69q0 59 -80 82l-55 15q-12 4 -12 20q0 17 26 17t37 -33l84 14q-14 82 -125 82zM1968 905q0 -45 -28 -74t-70 -29t-69 30q-28 28 -27 73q0 45 28 75
q29 30 70 30q40 0 68 -30t28 -75zM391 803v207h43q47 0 79 -30t32 -75t-31 -74t-80 -28h-43zM1599 1116h-139l-110 -217l-105 217h-143v-424h129v180l78 -180h84l77 180v-180h129v424zM1055 803h-207v55h188v96h-188v56h207v106h-336v-424h336v111zM258 1116v-424h184
q104 0 168 60t64 152t-64 152t-168 60h-184zM2101 904q0 93 -66 158q-67 64 -163 64t-164 -64t-68 -158q0 -93 68 -156q68 -64 164 -64t162 64t67 156zM2361 1372v-1372h-2361v1372h2361z" />
    <glyph glyph-name="idieresis" unicode="&#xef;" 
d="M1632 471q28 -1 46 -19t18 -49t-18 -50t-46 -19q-27 0 -46 19t-19 49t18 50t47 19zM899 471h51q31 0 31 -28t-31 -27h-51v55zM2087 545h-82v-144l-125 144h-70v-281h88v133l121 -133h68v281zM1452 264v281h-88v-281h88zM1069 449q0 41 -28 69t-72 27h-154v-281h84v88h8
l70 -88h106l-77 92q63 25 63 93zM784 334h-139v37h125v63h-125v37h139v74h-227v-281h227v70zM545 545h-99l-59 -166l-55 166h-96l110 -281h88zM1784 403q0 59 -45 103t-107 43q-62 0 -108 -43q-45 -42 -45 -102t45 -102t107 -42t108 42q45 42 45 101zM1212 549
q-51 0 -83 -24t-31 -68q0 -59 78 -82l55 -15q18 -6 18 -14q1 -18 -33 -18t-40 32l-89 -14q16 -86 130 -86q49 0 85 23t35 69q0 59 -80 82l-55 15q-12 4 -12 20q0 17 26 17t37 -33l84 14q-14 82 -125 82zM1968 905q0 -45 -28 -74t-70 -29t-69 30q-28 28 -27 73q0 45 28 75
q29 30 70 30q40 0 68 -30t28 -75zM391 803v207h43q47 0 79 -30t32 -75t-31 -74t-80 -28h-43zM1599 1116h-139l-110 -217l-105 217h-143v-424h129v180l78 -180h84l77 180v-180h129v424zM1055 803h-207v55h188v96h-188v56h207v106h-336v-424h336v111zM258 1116v-424h184
q104 0 168 60t64 152t-64 152t-168 60h-184zM2101 904q0 93 -66 158q-67 64 -163 64t-164 -64t-68 -158q0 -93 68 -156q68 -64 164 -64t162 64t67 156zM2361 1372v-1372h-2361v1372h2361z" />
    <glyph glyph-name="eth" unicode="&#xf0;" horiz-adv-x="1988" 
d="M1632 471q28 -1 46 -19t18 -49t-18 -50t-46 -19q-27 0 -46 19t-19 49t18 50t47 19zM899 471h51q31 0 31 -28t-31 -27h-51v55zM2087 545h-82v-144l-125 144h-70v-281h88v133l121 -133h68v281zM1452 264v281h-88v-281h88zM1069 449q0 41 -28 69t-72 27h-154v-281h84v88h8
l70 -88h106l-77 92q63 25 63 93zM784 334h-139v37h125v63h-125v37h139v74h-227v-281h227v70zM545 545h-99l-59 -166l-55 166h-96l110 -281h88zM1784 403q0 59 -45 103t-107 43q-62 0 -108 -43q-45 -42 -45 -102t45 -102t107 -42t108 42q45 42 45 101zM1212 549
q-51 0 -83 -24t-31 -68q0 -59 78 -82l55 -15q18 -6 18 -14q1 -18 -33 -18t-40 32l-89 -14q16 -86 130 -86q49 0 85 23t35 69q0 59 -80 82l-55 15q-12 4 -12 20q0 17 26 17t37 -33l84 14q-14 82 -125 82zM1968 905q0 -45 -28 -74t-70 -29t-69 30q-28 28 -27 73q0 45 28 75
q29 30 70 30q40 0 68 -30t28 -75zM391 803v207h43q47 0 79 -30t32 -75t-31 -74t-80 -28h-43zM1599 1116h-139l-110 -217l-105 217h-143v-424h129v180l78 -180h84l77 180v-180h129v424zM1055 803h-207v55h188v96h-188v56h207v106h-336v-424h336v111zM258 1116v-424h184
q104 0 168 60t64 152t-64 152t-168 60h-184zM2101 904q0 93 -66 158q-67 64 -163 64t-164 -64t-68 -158q0 -93 68 -156q68 -64 164 -64t162 64t67 156zM2361 1372v-1372h-2361v1372h2361z" />
    <glyph glyph-name="ntilde" unicode="&#xf1;" 
d="M1632 471q28 -1 46 -19t18 -49t-18 -50t-46 -19q-27 0 -46 19t-19 49t18 50t47 19zM899 471h51q31 0 31 -28t-31 -27h-51v55zM2087 545h-82v-144l-125 144h-70v-281h88v133l121 -133h68v281zM1452 264v281h-88v-281h88zM1069 449q0 41 -28 69t-72 27h-154v-281h84v88h8
l70 -88h106l-77 92q63 25 63 93zM784 334h-139v37h125v63h-125v37h139v74h-227v-281h227v70zM545 545h-99l-59 -166l-55 166h-96l110 -281h88zM1784 403q0 59 -45 103t-107 43q-62 0 -108 -43q-45 -42 -45 -102t45 -102t107 -42t108 42q45 42 45 101zM1212 549
q-51 0 -83 -24t-31 -68q0 -59 78 -82l55 -15q18 -6 18 -14q1 -18 -33 -18t-40 32l-89 -14q16 -86 130 -86q49 0 85 23t35 69q0 59 -80 82l-55 15q-12 4 -12 20q0 17 26 17t37 -33l84 14q-14 82 -125 82zM1968 905q0 -45 -28 -74t-70 -29t-69 30q-28 28 -27 73q0 45 28 75
q29 30 70 30q40 0 68 -30t28 -75zM391 803v207h43q47 0 79 -30t32 -75t-31 -74t-80 -28h-43zM1599 1116h-139l-110 -217l-105 217h-143v-424h129v180l78 -180h84l77 180v-180h129v424zM1055 803h-207v55h188v96h-188v56h207v106h-336v-424h336v111zM258 1116v-424h184
q104 0 168 60t64 152t-64 152t-168 60h-184zM2101 904q0 93 -66 158q-67 64 -163 64t-164 -64t-68 -158q0 -93 68 -156q68 -64 164 -64t162 64t67 156zM2361 1372v-1372h-2361v1372h2361z" />
    <glyph glyph-name="ograve" unicode="&#xf2;" 
d="M1632 471q28 -1 46 -19t18 -49t-18 -50t-46 -19q-27 0 -46 19t-19 49t18 50t47 19zM899 471h51q31 0 31 -28t-31 -27h-51v55zM2087 545h-82v-144l-125 144h-70v-281h88v133l121 -133h68v281zM1452 264v281h-88v-281h88zM1069 449q0 41 -28 69t-72 27h-154v-281h84v88h8
l70 -88h106l-77 92q63 25 63 93zM784 334h-139v37h125v63h-125v37h139v74h-227v-281h227v70zM545 545h-99l-59 -166l-55 166h-96l110 -281h88zM1784 403q0 59 -45 103t-107 43q-62 0 -108 -43q-45 -42 -45 -102t45 -102t107 -42t108 42q45 42 45 101zM1212 549
q-51 0 -83 -24t-31 -68q0 -59 78 -82l55 -15q18 -6 18 -14q1 -18 -33 -18t-40 32l-89 -14q16 -86 130 -86q49 0 85 23t35 69q0 59 -80 82l-55 15q-12 4 -12 20q0 17 26 17t37 -33l84 14q-14 82 -125 82zM1968 905q0 -45 -28 -74t-70 -29t-69 30q-28 28 -27 73q0 45 28 75
q29 30 70 30q40 0 68 -30t28 -75zM391 803v207h43q47 0 79 -30t32 -75t-31 -74t-80 -28h-43zM1599 1116h-139l-110 -217l-105 217h-143v-424h129v180l78 -180h84l77 180v-180h129v424zM1055 803h-207v55h188v96h-188v56h207v106h-336v-424h336v111zM258 1116v-424h184
q104 0 168 60t64 152t-64 152t-168 60h-184zM2101 904q0 93 -66 158q-67 64 -163 64t-164 -64t-68 -158q0 -93 68 -156q68 -64 164 -64t162 64t67 156zM2361 1372v-1372h-2361v1372h2361z" />
    <glyph glyph-name="oacute" unicode="&#xf3;" 
d="M1632 471q28 -1 46 -19t18 -49t-18 -50t-46 -19q-27 0 -46 19t-19 49t18 50t47 19zM899 471h51q31 0 31 -28t-31 -27h-51v55zM2087 545h-82v-144l-125 144h-70v-281h88v133l121 -133h68v281zM1452 264v281h-88v-281h88zM1069 449q0 41 -28 69t-72 27h-154v-281h84v88h8
l70 -88h106l-77 92q63 25 63 93zM784 334h-139v37h125v63h-125v37h139v74h-227v-281h227v70zM545 545h-99l-59 -166l-55 166h-96l110 -281h88zM1784 403q0 59 -45 103t-107 43q-62 0 -108 -43q-45 -42 -45 -102t45 -102t107 -42t108 42q45 42 45 101zM1212 549
q-51 0 -83 -24t-31 -68q0 -59 78 -82l55 -15q18 -6 18 -14q1 -18 -33 -18t-40 32l-89 -14q16 -86 130 -86q49 0 85 23t35 69q0 59 -80 82l-55 15q-12 4 -12 20q0 17 26 17t37 -33l84 14q-14 82 -125 82zM1968 905q0 -45 -28 -74t-70 -29t-69 30q-28 28 -27 73q0 45 28 75
q29 30 70 30q40 0 68 -30t28 -75zM391 803v207h43q47 0 79 -30t32 -75t-31 -74t-80 -28h-43zM1599 1116h-139l-110 -217l-105 217h-143v-424h129v180l78 -180h84l77 180v-180h129v424zM1055 803h-207v55h188v96h-188v56h207v106h-336v-424h336v111zM258 1116v-424h184
q104 0 168 60t64 152t-64 152t-168 60h-184zM2101 904q0 93 -66 158q-67 64 -163 64t-164 -64t-68 -158q0 -93 68 -156q68 -64 164 -64t162 64t67 156zM2361 1372v-1372h-2361v1372h2361z" />
    <glyph glyph-name="ocircumflex" unicode="&#xf4;" 
d="M1632 471q28 -1 46 -19t18 -49t-18 -50t-46 -19q-27 0 -46 19t-19 49t18 50t47 19zM899 471h51q31 0 31 -28t-31 -27h-51v55zM2087 545h-82v-144l-125 144h-70v-281h88v133l121 -133h68v281zM1452 264v281h-88v-281h88zM1069 449q0 41 -28 69t-72 27h-154v-281h84v88h8
l70 -88h106l-77 92q63 25 63 93zM784 334h-139v37h125v63h-125v37h139v74h-227v-281h227v70zM545 545h-99l-59 -166l-55 166h-96l110 -281h88zM1784 403q0 59 -45 103t-107 43q-62 0 -108 -43q-45 -42 -45 -102t45 -102t107 -42t108 42q45 42 45 101zM1212 549
q-51 0 -83 -24t-31 -68q0 -59 78 -82l55 -15q18 -6 18 -14q1 -18 -33 -18t-40 32l-89 -14q16 -86 130 -86q49 0 85 23t35 69q0 59 -80 82l-55 15q-12 4 -12 20q0 17 26 17t37 -33l84 14q-14 82 -125 82zM1968 905q0 -45 -28 -74t-70 -29t-69 30q-28 28 -27 73q0 45 28 75
q29 30 70 30q40 0 68 -30t28 -75zM391 803v207h43q47 0 79 -30t32 -75t-31 -74t-80 -28h-43zM1599 1116h-139l-110 -217l-105 217h-143v-424h129v180l78 -180h84l77 180v-180h129v424zM1055 803h-207v55h188v96h-188v56h207v106h-336v-424h336v111zM258 1116v-424h184
q104 0 168 60t64 152t-64 152t-168 60h-184zM2101 904q0 93 -66 158q-67 64 -163 64t-164 -64t-68 -158q0 -93 68 -156q68 -64 164 -64t162 64t67 156zM2361 1372v-1372h-2361v1372h2361z" />
    <glyph glyph-name="otilde" unicode="&#xf5;" 
d="M1632 471q28 -1 46 -19t18 -49t-18 -50t-46 -19q-27 0 -46 19t-19 49t18 50t47 19zM899 471h51q31 0 31 -28t-31 -27h-51v55zM2087 545h-82v-144l-125 144h-70v-281h88v133l121 -133h68v281zM1452 264v281h-88v-281h88zM1069 449q0 41 -28 69t-72 27h-154v-281h84v88h8
l70 -88h106l-77 92q63 25 63 93zM784 334h-139v37h125v63h-125v37h139v74h-227v-281h227v70zM545 545h-99l-59 -166l-55 166h-96l110 -281h88zM1784 403q0 59 -45 103t-107 43q-62 0 -108 -43q-45 -42 -45 -102t45 -102t107 -42t108 42q45 42 45 101zM1212 549
q-51 0 -83 -24t-31 -68q0 -59 78 -82l55 -15q18 -6 18 -14q1 -18 -33 -18t-40 32l-89 -14q16 -86 130 -86q49 0 85 23t35 69q0 59 -80 82l-55 15q-12 4 -12 20q0 17 26 17t37 -33l84 14q-14 82 -125 82zM1968 905q0 -45 -28 -74t-70 -29t-69 30q-28 28 -27 73q0 45 28 75
q29 30 70 30q40 0 68 -30t28 -75zM391 803v207h43q47 0 79 -30t32 -75t-31 -74t-80 -28h-43zM1599 1116h-139l-110 -217l-105 217h-143v-424h129v180l78 -180h84l77 180v-180h129v424zM1055 803h-207v55h188v96h-188v56h207v106h-336v-424h336v111zM258 1116v-424h184
q104 0 168 60t64 152t-64 152t-168 60h-184zM2101 904q0 93 -66 158q-67 64 -163 64t-164 -64t-68 -158q0 -93 68 -156q68 -64 164 -64t162 64t67 156zM2361 1372v-1372h-2361v1372h2361z" />
    <glyph glyph-name="odieresis" unicode="&#xf6;" 
d="M1632 471q28 -1 46 -19t18 -49t-18 -50t-46 -19q-27 0 -46 19t-19 49t18 50t47 19zM899 471h51q31 0 31 -28t-31 -27h-51v55zM2087 545h-82v-144l-125 144h-70v-281h88v133l121 -133h68v281zM1452 264v281h-88v-281h88zM1069 449q0 41 -28 69t-72 27h-154v-281h84v88h8
l70 -88h106l-77 92q63 25 63 93zM784 334h-139v37h125v63h-125v37h139v74h-227v-281h227v70zM545 545h-99l-59 -166l-55 166h-96l110 -281h88zM1784 403q0 59 -45 103t-107 43q-62 0 -108 -43q-45 -42 -45 -102t45 -102t107 -42t108 42q45 42 45 101zM1212 549
q-51 0 -83 -24t-31 -68q0 -59 78 -82l55 -15q18 -6 18 -14q1 -18 -33 -18t-40 32l-89 -14q16 -86 130 -86q49 0 85 23t35 69q0 59 -80 82l-55 15q-12 4 -12 20q0 17 26 17t37 -33l84 14q-14 82 -125 82zM1968 905q0 -45 -28 -74t-70 -29t-69 30q-28 28 -27 73q0 45 28 75
q29 30 70 30q40 0 68 -30t28 -75zM391 803v207h43q47 0 79 -30t32 -75t-31 -74t-80 -28h-43zM1599 1116h-139l-110 -217l-105 217h-143v-424h129v180l78 -180h84l77 180v-180h129v424zM1055 803h-207v55h188v96h-188v56h207v106h-336v-424h336v111zM258 1116v-424h184
q104 0 168 60t64 152t-64 152t-168 60h-184zM2101 904q0 93 -66 158q-67 64 -163 64t-164 -64t-68 -158q0 -93 68 -156q68 -64 164 -64t162 64t67 156zM2361 1372v-1372h-2361v1372h2361z" />
    <glyph glyph-name="divide" unicode="&#xf7;" 
d="M1632 471q28 -1 46 -19t18 -49t-18 -50t-46 -19q-27 0 -46 19t-19 49t18 50t47 19zM899 471h51q31 0 31 -28t-31 -27h-51v55zM2087 545h-82v-144l-125 144h-70v-281h88v133l121 -133h68v281zM1452 264v281h-88v-281h88zM1069 449q0 41 -28 69t-72 27h-154v-281h84v88h8
l70 -88h106l-77 92q63 25 63 93zM784 334h-139v37h125v63h-125v37h139v74h-227v-281h227v70zM545 545h-99l-59 -166l-55 166h-96l110 -281h88zM1784 403q0 59 -45 103t-107 43q-62 0 -108 -43q-45 -42 -45 -102t45 -102t107 -42t108 42q45 42 45 101zM1212 549
q-51 0 -83 -24t-31 -68q0 -59 78 -82l55 -15q18 -6 18 -14q1 -18 -33 -18t-40 32l-89 -14q16 -86 130 -86q49 0 85 23t35 69q0 59 -80 82l-55 15q-12 4 -12 20q0 17 26 17t37 -33l84 14q-14 82 -125 82zM1968 905q0 -45 -28 -74t-70 -29t-69 30q-28 28 -27 73q0 45 28 75
q29 30 70 30q40 0 68 -30t28 -75zM391 803v207h43q47 0 79 -30t32 -75t-31 -74t-80 -28h-43zM1599 1116h-139l-110 -217l-105 217h-143v-424h129v180l78 -180h84l77 180v-180h129v424zM1055 803h-207v55h188v96h-188v56h207v106h-336v-424h336v111zM258 1116v-424h184
q104 0 168 60t64 152t-64 152t-168 60h-184zM2101 904q0 93 -66 158q-67 64 -163 64t-164 -64t-68 -158q0 -93 68 -156q68 -64 164 -64t162 64t67 156zM2361 1372v-1372h-2361v1372h2361z" />
    <glyph glyph-name="oslash" unicode="&#xf8;" horiz-adv-x="1234" 
d="M621 248q100 0 174 75t73 191q0 51 -16 100l-342 -340q52 -26 111 -26zM367 514q0 -55 18 -102l342 342q-47 27 -106 26q-102 0 -179 -74q-75 -75 -75 -192zM1184 514q0 -240 -164 -392t-399 -151q-178 0 -324 90l-107 -106l-131 131l101 100q-109 141 -109 328
q0 238 165 390t405 151q176 0 317 -90l104 104l132 -131l-99 -98q109 -137 109 -326z" />
    <glyph glyph-name="ugrave" unicode="&#xf9;" 
d="M1632 471q28 -1 46 -19t18 -49t-18 -50t-46 -19q-27 0 -46 19t-19 49t18 50t47 19zM899 471h51q31 0 31 -28t-31 -27h-51v55zM2087 545h-82v-144l-125 144h-70v-281h88v133l121 -133h68v281zM1452 264v281h-88v-281h88zM1069 449q0 41 -28 69t-72 27h-154v-281h84v88h8
l70 -88h106l-77 92q63 25 63 93zM784 334h-139v37h125v63h-125v37h139v74h-227v-281h227v70zM545 545h-99l-59 -166l-55 166h-96l110 -281h88zM1784 403q0 59 -45 103t-107 43q-62 0 -108 -43q-45 -42 -45 -102t45 -102t107 -42t108 42q45 42 45 101zM1212 549
q-51 0 -83 -24t-31 -68q0 -59 78 -82l55 -15q18 -6 18 -14q1 -18 -33 -18t-40 32l-89 -14q16 -86 130 -86q49 0 85 23t35 69q0 59 -80 82l-55 15q-12 4 -12 20q0 17 26 17t37 -33l84 14q-14 82 -125 82zM1968 905q0 -45 -28 -74t-70 -29t-69 30q-28 28 -27 73q0 45 28 75
q29 30 70 30q40 0 68 -30t28 -75zM391 803v207h43q47 0 79 -30t32 -75t-31 -74t-80 -28h-43zM1599 1116h-139l-110 -217l-105 217h-143v-424h129v180l78 -180h84l77 180v-180h129v424zM1055 803h-207v55h188v96h-188v56h207v106h-336v-424h336v111zM258 1116v-424h184
q104 0 168 60t64 152t-64 152t-168 60h-184zM2101 904q0 93 -66 158q-67 64 -163 64t-164 -64t-68 -158q0 -93 68 -156q68 -64 164 -64t162 64t67 156zM2361 1372v-1372h-2361v1372h2361z" />
    <glyph glyph-name="uacute" unicode="&#xfa;" 
d="M1632 471q28 -1 46 -19t18 -49t-18 -50t-46 -19q-27 0 -46 19t-19 49t18 50t47 19zM899 471h51q31 0 31 -28t-31 -27h-51v55zM2087 545h-82v-144l-125 144h-70v-281h88v133l121 -133h68v281zM1452 264v281h-88v-281h88zM1069 449q0 41 -28 69t-72 27h-154v-281h84v88h8
l70 -88h106l-77 92q63 25 63 93zM784 334h-139v37h125v63h-125v37h139v74h-227v-281h227v70zM545 545h-99l-59 -166l-55 166h-96l110 -281h88zM1784 403q0 59 -45 103t-107 43q-62 0 -108 -43q-45 -42 -45 -102t45 -102t107 -42t108 42q45 42 45 101zM1212 549
q-51 0 -83 -24t-31 -68q0 -59 78 -82l55 -15q18 -6 18 -14q1 -18 -33 -18t-40 32l-89 -14q16 -86 130 -86q49 0 85 23t35 69q0 59 -80 82l-55 15q-12 4 -12 20q0 17 26 17t37 -33l84 14q-14 82 -125 82zM1968 905q0 -45 -28 -74t-70 -29t-69 30q-28 28 -27 73q0 45 28 75
q29 30 70 30q40 0 68 -30t28 -75zM391 803v207h43q47 0 79 -30t32 -75t-31 -74t-80 -28h-43zM1599 1116h-139l-110 -217l-105 217h-143v-424h129v180l78 -180h84l77 180v-180h129v424zM1055 803h-207v55h188v96h-188v56h207v106h-336v-424h336v111zM258 1116v-424h184
q104 0 168 60t64 152t-64 152t-168 60h-184zM2101 904q0 93 -66 158q-67 64 -163 64t-164 -64t-68 -158q0 -93 68 -156q68 -64 164 -64t162 64t67 156zM2361 1372v-1372h-2361v1372h2361z" />
    <glyph glyph-name="ucircumflex" unicode="&#xfb;" 
d="M1632 471q28 -1 46 -19t18 -49t-18 -50t-46 -19q-27 0 -46 19t-19 49t18 50t47 19zM899 471h51q31 0 31 -28t-31 -27h-51v55zM2087 545h-82v-144l-125 144h-70v-281h88v133l121 -133h68v281zM1452 264v281h-88v-281h88zM1069 449q0 41 -28 69t-72 27h-154v-281h84v88h8
l70 -88h106l-77 92q63 25 63 93zM784 334h-139v37h125v63h-125v37h139v74h-227v-281h227v70zM545 545h-99l-59 -166l-55 166h-96l110 -281h88zM1784 403q0 59 -45 103t-107 43q-62 0 -108 -43q-45 -42 -45 -102t45 -102t107 -42t108 42q45 42 45 101zM1212 549
q-51 0 -83 -24t-31 -68q0 -59 78 -82l55 -15q18 -6 18 -14q1 -18 -33 -18t-40 32l-89 -14q16 -86 130 -86q49 0 85 23t35 69q0 59 -80 82l-55 15q-12 4 -12 20q0 17 26 17t37 -33l84 14q-14 82 -125 82zM1968 905q0 -45 -28 -74t-70 -29t-69 30q-28 28 -27 73q0 45 28 75
q29 30 70 30q40 0 68 -30t28 -75zM391 803v207h43q47 0 79 -30t32 -75t-31 -74t-80 -28h-43zM1599 1116h-139l-110 -217l-105 217h-143v-424h129v180l78 -180h84l77 180v-180h129v424zM1055 803h-207v55h188v96h-188v56h207v106h-336v-424h336v111zM258 1116v-424h184
q104 0 168 60t64 152t-64 152t-168 60h-184zM2101 904q0 93 -66 158q-67 64 -163 64t-164 -64t-68 -158q0 -93 68 -156q68 -64 164 -64t162 64t67 156zM2361 1372v-1372h-2361v1372h2361z" />
    <glyph glyph-name="udieresis" unicode="&#xfc;" 
d="M1632 471q28 -1 46 -19t18 -49t-18 -50t-46 -19q-27 0 -46 19t-19 49t18 50t47 19zM899 471h51q31 0 31 -28t-31 -27h-51v55zM2087 545h-82v-144l-125 144h-70v-281h88v133l121 -133h68v281zM1452 264v281h-88v-281h88zM1069 449q0 41 -28 69t-72 27h-154v-281h84v88h8
l70 -88h106l-77 92q63 25 63 93zM784 334h-139v37h125v63h-125v37h139v74h-227v-281h227v70zM545 545h-99l-59 -166l-55 166h-96l110 -281h88zM1784 403q0 59 -45 103t-107 43q-62 0 -108 -43q-45 -42 -45 -102t45 -102t107 -42t108 42q45 42 45 101zM1212 549
q-51 0 -83 -24t-31 -68q0 -59 78 -82l55 -15q18 -6 18 -14q1 -18 -33 -18t-40 32l-89 -14q16 -86 130 -86q49 0 85 23t35 69q0 59 -80 82l-55 15q-12 4 -12 20q0 17 26 17t37 -33l84 14q-14 82 -125 82zM1968 905q0 -45 -28 -74t-70 -29t-69 30q-28 28 -27 73q0 45 28 75
q29 30 70 30q40 0 68 -30t28 -75zM391 803v207h43q47 0 79 -30t32 -75t-31 -74t-80 -28h-43zM1599 1116h-139l-110 -217l-105 217h-143v-424h129v180l78 -180h84l77 180v-180h129v424zM1055 803h-207v55h188v96h-188v56h207v106h-336v-424h336v111zM258 1116v-424h184
q104 0 168 60t64 152t-64 152t-168 60h-184zM2101 904q0 93 -66 158q-67 64 -163 64t-164 -64t-68 -158q0 -93 68 -156q68 -64 164 -64t162 64t67 156zM2361 1372v-1372h-2361v1372h2361z" />
    <glyph glyph-name="yacute" unicode="&#xfd;" 
d="M1632 471q28 -1 46 -19t18 -49t-18 -50t-46 -19q-27 0 -46 19t-19 49t18 50t47 19zM899 471h51q31 0 31 -28t-31 -27h-51v55zM2087 545h-82v-144l-125 144h-70v-281h88v133l121 -133h68v281zM1452 264v281h-88v-281h88zM1069 449q0 41 -28 69t-72 27h-154v-281h84v88h8
l70 -88h106l-77 92q63 25 63 93zM784 334h-139v37h125v63h-125v37h139v74h-227v-281h227v70zM545 545h-99l-59 -166l-55 166h-96l110 -281h88zM1784 403q0 59 -45 103t-107 43q-62 0 -108 -43q-45 -42 -45 -102t45 -102t107 -42t108 42q45 42 45 101zM1212 549
q-51 0 -83 -24t-31 -68q0 -59 78 -82l55 -15q18 -6 18 -14q1 -18 -33 -18t-40 32l-89 -14q16 -86 130 -86q49 0 85 23t35 69q0 59 -80 82l-55 15q-12 4 -12 20q0 17 26 17t37 -33l84 14q-14 82 -125 82zM1968 905q0 -45 -28 -74t-70 -29t-69 30q-28 28 -27 73q0 45 28 75
q29 30 70 30q40 0 68 -30t28 -75zM391 803v207h43q47 0 79 -30t32 -75t-31 -74t-80 -28h-43zM1599 1116h-139l-110 -217l-105 217h-143v-424h129v180l78 -180h84l77 180v-180h129v424zM1055 803h-207v55h188v96h-188v56h207v106h-336v-424h336v111zM258 1116v-424h184
q104 0 168 60t64 152t-64 152t-168 60h-184zM2101 904q0 93 -66 158q-67 64 -163 64t-164 -64t-68 -158q0 -93 68 -156q68 -64 164 -64t162 64t67 156zM2361 1372v-1372h-2361v1372h2361z" />
    <glyph glyph-name="thorn" unicode="&#xfe;" horiz-adv-x="1318" 
d="M446 513q0 -117 75 -191t181 -74t175 74t69 192t-69 192t-175 74t-181 -76t-75 -191zM773 1059q202 0 348 -154q147 -155 147 -393t-146 -390t-349 -153q-202 0 -327 113v-430h-327v1823h327v-529q125 113 327 113z" />
    <glyph glyph-name="ydieresis" unicode="&#xff;" 
d="M1632 471q28 -1 46 -19t18 -49t-18 -50t-46 -19q-27 0 -46 19t-19 49t18 50t47 19zM899 471h51q31 0 31 -28t-31 -27h-51v55zM2087 545h-82v-144l-125 144h-70v-281h88v133l121 -133h68v281zM1452 264v281h-88v-281h88zM1069 449q0 41 -28 69t-72 27h-154v-281h84v88h8
l70 -88h106l-77 92q63 25 63 93zM784 334h-139v37h125v63h-125v37h139v74h-227v-281h227v70zM545 545h-99l-59 -166l-55 166h-96l110 -281h88zM1784 403q0 59 -45 103t-107 43q-62 0 -108 -43q-45 -42 -45 -102t45 -102t107 -42t108 42q45 42 45 101zM1212 549
q-51 0 -83 -24t-31 -68q0 -59 78 -82l55 -15q18 -6 18 -14q1 -18 -33 -18t-40 32l-89 -14q16 -86 130 -86q49 0 85 23t35 69q0 59 -80 82l-55 15q-12 4 -12 20q0 17 26 17t37 -33l84 14q-14 82 -125 82zM1968 905q0 -45 -28 -74t-70 -29t-69 30q-28 28 -27 73q0 45 28 75
q29 30 70 30q40 0 68 -30t28 -75zM391 803v207h43q47 0 79 -30t32 -75t-31 -74t-80 -28h-43zM1599 1116h-139l-110 -217l-105 217h-143v-424h129v180l78 -180h84l77 180v-180h129v424zM1055 803h-207v55h188v96h-188v56h207v106h-336v-424h336v111zM258 1116v-424h184
q104 0 168 60t64 152t-64 152t-168 60h-184zM2101 904q0 93 -66 158q-67 64 -163 64t-164 -64t-68 -158q0 -93 68 -156q68 -64 164 -64t162 64t67 156zM2361 1372v-1372h-2361v1372h2361z" />
    <glyph glyph-name="Amacron" unicode="&#x100;" 
d="M1632 471q28 -1 46 -19t18 -49t-18 -50t-46 -19q-27 0 -46 19t-19 49t18 50t47 19zM899 471h51q31 0 31 -28t-31 -27h-51v55zM2087 545h-82v-144l-125 144h-70v-281h88v133l121 -133h68v281zM1452 264v281h-88v-281h88zM1069 449q0 41 -28 69t-72 27h-154v-281h84v88h8
l70 -88h106l-77 92q63 25 63 93zM784 334h-139v37h125v63h-125v37h139v74h-227v-281h227v70zM545 545h-99l-59 -166l-55 166h-96l110 -281h88zM1784 403q0 59 -45 103t-107 43q-62 0 -108 -43q-45 -42 -45 -102t45 -102t107 -42t108 42q45 42 45 101zM1212 549
q-51 0 -83 -24t-31 -68q0 -59 78 -82l55 -15q18 -6 18 -14q1 -18 -33 -18t-40 32l-89 -14q16 -86 130 -86q49 0 85 23t35 69q0 59 -80 82l-55 15q-12 4 -12 20q0 17 26 17t37 -33l84 14q-14 82 -125 82zM1968 905q0 -45 -28 -74t-70 -29t-69 30q-28 28 -27 73q0 45 28 75
q29 30 70 30q40 0 68 -30t28 -75zM391 803v207h43q47 0 79 -30t32 -75t-31 -74t-80 -28h-43zM1599 1116h-139l-110 -217l-105 217h-143v-424h129v180l78 -180h84l77 180v-180h129v424zM1055 803h-207v55h188v96h-188v56h207v106h-336v-424h336v111zM258 1116v-424h184
q104 0 168 60t64 152t-64 152t-168 60h-184zM2101 904q0 93 -66 158q-67 64 -163 64t-164 -64t-68 -158q0 -93 68 -156q68 -64 164 -64t162 64t67 156zM2361 1372v-1372h-2361v1372h2361z" />
    <glyph glyph-name="amacron" unicode="&#x101;" 
d="M1632 471q28 -1 46 -19t18 -49t-18 -50t-46 -19q-27 0 -46 19t-19 49t18 50t47 19zM899 471h51q31 0 31 -28t-31 -27h-51v55zM2087 545h-82v-144l-125 144h-70v-281h88v133l121 -133h68v281zM1452 264v281h-88v-281h88zM1069 449q0 41 -28 69t-72 27h-154v-281h84v88h8
l70 -88h106l-77 92q63 25 63 93zM784 334h-139v37h125v63h-125v37h139v74h-227v-281h227v70zM545 545h-99l-59 -166l-55 166h-96l110 -281h88zM1784 403q0 59 -45 103t-107 43q-62 0 -108 -43q-45 -42 -45 -102t45 -102t107 -42t108 42q45 42 45 101zM1212 549
q-51 0 -83 -24t-31 -68q0 -59 78 -82l55 -15q18 -6 18 -14q1 -18 -33 -18t-40 32l-89 -14q16 -86 130 -86q49 0 85 23t35 69q0 59 -80 82l-55 15q-12 4 -12 20q0 17 26 17t37 -33l84 14q-14 82 -125 82zM1968 905q0 -45 -28 -74t-70 -29t-69 30q-28 28 -27 73q0 45 28 75
q29 30 70 30q40 0 68 -30t28 -75zM391 803v207h43q47 0 79 -30t32 -75t-31 -74t-80 -28h-43zM1599 1116h-139l-110 -217l-105 217h-143v-424h129v180l78 -180h84l77 180v-180h129v424zM1055 803h-207v55h188v96h-188v56h207v106h-336v-424h336v111zM258 1116v-424h184
q104 0 168 60t64 152t-64 152t-168 60h-184zM2101 904q0 93 -66 158q-67 64 -163 64t-164 -64t-68 -158q0 -93 68 -156q68 -64 164 -64t162 64t67 156zM2361 1372v-1372h-2361v1372h2361z" />
    <glyph glyph-name="Abreve" unicode="&#x102;" 
d="M1632 471q28 -1 46 -19t18 -49t-18 -50t-46 -19q-27 0 -46 19t-19 49t18 50t47 19zM899 471h51q31 0 31 -28t-31 -27h-51v55zM2087 545h-82v-144l-125 144h-70v-281h88v133l121 -133h68v281zM1452 264v281h-88v-281h88zM1069 449q0 41 -28 69t-72 27h-154v-281h84v88h8
l70 -88h106l-77 92q63 25 63 93zM784 334h-139v37h125v63h-125v37h139v74h-227v-281h227v70zM545 545h-99l-59 -166l-55 166h-96l110 -281h88zM1784 403q0 59 -45 103t-107 43q-62 0 -108 -43q-45 -42 -45 -102t45 -102t107 -42t108 42q45 42 45 101zM1212 549
q-51 0 -83 -24t-31 -68q0 -59 78 -82l55 -15q18 -6 18 -14q1 -18 -33 -18t-40 32l-89 -14q16 -86 130 -86q49 0 85 23t35 69q0 59 -80 82l-55 15q-12 4 -12 20q0 17 26 17t37 -33l84 14q-14 82 -125 82zM1968 905q0 -45 -28 -74t-70 -29t-69 30q-28 28 -27 73q0 45 28 75
q29 30 70 30q40 0 68 -30t28 -75zM391 803v207h43q47 0 79 -30t32 -75t-31 -74t-80 -28h-43zM1599 1116h-139l-110 -217l-105 217h-143v-424h129v180l78 -180h84l77 180v-180h129v424zM1055 803h-207v55h188v96h-188v56h207v106h-336v-424h336v111zM258 1116v-424h184
q104 0 168 60t64 152t-64 152t-168 60h-184zM2101 904q0 93 -66 158q-67 64 -163 64t-164 -64t-68 -158q0 -93 68 -156q68 -64 164 -64t162 64t67 156zM2361 1372v-1372h-2361v1372h2361z" />
    <glyph glyph-name="abreve" unicode="&#x103;" 
d="M1632 471q28 -1 46 -19t18 -49t-18 -50t-46 -19q-27 0 -46 19t-19 49t18 50t47 19zM899 471h51q31 0 31 -28t-31 -27h-51v55zM2087 545h-82v-144l-125 144h-70v-281h88v133l121 -133h68v281zM1452 264v281h-88v-281h88zM1069 449q0 41 -28 69t-72 27h-154v-281h84v88h8
l70 -88h106l-77 92q63 25 63 93zM784 334h-139v37h125v63h-125v37h139v74h-227v-281h227v70zM545 545h-99l-59 -166l-55 166h-96l110 -281h88zM1784 403q0 59 -45 103t-107 43q-62 0 -108 -43q-45 -42 -45 -102t45 -102t107 -42t108 42q45 42 45 101zM1212 549
q-51 0 -83 -24t-31 -68q0 -59 78 -82l55 -15q18 -6 18 -14q1 -18 -33 -18t-40 32l-89 -14q16 -86 130 -86q49 0 85 23t35 69q0 59 -80 82l-55 15q-12 4 -12 20q0 17 26 17t37 -33l84 14q-14 82 -125 82zM1968 905q0 -45 -28 -74t-70 -29t-69 30q-28 28 -27 73q0 45 28 75
q29 30 70 30q40 0 68 -30t28 -75zM391 803v207h43q47 0 79 -30t32 -75t-31 -74t-80 -28h-43zM1599 1116h-139l-110 -217l-105 217h-143v-424h129v180l78 -180h84l77 180v-180h129v424zM1055 803h-207v55h188v96h-188v56h207v106h-336v-424h336v111zM258 1116v-424h184
q104 0 168 60t64 152t-64 152t-168 60h-184zM2101 904q0 93 -66 158q-67 64 -163 64t-164 -64t-68 -158q0 -93 68 -156q68 -64 164 -64t162 64t67 156zM2361 1372v-1372h-2361v1372h2361z" />
    <glyph glyph-name="Aogonek" unicode="&#x104;" 
d="M1632 471q28 -1 46 -19t18 -49t-18 -50t-46 -19q-27 0 -46 19t-19 49t18 50t47 19zM899 471h51q31 0 31 -28t-31 -27h-51v55zM2087 545h-82v-144l-125 144h-70v-281h88v133l121 -133h68v281zM1452 264v281h-88v-281h88zM1069 449q0 41 -28 69t-72 27h-154v-281h84v88h8
l70 -88h106l-77 92q63 25 63 93zM784 334h-139v37h125v63h-125v37h139v74h-227v-281h227v70zM545 545h-99l-59 -166l-55 166h-96l110 -281h88zM1784 403q0 59 -45 103t-107 43q-62 0 -108 -43q-45 -42 -45 -102t45 -102t107 -42t108 42q45 42 45 101zM1212 549
q-51 0 -83 -24t-31 -68q0 -59 78 -82l55 -15q18 -6 18 -14q1 -18 -33 -18t-40 32l-89 -14q16 -86 130 -86q49 0 85 23t35 69q0 59 -80 82l-55 15q-12 4 -12 20q0 17 26 17t37 -33l84 14q-14 82 -125 82zM1968 905q0 -45 -28 -74t-70 -29t-69 30q-28 28 -27 73q0 45 28 75
q29 30 70 30q40 0 68 -30t28 -75zM391 803v207h43q47 0 79 -30t32 -75t-31 -74t-80 -28h-43zM1599 1116h-139l-110 -217l-105 217h-143v-424h129v180l78 -180h84l77 180v-180h129v424zM1055 803h-207v55h188v96h-188v56h207v106h-336v-424h336v111zM258 1116v-424h184
q104 0 168 60t64 152t-64 152t-168 60h-184zM2101 904q0 93 -66 158q-67 64 -163 64t-164 -64t-68 -158q0 -93 68 -156q68 -64 164 -64t162 64t67 156zM2361 1372v-1372h-2361v1372h2361z" />
    <glyph glyph-name="aogonek" unicode="&#x105;" 
d="M1632 471q28 -1 46 -19t18 -49t-18 -50t-46 -19q-27 0 -46 19t-19 49t18 50t47 19zM899 471h51q31 0 31 -28t-31 -27h-51v55zM2087 545h-82v-144l-125 144h-70v-281h88v133l121 -133h68v281zM1452 264v281h-88v-281h88zM1069 449q0 41 -28 69t-72 27h-154v-281h84v88h8
l70 -88h106l-77 92q63 25 63 93zM784 334h-139v37h125v63h-125v37h139v74h-227v-281h227v70zM545 545h-99l-59 -166l-55 166h-96l110 -281h88zM1784 403q0 59 -45 103t-107 43q-62 0 -108 -43q-45 -42 -45 -102t45 -102t107 -42t108 42q45 42 45 101zM1212 549
q-51 0 -83 -24t-31 -68q0 -59 78 -82l55 -15q18 -6 18 -14q1 -18 -33 -18t-40 32l-89 -14q16 -86 130 -86q49 0 85 23t35 69q0 59 -80 82l-55 15q-12 4 -12 20q0 17 26 17t37 -33l84 14q-14 82 -125 82zM1968 905q0 -45 -28 -74t-70 -29t-69 30q-28 28 -27 73q0 45 28 75
q29 30 70 30q40 0 68 -30t28 -75zM391 803v207h43q47 0 79 -30t32 -75t-31 -74t-80 -28h-43zM1599 1116h-139l-110 -217l-105 217h-143v-424h129v180l78 -180h84l77 180v-180h129v424zM1055 803h-207v55h188v96h-188v56h207v106h-336v-424h336v111zM258 1116v-424h184
q104 0 168 60t64 152t-64 152t-168 60h-184zM2101 904q0 93 -66 158q-67 64 -163 64t-164 -64t-68 -158q0 -93 68 -156q68 -64 164 -64t162 64t67 156zM2361 1372v-1372h-2361v1372h2361z" />
    <glyph glyph-name="Cacute" unicode="&#x106;" 
d="M1632 471q28 -1 46 -19t18 -49t-18 -50t-46 -19q-27 0 -46 19t-19 49t18 50t47 19zM899 471h51q31 0 31 -28t-31 -27h-51v55zM2087 545h-82v-144l-125 144h-70v-281h88v133l121 -133h68v281zM1452 264v281h-88v-281h88zM1069 449q0 41 -28 69t-72 27h-154v-281h84v88h8
l70 -88h106l-77 92q63 25 63 93zM784 334h-139v37h125v63h-125v37h139v74h-227v-281h227v70zM545 545h-99l-59 -166l-55 166h-96l110 -281h88zM1784 403q0 59 -45 103t-107 43q-62 0 -108 -43q-45 -42 -45 -102t45 -102t107 -42t108 42q45 42 45 101zM1212 549
q-51 0 -83 -24t-31 -68q0 -59 78 -82l55 -15q18 -6 18 -14q1 -18 -33 -18t-40 32l-89 -14q16 -86 130 -86q49 0 85 23t35 69q0 59 -80 82l-55 15q-12 4 -12 20q0 17 26 17t37 -33l84 14q-14 82 -125 82zM1968 905q0 -45 -28 -74t-70 -29t-69 30q-28 28 -27 73q0 45 28 75
q29 30 70 30q40 0 68 -30t28 -75zM391 803v207h43q47 0 79 -30t32 -75t-31 -74t-80 -28h-43zM1599 1116h-139l-110 -217l-105 217h-143v-424h129v180l78 -180h84l77 180v-180h129v424zM1055 803h-207v55h188v96h-188v56h207v106h-336v-424h336v111zM258 1116v-424h184
q104 0 168 60t64 152t-64 152t-168 60h-184zM2101 904q0 93 -66 158q-67 64 -163 64t-164 -64t-68 -158q0 -93 68 -156q68 -64 164 -64t162 64t67 156zM2361 1372v-1372h-2361v1372h2361z" />
    <glyph glyph-name="cacute" unicode="&#x107;" 
d="M1632 471q28 -1 46 -19t18 -49t-18 -50t-46 -19q-27 0 -46 19t-19 49t18 50t47 19zM899 471h51q31 0 31 -28t-31 -27h-51v55zM2087 545h-82v-144l-125 144h-70v-281h88v133l121 -133h68v281zM1452 264v281h-88v-281h88zM1069 449q0 41 -28 69t-72 27h-154v-281h84v88h8
l70 -88h106l-77 92q63 25 63 93zM784 334h-139v37h125v63h-125v37h139v74h-227v-281h227v70zM545 545h-99l-59 -166l-55 166h-96l110 -281h88zM1784 403q0 59 -45 103t-107 43q-62 0 -108 -43q-45 -42 -45 -102t45 -102t107 -42t108 42q45 42 45 101zM1212 549
q-51 0 -83 -24t-31 -68q0 -59 78 -82l55 -15q18 -6 18 -14q1 -18 -33 -18t-40 32l-89 -14q16 -86 130 -86q49 0 85 23t35 69q0 59 -80 82l-55 15q-12 4 -12 20q0 17 26 17t37 -33l84 14q-14 82 -125 82zM1968 905q0 -45 -28 -74t-70 -29t-69 30q-28 28 -27 73q0 45 28 75
q29 30 70 30q40 0 68 -30t28 -75zM391 803v207h43q47 0 79 -30t32 -75t-31 -74t-80 -28h-43zM1599 1116h-139l-110 -217l-105 217h-143v-424h129v180l78 -180h84l77 180v-180h129v424zM1055 803h-207v55h188v96h-188v56h207v106h-336v-424h336v111zM258 1116v-424h184
q104 0 168 60t64 152t-64 152t-168 60h-184zM2101 904q0 93 -66 158q-67 64 -163 64t-164 -64t-68 -158q0 -93 68 -156q68 -64 164 -64t162 64t67 156zM2361 1372v-1372h-2361v1372h2361z" />
    <glyph glyph-name="Cdotaccent" unicode="&#x10a;" 
d="M1632 471q28 -1 46 -19t18 -49t-18 -50t-46 -19q-27 0 -46 19t-19 49t18 50t47 19zM899 471h51q31 0 31 -28t-31 -27h-51v55zM2087 545h-82v-144l-125 144h-70v-281h88v133l121 -133h68v281zM1452 264v281h-88v-281h88zM1069 449q0 41 -28 69t-72 27h-154v-281h84v88h8
l70 -88h106l-77 92q63 25 63 93zM784 334h-139v37h125v63h-125v37h139v74h-227v-281h227v70zM545 545h-99l-59 -166l-55 166h-96l110 -281h88zM1784 403q0 59 -45 103t-107 43q-62 0 -108 -43q-45 -42 -45 -102t45 -102t107 -42t108 42q45 42 45 101zM1212 549
q-51 0 -83 -24t-31 -68q0 -59 78 -82l55 -15q18 -6 18 -14q1 -18 -33 -18t-40 32l-89 -14q16 -86 130 -86q49 0 85 23t35 69q0 59 -80 82l-55 15q-12 4 -12 20q0 17 26 17t37 -33l84 14q-14 82 -125 82zM1968 905q0 -45 -28 -74t-70 -29t-69 30q-28 28 -27 73q0 45 28 75
q29 30 70 30q40 0 68 -30t28 -75zM391 803v207h43q47 0 79 -30t32 -75t-31 -74t-80 -28h-43zM1599 1116h-139l-110 -217l-105 217h-143v-424h129v180l78 -180h84l77 180v-180h129v424zM1055 803h-207v55h188v96h-188v56h207v106h-336v-424h336v111zM258 1116v-424h184
q104 0 168 60t64 152t-64 152t-168 60h-184zM2101 904q0 93 -66 158q-67 64 -163 64t-164 -64t-68 -158q0 -93 68 -156q68 -64 164 -64t162 64t67 156zM2361 1372v-1372h-2361v1372h2361z" />
    <glyph glyph-name="cdotaccent" unicode="&#x10b;" 
d="M1632 471q28 -1 46 -19t18 -49t-18 -50t-46 -19q-27 0 -46 19t-19 49t18 50t47 19zM899 471h51q31 0 31 -28t-31 -27h-51v55zM2087 545h-82v-144l-125 144h-70v-281h88v133l121 -133h68v281zM1452 264v281h-88v-281h88zM1069 449q0 41 -28 69t-72 27h-154v-281h84v88h8
l70 -88h106l-77 92q63 25 63 93zM784 334h-139v37h125v63h-125v37h139v74h-227v-281h227v70zM545 545h-99l-59 -166l-55 166h-96l110 -281h88zM1784 403q0 59 -45 103t-107 43q-62 0 -108 -43q-45 -42 -45 -102t45 -102t107 -42t108 42q45 42 45 101zM1212 549
q-51 0 -83 -24t-31 -68q0 -59 78 -82l55 -15q18 -6 18 -14q1 -18 -33 -18t-40 32l-89 -14q16 -86 130 -86q49 0 85 23t35 69q0 59 -80 82l-55 15q-12 4 -12 20q0 17 26 17t37 -33l84 14q-14 82 -125 82zM1968 905q0 -45 -28 -74t-70 -29t-69 30q-28 28 -27 73q0 45 28 75
q29 30 70 30q40 0 68 -30t28 -75zM391 803v207h43q47 0 79 -30t32 -75t-31 -74t-80 -28h-43zM1599 1116h-139l-110 -217l-105 217h-143v-424h129v180l78 -180h84l77 180v-180h129v424zM1055 803h-207v55h188v96h-188v56h207v106h-336v-424h336v111zM258 1116v-424h184
q104 0 168 60t64 152t-64 152t-168 60h-184zM2101 904q0 93 -66 158q-67 64 -163 64t-164 -64t-68 -158q0 -93 68 -156q68 -64 164 -64t162 64t67 156zM2361 1372v-1372h-2361v1372h2361z" />
    <glyph glyph-name="Ccaron" unicode="&#x10c;" 
d="M1632 471q28 -1 46 -19t18 -49t-18 -50t-46 -19q-27 0 -46 19t-19 49t18 50t47 19zM899 471h51q31 0 31 -28t-31 -27h-51v55zM2087 545h-82v-144l-125 144h-70v-281h88v133l121 -133h68v281zM1452 264v281h-88v-281h88zM1069 449q0 41 -28 69t-72 27h-154v-281h84v88h8
l70 -88h106l-77 92q63 25 63 93zM784 334h-139v37h125v63h-125v37h139v74h-227v-281h227v70zM545 545h-99l-59 -166l-55 166h-96l110 -281h88zM1784 403q0 59 -45 103t-107 43q-62 0 -108 -43q-45 -42 -45 -102t45 -102t107 -42t108 42q45 42 45 101zM1212 549
q-51 0 -83 -24t-31 -68q0 -59 78 -82l55 -15q18 -6 18 -14q1 -18 -33 -18t-40 32l-89 -14q16 -86 130 -86q49 0 85 23t35 69q0 59 -80 82l-55 15q-12 4 -12 20q0 17 26 17t37 -33l84 14q-14 82 -125 82zM1968 905q0 -45 -28 -74t-70 -29t-69 30q-28 28 -27 73q0 45 28 75
q29 30 70 30q40 0 68 -30t28 -75zM391 803v207h43q47 0 79 -30t32 -75t-31 -74t-80 -28h-43zM1599 1116h-139l-110 -217l-105 217h-143v-424h129v180l78 -180h84l77 180v-180h129v424zM1055 803h-207v55h188v96h-188v56h207v106h-336v-424h336v111zM258 1116v-424h184
q104 0 168 60t64 152t-64 152t-168 60h-184zM2101 904q0 93 -66 158q-67 64 -163 64t-164 -64t-68 -158q0 -93 68 -156q68 -64 164 -64t162 64t67 156zM2361 1372v-1372h-2361v1372h2361z" />
    <glyph glyph-name="ccaron" unicode="&#x10d;" 
d="M1632 471q28 -1 46 -19t18 -49t-18 -50t-46 -19q-27 0 -46 19t-19 49t18 50t47 19zM899 471h51q31 0 31 -28t-31 -27h-51v55zM2087 545h-82v-144l-125 144h-70v-281h88v133l121 -133h68v281zM1452 264v281h-88v-281h88zM1069 449q0 41 -28 69t-72 27h-154v-281h84v88h8
l70 -88h106l-77 92q63 25 63 93zM784 334h-139v37h125v63h-125v37h139v74h-227v-281h227v70zM545 545h-99l-59 -166l-55 166h-96l110 -281h88zM1784 403q0 59 -45 103t-107 43q-62 0 -108 -43q-45 -42 -45 -102t45 -102t107 -42t108 42q45 42 45 101zM1212 549
q-51 0 -83 -24t-31 -68q0 -59 78 -82l55 -15q18 -6 18 -14q1 -18 -33 -18t-40 32l-89 -14q16 -86 130 -86q49 0 85 23t35 69q0 59 -80 82l-55 15q-12 4 -12 20q0 17 26 17t37 -33l84 14q-14 82 -125 82zM1968 905q0 -45 -28 -74t-70 -29t-69 30q-28 28 -27 73q0 45 28 75
q29 30 70 30q40 0 68 -30t28 -75zM391 803v207h43q47 0 79 -30t32 -75t-31 -74t-80 -28h-43zM1599 1116h-139l-110 -217l-105 217h-143v-424h129v180l78 -180h84l77 180v-180h129v424zM1055 803h-207v55h188v96h-188v56h207v106h-336v-424h336v111zM258 1116v-424h184
q104 0 168 60t64 152t-64 152t-168 60h-184zM2101 904q0 93 -66 158q-67 64 -163 64t-164 -64t-68 -158q0 -93 68 -156q68 -64 164 -64t162 64t67 156zM2361 1372v-1372h-2361v1372h2361z" />
    <glyph glyph-name="Dcaron" unicode="&#x10e;" 
d="M1632 471q28 -1 46 -19t18 -49t-18 -50t-46 -19q-27 0 -46 19t-19 49t18 50t47 19zM899 471h51q31 0 31 -28t-31 -27h-51v55zM2087 545h-82v-144l-125 144h-70v-281h88v133l121 -133h68v281zM1452 264v281h-88v-281h88zM1069 449q0 41 -28 69t-72 27h-154v-281h84v88h8
l70 -88h106l-77 92q63 25 63 93zM784 334h-139v37h125v63h-125v37h139v74h-227v-281h227v70zM545 545h-99l-59 -166l-55 166h-96l110 -281h88zM1784 403q0 59 -45 103t-107 43q-62 0 -108 -43q-45 -42 -45 -102t45 -102t107 -42t108 42q45 42 45 101zM1212 549
q-51 0 -83 -24t-31 -68q0 -59 78 -82l55 -15q18 -6 18 -14q1 -18 -33 -18t-40 32l-89 -14q16 -86 130 -86q49 0 85 23t35 69q0 59 -80 82l-55 15q-12 4 -12 20q0 17 26 17t37 -33l84 14q-14 82 -125 82zM1968 905q0 -45 -28 -74t-70 -29t-69 30q-28 28 -27 73q0 45 28 75
q29 30 70 30q40 0 68 -30t28 -75zM391 803v207h43q47 0 79 -30t32 -75t-31 -74t-80 -28h-43zM1599 1116h-139l-110 -217l-105 217h-143v-424h129v180l78 -180h84l77 180v-180h129v424zM1055 803h-207v55h188v96h-188v56h207v106h-336v-424h336v111zM258 1116v-424h184
q104 0 168 60t64 152t-64 152t-168 60h-184zM2101 904q0 93 -66 158q-67 64 -163 64t-164 -64t-68 -158q0 -93 68 -156q68 -64 164 -64t162 64t67 156zM2361 1372v-1372h-2361v1372h2361z" />
    <glyph glyph-name="dcaron" unicode="&#x10f;" 
d="M1632 471q28 -1 46 -19t18 -49t-18 -50t-46 -19q-27 0 -46 19t-19 49t18 50t47 19zM899 471h51q31 0 31 -28t-31 -27h-51v55zM2087 545h-82v-144l-125 144h-70v-281h88v133l121 -133h68v281zM1452 264v281h-88v-281h88zM1069 449q0 41 -28 69t-72 27h-154v-281h84v88h8
l70 -88h106l-77 92q63 25 63 93zM784 334h-139v37h125v63h-125v37h139v74h-227v-281h227v70zM545 545h-99l-59 -166l-55 166h-96l110 -281h88zM1784 403q0 59 -45 103t-107 43q-62 0 -108 -43q-45 -42 -45 -102t45 -102t107 -42t108 42q45 42 45 101zM1212 549
q-51 0 -83 -24t-31 -68q0 -59 78 -82l55 -15q18 -6 18 -14q1 -18 -33 -18t-40 32l-89 -14q16 -86 130 -86q49 0 85 23t35 69q0 59 -80 82l-55 15q-12 4 -12 20q0 17 26 17t37 -33l84 14q-14 82 -125 82zM1968 905q0 -45 -28 -74t-70 -29t-69 30q-28 28 -27 73q0 45 28 75
q29 30 70 30q40 0 68 -30t28 -75zM391 803v207h43q47 0 79 -30t32 -75t-31 -74t-80 -28h-43zM1599 1116h-139l-110 -217l-105 217h-143v-424h129v180l78 -180h84l77 180v-180h129v424zM1055 803h-207v55h188v96h-188v56h207v106h-336v-424h336v111zM258 1116v-424h184
q104 0 168 60t64 152t-64 152t-168 60h-184zM2101 904q0 93 -66 158q-67 64 -163 64t-164 -64t-68 -158q0 -93 68 -156q68 -64 164 -64t162 64t67 156zM2361 1372v-1372h-2361v1372h2361z" />
    <glyph glyph-name="Dcroat" unicode="&#x110;" 
d="M1632 471q28 -1 46 -19t18 -49t-18 -50t-46 -19q-27 0 -46 19t-19 49t18 50t47 19zM899 471h51q31 0 31 -28t-31 -27h-51v55zM2087 545h-82v-144l-125 144h-70v-281h88v133l121 -133h68v281zM1452 264v281h-88v-281h88zM1069 449q0 41 -28 69t-72 27h-154v-281h84v88h8
l70 -88h106l-77 92q63 25 63 93zM784 334h-139v37h125v63h-125v37h139v74h-227v-281h227v70zM545 545h-99l-59 -166l-55 166h-96l110 -281h88zM1784 403q0 59 -45 103t-107 43q-62 0 -108 -43q-45 -42 -45 -102t45 -102t107 -42t108 42q45 42 45 101zM1212 549
q-51 0 -83 -24t-31 -68q0 -59 78 -82l55 -15q18 -6 18 -14q1 -18 -33 -18t-40 32l-89 -14q16 -86 130 -86q49 0 85 23t35 69q0 59 -80 82l-55 15q-12 4 -12 20q0 17 26 17t37 -33l84 14q-14 82 -125 82zM1968 905q0 -45 -28 -74t-70 -29t-69 30q-28 28 -27 73q0 45 28 75
q29 30 70 30q40 0 68 -30t28 -75zM391 803v207h43q47 0 79 -30t32 -75t-31 -74t-80 -28h-43zM1599 1116h-139l-110 -217l-105 217h-143v-424h129v180l78 -180h84l77 180v-180h129v424zM1055 803h-207v55h188v96h-188v56h207v106h-336v-424h336v111zM258 1116v-424h184
q104 0 168 60t64 152t-64 152t-168 60h-184zM2101 904q0 93 -66 158q-67 64 -163 64t-164 -64t-68 -158q0 -93 68 -156q68 -64 164 -64t162 64t67 156zM2361 1372v-1372h-2361v1372h2361z" />
    <glyph glyph-name="dcroat" unicode="&#x111;" 
d="M1632 471q28 -1 46 -19t18 -49t-18 -50t-46 -19q-27 0 -46 19t-19 49t18 50t47 19zM899 471h51q31 0 31 -28t-31 -27h-51v55zM2087 545h-82v-144l-125 144h-70v-281h88v133l121 -133h68v281zM1452 264v281h-88v-281h88zM1069 449q0 41 -28 69t-72 27h-154v-281h84v88h8
l70 -88h106l-77 92q63 25 63 93zM784 334h-139v37h125v63h-125v37h139v74h-227v-281h227v70zM545 545h-99l-59 -166l-55 166h-96l110 -281h88zM1784 403q0 59 -45 103t-107 43q-62 0 -108 -43q-45 -42 -45 -102t45 -102t107 -42t108 42q45 42 45 101zM1212 549
q-51 0 -83 -24t-31 -68q0 -59 78 -82l55 -15q18 -6 18 -14q1 -18 -33 -18t-40 32l-89 -14q16 -86 130 -86q49 0 85 23t35 69q0 59 -80 82l-55 15q-12 4 -12 20q0 17 26 17t37 -33l84 14q-14 82 -125 82zM1968 905q0 -45 -28 -74t-70 -29t-69 30q-28 28 -27 73q0 45 28 75
q29 30 70 30q40 0 68 -30t28 -75zM391 803v207h43q47 0 79 -30t32 -75t-31 -74t-80 -28h-43zM1599 1116h-139l-110 -217l-105 217h-143v-424h129v180l78 -180h84l77 180v-180h129v424zM1055 803h-207v55h188v96h-188v56h207v106h-336v-424h336v111zM258 1116v-424h184
q104 0 168 60t64 152t-64 152t-168 60h-184zM2101 904q0 93 -66 158q-67 64 -163 64t-164 -64t-68 -158q0 -93 68 -156q68 -64 164 -64t162 64t67 156zM2361 1372v-1372h-2361v1372h2361z" />
    <glyph glyph-name="Emacron" unicode="&#x112;" 
d="M1632 471q28 -1 46 -19t18 -49t-18 -50t-46 -19q-27 0 -46 19t-19 49t18 50t47 19zM899 471h51q31 0 31 -28t-31 -27h-51v55zM2087 545h-82v-144l-125 144h-70v-281h88v133l121 -133h68v281zM1452 264v281h-88v-281h88zM1069 449q0 41 -28 69t-72 27h-154v-281h84v88h8
l70 -88h106l-77 92q63 25 63 93zM784 334h-139v37h125v63h-125v37h139v74h-227v-281h227v70zM545 545h-99l-59 -166l-55 166h-96l110 -281h88zM1784 403q0 59 -45 103t-107 43q-62 0 -108 -43q-45 -42 -45 -102t45 -102t107 -42t108 42q45 42 45 101zM1212 549
q-51 0 -83 -24t-31 -68q0 -59 78 -82l55 -15q18 -6 18 -14q1 -18 -33 -18t-40 32l-89 -14q16 -86 130 -86q49 0 85 23t35 69q0 59 -80 82l-55 15q-12 4 -12 20q0 17 26 17t37 -33l84 14q-14 82 -125 82zM1968 905q0 -45 -28 -74t-70 -29t-69 30q-28 28 -27 73q0 45 28 75
q29 30 70 30q40 0 68 -30t28 -75zM391 803v207h43q47 0 79 -30t32 -75t-31 -74t-80 -28h-43zM1599 1116h-139l-110 -217l-105 217h-143v-424h129v180l78 -180h84l77 180v-180h129v424zM1055 803h-207v55h188v96h-188v56h207v106h-336v-424h336v111zM258 1116v-424h184
q104 0 168 60t64 152t-64 152t-168 60h-184zM2101 904q0 93 -66 158q-67 64 -163 64t-164 -64t-68 -158q0 -93 68 -156q68 -64 164 -64t162 64t67 156zM2361 1372v-1372h-2361v1372h2361z" />
    <glyph glyph-name="emacron" unicode="&#x113;" 
d="M1632 471q28 -1 46 -19t18 -49t-18 -50t-46 -19q-27 0 -46 19t-19 49t18 50t47 19zM899 471h51q31 0 31 -28t-31 -27h-51v55zM2087 545h-82v-144l-125 144h-70v-281h88v133l121 -133h68v281zM1452 264v281h-88v-281h88zM1069 449q0 41 -28 69t-72 27h-154v-281h84v88h8
l70 -88h106l-77 92q63 25 63 93zM784 334h-139v37h125v63h-125v37h139v74h-227v-281h227v70zM545 545h-99l-59 -166l-55 166h-96l110 -281h88zM1784 403q0 59 -45 103t-107 43q-62 0 -108 -43q-45 -42 -45 -102t45 -102t107 -42t108 42q45 42 45 101zM1212 549
q-51 0 -83 -24t-31 -68q0 -59 78 -82l55 -15q18 -6 18 -14q1 -18 -33 -18t-40 32l-89 -14q16 -86 130 -86q49 0 85 23t35 69q0 59 -80 82l-55 15q-12 4 -12 20q0 17 26 17t37 -33l84 14q-14 82 -125 82zM1968 905q0 -45 -28 -74t-70 -29t-69 30q-28 28 -27 73q0 45 28 75
q29 30 70 30q40 0 68 -30t28 -75zM391 803v207h43q47 0 79 -30t32 -75t-31 -74t-80 -28h-43zM1599 1116h-139l-110 -217l-105 217h-143v-424h129v180l78 -180h84l77 180v-180h129v424zM1055 803h-207v55h188v96h-188v56h207v106h-336v-424h336v111zM258 1116v-424h184
q104 0 168 60t64 152t-64 152t-168 60h-184zM2101 904q0 93 -66 158q-67 64 -163 64t-164 -64t-68 -158q0 -93 68 -156q68 -64 164 -64t162 64t67 156zM2361 1372v-1372h-2361v1372h2361z" />
    <glyph glyph-name="Edotaccent" unicode="&#x116;" 
d="M1632 471q28 -1 46 -19t18 -49t-18 -50t-46 -19q-27 0 -46 19t-19 49t18 50t47 19zM899 471h51q31 0 31 -28t-31 -27h-51v55zM2087 545h-82v-144l-125 144h-70v-281h88v133l121 -133h68v281zM1452 264v281h-88v-281h88zM1069 449q0 41 -28 69t-72 27h-154v-281h84v88h8
l70 -88h106l-77 92q63 25 63 93zM784 334h-139v37h125v63h-125v37h139v74h-227v-281h227v70zM545 545h-99l-59 -166l-55 166h-96l110 -281h88zM1784 403q0 59 -45 103t-107 43q-62 0 -108 -43q-45 -42 -45 -102t45 -102t107 -42t108 42q45 42 45 101zM1212 549
q-51 0 -83 -24t-31 -68q0 -59 78 -82l55 -15q18 -6 18 -14q1 -18 -33 -18t-40 32l-89 -14q16 -86 130 -86q49 0 85 23t35 69q0 59 -80 82l-55 15q-12 4 -12 20q0 17 26 17t37 -33l84 14q-14 82 -125 82zM1968 905q0 -45 -28 -74t-70 -29t-69 30q-28 28 -27 73q0 45 28 75
q29 30 70 30q40 0 68 -30t28 -75zM391 803v207h43q47 0 79 -30t32 -75t-31 -74t-80 -28h-43zM1599 1116h-139l-110 -217l-105 217h-143v-424h129v180l78 -180h84l77 180v-180h129v424zM1055 803h-207v55h188v96h-188v56h207v106h-336v-424h336v111zM258 1116v-424h184
q104 0 168 60t64 152t-64 152t-168 60h-184zM2101 904q0 93 -66 158q-67 64 -163 64t-164 -64t-68 -158q0 -93 68 -156q68 -64 164 -64t162 64t67 156zM2361 1372v-1372h-2361v1372h2361z" />
    <glyph glyph-name="edotaccent" unicode="&#x117;" 
d="M1632 471q28 -1 46 -19t18 -49t-18 -50t-46 -19q-27 0 -46 19t-19 49t18 50t47 19zM899 471h51q31 0 31 -28t-31 -27h-51v55zM2087 545h-82v-144l-125 144h-70v-281h88v133l121 -133h68v281zM1452 264v281h-88v-281h88zM1069 449q0 41 -28 69t-72 27h-154v-281h84v88h8
l70 -88h106l-77 92q63 25 63 93zM784 334h-139v37h125v63h-125v37h139v74h-227v-281h227v70zM545 545h-99l-59 -166l-55 166h-96l110 -281h88zM1784 403q0 59 -45 103t-107 43q-62 0 -108 -43q-45 -42 -45 -102t45 -102t107 -42t108 42q45 42 45 101zM1212 549
q-51 0 -83 -24t-31 -68q0 -59 78 -82l55 -15q18 -6 18 -14q1 -18 -33 -18t-40 32l-89 -14q16 -86 130 -86q49 0 85 23t35 69q0 59 -80 82l-55 15q-12 4 -12 20q0 17 26 17t37 -33l84 14q-14 82 -125 82zM1968 905q0 -45 -28 -74t-70 -29t-69 30q-28 28 -27 73q0 45 28 75
q29 30 70 30q40 0 68 -30t28 -75zM391 803v207h43q47 0 79 -30t32 -75t-31 -74t-80 -28h-43zM1599 1116h-139l-110 -217l-105 217h-143v-424h129v180l78 -180h84l77 180v-180h129v424zM1055 803h-207v55h188v96h-188v56h207v106h-336v-424h336v111zM258 1116v-424h184
q104 0 168 60t64 152t-64 152t-168 60h-184zM2101 904q0 93 -66 158q-67 64 -163 64t-164 -64t-68 -158q0 -93 68 -156q68 -64 164 -64t162 64t67 156zM2361 1372v-1372h-2361v1372h2361z" />
    <glyph glyph-name="Eogonek" unicode="&#x118;" 
d="M1632 471q28 -1 46 -19t18 -49t-18 -50t-46 -19q-27 0 -46 19t-19 49t18 50t47 19zM899 471h51q31 0 31 -28t-31 -27h-51v55zM2087 545h-82v-144l-125 144h-70v-281h88v133l121 -133h68v281zM1452 264v281h-88v-281h88zM1069 449q0 41 -28 69t-72 27h-154v-281h84v88h8
l70 -88h106l-77 92q63 25 63 93zM784 334h-139v37h125v63h-125v37h139v74h-227v-281h227v70zM545 545h-99l-59 -166l-55 166h-96l110 -281h88zM1784 403q0 59 -45 103t-107 43q-62 0 -108 -43q-45 -42 -45 -102t45 -102t107 -42t108 42q45 42 45 101zM1212 549
q-51 0 -83 -24t-31 -68q0 -59 78 -82l55 -15q18 -6 18 -14q1 -18 -33 -18t-40 32l-89 -14q16 -86 130 -86q49 0 85 23t35 69q0 59 -80 82l-55 15q-12 4 -12 20q0 17 26 17t37 -33l84 14q-14 82 -125 82zM1968 905q0 -45 -28 -74t-70 -29t-69 30q-28 28 -27 73q0 45 28 75
q29 30 70 30q40 0 68 -30t28 -75zM391 803v207h43q47 0 79 -30t32 -75t-31 -74t-80 -28h-43zM1599 1116h-139l-110 -217l-105 217h-143v-424h129v180l78 -180h84l77 180v-180h129v424zM1055 803h-207v55h188v96h-188v56h207v106h-336v-424h336v111zM258 1116v-424h184
q104 0 168 60t64 152t-64 152t-168 60h-184zM2101 904q0 93 -66 158q-67 64 -163 64t-164 -64t-68 -158q0 -93 68 -156q68 -64 164 -64t162 64t67 156zM2361 1372v-1372h-2361v1372h2361z" />
    <glyph glyph-name="eogonek" unicode="&#x119;" 
d="M1632 471q28 -1 46 -19t18 -49t-18 -50t-46 -19q-27 0 -46 19t-19 49t18 50t47 19zM899 471h51q31 0 31 -28t-31 -27h-51v55zM2087 545h-82v-144l-125 144h-70v-281h88v133l121 -133h68v281zM1452 264v281h-88v-281h88zM1069 449q0 41 -28 69t-72 27h-154v-281h84v88h8
l70 -88h106l-77 92q63 25 63 93zM784 334h-139v37h125v63h-125v37h139v74h-227v-281h227v70zM545 545h-99l-59 -166l-55 166h-96l110 -281h88zM1784 403q0 59 -45 103t-107 43q-62 0 -108 -43q-45 -42 -45 -102t45 -102t107 -42t108 42q45 42 45 101zM1212 549
q-51 0 -83 -24t-31 -68q0 -59 78 -82l55 -15q18 -6 18 -14q1 -18 -33 -18t-40 32l-89 -14q16 -86 130 -86q49 0 85 23t35 69q0 59 -80 82l-55 15q-12 4 -12 20q0 17 26 17t37 -33l84 14q-14 82 -125 82zM1968 905q0 -45 -28 -74t-70 -29t-69 30q-28 28 -27 73q0 45 28 75
q29 30 70 30q40 0 68 -30t28 -75zM391 803v207h43q47 0 79 -30t32 -75t-31 -74t-80 -28h-43zM1599 1116h-139l-110 -217l-105 217h-143v-424h129v180l78 -180h84l77 180v-180h129v424zM1055 803h-207v55h188v96h-188v56h207v106h-336v-424h336v111zM258 1116v-424h184
q104 0 168 60t64 152t-64 152t-168 60h-184zM2101 904q0 93 -66 158q-67 64 -163 64t-164 -64t-68 -158q0 -93 68 -156q68 -64 164 -64t162 64t67 156zM2361 1372v-1372h-2361v1372h2361z" />
    <glyph glyph-name="Ecaron" unicode="&#x11a;" 
d="M1632 471q28 -1 46 -19t18 -49t-18 -50t-46 -19q-27 0 -46 19t-19 49t18 50t47 19zM899 471h51q31 0 31 -28t-31 -27h-51v55zM2087 545h-82v-144l-125 144h-70v-281h88v133l121 -133h68v281zM1452 264v281h-88v-281h88zM1069 449q0 41 -28 69t-72 27h-154v-281h84v88h8
l70 -88h106l-77 92q63 25 63 93zM784 334h-139v37h125v63h-125v37h139v74h-227v-281h227v70zM545 545h-99l-59 -166l-55 166h-96l110 -281h88zM1784 403q0 59 -45 103t-107 43q-62 0 -108 -43q-45 -42 -45 -102t45 -102t107 -42t108 42q45 42 45 101zM1212 549
q-51 0 -83 -24t-31 -68q0 -59 78 -82l55 -15q18 -6 18 -14q1 -18 -33 -18t-40 32l-89 -14q16 -86 130 -86q49 0 85 23t35 69q0 59 -80 82l-55 15q-12 4 -12 20q0 17 26 17t37 -33l84 14q-14 82 -125 82zM1968 905q0 -45 -28 -74t-70 -29t-69 30q-28 28 -27 73q0 45 28 75
q29 30 70 30q40 0 68 -30t28 -75zM391 803v207h43q47 0 79 -30t32 -75t-31 -74t-80 -28h-43zM1599 1116h-139l-110 -217l-105 217h-143v-424h129v180l78 -180h84l77 180v-180h129v424zM1055 803h-207v55h188v96h-188v56h207v106h-336v-424h336v111zM258 1116v-424h184
q104 0 168 60t64 152t-64 152t-168 60h-184zM2101 904q0 93 -66 158q-67 64 -163 64t-164 -64t-68 -158q0 -93 68 -156q68 -64 164 -64t162 64t67 156zM2361 1372v-1372h-2361v1372h2361z" />
    <glyph glyph-name="ecaron" unicode="&#x11b;" 
d="M1632 471q28 -1 46 -19t18 -49t-18 -50t-46 -19q-27 0 -46 19t-19 49t18 50t47 19zM899 471h51q31 0 31 -28t-31 -27h-51v55zM2087 545h-82v-144l-125 144h-70v-281h88v133l121 -133h68v281zM1452 264v281h-88v-281h88zM1069 449q0 41 -28 69t-72 27h-154v-281h84v88h8
l70 -88h106l-77 92q63 25 63 93zM784 334h-139v37h125v63h-125v37h139v74h-227v-281h227v70zM545 545h-99l-59 -166l-55 166h-96l110 -281h88zM1784 403q0 59 -45 103t-107 43q-62 0 -108 -43q-45 -42 -45 -102t45 -102t107 -42t108 42q45 42 45 101zM1212 549
q-51 0 -83 -24t-31 -68q0 -59 78 -82l55 -15q18 -6 18 -14q1 -18 -33 -18t-40 32l-89 -14q16 -86 130 -86q49 0 85 23t35 69q0 59 -80 82l-55 15q-12 4 -12 20q0 17 26 17t37 -33l84 14q-14 82 -125 82zM1968 905q0 -45 -28 -74t-70 -29t-69 30q-28 28 -27 73q0 45 28 75
q29 30 70 30q40 0 68 -30t28 -75zM391 803v207h43q47 0 79 -30t32 -75t-31 -74t-80 -28h-43zM1599 1116h-139l-110 -217l-105 217h-143v-424h129v180l78 -180h84l77 180v-180h129v424zM1055 803h-207v55h188v96h-188v56h207v106h-336v-424h336v111zM258 1116v-424h184
q104 0 168 60t64 152t-64 152t-168 60h-184zM2101 904q0 93 -66 158q-67 64 -163 64t-164 -64t-68 -158q0 -93 68 -156q68 -64 164 -64t162 64t67 156zM2361 1372v-1372h-2361v1372h2361z" />
    <glyph glyph-name="Gbreve" unicode="&#x11e;" 
d="M1632 471q28 -1 46 -19t18 -49t-18 -50t-46 -19q-27 0 -46 19t-19 49t18 50t47 19zM899 471h51q31 0 31 -28t-31 -27h-51v55zM2087 545h-82v-144l-125 144h-70v-281h88v133l121 -133h68v281zM1452 264v281h-88v-281h88zM1069 449q0 41 -28 69t-72 27h-154v-281h84v88h8
l70 -88h106l-77 92q63 25 63 93zM784 334h-139v37h125v63h-125v37h139v74h-227v-281h227v70zM545 545h-99l-59 -166l-55 166h-96l110 -281h88zM1784 403q0 59 -45 103t-107 43q-62 0 -108 -43q-45 -42 -45 -102t45 -102t107 -42t108 42q45 42 45 101zM1212 549
q-51 0 -83 -24t-31 -68q0 -59 78 -82l55 -15q18 -6 18 -14q1 -18 -33 -18t-40 32l-89 -14q16 -86 130 -86q49 0 85 23t35 69q0 59 -80 82l-55 15q-12 4 -12 20q0 17 26 17t37 -33l84 14q-14 82 -125 82zM1968 905q0 -45 -28 -74t-70 -29t-69 30q-28 28 -27 73q0 45 28 75
q29 30 70 30q40 0 68 -30t28 -75zM391 803v207h43q47 0 79 -30t32 -75t-31 -74t-80 -28h-43zM1599 1116h-139l-110 -217l-105 217h-143v-424h129v180l78 -180h84l77 180v-180h129v424zM1055 803h-207v55h188v96h-188v56h207v106h-336v-424h336v111zM258 1116v-424h184
q104 0 168 60t64 152t-64 152t-168 60h-184zM2101 904q0 93 -66 158q-67 64 -163 64t-164 -64t-68 -158q0 -93 68 -156q68 -64 164 -64t162 64t67 156zM2361 1372v-1372h-2361v1372h2361z" />
    <glyph glyph-name="gbreve" unicode="&#x11f;" 
d="M1632 471q28 -1 46 -19t18 -49t-18 -50t-46 -19q-27 0 -46 19t-19 49t18 50t47 19zM899 471h51q31 0 31 -28t-31 -27h-51v55zM2087 545h-82v-144l-125 144h-70v-281h88v133l121 -133h68v281zM1452 264v281h-88v-281h88zM1069 449q0 41 -28 69t-72 27h-154v-281h84v88h8
l70 -88h106l-77 92q63 25 63 93zM784 334h-139v37h125v63h-125v37h139v74h-227v-281h227v70zM545 545h-99l-59 -166l-55 166h-96l110 -281h88zM1784 403q0 59 -45 103t-107 43q-62 0 -108 -43q-45 -42 -45 -102t45 -102t107 -42t108 42q45 42 45 101zM1212 549
q-51 0 -83 -24t-31 -68q0 -59 78 -82l55 -15q18 -6 18 -14q1 -18 -33 -18t-40 32l-89 -14q16 -86 130 -86q49 0 85 23t35 69q0 59 -80 82l-55 15q-12 4 -12 20q0 17 26 17t37 -33l84 14q-14 82 -125 82zM1968 905q0 -45 -28 -74t-70 -29t-69 30q-28 28 -27 73q0 45 28 75
q29 30 70 30q40 0 68 -30t28 -75zM391 803v207h43q47 0 79 -30t32 -75t-31 -74t-80 -28h-43zM1599 1116h-139l-110 -217l-105 217h-143v-424h129v180l78 -180h84l77 180v-180h129v424zM1055 803h-207v55h188v96h-188v56h207v106h-336v-424h336v111zM258 1116v-424h184
q104 0 168 60t64 152t-64 152t-168 60h-184zM2101 904q0 93 -66 158q-67 64 -163 64t-164 -64t-68 -158q0 -93 68 -156q68 -64 164 -64t162 64t67 156zM2361 1372v-1372h-2361v1372h2361z" />
    <glyph glyph-name="Gdotaccent" unicode="&#x120;" 
d="M1632 471q28 -1 46 -19t18 -49t-18 -50t-46 -19q-27 0 -46 19t-19 49t18 50t47 19zM899 471h51q31 0 31 -28t-31 -27h-51v55zM2087 545h-82v-144l-125 144h-70v-281h88v133l121 -133h68v281zM1452 264v281h-88v-281h88zM1069 449q0 41 -28 69t-72 27h-154v-281h84v88h8
l70 -88h106l-77 92q63 25 63 93zM784 334h-139v37h125v63h-125v37h139v74h-227v-281h227v70zM545 545h-99l-59 -166l-55 166h-96l110 -281h88zM1784 403q0 59 -45 103t-107 43q-62 0 -108 -43q-45 -42 -45 -102t45 -102t107 -42t108 42q45 42 45 101zM1212 549
q-51 0 -83 -24t-31 -68q0 -59 78 -82l55 -15q18 -6 18 -14q1 -18 -33 -18t-40 32l-89 -14q16 -86 130 -86q49 0 85 23t35 69q0 59 -80 82l-55 15q-12 4 -12 20q0 17 26 17t37 -33l84 14q-14 82 -125 82zM1968 905q0 -45 -28 -74t-70 -29t-69 30q-28 28 -27 73q0 45 28 75
q29 30 70 30q40 0 68 -30t28 -75zM391 803v207h43q47 0 79 -30t32 -75t-31 -74t-80 -28h-43zM1599 1116h-139l-110 -217l-105 217h-143v-424h129v180l78 -180h84l77 180v-180h129v424zM1055 803h-207v55h188v96h-188v56h207v106h-336v-424h336v111zM258 1116v-424h184
q104 0 168 60t64 152t-64 152t-168 60h-184zM2101 904q0 93 -66 158q-67 64 -163 64t-164 -64t-68 -158q0 -93 68 -156q68 -64 164 -64t162 64t67 156zM2361 1372v-1372h-2361v1372h2361z" />
    <glyph glyph-name="gdotaccent" unicode="&#x121;" 
d="M1632 471q28 -1 46 -19t18 -49t-18 -50t-46 -19q-27 0 -46 19t-19 49t18 50t47 19zM899 471h51q31 0 31 -28t-31 -27h-51v55zM2087 545h-82v-144l-125 144h-70v-281h88v133l121 -133h68v281zM1452 264v281h-88v-281h88zM1069 449q0 41 -28 69t-72 27h-154v-281h84v88h8
l70 -88h106l-77 92q63 25 63 93zM784 334h-139v37h125v63h-125v37h139v74h-227v-281h227v70zM545 545h-99l-59 -166l-55 166h-96l110 -281h88zM1784 403q0 59 -45 103t-107 43q-62 0 -108 -43q-45 -42 -45 -102t45 -102t107 -42t108 42q45 42 45 101zM1212 549
q-51 0 -83 -24t-31 -68q0 -59 78 -82l55 -15q18 -6 18 -14q1 -18 -33 -18t-40 32l-89 -14q16 -86 130 -86q49 0 85 23t35 69q0 59 -80 82l-55 15q-12 4 -12 20q0 17 26 17t37 -33l84 14q-14 82 -125 82zM1968 905q0 -45 -28 -74t-70 -29t-69 30q-28 28 -27 73q0 45 28 75
q29 30 70 30q40 0 68 -30t28 -75zM391 803v207h43q47 0 79 -30t32 -75t-31 -74t-80 -28h-43zM1599 1116h-139l-110 -217l-105 217h-143v-424h129v180l78 -180h84l77 180v-180h129v424zM1055 803h-207v55h188v96h-188v56h207v106h-336v-424h336v111zM258 1116v-424h184
q104 0 168 60t64 152t-64 152t-168 60h-184zM2101 904q0 93 -66 158q-67 64 -163 64t-164 -64t-68 -158q0 -93 68 -156q68 -64 164 -64t162 64t67 156zM2361 1372v-1372h-2361v1372h2361z" />
    <glyph glyph-name="Gcommaaccent" unicode="&#x122;" 
d="M1632 471q28 -1 46 -19t18 -49t-18 -50t-46 -19q-27 0 -46 19t-19 49t18 50t47 19zM899 471h51q31 0 31 -28t-31 -27h-51v55zM2087 545h-82v-144l-125 144h-70v-281h88v133l121 -133h68v281zM1452 264v281h-88v-281h88zM1069 449q0 41 -28 69t-72 27h-154v-281h84v88h8
l70 -88h106l-77 92q63 25 63 93zM784 334h-139v37h125v63h-125v37h139v74h-227v-281h227v70zM545 545h-99l-59 -166l-55 166h-96l110 -281h88zM1784 403q0 59 -45 103t-107 43q-62 0 -108 -43q-45 -42 -45 -102t45 -102t107 -42t108 42q45 42 45 101zM1212 549
q-51 0 -83 -24t-31 -68q0 -59 78 -82l55 -15q18 -6 18 -14q1 -18 -33 -18t-40 32l-89 -14q16 -86 130 -86q49 0 85 23t35 69q0 59 -80 82l-55 15q-12 4 -12 20q0 17 26 17t37 -33l84 14q-14 82 -125 82zM1968 905q0 -45 -28 -74t-70 -29t-69 30q-28 28 -27 73q0 45 28 75
q29 30 70 30q40 0 68 -30t28 -75zM391 803v207h43q47 0 79 -30t32 -75t-31 -74t-80 -28h-43zM1599 1116h-139l-110 -217l-105 217h-143v-424h129v180l78 -180h84l77 180v-180h129v424zM1055 803h-207v55h188v96h-188v56h207v106h-336v-424h336v111zM258 1116v-424h184
q104 0 168 60t64 152t-64 152t-168 60h-184zM2101 904q0 93 -66 158q-67 64 -163 64t-164 -64t-68 -158q0 -93 68 -156q68 -64 164 -64t162 64t67 156zM2361 1372v-1372h-2361v1372h2361z" />
    <glyph glyph-name="gcommaaccent" unicode="&#x123;" 
d="M1632 471q28 -1 46 -19t18 -49t-18 -50t-46 -19q-27 0 -46 19t-19 49t18 50t47 19zM899 471h51q31 0 31 -28t-31 -27h-51v55zM2087 545h-82v-144l-125 144h-70v-281h88v133l121 -133h68v281zM1452 264v281h-88v-281h88zM1069 449q0 41 -28 69t-72 27h-154v-281h84v88h8
l70 -88h106l-77 92q63 25 63 93zM784 334h-139v37h125v63h-125v37h139v74h-227v-281h227v70zM545 545h-99l-59 -166l-55 166h-96l110 -281h88zM1784 403q0 59 -45 103t-107 43q-62 0 -108 -43q-45 -42 -45 -102t45 -102t107 -42t108 42q45 42 45 101zM1212 549
q-51 0 -83 -24t-31 -68q0 -59 78 -82l55 -15q18 -6 18 -14q1 -18 -33 -18t-40 32l-89 -14q16 -86 130 -86q49 0 85 23t35 69q0 59 -80 82l-55 15q-12 4 -12 20q0 17 26 17t37 -33l84 14q-14 82 -125 82zM1968 905q0 -45 -28 -74t-70 -29t-69 30q-28 28 -27 73q0 45 28 75
q29 30 70 30q40 0 68 -30t28 -75zM391 803v207h43q47 0 79 -30t32 -75t-31 -74t-80 -28h-43zM1599 1116h-139l-110 -217l-105 217h-143v-424h129v180l78 -180h84l77 180v-180h129v424zM1055 803h-207v55h188v96h-188v56h207v106h-336v-424h336v111zM258 1116v-424h184
q104 0 168 60t64 152t-64 152t-168 60h-184zM2101 904q0 93 -66 158q-67 64 -163 64t-164 -64t-68 -158q0 -93 68 -156q68 -64 164 -64t162 64t67 156zM2361 1372v-1372h-2361v1372h2361z" />
    <glyph glyph-name="Hbar" unicode="&#x126;" 
d="M1632 471q28 -1 46 -19t18 -49t-18 -50t-46 -19q-27 0 -46 19t-19 49t18 50t47 19zM899 471h51q31 0 31 -28t-31 -27h-51v55zM2087 545h-82v-144l-125 144h-70v-281h88v133l121 -133h68v281zM1452 264v281h-88v-281h88zM1069 449q0 41 -28 69t-72 27h-154v-281h84v88h8
l70 -88h106l-77 92q63 25 63 93zM784 334h-139v37h125v63h-125v37h139v74h-227v-281h227v70zM545 545h-99l-59 -166l-55 166h-96l110 -281h88zM1784 403q0 59 -45 103t-107 43q-62 0 -108 -43q-45 -42 -45 -102t45 -102t107 -42t108 42q45 42 45 101zM1212 549
q-51 0 -83 -24t-31 -68q0 -59 78 -82l55 -15q18 -6 18 -14q1 -18 -33 -18t-40 32l-89 -14q16 -86 130 -86q49 0 85 23t35 69q0 59 -80 82l-55 15q-12 4 -12 20q0 17 26 17t37 -33l84 14q-14 82 -125 82zM1968 905q0 -45 -28 -74t-70 -29t-69 30q-28 28 -27 73q0 45 28 75
q29 30 70 30q40 0 68 -30t28 -75zM391 803v207h43q47 0 79 -30t32 -75t-31 -74t-80 -28h-43zM1599 1116h-139l-110 -217l-105 217h-143v-424h129v180l78 -180h84l77 180v-180h129v424zM1055 803h-207v55h188v96h-188v56h207v106h-336v-424h336v111zM258 1116v-424h184
q104 0 168 60t64 152t-64 152t-168 60h-184zM2101 904q0 93 -66 158q-67 64 -163 64t-164 -64t-68 -158q0 -93 68 -156q68 -64 164 -64t162 64t67 156zM2361 1372v-1372h-2361v1372h2361z" />
    <glyph glyph-name="hbar" unicode="&#x127;" 
d="M1632 471q28 -1 46 -19t18 -49t-18 -50t-46 -19q-27 0 -46 19t-19 49t18 50t47 19zM899 471h51q31 0 31 -28t-31 -27h-51v55zM2087 545h-82v-144l-125 144h-70v-281h88v133l121 -133h68v281zM1452 264v281h-88v-281h88zM1069 449q0 41 -28 69t-72 27h-154v-281h84v88h8
l70 -88h106l-77 92q63 25 63 93zM784 334h-139v37h125v63h-125v37h139v74h-227v-281h227v70zM545 545h-99l-59 -166l-55 166h-96l110 -281h88zM1784 403q0 59 -45 103t-107 43q-62 0 -108 -43q-45 -42 -45 -102t45 -102t107 -42t108 42q45 42 45 101zM1212 549
q-51 0 -83 -24t-31 -68q0 -59 78 -82l55 -15q18 -6 18 -14q1 -18 -33 -18t-40 32l-89 -14q16 -86 130 -86q49 0 85 23t35 69q0 59 -80 82l-55 15q-12 4 -12 20q0 17 26 17t37 -33l84 14q-14 82 -125 82zM1968 905q0 -45 -28 -74t-70 -29t-69 30q-28 28 -27 73q0 45 28 75
q29 30 70 30q40 0 68 -30t28 -75zM391 803v207h43q47 0 79 -30t32 -75t-31 -74t-80 -28h-43zM1599 1116h-139l-110 -217l-105 217h-143v-424h129v180l78 -180h84l77 180v-180h129v424zM1055 803h-207v55h188v96h-188v56h207v106h-336v-424h336v111zM258 1116v-424h184
q104 0 168 60t64 152t-64 152t-168 60h-184zM2101 904q0 93 -66 158q-67 64 -163 64t-164 -64t-68 -158q0 -93 68 -156q68 -64 164 -64t162 64t67 156zM2361 1372v-1372h-2361v1372h2361z" />
    <glyph glyph-name="Imacron" unicode="&#x12a;" 
d="M1632 471q28 -1 46 -19t18 -49t-18 -50t-46 -19q-27 0 -46 19t-19 49t18 50t47 19zM899 471h51q31 0 31 -28t-31 -27h-51v55zM2087 545h-82v-144l-125 144h-70v-281h88v133l121 -133h68v281zM1452 264v281h-88v-281h88zM1069 449q0 41 -28 69t-72 27h-154v-281h84v88h8
l70 -88h106l-77 92q63 25 63 93zM784 334h-139v37h125v63h-125v37h139v74h-227v-281h227v70zM545 545h-99l-59 -166l-55 166h-96l110 -281h88zM1784 403q0 59 -45 103t-107 43q-62 0 -108 -43q-45 -42 -45 -102t45 -102t107 -42t108 42q45 42 45 101zM1212 549
q-51 0 -83 -24t-31 -68q0 -59 78 -82l55 -15q18 -6 18 -14q1 -18 -33 -18t-40 32l-89 -14q16 -86 130 -86q49 0 85 23t35 69q0 59 -80 82l-55 15q-12 4 -12 20q0 17 26 17t37 -33l84 14q-14 82 -125 82zM1968 905q0 -45 -28 -74t-70 -29t-69 30q-28 28 -27 73q0 45 28 75
q29 30 70 30q40 0 68 -30t28 -75zM391 803v207h43q47 0 79 -30t32 -75t-31 -74t-80 -28h-43zM1599 1116h-139l-110 -217l-105 217h-143v-424h129v180l78 -180h84l77 180v-180h129v424zM1055 803h-207v55h188v96h-188v56h207v106h-336v-424h336v111zM258 1116v-424h184
q104 0 168 60t64 152t-64 152t-168 60h-184zM2101 904q0 93 -66 158q-67 64 -163 64t-164 -64t-68 -158q0 -93 68 -156q68 -64 164 -64t162 64t67 156zM2361 1372v-1372h-2361v1372h2361z" />
    <glyph glyph-name="imacron" unicode="&#x12b;" 
d="M1632 471q28 -1 46 -19t18 -49t-18 -50t-46 -19q-27 0 -46 19t-19 49t18 50t47 19zM899 471h51q31 0 31 -28t-31 -27h-51v55zM2087 545h-82v-144l-125 144h-70v-281h88v133l121 -133h68v281zM1452 264v281h-88v-281h88zM1069 449q0 41 -28 69t-72 27h-154v-281h84v88h8
l70 -88h106l-77 92q63 25 63 93zM784 334h-139v37h125v63h-125v37h139v74h-227v-281h227v70zM545 545h-99l-59 -166l-55 166h-96l110 -281h88zM1784 403q0 59 -45 103t-107 43q-62 0 -108 -43q-45 -42 -45 -102t45 -102t107 -42t108 42q45 42 45 101zM1212 549
q-51 0 -83 -24t-31 -68q0 -59 78 -82l55 -15q18 -6 18 -14q1 -18 -33 -18t-40 32l-89 -14q16 -86 130 -86q49 0 85 23t35 69q0 59 -80 82l-55 15q-12 4 -12 20q0 17 26 17t37 -33l84 14q-14 82 -125 82zM1968 905q0 -45 -28 -74t-70 -29t-69 30q-28 28 -27 73q0 45 28 75
q29 30 70 30q40 0 68 -30t28 -75zM391 803v207h43q47 0 79 -30t32 -75t-31 -74t-80 -28h-43zM1599 1116h-139l-110 -217l-105 217h-143v-424h129v180l78 -180h84l77 180v-180h129v424zM1055 803h-207v55h188v96h-188v56h207v106h-336v-424h336v111zM258 1116v-424h184
q104 0 168 60t64 152t-64 152t-168 60h-184zM2101 904q0 93 -66 158q-67 64 -163 64t-164 -64t-68 -158q0 -93 68 -156q68 -64 164 -64t162 64t67 156zM2361 1372v-1372h-2361v1372h2361z" />
    <glyph glyph-name="Iogonek" unicode="&#x12e;" 
d="M1632 471q28 -1 46 -19t18 -49t-18 -50t-46 -19q-27 0 -46 19t-19 49t18 50t47 19zM899 471h51q31 0 31 -28t-31 -27h-51v55zM2087 545h-82v-144l-125 144h-70v-281h88v133l121 -133h68v281zM1452 264v281h-88v-281h88zM1069 449q0 41 -28 69t-72 27h-154v-281h84v88h8
l70 -88h106l-77 92q63 25 63 93zM784 334h-139v37h125v63h-125v37h139v74h-227v-281h227v70zM545 545h-99l-59 -166l-55 166h-96l110 -281h88zM1784 403q0 59 -45 103t-107 43q-62 0 -108 -43q-45 -42 -45 -102t45 -102t107 -42t108 42q45 42 45 101zM1212 549
q-51 0 -83 -24t-31 -68q0 -59 78 -82l55 -15q18 -6 18 -14q1 -18 -33 -18t-40 32l-89 -14q16 -86 130 -86q49 0 85 23t35 69q0 59 -80 82l-55 15q-12 4 -12 20q0 17 26 17t37 -33l84 14q-14 82 -125 82zM1968 905q0 -45 -28 -74t-70 -29t-69 30q-28 28 -27 73q0 45 28 75
q29 30 70 30q40 0 68 -30t28 -75zM391 803v207h43q47 0 79 -30t32 -75t-31 -74t-80 -28h-43zM1599 1116h-139l-110 -217l-105 217h-143v-424h129v180l78 -180h84l77 180v-180h129v424zM1055 803h-207v55h188v96h-188v56h207v106h-336v-424h336v111zM258 1116v-424h184
q104 0 168 60t64 152t-64 152t-168 60h-184zM2101 904q0 93 -66 158q-67 64 -163 64t-164 -64t-68 -158q0 -93 68 -156q68 -64 164 -64t162 64t67 156zM2361 1372v-1372h-2361v1372h2361z" />
    <glyph glyph-name="iogonek" unicode="&#x12f;" 
d="M1632 471q28 -1 46 -19t18 -49t-18 -50t-46 -19q-27 0 -46 19t-19 49t18 50t47 19zM899 471h51q31 0 31 -28t-31 -27h-51v55zM2087 545h-82v-144l-125 144h-70v-281h88v133l121 -133h68v281zM1452 264v281h-88v-281h88zM1069 449q0 41 -28 69t-72 27h-154v-281h84v88h8
l70 -88h106l-77 92q63 25 63 93zM784 334h-139v37h125v63h-125v37h139v74h-227v-281h227v70zM545 545h-99l-59 -166l-55 166h-96l110 -281h88zM1784 403q0 59 -45 103t-107 43q-62 0 -108 -43q-45 -42 -45 -102t45 -102t107 -42t108 42q45 42 45 101zM1212 549
q-51 0 -83 -24t-31 -68q0 -59 78 -82l55 -15q18 -6 18 -14q1 -18 -33 -18t-40 32l-89 -14q16 -86 130 -86q49 0 85 23t35 69q0 59 -80 82l-55 15q-12 4 -12 20q0 17 26 17t37 -33l84 14q-14 82 -125 82zM1968 905q0 -45 -28 -74t-70 -29t-69 30q-28 28 -27 73q0 45 28 75
q29 30 70 30q40 0 68 -30t28 -75zM391 803v207h43q47 0 79 -30t32 -75t-31 -74t-80 -28h-43zM1599 1116h-139l-110 -217l-105 217h-143v-424h129v180l78 -180h84l77 180v-180h129v424zM1055 803h-207v55h188v96h-188v56h207v106h-336v-424h336v111zM258 1116v-424h184
q104 0 168 60t64 152t-64 152t-168 60h-184zM2101 904q0 93 -66 158q-67 64 -163 64t-164 -64t-68 -158q0 -93 68 -156q68 -64 164 -64t162 64t67 156zM2361 1372v-1372h-2361v1372h2361z" />
    <glyph glyph-name="Idotaccent" unicode="&#x130;" 
d="M1632 471q28 -1 46 -19t18 -49t-18 -50t-46 -19q-27 0 -46 19t-19 49t18 50t47 19zM899 471h51q31 0 31 -28t-31 -27h-51v55zM2087 545h-82v-144l-125 144h-70v-281h88v133l121 -133h68v281zM1452 264v281h-88v-281h88zM1069 449q0 41 -28 69t-72 27h-154v-281h84v88h8
l70 -88h106l-77 92q63 25 63 93zM784 334h-139v37h125v63h-125v37h139v74h-227v-281h227v70zM545 545h-99l-59 -166l-55 166h-96l110 -281h88zM1784 403q0 59 -45 103t-107 43q-62 0 -108 -43q-45 -42 -45 -102t45 -102t107 -42t108 42q45 42 45 101zM1212 549
q-51 0 -83 -24t-31 -68q0 -59 78 -82l55 -15q18 -6 18 -14q1 -18 -33 -18t-40 32l-89 -14q16 -86 130 -86q49 0 85 23t35 69q0 59 -80 82l-55 15q-12 4 -12 20q0 17 26 17t37 -33l84 14q-14 82 -125 82zM1968 905q0 -45 -28 -74t-70 -29t-69 30q-28 28 -27 73q0 45 28 75
q29 30 70 30q40 0 68 -30t28 -75zM391 803v207h43q47 0 79 -30t32 -75t-31 -74t-80 -28h-43zM1599 1116h-139l-110 -217l-105 217h-143v-424h129v180l78 -180h84l77 180v-180h129v424zM1055 803h-207v55h188v96h-188v56h207v106h-336v-424h336v111zM258 1116v-424h184
q104 0 168 60t64 152t-64 152t-168 60h-184zM2101 904q0 93 -66 158q-67 64 -163 64t-164 -64t-68 -158q0 -93 68 -156q68 -64 164 -64t162 64t67 156zM2361 1372v-1372h-2361v1372h2361z" />
    <glyph glyph-name="dotlessi" unicode="&#x131;" 
d="M1632 471q28 -1 46 -19t18 -49t-18 -50t-46 -19q-27 0 -46 19t-19 49t18 50t47 19zM899 471h51q31 0 31 -28t-31 -27h-51v55zM2087 545h-82v-144l-125 144h-70v-281h88v133l121 -133h68v281zM1452 264v281h-88v-281h88zM1069 449q0 41 -28 69t-72 27h-154v-281h84v88h8
l70 -88h106l-77 92q63 25 63 93zM784 334h-139v37h125v63h-125v37h139v74h-227v-281h227v70zM545 545h-99l-59 -166l-55 166h-96l110 -281h88zM1784 403q0 59 -45 103t-107 43q-62 0 -108 -43q-45 -42 -45 -102t45 -102t107 -42t108 42q45 42 45 101zM1212 549
q-51 0 -83 -24t-31 -68q0 -59 78 -82l55 -15q18 -6 18 -14q1 -18 -33 -18t-40 32l-89 -14q16 -86 130 -86q49 0 85 23t35 69q0 59 -80 82l-55 15q-12 4 -12 20q0 17 26 17t37 -33l84 14q-14 82 -125 82zM1968 905q0 -45 -28 -74t-70 -29t-69 30q-28 28 -27 73q0 45 28 75
q29 30 70 30q40 0 68 -30t28 -75zM391 803v207h43q47 0 79 -30t32 -75t-31 -74t-80 -28h-43zM1599 1116h-139l-110 -217l-105 217h-143v-424h129v180l78 -180h84l77 180v-180h129v424zM1055 803h-207v55h188v96h-188v56h207v106h-336v-424h336v111zM258 1116v-424h184
q104 0 168 60t64 152t-64 152t-168 60h-184zM2101 904q0 93 -66 158q-67 64 -163 64t-164 -64t-68 -158q0 -93 68 -156q68 -64 164 -64t162 64t67 156zM2361 1372v-1372h-2361v1372h2361z" />
    <glyph glyph-name="IJ" unicode="&#x132;" horiz-adv-x="1820" 
d="M1706 1372v-878q0 -232 -153 -378t-391 -146t-383 124q-144 125 -175 336l328 66q10 -106 67 -166t153 -60t156 62t60 162v878h338zM119 1372h338v-1372h-338v1372z" />
    <glyph glyph-name="ij" unicode="&#x133;" 
d="M1632 471q28 -1 46 -19t18 -49t-18 -50t-46 -19q-27 0 -46 19t-19 49t18 50t47 19zM899 471h51q31 0 31 -28t-31 -27h-51v55zM2087 545h-82v-144l-125 144h-70v-281h88v133l121 -133h68v281zM1452 264v281h-88v-281h88zM1069 449q0 41 -28 69t-72 27h-154v-281h84v88h8
l70 -88h106l-77 92q63 25 63 93zM784 334h-139v37h125v63h-125v37h139v74h-227v-281h227v70zM545 545h-99l-59 -166l-55 166h-96l110 -281h88zM1784 403q0 59 -45 103t-107 43q-62 0 -108 -43q-45 -42 -45 -102t45 -102t107 -42t108 42q45 42 45 101zM1212 549
q-51 0 -83 -24t-31 -68q0 -59 78 -82l55 -15q18 -6 18 -14q1 -18 -33 -18t-40 32l-89 -14q16 -86 130 -86q49 0 85 23t35 69q0 59 -80 82l-55 15q-12 4 -12 20q0 17 26 17t37 -33l84 14q-14 82 -125 82zM1968 905q0 -45 -28 -74t-70 -29t-69 30q-28 28 -27 73q0 45 28 75
q29 30 70 30q40 0 68 -30t28 -75zM391 803v207h43q47 0 79 -30t32 -75t-31 -74t-80 -28h-43zM1599 1116h-139l-110 -217l-105 217h-143v-424h129v180l78 -180h84l77 180v-180h129v424zM1055 803h-207v55h188v96h-188v56h207v106h-336v-424h336v111zM258 1116v-424h184
q104 0 168 60t64 152t-64 152t-168 60h-184zM2101 904q0 93 -66 158q-67 64 -163 64t-164 -64t-68 -158q0 -93 68 -156q68 -64 164 -64t162 64t67 156zM2361 1372v-1372h-2361v1372h2361z" />
    <glyph glyph-name="Kcommaaccent" unicode="&#x136;" 
d="M1632 471q28 -1 46 -19t18 -49t-18 -50t-46 -19q-27 0 -46 19t-19 49t18 50t47 19zM899 471h51q31 0 31 -28t-31 -27h-51v55zM2087 545h-82v-144l-125 144h-70v-281h88v133l121 -133h68v281zM1452 264v281h-88v-281h88zM1069 449q0 41 -28 69t-72 27h-154v-281h84v88h8
l70 -88h106l-77 92q63 25 63 93zM784 334h-139v37h125v63h-125v37h139v74h-227v-281h227v70zM545 545h-99l-59 -166l-55 166h-96l110 -281h88zM1784 403q0 59 -45 103t-107 43q-62 0 -108 -43q-45 -42 -45 -102t45 -102t107 -42t108 42q45 42 45 101zM1212 549
q-51 0 -83 -24t-31 -68q0 -59 78 -82l55 -15q18 -6 18 -14q1 -18 -33 -18t-40 32l-89 -14q16 -86 130 -86q49 0 85 23t35 69q0 59 -80 82l-55 15q-12 4 -12 20q0 17 26 17t37 -33l84 14q-14 82 -125 82zM1968 905q0 -45 -28 -74t-70 -29t-69 30q-28 28 -27 73q0 45 28 75
q29 30 70 30q40 0 68 -30t28 -75zM391 803v207h43q47 0 79 -30t32 -75t-31 -74t-80 -28h-43zM1599 1116h-139l-110 -217l-105 217h-143v-424h129v180l78 -180h84l77 180v-180h129v424zM1055 803h-207v55h188v96h-188v56h207v106h-336v-424h336v111zM258 1116v-424h184
q104 0 168 60t64 152t-64 152t-168 60h-184zM2101 904q0 93 -66 158q-67 64 -163 64t-164 -64t-68 -158q0 -93 68 -156q68 -64 164 -64t162 64t67 156zM2361 1372v-1372h-2361v1372h2361z" />
    <glyph glyph-name="kcommaaccent" unicode="&#x137;" 
d="M1632 471q28 -1 46 -19t18 -49t-18 -50t-46 -19q-27 0 -46 19t-19 49t18 50t47 19zM899 471h51q31 0 31 -28t-31 -27h-51v55zM2087 545h-82v-144l-125 144h-70v-281h88v133l121 -133h68v281zM1452 264v281h-88v-281h88zM1069 449q0 41 -28 69t-72 27h-154v-281h84v88h8
l70 -88h106l-77 92q63 25 63 93zM784 334h-139v37h125v63h-125v37h139v74h-227v-281h227v70zM545 545h-99l-59 -166l-55 166h-96l110 -281h88zM1784 403q0 59 -45 103t-107 43q-62 0 -108 -43q-45 -42 -45 -102t45 -102t107 -42t108 42q45 42 45 101zM1212 549
q-51 0 -83 -24t-31 -68q0 -59 78 -82l55 -15q18 -6 18 -14q1 -18 -33 -18t-40 32l-89 -14q16 -86 130 -86q49 0 85 23t35 69q0 59 -80 82l-55 15q-12 4 -12 20q0 17 26 17t37 -33l84 14q-14 82 -125 82zM1968 905q0 -45 -28 -74t-70 -29t-69 30q-28 28 -27 73q0 45 28 75
q29 30 70 30q40 0 68 -30t28 -75zM391 803v207h43q47 0 79 -30t32 -75t-31 -74t-80 -28h-43zM1599 1116h-139l-110 -217l-105 217h-143v-424h129v180l78 -180h84l77 180v-180h129v424zM1055 803h-207v55h188v96h-188v56h207v106h-336v-424h336v111zM258 1116v-424h184
q104 0 168 60t64 152t-64 152t-168 60h-184zM2101 904q0 93 -66 158q-67 64 -163 64t-164 -64t-68 -158q0 -93 68 -156q68 -64 164 -64t162 64t67 156zM2361 1372v-1372h-2361v1372h2361z" />
    <glyph glyph-name="Lacute" unicode="&#x139;" 
d="M1632 471q28 -1 46 -19t18 -49t-18 -50t-46 -19q-27 0 -46 19t-19 49t18 50t47 19zM899 471h51q31 0 31 -28t-31 -27h-51v55zM2087 545h-82v-144l-125 144h-70v-281h88v133l121 -133h68v281zM1452 264v281h-88v-281h88zM1069 449q0 41 -28 69t-72 27h-154v-281h84v88h8
l70 -88h106l-77 92q63 25 63 93zM784 334h-139v37h125v63h-125v37h139v74h-227v-281h227v70zM545 545h-99l-59 -166l-55 166h-96l110 -281h88zM1784 403q0 59 -45 103t-107 43q-62 0 -108 -43q-45 -42 -45 -102t45 -102t107 -42t108 42q45 42 45 101zM1212 549
q-51 0 -83 -24t-31 -68q0 -59 78 -82l55 -15q18 -6 18 -14q1 -18 -33 -18t-40 32l-89 -14q16 -86 130 -86q49 0 85 23t35 69q0 59 -80 82l-55 15q-12 4 -12 20q0 17 26 17t37 -33l84 14q-14 82 -125 82zM1968 905q0 -45 -28 -74t-70 -29t-69 30q-28 28 -27 73q0 45 28 75
q29 30 70 30q40 0 68 -30t28 -75zM391 803v207h43q47 0 79 -30t32 -75t-31 -74t-80 -28h-43zM1599 1116h-139l-110 -217l-105 217h-143v-424h129v180l78 -180h84l77 180v-180h129v424zM1055 803h-207v55h188v96h-188v56h207v106h-336v-424h336v111zM258 1116v-424h184
q104 0 168 60t64 152t-64 152t-168 60h-184zM2101 904q0 93 -66 158q-67 64 -163 64t-164 -64t-68 -158q0 -93 68 -156q68 -64 164 -64t162 64t67 156zM2361 1372v-1372h-2361v1372h2361z" />
    <glyph glyph-name="lacute" unicode="&#x13a;" 
d="M1632 471q28 -1 46 -19t18 -49t-18 -50t-46 -19q-27 0 -46 19t-19 49t18 50t47 19zM899 471h51q31 0 31 -28t-31 -27h-51v55zM2087 545h-82v-144l-125 144h-70v-281h88v133l121 -133h68v281zM1452 264v281h-88v-281h88zM1069 449q0 41 -28 69t-72 27h-154v-281h84v88h8
l70 -88h106l-77 92q63 25 63 93zM784 334h-139v37h125v63h-125v37h139v74h-227v-281h227v70zM545 545h-99l-59 -166l-55 166h-96l110 -281h88zM1784 403q0 59 -45 103t-107 43q-62 0 -108 -43q-45 -42 -45 -102t45 -102t107 -42t108 42q45 42 45 101zM1212 549
q-51 0 -83 -24t-31 -68q0 -59 78 -82l55 -15q18 -6 18 -14q1 -18 -33 -18t-40 32l-89 -14q16 -86 130 -86q49 0 85 23t35 69q0 59 -80 82l-55 15q-12 4 -12 20q0 17 26 17t37 -33l84 14q-14 82 -125 82zM1968 905q0 -45 -28 -74t-70 -29t-69 30q-28 28 -27 73q0 45 28 75
q29 30 70 30q40 0 68 -30t28 -75zM391 803v207h43q47 0 79 -30t32 -75t-31 -74t-80 -28h-43zM1599 1116h-139l-110 -217l-105 217h-143v-424h129v180l78 -180h84l77 180v-180h129v424zM1055 803h-207v55h188v96h-188v56h207v106h-336v-424h336v111zM258 1116v-424h184
q104 0 168 60t64 152t-64 152t-168 60h-184zM2101 904q0 93 -66 158q-67 64 -163 64t-164 -64t-68 -158q0 -93 68 -156q68 -64 164 -64t162 64t67 156zM2361 1372v-1372h-2361v1372h2361z" />
    <glyph glyph-name="Lcommaaccent" unicode="&#x13b;" 
d="M1632 471q28 -1 46 -19t18 -49t-18 -50t-46 -19q-27 0 -46 19t-19 49t18 50t47 19zM899 471h51q31 0 31 -28t-31 -27h-51v55zM2087 545h-82v-144l-125 144h-70v-281h88v133l121 -133h68v281zM1452 264v281h-88v-281h88zM1069 449q0 41 -28 69t-72 27h-154v-281h84v88h8
l70 -88h106l-77 92q63 25 63 93zM784 334h-139v37h125v63h-125v37h139v74h-227v-281h227v70zM545 545h-99l-59 -166l-55 166h-96l110 -281h88zM1784 403q0 59 -45 103t-107 43q-62 0 -108 -43q-45 -42 -45 -102t45 -102t107 -42t108 42q45 42 45 101zM1212 549
q-51 0 -83 -24t-31 -68q0 -59 78 -82l55 -15q18 -6 18 -14q1 -18 -33 -18t-40 32l-89 -14q16 -86 130 -86q49 0 85 23t35 69q0 59 -80 82l-55 15q-12 4 -12 20q0 17 26 17t37 -33l84 14q-14 82 -125 82zM1968 905q0 -45 -28 -74t-70 -29t-69 30q-28 28 -27 73q0 45 28 75
q29 30 70 30q40 0 68 -30t28 -75zM391 803v207h43q47 0 79 -30t32 -75t-31 -74t-80 -28h-43zM1599 1116h-139l-110 -217l-105 217h-143v-424h129v180l78 -180h84l77 180v-180h129v424zM1055 803h-207v55h188v96h-188v56h207v106h-336v-424h336v111zM258 1116v-424h184
q104 0 168 60t64 152t-64 152t-168 60h-184zM2101 904q0 93 -66 158q-67 64 -163 64t-164 -64t-68 -158q0 -93 68 -156q68 -64 164 -64t162 64t67 156zM2361 1372v-1372h-2361v1372h2361z" />
    <glyph glyph-name="lcommaaccent" unicode="&#x13c;" 
d="M1632 471q28 -1 46 -19t18 -49t-18 -50t-46 -19q-27 0 -46 19t-19 49t18 50t47 19zM899 471h51q31 0 31 -28t-31 -27h-51v55zM2087 545h-82v-144l-125 144h-70v-281h88v133l121 -133h68v281zM1452 264v281h-88v-281h88zM1069 449q0 41 -28 69t-72 27h-154v-281h84v88h8
l70 -88h106l-77 92q63 25 63 93zM784 334h-139v37h125v63h-125v37h139v74h-227v-281h227v70zM545 545h-99l-59 -166l-55 166h-96l110 -281h88zM1784 403q0 59 -45 103t-107 43q-62 0 -108 -43q-45 -42 -45 -102t45 -102t107 -42t108 42q45 42 45 101zM1212 549
q-51 0 -83 -24t-31 -68q0 -59 78 -82l55 -15q18 -6 18 -14q1 -18 -33 -18t-40 32l-89 -14q16 -86 130 -86q49 0 85 23t35 69q0 59 -80 82l-55 15q-12 4 -12 20q0 17 26 17t37 -33l84 14q-14 82 -125 82zM1968 905q0 -45 -28 -74t-70 -29t-69 30q-28 28 -27 73q0 45 28 75
q29 30 70 30q40 0 68 -30t28 -75zM391 803v207h43q47 0 79 -30t32 -75t-31 -74t-80 -28h-43zM1599 1116h-139l-110 -217l-105 217h-143v-424h129v180l78 -180h84l77 180v-180h129v424zM1055 803h-207v55h188v96h-188v56h207v106h-336v-424h336v111zM258 1116v-424h184
q104 0 168 60t64 152t-64 152t-168 60h-184zM2101 904q0 93 -66 158q-67 64 -163 64t-164 -64t-68 -158q0 -93 68 -156q68 -64 164 -64t162 64t67 156zM2361 1372v-1372h-2361v1372h2361z" />
    <glyph glyph-name="Lcaron" unicode="&#x13d;" 
d="M1632 471q28 -1 46 -19t18 -49t-18 -50t-46 -19q-27 0 -46 19t-19 49t18 50t47 19zM899 471h51q31 0 31 -28t-31 -27h-51v55zM2087 545h-82v-144l-125 144h-70v-281h88v133l121 -133h68v281zM1452 264v281h-88v-281h88zM1069 449q0 41 -28 69t-72 27h-154v-281h84v88h8
l70 -88h106l-77 92q63 25 63 93zM784 334h-139v37h125v63h-125v37h139v74h-227v-281h227v70zM545 545h-99l-59 -166l-55 166h-96l110 -281h88zM1784 403q0 59 -45 103t-107 43q-62 0 -108 -43q-45 -42 -45 -102t45 -102t107 -42t108 42q45 42 45 101zM1212 549
q-51 0 -83 -24t-31 -68q0 -59 78 -82l55 -15q18 -6 18 -14q1 -18 -33 -18t-40 32l-89 -14q16 -86 130 -86q49 0 85 23t35 69q0 59 -80 82l-55 15q-12 4 -12 20q0 17 26 17t37 -33l84 14q-14 82 -125 82zM1968 905q0 -45 -28 -74t-70 -29t-69 30q-28 28 -27 73q0 45 28 75
q29 30 70 30q40 0 68 -30t28 -75zM391 803v207h43q47 0 79 -30t32 -75t-31 -74t-80 -28h-43zM1599 1116h-139l-110 -217l-105 217h-143v-424h129v180l78 -180h84l77 180v-180h129v424zM1055 803h-207v55h188v96h-188v56h207v106h-336v-424h336v111zM258 1116v-424h184
q104 0 168 60t64 152t-64 152t-168 60h-184zM2101 904q0 93 -66 158q-67 64 -163 64t-164 -64t-68 -158q0 -93 68 -156q68 -64 164 -64t162 64t67 156zM2361 1372v-1372h-2361v1372h2361z" />
    <glyph glyph-name="lcaron" unicode="&#x13e;" 
d="M1632 471q28 -1 46 -19t18 -49t-18 -50t-46 -19q-27 0 -46 19t-19 49t18 50t47 19zM899 471h51q31 0 31 -28t-31 -27h-51v55zM2087 545h-82v-144l-125 144h-70v-281h88v133l121 -133h68v281zM1452 264v281h-88v-281h88zM1069 449q0 41 -28 69t-72 27h-154v-281h84v88h8
l70 -88h106l-77 92q63 25 63 93zM784 334h-139v37h125v63h-125v37h139v74h-227v-281h227v70zM545 545h-99l-59 -166l-55 166h-96l110 -281h88zM1784 403q0 59 -45 103t-107 43q-62 0 -108 -43q-45 -42 -45 -102t45 -102t107 -42t108 42q45 42 45 101zM1212 549
q-51 0 -83 -24t-31 -68q0 -59 78 -82l55 -15q18 -6 18 -14q1 -18 -33 -18t-40 32l-89 -14q16 -86 130 -86q49 0 85 23t35 69q0 59 -80 82l-55 15q-12 4 -12 20q0 17 26 17t37 -33l84 14q-14 82 -125 82zM1968 905q0 -45 -28 -74t-70 -29t-69 30q-28 28 -27 73q0 45 28 75
q29 30 70 30q40 0 68 -30t28 -75zM391 803v207h43q47 0 79 -30t32 -75t-31 -74t-80 -28h-43zM1599 1116h-139l-110 -217l-105 217h-143v-424h129v180l78 -180h84l77 180v-180h129v424zM1055 803h-207v55h188v96h-188v56h207v106h-336v-424h336v111zM258 1116v-424h184
q104 0 168 60t64 152t-64 152t-168 60h-184zM2101 904q0 93 -66 158q-67 64 -163 64t-164 -64t-68 -158q0 -93 68 -156q68 -64 164 -64t162 64t67 156zM2361 1372v-1372h-2361v1372h2361z" />
    <glyph glyph-name="Ldot" unicode="&#x13f;" 
d="M1632 471q28 -1 46 -19t18 -49t-18 -50t-46 -19q-27 0 -46 19t-19 49t18 50t47 19zM899 471h51q31 0 31 -28t-31 -27h-51v55zM2087 545h-82v-144l-125 144h-70v-281h88v133l121 -133h68v281zM1452 264v281h-88v-281h88zM1069 449q0 41 -28 69t-72 27h-154v-281h84v88h8
l70 -88h106l-77 92q63 25 63 93zM784 334h-139v37h125v63h-125v37h139v74h-227v-281h227v70zM545 545h-99l-59 -166l-55 166h-96l110 -281h88zM1784 403q0 59 -45 103t-107 43q-62 0 -108 -43q-45 -42 -45 -102t45 -102t107 -42t108 42q45 42 45 101zM1212 549
q-51 0 -83 -24t-31 -68q0 -59 78 -82l55 -15q18 -6 18 -14q1 -18 -33 -18t-40 32l-89 -14q16 -86 130 -86q49 0 85 23t35 69q0 59 -80 82l-55 15q-12 4 -12 20q0 17 26 17t37 -33l84 14q-14 82 -125 82zM1968 905q0 -45 -28 -74t-70 -29t-69 30q-28 28 -27 73q0 45 28 75
q29 30 70 30q40 0 68 -30t28 -75zM391 803v207h43q47 0 79 -30t32 -75t-31 -74t-80 -28h-43zM1599 1116h-139l-110 -217l-105 217h-143v-424h129v180l78 -180h84l77 180v-180h129v424zM1055 803h-207v55h188v96h-188v56h207v106h-336v-424h336v111zM258 1116v-424h184
q104 0 168 60t64 152t-64 152t-168 60h-184zM2101 904q0 93 -66 158q-67 64 -163 64t-164 -64t-68 -158q0 -93 68 -156q68 -64 164 -64t162 64t67 156zM2361 1372v-1372h-2361v1372h2361z" />
    <glyph glyph-name="ldot" unicode="&#x140;" 
d="M1632 471q28 -1 46 -19t18 -49t-18 -50t-46 -19q-27 0 -46 19t-19 49t18 50t47 19zM899 471h51q31 0 31 -28t-31 -27h-51v55zM2087 545h-82v-144l-125 144h-70v-281h88v133l121 -133h68v281zM1452 264v281h-88v-281h88zM1069 449q0 41 -28 69t-72 27h-154v-281h84v88h8
l70 -88h106l-77 92q63 25 63 93zM784 334h-139v37h125v63h-125v37h139v74h-227v-281h227v70zM545 545h-99l-59 -166l-55 166h-96l110 -281h88zM1784 403q0 59 -45 103t-107 43q-62 0 -108 -43q-45 -42 -45 -102t45 -102t107 -42t108 42q45 42 45 101zM1212 549
q-51 0 -83 -24t-31 -68q0 -59 78 -82l55 -15q18 -6 18 -14q1 -18 -33 -18t-40 32l-89 -14q16 -86 130 -86q49 0 85 23t35 69q0 59 -80 82l-55 15q-12 4 -12 20q0 17 26 17t37 -33l84 14q-14 82 -125 82zM1968 905q0 -45 -28 -74t-70 -29t-69 30q-28 28 -27 73q0 45 28 75
q29 30 70 30q40 0 68 -30t28 -75zM391 803v207h43q47 0 79 -30t32 -75t-31 -74t-80 -28h-43zM1599 1116h-139l-110 -217l-105 217h-143v-424h129v180l78 -180h84l77 180v-180h129v424zM1055 803h-207v55h188v96h-188v56h207v106h-336v-424h336v111zM258 1116v-424h184
q104 0 168 60t64 152t-64 152t-168 60h-184zM2101 904q0 93 -66 158q-67 64 -163 64t-164 -64t-68 -158q0 -93 68 -156q68 -64 164 -64t162 64t67 156zM2361 1372v-1372h-2361v1372h2361z" />
    <glyph glyph-name="Lslash" unicode="&#x141;" 
d="M1632 471q28 -1 46 -19t18 -49t-18 -50t-46 -19q-27 0 -46 19t-19 49t18 50t47 19zM899 471h51q31 0 31 -28t-31 -27h-51v55zM2087 545h-82v-144l-125 144h-70v-281h88v133l121 -133h68v281zM1452 264v281h-88v-281h88zM1069 449q0 41 -28 69t-72 27h-154v-281h84v88h8
l70 -88h106l-77 92q63 25 63 93zM784 334h-139v37h125v63h-125v37h139v74h-227v-281h227v70zM545 545h-99l-59 -166l-55 166h-96l110 -281h88zM1784 403q0 59 -45 103t-107 43q-62 0 -108 -43q-45 -42 -45 -102t45 -102t107 -42t108 42q45 42 45 101zM1212 549
q-51 0 -83 -24t-31 -68q0 -59 78 -82l55 -15q18 -6 18 -14q1 -18 -33 -18t-40 32l-89 -14q16 -86 130 -86q49 0 85 23t35 69q0 59 -80 82l-55 15q-12 4 -12 20q0 17 26 17t37 -33l84 14q-14 82 -125 82zM1968 905q0 -45 -28 -74t-70 -29t-69 30q-28 28 -27 73q0 45 28 75
q29 30 70 30q40 0 68 -30t28 -75zM391 803v207h43q47 0 79 -30t32 -75t-31 -74t-80 -28h-43zM1599 1116h-139l-110 -217l-105 217h-143v-424h129v180l78 -180h84l77 180v-180h129v424zM1055 803h-207v55h188v96h-188v56h207v106h-336v-424h336v111zM258 1116v-424h184
q104 0 168 60t64 152t-64 152t-168 60h-184zM2101 904q0 93 -66 158q-67 64 -163 64t-164 -64t-68 -158q0 -93 68 -156q68 -64 164 -64t162 64t67 156zM2361 1372v-1372h-2361v1372h2361z" />
    <glyph glyph-name="lslash" unicode="&#x142;" 
d="M1632 471q28 -1 46 -19t18 -49t-18 -50t-46 -19q-27 0 -46 19t-19 49t18 50t47 19zM899 471h51q31 0 31 -28t-31 -27h-51v55zM2087 545h-82v-144l-125 144h-70v-281h88v133l121 -133h68v281zM1452 264v281h-88v-281h88zM1069 449q0 41 -28 69t-72 27h-154v-281h84v88h8
l70 -88h106l-77 92q63 25 63 93zM784 334h-139v37h125v63h-125v37h139v74h-227v-281h227v70zM545 545h-99l-59 -166l-55 166h-96l110 -281h88zM1784 403q0 59 -45 103t-107 43q-62 0 -108 -43q-45 -42 -45 -102t45 -102t107 -42t108 42q45 42 45 101zM1212 549
q-51 0 -83 -24t-31 -68q0 -59 78 -82l55 -15q18 -6 18 -14q1 -18 -33 -18t-40 32l-89 -14q16 -86 130 -86q49 0 85 23t35 69q0 59 -80 82l-55 15q-12 4 -12 20q0 17 26 17t37 -33l84 14q-14 82 -125 82zM1968 905q0 -45 -28 -74t-70 -29t-69 30q-28 28 -27 73q0 45 28 75
q29 30 70 30q40 0 68 -30t28 -75zM391 803v207h43q47 0 79 -30t32 -75t-31 -74t-80 -28h-43zM1599 1116h-139l-110 -217l-105 217h-143v-424h129v180l78 -180h84l77 180v-180h129v424zM1055 803h-207v55h188v96h-188v56h207v106h-336v-424h336v111zM258 1116v-424h184
q104 0 168 60t64 152t-64 152t-168 60h-184zM2101 904q0 93 -66 158q-67 64 -163 64t-164 -64t-68 -158q0 -93 68 -156q68 -64 164 -64t162 64t67 156zM2361 1372v-1372h-2361v1372h2361z" />
    <glyph glyph-name="Nacute" unicode="&#x143;" 
d="M1632 471q28 -1 46 -19t18 -49t-18 -50t-46 -19q-27 0 -46 19t-19 49t18 50t47 19zM899 471h51q31 0 31 -28t-31 -27h-51v55zM2087 545h-82v-144l-125 144h-70v-281h88v133l121 -133h68v281zM1452 264v281h-88v-281h88zM1069 449q0 41 -28 69t-72 27h-154v-281h84v88h8
l70 -88h106l-77 92q63 25 63 93zM784 334h-139v37h125v63h-125v37h139v74h-227v-281h227v70zM545 545h-99l-59 -166l-55 166h-96l110 -281h88zM1784 403q0 59 -45 103t-107 43q-62 0 -108 -43q-45 -42 -45 -102t45 -102t107 -42t108 42q45 42 45 101zM1212 549
q-51 0 -83 -24t-31 -68q0 -59 78 -82l55 -15q18 -6 18 -14q1 -18 -33 -18t-40 32l-89 -14q16 -86 130 -86q49 0 85 23t35 69q0 59 -80 82l-55 15q-12 4 -12 20q0 17 26 17t37 -33l84 14q-14 82 -125 82zM1968 905q0 -45 -28 -74t-70 -29t-69 30q-28 28 -27 73q0 45 28 75
q29 30 70 30q40 0 68 -30t28 -75zM391 803v207h43q47 0 79 -30t32 -75t-31 -74t-80 -28h-43zM1599 1116h-139l-110 -217l-105 217h-143v-424h129v180l78 -180h84l77 180v-180h129v424zM1055 803h-207v55h188v96h-188v56h207v106h-336v-424h336v111zM258 1116v-424h184
q104 0 168 60t64 152t-64 152t-168 60h-184zM2101 904q0 93 -66 158q-67 64 -163 64t-164 -64t-68 -158q0 -93 68 -156q68 -64 164 -64t162 64t67 156zM2361 1372v-1372h-2361v1372h2361z" />
    <glyph glyph-name="nacute" unicode="&#x144;" 
d="M1632 471q28 -1 46 -19t18 -49t-18 -50t-46 -19q-27 0 -46 19t-19 49t18 50t47 19zM899 471h51q31 0 31 -28t-31 -27h-51v55zM2087 545h-82v-144l-125 144h-70v-281h88v133l121 -133h68v281zM1452 264v281h-88v-281h88zM1069 449q0 41 -28 69t-72 27h-154v-281h84v88h8
l70 -88h106l-77 92q63 25 63 93zM784 334h-139v37h125v63h-125v37h139v74h-227v-281h227v70zM545 545h-99l-59 -166l-55 166h-96l110 -281h88zM1784 403q0 59 -45 103t-107 43q-62 0 -108 -43q-45 -42 -45 -102t45 -102t107 -42t108 42q45 42 45 101zM1212 549
q-51 0 -83 -24t-31 -68q0 -59 78 -82l55 -15q18 -6 18 -14q1 -18 -33 -18t-40 32l-89 -14q16 -86 130 -86q49 0 85 23t35 69q0 59 -80 82l-55 15q-12 4 -12 20q0 17 26 17t37 -33l84 14q-14 82 -125 82zM1968 905q0 -45 -28 -74t-70 -29t-69 30q-28 28 -27 73q0 45 28 75
q29 30 70 30q40 0 68 -30t28 -75zM391 803v207h43q47 0 79 -30t32 -75t-31 -74t-80 -28h-43zM1599 1116h-139l-110 -217l-105 217h-143v-424h129v180l78 -180h84l77 180v-180h129v424zM1055 803h-207v55h188v96h-188v56h207v106h-336v-424h336v111zM258 1116v-424h184
q104 0 168 60t64 152t-64 152t-168 60h-184zM2101 904q0 93 -66 158q-67 64 -163 64t-164 -64t-68 -158q0 -93 68 -156q68 -64 164 -64t162 64t67 156zM2361 1372v-1372h-2361v1372h2361z" />
    <glyph glyph-name="Ncommaaccent" unicode="&#x145;" 
d="M1632 471q28 -1 46 -19t18 -49t-18 -50t-46 -19q-27 0 -46 19t-19 49t18 50t47 19zM899 471h51q31 0 31 -28t-31 -27h-51v55zM2087 545h-82v-144l-125 144h-70v-281h88v133l121 -133h68v281zM1452 264v281h-88v-281h88zM1069 449q0 41 -28 69t-72 27h-154v-281h84v88h8
l70 -88h106l-77 92q63 25 63 93zM784 334h-139v37h125v63h-125v37h139v74h-227v-281h227v70zM545 545h-99l-59 -166l-55 166h-96l110 -281h88zM1784 403q0 59 -45 103t-107 43q-62 0 -108 -43q-45 -42 -45 -102t45 -102t107 -42t108 42q45 42 45 101zM1212 549
q-51 0 -83 -24t-31 -68q0 -59 78 -82l55 -15q18 -6 18 -14q1 -18 -33 -18t-40 32l-89 -14q16 -86 130 -86q49 0 85 23t35 69q0 59 -80 82l-55 15q-12 4 -12 20q0 17 26 17t37 -33l84 14q-14 82 -125 82zM1968 905q0 -45 -28 -74t-70 -29t-69 30q-28 28 -27 73q0 45 28 75
q29 30 70 30q40 0 68 -30t28 -75zM391 803v207h43q47 0 79 -30t32 -75t-31 -74t-80 -28h-43zM1599 1116h-139l-110 -217l-105 217h-143v-424h129v180l78 -180h84l77 180v-180h129v424zM1055 803h-207v55h188v96h-188v56h207v106h-336v-424h336v111zM258 1116v-424h184
q104 0 168 60t64 152t-64 152t-168 60h-184zM2101 904q0 93 -66 158q-67 64 -163 64t-164 -64t-68 -158q0 -93 68 -156q68 -64 164 -64t162 64t67 156zM2361 1372v-1372h-2361v1372h2361z" />
    <glyph glyph-name="ncommaaccent" unicode="&#x146;" 
d="M1632 471q28 -1 46 -19t18 -49t-18 -50t-46 -19q-27 0 -46 19t-19 49t18 50t47 19zM899 471h51q31 0 31 -28t-31 -27h-51v55zM2087 545h-82v-144l-125 144h-70v-281h88v133l121 -133h68v281zM1452 264v281h-88v-281h88zM1069 449q0 41 -28 69t-72 27h-154v-281h84v88h8
l70 -88h106l-77 92q63 25 63 93zM784 334h-139v37h125v63h-125v37h139v74h-227v-281h227v70zM545 545h-99l-59 -166l-55 166h-96l110 -281h88zM1784 403q0 59 -45 103t-107 43q-62 0 -108 -43q-45 -42 -45 -102t45 -102t107 -42t108 42q45 42 45 101zM1212 549
q-51 0 -83 -24t-31 -68q0 -59 78 -82l55 -15q18 -6 18 -14q1 -18 -33 -18t-40 32l-89 -14q16 -86 130 -86q49 0 85 23t35 69q0 59 -80 82l-55 15q-12 4 -12 20q0 17 26 17t37 -33l84 14q-14 82 -125 82zM1968 905q0 -45 -28 -74t-70 -29t-69 30q-28 28 -27 73q0 45 28 75
q29 30 70 30q40 0 68 -30t28 -75zM391 803v207h43q47 0 79 -30t32 -75t-31 -74t-80 -28h-43zM1599 1116h-139l-110 -217l-105 217h-143v-424h129v180l78 -180h84l77 180v-180h129v424zM1055 803h-207v55h188v96h-188v56h207v106h-336v-424h336v111zM258 1116v-424h184
q104 0 168 60t64 152t-64 152t-168 60h-184zM2101 904q0 93 -66 158q-67 64 -163 64t-164 -64t-68 -158q0 -93 68 -156q68 -64 164 -64t162 64t67 156zM2361 1372v-1372h-2361v1372h2361z" />
    <glyph glyph-name="Ncaron" unicode="&#x147;" 
d="M1632 471q28 -1 46 -19t18 -49t-18 -50t-46 -19q-27 0 -46 19t-19 49t18 50t47 19zM899 471h51q31 0 31 -28t-31 -27h-51v55zM2087 545h-82v-144l-125 144h-70v-281h88v133l121 -133h68v281zM1452 264v281h-88v-281h88zM1069 449q0 41 -28 69t-72 27h-154v-281h84v88h8
l70 -88h106l-77 92q63 25 63 93zM784 334h-139v37h125v63h-125v37h139v74h-227v-281h227v70zM545 545h-99l-59 -166l-55 166h-96l110 -281h88zM1784 403q0 59 -45 103t-107 43q-62 0 -108 -43q-45 -42 -45 -102t45 -102t107 -42t108 42q45 42 45 101zM1212 549
q-51 0 -83 -24t-31 -68q0 -59 78 -82l55 -15q18 -6 18 -14q1 -18 -33 -18t-40 32l-89 -14q16 -86 130 -86q49 0 85 23t35 69q0 59 -80 82l-55 15q-12 4 -12 20q0 17 26 17t37 -33l84 14q-14 82 -125 82zM1968 905q0 -45 -28 -74t-70 -29t-69 30q-28 28 -27 73q0 45 28 75
q29 30 70 30q40 0 68 -30t28 -75zM391 803v207h43q47 0 79 -30t32 -75t-31 -74t-80 -28h-43zM1599 1116h-139l-110 -217l-105 217h-143v-424h129v180l78 -180h84l77 180v-180h129v424zM1055 803h-207v55h188v96h-188v56h207v106h-336v-424h336v111zM258 1116v-424h184
q104 0 168 60t64 152t-64 152t-168 60h-184zM2101 904q0 93 -66 158q-67 64 -163 64t-164 -64t-68 -158q0 -93 68 -156q68 -64 164 -64t162 64t67 156zM2361 1372v-1372h-2361v1372h2361z" />
    <glyph glyph-name="ncaron" unicode="&#x148;" 
d="M1632 471q28 -1 46 -19t18 -49t-18 -50t-46 -19q-27 0 -46 19t-19 49t18 50t47 19zM899 471h51q31 0 31 -28t-31 -27h-51v55zM2087 545h-82v-144l-125 144h-70v-281h88v133l121 -133h68v281zM1452 264v281h-88v-281h88zM1069 449q0 41 -28 69t-72 27h-154v-281h84v88h8
l70 -88h106l-77 92q63 25 63 93zM784 334h-139v37h125v63h-125v37h139v74h-227v-281h227v70zM545 545h-99l-59 -166l-55 166h-96l110 -281h88zM1784 403q0 59 -45 103t-107 43q-62 0 -108 -43q-45 -42 -45 -102t45 -102t107 -42t108 42q45 42 45 101zM1212 549
q-51 0 -83 -24t-31 -68q0 -59 78 -82l55 -15q18 -6 18 -14q1 -18 -33 -18t-40 32l-89 -14q16 -86 130 -86q49 0 85 23t35 69q0 59 -80 82l-55 15q-12 4 -12 20q0 17 26 17t37 -33l84 14q-14 82 -125 82zM1968 905q0 -45 -28 -74t-70 -29t-69 30q-28 28 -27 73q0 45 28 75
q29 30 70 30q40 0 68 -30t28 -75zM391 803v207h43q47 0 79 -30t32 -75t-31 -74t-80 -28h-43zM1599 1116h-139l-110 -217l-105 217h-143v-424h129v180l78 -180h84l77 180v-180h129v424zM1055 803h-207v55h188v96h-188v56h207v106h-336v-424h336v111zM258 1116v-424h184
q104 0 168 60t64 152t-64 152t-168 60h-184zM2101 904q0 93 -66 158q-67 64 -163 64t-164 -64t-68 -158q0 -93 68 -156q68 -64 164 -64t162 64t67 156zM2361 1372v-1372h-2361v1372h2361z" />
    <glyph glyph-name="Eng" unicode="&#x14a;" 
d="M1632 471q28 -1 46 -19t18 -49t-18 -50t-46 -19q-27 0 -46 19t-19 49t18 50t47 19zM899 471h51q31 0 31 -28t-31 -27h-51v55zM2087 545h-82v-144l-125 144h-70v-281h88v133l121 -133h68v281zM1452 264v281h-88v-281h88zM1069 449q0 41 -28 69t-72 27h-154v-281h84v88h8
l70 -88h106l-77 92q63 25 63 93zM784 334h-139v37h125v63h-125v37h139v74h-227v-281h227v70zM545 545h-99l-59 -166l-55 166h-96l110 -281h88zM1784 403q0 59 -45 103t-107 43q-62 0 -108 -43q-45 -42 -45 -102t45 -102t107 -42t108 42q45 42 45 101zM1212 549
q-51 0 -83 -24t-31 -68q0 -59 78 -82l55 -15q18 -6 18 -14q1 -18 -33 -18t-40 32l-89 -14q16 -86 130 -86q49 0 85 23t35 69q0 59 -80 82l-55 15q-12 4 -12 20q0 17 26 17t37 -33l84 14q-14 82 -125 82zM1968 905q0 -45 -28 -74t-70 -29t-69 30q-28 28 -27 73q0 45 28 75
q29 30 70 30q40 0 68 -30t28 -75zM391 803v207h43q47 0 79 -30t32 -75t-31 -74t-80 -28h-43zM1599 1116h-139l-110 -217l-105 217h-143v-424h129v180l78 -180h84l77 180v-180h129v424zM1055 803h-207v55h188v96h-188v56h207v106h-336v-424h336v111zM258 1116v-424h184
q104 0 168 60t64 152t-64 152t-168 60h-184zM2101 904q0 93 -66 158q-67 64 -163 64t-164 -64t-68 -158q0 -93 68 -156q68 -64 164 -64t162 64t67 156zM2361 1372v-1372h-2361v1372h2361z" />
    <glyph glyph-name="eng" unicode="&#x14b;" 
d="M1632 471q28 -1 46 -19t18 -49t-18 -50t-46 -19q-27 0 -46 19t-19 49t18 50t47 19zM899 471h51q31 0 31 -28t-31 -27h-51v55zM2087 545h-82v-144l-125 144h-70v-281h88v133l121 -133h68v281zM1452 264v281h-88v-281h88zM1069 449q0 41 -28 69t-72 27h-154v-281h84v88h8
l70 -88h106l-77 92q63 25 63 93zM784 334h-139v37h125v63h-125v37h139v74h-227v-281h227v70zM545 545h-99l-59 -166l-55 166h-96l110 -281h88zM1784 403q0 59 -45 103t-107 43q-62 0 -108 -43q-45 -42 -45 -102t45 -102t107 -42t108 42q45 42 45 101zM1212 549
q-51 0 -83 -24t-31 -68q0 -59 78 -82l55 -15q18 -6 18 -14q1 -18 -33 -18t-40 32l-89 -14q16 -86 130 -86q49 0 85 23t35 69q0 59 -80 82l-55 15q-12 4 -12 20q0 17 26 17t37 -33l84 14q-14 82 -125 82zM1968 905q0 -45 -28 -74t-70 -29t-69 30q-28 28 -27 73q0 45 28 75
q29 30 70 30q40 0 68 -30t28 -75zM391 803v207h43q47 0 79 -30t32 -75t-31 -74t-80 -28h-43zM1599 1116h-139l-110 -217l-105 217h-143v-424h129v180l78 -180h84l77 180v-180h129v424zM1055 803h-207v55h188v96h-188v56h207v106h-336v-424h336v111zM258 1116v-424h184
q104 0 168 60t64 152t-64 152t-168 60h-184zM2101 904q0 93 -66 158q-67 64 -163 64t-164 -64t-68 -158q0 -93 68 -156q68 -64 164 -64t162 64t67 156zM2361 1372v-1372h-2361v1372h2361z" />
    <glyph glyph-name="Omacron" unicode="&#x14c;" 
d="M1632 471q28 -1 46 -19t18 -49t-18 -50t-46 -19q-27 0 -46 19t-19 49t18 50t47 19zM899 471h51q31 0 31 -28t-31 -27h-51v55zM2087 545h-82v-144l-125 144h-70v-281h88v133l121 -133h68v281zM1452 264v281h-88v-281h88zM1069 449q0 41 -28 69t-72 27h-154v-281h84v88h8
l70 -88h106l-77 92q63 25 63 93zM784 334h-139v37h125v63h-125v37h139v74h-227v-281h227v70zM545 545h-99l-59 -166l-55 166h-96l110 -281h88zM1784 403q0 59 -45 103t-107 43q-62 0 -108 -43q-45 -42 -45 -102t45 -102t107 -42t108 42q45 42 45 101zM1212 549
q-51 0 -83 -24t-31 -68q0 -59 78 -82l55 -15q18 -6 18 -14q1 -18 -33 -18t-40 32l-89 -14q16 -86 130 -86q49 0 85 23t35 69q0 59 -80 82l-55 15q-12 4 -12 20q0 17 26 17t37 -33l84 14q-14 82 -125 82zM1968 905q0 -45 -28 -74t-70 -29t-69 30q-28 28 -27 73q0 45 28 75
q29 30 70 30q40 0 68 -30t28 -75zM391 803v207h43q47 0 79 -30t32 -75t-31 -74t-80 -28h-43zM1599 1116h-139l-110 -217l-105 217h-143v-424h129v180l78 -180h84l77 180v-180h129v424zM1055 803h-207v55h188v96h-188v56h207v106h-336v-424h336v111zM258 1116v-424h184
q104 0 168 60t64 152t-64 152t-168 60h-184zM2101 904q0 93 -66 158q-67 64 -163 64t-164 -64t-68 -158q0 -93 68 -156q68 -64 164 -64t162 64t67 156zM2361 1372v-1372h-2361v1372h2361z" />
    <glyph glyph-name="omacron" unicode="&#x14d;" 
d="M1632 471q28 -1 46 -19t18 -49t-18 -50t-46 -19q-27 0 -46 19t-19 49t18 50t47 19zM899 471h51q31 0 31 -28t-31 -27h-51v55zM2087 545h-82v-144l-125 144h-70v-281h88v133l121 -133h68v281zM1452 264v281h-88v-281h88zM1069 449q0 41 -28 69t-72 27h-154v-281h84v88h8
l70 -88h106l-77 92q63 25 63 93zM784 334h-139v37h125v63h-125v37h139v74h-227v-281h227v70zM545 545h-99l-59 -166l-55 166h-96l110 -281h88zM1784 403q0 59 -45 103t-107 43q-62 0 -108 -43q-45 -42 -45 -102t45 -102t107 -42t108 42q45 42 45 101zM1212 549
q-51 0 -83 -24t-31 -68q0 -59 78 -82l55 -15q18 -6 18 -14q1 -18 -33 -18t-40 32l-89 -14q16 -86 130 -86q49 0 85 23t35 69q0 59 -80 82l-55 15q-12 4 -12 20q0 17 26 17t37 -33l84 14q-14 82 -125 82zM1968 905q0 -45 -28 -74t-70 -29t-69 30q-28 28 -27 73q0 45 28 75
q29 30 70 30q40 0 68 -30t28 -75zM391 803v207h43q47 0 79 -30t32 -75t-31 -74t-80 -28h-43zM1599 1116h-139l-110 -217l-105 217h-143v-424h129v180l78 -180h84l77 180v-180h129v424zM1055 803h-207v55h188v96h-188v56h207v106h-336v-424h336v111zM258 1116v-424h184
q104 0 168 60t64 152t-64 152t-168 60h-184zM2101 904q0 93 -66 158q-67 64 -163 64t-164 -64t-68 -158q0 -93 68 -156q68 -64 164 -64t162 64t67 156zM2361 1372v-1372h-2361v1372h2361z" />
    <glyph glyph-name="Ohungarumlaut" unicode="&#x150;" 
d="M1632 471q28 -1 46 -19t18 -49t-18 -50t-46 -19q-27 0 -46 19t-19 49t18 50t47 19zM899 471h51q31 0 31 -28t-31 -27h-51v55zM2087 545h-82v-144l-125 144h-70v-281h88v133l121 -133h68v281zM1452 264v281h-88v-281h88zM1069 449q0 41 -28 69t-72 27h-154v-281h84v88h8
l70 -88h106l-77 92q63 25 63 93zM784 334h-139v37h125v63h-125v37h139v74h-227v-281h227v70zM545 545h-99l-59 -166l-55 166h-96l110 -281h88zM1784 403q0 59 -45 103t-107 43q-62 0 -108 -43q-45 -42 -45 -102t45 -102t107 -42t108 42q45 42 45 101zM1212 549
q-51 0 -83 -24t-31 -68q0 -59 78 -82l55 -15q18 -6 18 -14q1 -18 -33 -18t-40 32l-89 -14q16 -86 130 -86q49 0 85 23t35 69q0 59 -80 82l-55 15q-12 4 -12 20q0 17 26 17t37 -33l84 14q-14 82 -125 82zM1968 905q0 -45 -28 -74t-70 -29t-69 30q-28 28 -27 73q0 45 28 75
q29 30 70 30q40 0 68 -30t28 -75zM391 803v207h43q47 0 79 -30t32 -75t-31 -74t-80 -28h-43zM1599 1116h-139l-110 -217l-105 217h-143v-424h129v180l78 -180h84l77 180v-180h129v424zM1055 803h-207v55h188v96h-188v56h207v106h-336v-424h336v111zM258 1116v-424h184
q104 0 168 60t64 152t-64 152t-168 60h-184zM2101 904q0 93 -66 158q-67 64 -163 64t-164 -64t-68 -158q0 -93 68 -156q68 -64 164 -64t162 64t67 156zM2361 1372v-1372h-2361v1372h2361z" />
    <glyph glyph-name="ohungarumlaut" unicode="&#x151;" 
d="M1632 471q28 -1 46 -19t18 -49t-18 -50t-46 -19q-27 0 -46 19t-19 49t18 50t47 19zM899 471h51q31 0 31 -28t-31 -27h-51v55zM2087 545h-82v-144l-125 144h-70v-281h88v133l121 -133h68v281zM1452 264v281h-88v-281h88zM1069 449q0 41 -28 69t-72 27h-154v-281h84v88h8
l70 -88h106l-77 92q63 25 63 93zM784 334h-139v37h125v63h-125v37h139v74h-227v-281h227v70zM545 545h-99l-59 -166l-55 166h-96l110 -281h88zM1784 403q0 59 -45 103t-107 43q-62 0 -108 -43q-45 -42 -45 -102t45 -102t107 -42t108 42q45 42 45 101zM1212 549
q-51 0 -83 -24t-31 -68q0 -59 78 -82l55 -15q18 -6 18 -14q1 -18 -33 -18t-40 32l-89 -14q16 -86 130 -86q49 0 85 23t35 69q0 59 -80 82l-55 15q-12 4 -12 20q0 17 26 17t37 -33l84 14q-14 82 -125 82zM1968 905q0 -45 -28 -74t-70 -29t-69 30q-28 28 -27 73q0 45 28 75
q29 30 70 30q40 0 68 -30t28 -75zM391 803v207h43q47 0 79 -30t32 -75t-31 -74t-80 -28h-43zM1599 1116h-139l-110 -217l-105 217h-143v-424h129v180l78 -180h84l77 180v-180h129v424zM1055 803h-207v55h188v96h-188v56h207v106h-336v-424h336v111zM258 1116v-424h184
q104 0 168 60t64 152t-64 152t-168 60h-184zM2101 904q0 93 -66 158q-67 64 -163 64t-164 -64t-68 -158q0 -93 68 -156q68 -64 164 -64t162 64t67 156zM2361 1372v-1372h-2361v1372h2361z" />
    <glyph glyph-name="OE" unicode="&#x152;" horiz-adv-x="2107" 
d="M946 291v790h-88q-211 -1 -330 -109q-118 -108 -118 -286t118 -287t330 -108h88zM2015 291v-291h-1157q-350 0 -568 193t-218 493t218 494q218 193 568 192h1151v-291h-725v-258h666v-274h-666v-258h731z" />
    <glyph glyph-name="oe" unicode="&#x153;" horiz-adv-x="1994" 
d="M619 248q102 0 176 75q73 75 73 191t-74 192q-75 74 -175 74t-177 -74q-76 -75 -76 -192q0 -118 76 -192q75 -74 177 -74zM1414 793q-73 0 -134 -43t-84 -119h424q-23 80 -78 121t-128 41zM1944 430h-754q20 -92 80 -145t143 -54q152 0 217 119l293 -59
q-66 -160 -198 -241t-312 -81q-231 0 -391 156q-160 -154 -400 -154t-406 152q-165 153 -165 391t165 390t406 151q241 0 400 -154q158 158 386 158q228 1 380 -149t156 -396v-84z" />
    </font>
</defs>
</svg>
