
<svg width="24px" height="16px" viewBox="0 0 24 16" version="1.1" xmlns="http://www.w3.org/2000/svg" xmlns:xlink="http://www.w3.org/1999/xlink">
    <g id="Symbols" stroke="none" stroke-width="1" fill="none" fill-rule="evenodd">
        <g id="Navigation/Icons/App-hover" transform="translate(0.000000, -4.000000)" fill="#D3D3D3">
            <g id="Group-10" transform="translate(0.000000, 4.000000)">
                <path d="M16.9259,-2.39808173e-14 C18.5829,-2.39808173e-14 19.9259,1.344 19.9259,3 L19.9259,12.877 C19.9259,14.534 18.5829,15.877 16.9259,15.877 L7.0489,15.877 C5.3919,15.877 4.0489,14.534 4.0489,12.877 L4.0489,3 C4.0489,1.344 5.3919,-2.39808173e-14 7.0489,-2.39808173e-14 L16.9259,-2.39808173e-14 Z M16.9259,1 L7.0489,1 C5.9469,1 5.0489,1.897 5.0489,3 L5.0489,12.877 C5.0489,13.979 5.9469,14.877 7.0489,14.877 L16.9259,14.877 C18.0289,14.877 18.9259,13.979 18.9259,12.877 L18.9259,3 C18.9259,1.897 18.0289,1 16.9259,1 Z M21.9747,2.6006 C23.0787,2.6006 23.9747,3.4966 23.9747,4.6006 L23.9747,11.2766 C23.9747,12.3806 23.0787,13.2766 21.9747,13.2766 L20.8857,13.2766 L20.8857,2.6006 L21.9747,2.6006 Z M21.9747,3.6006 L21.8857,3.6006 L21.8857,12.2766 L21.9747,12.2766 C22.5267,12.2766 22.9747,11.8286 22.9747,11.2766 L22.9747,4.6006 C22.9747,4.0496 22.5267,3.6006 21.9747,3.6006 Z M3.088,2.6006 L3.088,13.2766 L2,13.2766 C0.896,13.2766 -1.31006317e-13,12.3806 -1.31006317e-13,11.2766 L-1.31006317e-13,4.6006 C-1.31006317e-13,3.4966 0.896,2.6006 2,2.6006 L3.088,2.6006 Z M2.088,3.6006 L2,3.6006 C1.448,3.6006 1,4.0496 1,4.6006 L1,11.2766 C1,11.8286 1.448,12.2766 2,12.2766 L2.088,12.2766 L2.088,3.6006 Z" id="Combined-Shape"></path>
            </g>
        </g>
    </g>
</svg>