
<svg width="24px" height="16px" viewBox="0 0 24 16" version="1.1" xmlns="http://www.w3.org/2000/svg" xmlns:xlink="http://www.w3.org/1999/xlink">
    <g id="Symbols" stroke="none" stroke-width="1" fill="none" fill-rule="evenodd">
        <g id="Navigation/Icons/App-on" transform="translate(0.000000, -4.000000)" fill="#D3D3D3">
            <path d="M16.9259,4 C18.5829,4 19.9259,5.344 19.9259,7 L19.9259,16.877 C19.9259,18.534 18.5829,19.877 16.9259,19.877 L7.0489,19.877 C5.3919,19.877 4.0489,18.534 4.0489,16.877 L4.0489,7 C4.0489,5.344 5.3919,4 7.0489,4 L16.9259,4 Z M21.9747,6.6006 C23.0787,6.6006 23.9747,7.4966 23.9747,8.6006 L23.9747,15.2766 C23.9747,16.3806 23.0787,17.2766 21.9747,17.2766 L20.8857,17.2766 L20.8857,6.6006 L21.9747,6.6006 Z M3.088,6.6006 L3.088,17.2766 L2,17.2766 C0.896,17.2766 -1.31006317e-13,16.3806 -1.31006317e-13,15.2766 L-1.31006317e-13,8.6006 C-1.31006317e-13,7.4966 0.896,6.6006 2,6.6006 L3.088,6.6006 Z" id="Combined-Shape"></path>
        </g>
    </g>
</svg>