
<svg width="24px" height="24px" viewBox="0 0 24 24" version="1.1" xmlns="http://www.w3.org/2000/svg" xmlns:xlink="http://www.w3.org/1999/xlink">
    <g id="Symbols" stroke="none" stroke-width="1" fill="none" fill-rule="evenodd">
        <g id="Contact/Invitation-received" transform="translate(-27.000000, -19.000000)" fill="#D3D3D3">
            <g id="Group-2" transform="translate(19.000000, 19.000000)">
                <g id="Group-8" transform="translate(8.000000, 0.000000)">
                    <path d="M11.9939,22.9967 C5.9319,22.9967 0.9999,18.0647 0.9999,12.0027 C0.9999,5.9357 5.9319,0.9997 11.9939,0.9997 C18.0529,0.9997 22.9889,5.9327 22.9969,12.0027 C22.9969,18.0647 18.0609,22.9967 11.9939,22.9967 M11.9939,-0.0003 C5.3679,-0.0003 -0.0001,5.3767 -0.0001,12.0027 C-0.0001,18.6287 5.3679,23.9967 11.9939,23.9967 C18.6289,23.9967 23.9969,18.6287 23.9969,12.0027 L23.9969,11.9937 C23.9879,5.3677 18.6289,-0.0003 11.9939,-0.0003" id="Fill-1"></path>
                    <path d="M8.8518,10.9254 L11.4978,8.2794 L11.4978,14.0714 C11.4978,14.3484 11.7218,14.5714 11.9978,14.5714 C12.2748,14.5714 12.4978,14.3484 12.4978,14.0714 L12.4978,8.2794 L15.1448,10.9254 C15.3398,11.1204 15.6568,11.1204 15.8518,10.9254 C16.0468,10.7304 16.0468,10.4134 15.8518,10.2184 L12.3518,6.7184 C12.3058,6.6724 12.2518,6.6384 12.1948,6.6134 C12.1928,6.6134 12.1918,6.6114 12.1898,6.6104 L12.1878,6.6104 C12.1278,6.5854 12.0628,6.5714 11.9978,6.5714 C11.9348,6.5714 11.8698,6.5844 11.8098,6.6094 C11.7488,6.6334 11.6928,6.6704 11.6448,6.7184 L8.1448,10.2184 C7.9498,10.4134 7.9498,10.7304 8.1448,10.9254 C8.3398,11.1204 8.6568,11.1204 8.8518,10.9254" id="Fill-4" transform="translate(11.998300, 10.571400) rotate(180.000000) translate(-11.998300, -10.571400) "></path>
                    <path d="M15.4983,16.4244 L8.4983,16.4244 C8.2223,16.4244 7.9983,16.6484 7.9983,16.9244 C7.9983,17.2004 8.2223,17.4244 8.4983,17.4244 L15.4983,17.4244 C15.7743,17.4244 15.9983,17.2004 15.9983,16.9244 C15.9983,16.6484 15.7743,16.4244 15.4983,16.4244" id="Fill-6"></path>
                </g>
            </g>
        </g>
    </g>
</svg>