
<svg width="24px" height="24px" viewBox="0 0 24 24" version="1.1" xmlns="http://www.w3.org/2000/svg" xmlns:xlink="http://www.w3.org/1999/xlink">
    <g id="Symbols" stroke="none" stroke-width="1" fill="none" fill-rule="evenodd">
        <g id="Buttons/InputButton-active" transform="translate(-80.000000, 0.000000)" fill="#D3D3D3">
            <path width="100%" height="100%" d="M95.9603,12.2354 L95.9603,12.2364 C95.9593,12.2384 95.9573,12.2394 95.9563,12.2414 C95.9323,12.2984 95.8983,12.3524 95.8523,12.3994 L92.3523,15.8994 C92.2543,15.9964 92.1263,16.0454 91.9983,16.0454 C91.8703,16.0454 91.7423,15.9964 91.6453,15.8994 C91.4493,15.7034 91.4493,15.3874 91.6453,15.1924 L94.2913,12.5454 L88.4983,12.5454 C88.2223,12.5454 87.9983,12.3214 87.9983,12.0454 C87.9983,11.7694 88.2223,11.5454 88.4983,11.5454 L94.2913,11.5454 L91.6453,8.8994 C91.4493,8.7034 91.4493,8.3874 91.6453,8.1924 C91.8403,7.9964 92.1563,7.9964 92.3523,8.1924 L95.8523,11.6924 C95.9173,11.7564 95.9523,11.8374 95.9743,11.9204 C95.9793,11.9404 95.9823,11.9594 95.9853,11.9804 C95.9973,12.0664 95.9943,12.1534 95.9603,12.2354 M92.0023,0.0004 C85.3683,0.0004 80.0003,5.3684 80.0003,11.9934 L80.0003,12.0034 C80.0093,18.6294 85.3683,23.9964 92.0023,23.9964 C98.6283,23.9964 103.9973,18.6194 103.9973,11.9934 C103.9973,5.3684 98.6283,0.0004 92.0023,0.0004" id="Fill-1"></path>
        </g>
    </g>
</svg>
