
<svg width="12px" height="12px" viewBox="0 0 12 12" version="1.1" xmlns="http://www.w3.org/2000/svg" xmlns:xlink="http://www.w3.org/1999/xlink">
    <g id="Symbols" stroke="none" stroke-width="1" fill="none" fill-rule="evenodd">
        <g id="General/Icons/24/Close-hover" transform="translate(-6.000000, -6.000000)" fill="#D3D3D3">
            <g id="Group-3" transform="translate(6.000000, 6.000000)">
                <path d="M6.65675974,6.0001161 L11.8634701,0.792476926 C12.04551,0.611365879 12.04551,0.316944332 11.8634701,0.135833285 C11.6823591,-0.0452777617 11.3888663,-0.0452777617 11.2068265,0.135833285 L6.0001161,5.34347246 L0.7934057,0.135833285 C0.611365879,-0.0452777617 0.317873106,-0.0452777617 0.135833285,0.135833285 C-0.0452777617,0.316944332 -0.0452777617,0.611365879 0.135833285,0.792476926 L5.34347246,6.0001161 L0.135833285,11.2068265 C-0.0452777617,11.3888663 -0.0452777617,11.6823591 0.135833285,11.8634701 C0.226853196,11.95449 0.345736344,12 0.464619493,12 C0.583502641,12 0.70238579,11.95449 0.7934057,11.8634701 L6.0001161,6.65675974 L11.2068265,11.8634701 C11.2978464,11.95449 11.4167296,12 11.5356127,12 C11.6544958,12 11.773379,11.95449 11.8634701,11.8634701 C12.04551,11.6823591 12.04551,11.3888663 11.8634701,11.2068265 L6.65675974,6.0001161 Z" id="Fill-1"></path>
            </g>
        </g>
    </g>
</svg>