
<svg width="13px" height="14px" viewBox="0 0 13 14" version="1.1" xmlns="http://www.w3.org/2000/svg" xmlns:xlink="http://www.w3.org/1999/xlink">
    <g id="Diogo Perillo-OS---FINAL-Sprint-5" stroke="none" stroke-width="1" fill="none" fill-rule="evenodd">
        <g id="9.05-MFOS_More" transform="translate(-185.000000, -177.000000)" fill="#D3D3D3">
            <g id="community" transform="translate(185.000000, 177.000000)">
                <path d="M6.92323582,3.51788889 C6.79515626,3.549 6.66255092,3.56735556 6.52526894,3.56735556 C6.38813782,3.56735556 6.25523076,3.54915556 6.12730206,3.51788889 C5.36485906,3.33184444 4.79536514,2.62577778 4.79536514,1.78375556 C4.79536514,0.800333333 5.57138547,5.32907052e-15 6.52526894,5.32907052e-15 C7.4791524,5.32907052e-15 8.25502187,0.800333333 8.25502187,1.78375556 C8.25502187,2.62577778 7.68567881,3.33184444 6.92323582,3.51788889 Z M12.0332935,14 L8.92408295,14 L8.92408295,12.4105333 C9.57473919,12.2912222 10.0704629,11.7033778 10.0704629,10.9985556 L10.0704629,4.95164444 C10.0704629,4.82766667 10.0534158,4.70788889 10.0246017,4.59324444 L12.343762,4.59324444 C12.7055226,4.59324444 13,4.89688889 13,5.26991111 L13,10.4516222 C13,10.8254222 12.7053718,11.1290667 12.3431585,11.1290667 L12.0332935,11.1290667 L12.0332935,14 Z M4.12630406,14 L0.96640479,14 L0.96640479,11.1292222 L0.656238033,11.1292222 C0.294477389,11.1292222 3.87245791e-13,10.8254222 3.87245791e-13,10.4517778 L3.87245791e-13,5.26991111 C3.87245791e-13,4.89688889 0.294326529,4.59324444 0.656238033,4.59324444 L3.02563448,4.59324444 C2.99682035,4.70804444 2.97992411,4.82766667 2.97992411,4.95164444 L2.97992411,10.9985556 C2.97992411,11.7033778 3.47549697,12.2912222 4.12630406,12.4105333 L4.12630406,14 Z M4.68146635,14 L4.68146635,11.8606444 L4.3705453,11.8606444 C3.90967008,11.8606444 3.53553897,11.4734667 3.53553897,10.9984 L3.53553897,4.95164444 C3.53553897,4.82346667 3.56329709,4.70213333 3.61202465,4.59324444 C3.74417741,4.29675556 4.03397816,4.09064444 4.37039444,4.09064444 L8.67999257,4.09064444 C9.01640885,4.09064444 9.3062096,4.29675556 9.43836236,4.59324444 C9.48724078,4.70197778 9.5149989,4.82331111 9.5149989,4.95164444 L9.5149989,10.9984 C9.5149989,11.4734667 9.13966091,11.8606444 8.67999257,11.8606444 L8.36892066,11.8606444 L8.36892066,14 L4.68146635,14 Z M2.72467014,3.9984 C1.93115013,3.9984 1.28562311,3.33277778 1.28562311,2.51455556 C1.28562311,1.69602222 1.93115013,1.03055556 2.72467014,1.03055556 C3.51849187,1.03055556 4.16386803,1.69602222 4.16386803,2.51455556 C4.16386803,3.33277778 3.51849187,3.9984 2.72467014,3.9984 Z M10.2748773,3.9984 C9.48135727,3.9984 8.83567939,3.33277778 8.83567939,2.51455556 C8.83567939,1.69602222 9.48135727,1.03055556 10.2748773,1.03055556 C11.0685482,1.03055556 11.7140752,1.69602222 11.7140752,2.51455556 C11.7140752,3.33277778 11.0685482,3.9984 10.2748773,3.9984 Z" id="Combined-Shape"></path>
            </g>
        </g>
    </g>
</svg>