
<svg width="25px" height="24px" viewBox="0 0 25 24" version="1.1" xmlns="http://www.w3.org/2000/svg" xmlns:xlink="http://www.w3.org/1999/xlink">
    <g id="Symbols" stroke="none" stroke-width="1" fill="none" fill-rule="evenodd">
        <g id="Navigation/Icons/Contacts-hover" fill="#D3D3D3">
            <path d="M4.7595,-0.0002 L4.7595,23.9918 L2.9995,23.9918 C1.3425,23.9918 -0.0005,22.6478 -0.0005,20.9918 L-0.0005,2.9998 C-0.0005,1.3438 1.3425,-0.0002 2.9995,-0.0002 L4.7595,-0.0002 Z M3.7595,0.9998 L2.9995,0.9998 C1.8975,0.9998 0.9995,1.8968 0.9995,2.9998 L0.9995,20.9918 C0.9995,22.0948 1.8975,22.9918 2.9995,22.9918 L3.7595,22.9918 L3.7595,0.9998 Z M16.6423,-0.0002 C18.2993,-0.0002 19.6423,1.3438 19.6423,2.9998 L19.6423,20.9918 C19.6423,22.6478 18.2993,23.9918 16.6423,23.9918 L5.7593,23.9918 L5.7593,-0.0002 L16.6423,-0.0002 Z M16.6423,0.9998 L6.7593,0.9998 L6.7593,22.9918 L16.6423,22.9918 C17.7463,22.9918 18.6423,22.0948 18.6423,20.9918 L18.6423,2.9998 C18.6423,1.8968 17.7463,0.9998 16.6423,0.9998 Z M20.8455,2.9998 C22.6145,2.9998 24.0475,4.4338 24.0475,6.2028 L24.0475,8.2798 C24.0475,8.3928 23.9565,8.4828 23.8455,8.4828 L20.8455,8.4828 C20.7335,8.4828 20.6425,8.3928 20.6425,8.2798 L20.6425,3.2028 C20.6425,3.0908 20.7335,2.9998 20.8455,2.9998 Z M21.6425,4.1488 L21.6425,7.4828 L23.0475,7.4828 L23.0475,6.2028 C23.0475,5.2698 22.4635,4.4698 21.6425,4.1488 Z M23.8455,15.5603 C23.9565,15.5603 24.0475,15.6503 24.0475,15.7623 L24.0475,17.7893 C24.0475,19.5583 22.6145,20.9923 20.8455,20.9923 C20.7335,20.9923 20.6425,20.9013 20.6425,20.7893 L20.6425,15.7623 C20.6425,15.6503 20.7335,15.5603 20.8455,15.5603 L23.8455,15.5603 Z M23.0475,16.5603 L21.6425,16.5603 L21.6425,19.8423 C22.4635,19.5223 23.0475,18.7223 23.0475,17.7893 L23.0475,16.5603 Z M23.5476,9.4832 C23.8236,9.4832 24.0476,9.7072 24.0476,9.9832 L24.0476,14.0602 C24.0476,14.3362 23.8236,14.5602 23.5476,14.5602 L21.1426,14.5602 C20.8666,14.5602 20.6426,14.3362 20.6426,14.0602 L20.6426,9.9832 C20.6426,9.7072 20.8666,9.4832 21.1426,9.4832 L23.5476,9.4832 Z M21.6426,13.5602 L23.0476,13.5602 L23.0476,10.4832 L21.6426,10.4832 L21.6426,13.5602 Z" id="Combined-Shape"></path>
        </g>
    </g>
</svg>