
<svg width="24px" height="24px" viewBox="0 0 24 24" version="1.1" xmlns="http://www.w3.org/2000/svg" xmlns:xlink="http://www.w3.org/1999/xlink">
    <g id="Symbols" stroke="none" stroke-width="1" fill="none" fill-rule="evenodd">
        <g id="Navigation/Icons/Contacts-on" fill="#D3D3D3">
            <g id="Group-15">
                <path d="M-0.0001,2.9999 C-0.0001,1.3429 1.3429,-0.0001 2.9999,-0.0001 L4.7599,-0.0001 L4.7599,23.9919 L2.9999,23.9919 C1.3429,23.9919 -0.0001,22.6479 -0.0001,20.9919 L-0.0001,2.9999 Z M20.7933,2.9999 C22.5623,2.9999 23.9963,4.4339 23.9963,6.2029 L23.9963,8.2799 C23.9963,8.3919 23.9053,8.4829 23.7933,8.4829 L20.7933,8.4829 C20.6813,8.4829 20.5913,8.3919 20.5913,8.2799 L20.5913,3.2029 C20.5913,3.0909 20.6813,2.9999 20.7933,2.9999 Z M23.7933,15.56 C23.9053,15.56 23.9963,15.65 23.9963,15.762 L23.9963,17.789 C23.9963,19.558 22.5623,20.992 20.7933,20.992 C20.6813,20.992 20.5913,20.901 20.5913,20.789 L20.5913,15.762 C20.5913,15.65 20.6813,15.56 20.7933,15.56 L23.7933,15.56 Z M23.496,9.4828 C23.772,9.4828 23.996,9.7068 23.996,9.9828 L23.996,14.0598 C23.996,14.3358 23.772,14.5598 23.496,14.5598 L21.091,14.5598 C20.815,14.5598 20.591,14.3358 20.591,14.0598 L20.591,9.9828 C20.591,9.7068 20.815,9.4828 21.091,9.4828 L23.496,9.4828 Z M16.6429,-0.0001 C18.2999,-0.0001 19.6429,1.3429 19.6429,2.9999 L19.6429,20.9919 C19.6429,22.6479 18.2999,23.9919 16.6429,23.9919 L5.7599,23.9919 L5.7599,-0.0001 L16.6429,-0.0001 Z" id="Combined-Shape"></path>
            </g>
        </g>
    </g>
</svg>