
<svg width="11px" height="14px" viewBox="0 0 11 14" version="1.1" xmlns="http://www.w3.org/2000/svg" xmlns:xlink="http://www.w3.org/1999/xlink">
    <g id="Mainframe-OS---FINAL-Sprint-5" stroke="none" stroke-width="1" fill="none" fill-rule="evenodd">
        <g id="9.00-MFOS_More" transform="translate(-185.000000, -134.000000)" fill="#D3D3D3">
            <g id="noun_Files_637114-2" transform="translate(185.000000, 134.000000)">
                <g id="noun_Files_637114">
                    <path d="M5.5,4.63076923 C5.5,5.06153846 5.83,5.27692308 6.16,5.27692308 L9.57,5.27692308 C9.9,5.27692308 10.23,5.6 10.23,5.92307692 L10.23,13.3538462 C10.23,13.6769231 9.9,14 9.57,14 L1.1,14 C0.77,14 0.44,13.6769231 0.44,13.4615385 L0.44,1.4 C0.44,1.07692308 0.77,0.753846154 1.1,0.753846154 L4.84,0.753846154 C5.17,0.753846154 5.5,1.07692308 5.5,1.4 L5.5,4.63076923 Z M6.71,1.18461538 C6.71,0.861538462 7.15,0.646153846 7.48,0.861538462 L10.23,3.55384615 C10.45,3.76923077 10.23,4.2 9.9,4.2 L7.15,4.2 C6.93,4.2 6.71,3.98461538 6.71,3.76923077 L6.71,1.18461538 Z" id="Combined-Shape"></path>
                </g>
            </g>
        </g>
    </g>
</svg>