
<svg width="11px" height="14px" viewBox="0 0 11 14" version="1.1" xmlns="http://www.w3.org/2000/svg" xmlns:xlink="http://www.w3.org/1999/xlink">
    <defs>
        <polygon id="path-1" points="0 0 10.625 0 10.625 10.625 0 10.625"></polygon>
    </defs>
    <g id="Symbols" stroke="none" stroke-width="1" fill="none" fill-rule="evenodd">
        <g id="General/Icons/18/import-off" transform="translate(-4.000000, -2.000000)">
            <g id="Group-6" transform="translate(4.000000, 2.000000)">
                <g id="Group-3">
                    <mask id="mask-2" fill="white">
                        <use xlink:href="#path-1"></use>
                    </mask>
                    <g id="Clip-2"></g>
                    <path d="M10.479,4.959 C10.284,4.764 9.967,4.764 9.772,4.959 L5.813,8.918 L5.813,0.5 C5.813,0.224 5.589,0 5.313,0 C5.037,0 4.813,0.224 4.813,0.5 L4.813,8.918 L0.854,4.959 C0.658,4.764 0.342,4.764 0.146,4.959 C-0.049,5.154 -0.049,5.471 0.146,5.666 L4.959,10.479 C5.006,10.525 5.06,10.559 5.117,10.583 C5.119,10.584 5.12,10.586 5.122,10.587 C5.122,10.587 5.123,10.587 5.123,10.587 C5.184,10.612 5.249,10.625 5.313,10.625 C5.377,10.625 5.441,10.612 5.502,10.588 C5.562,10.563 5.619,10.526 5.667,10.479 L10.479,5.666 C10.674,5.471 10.674,5.154 10.479,4.959" id="Fill-1" fill="#D3D3D3" mask="url(#mask-2)"></path>
                </g>
                <path d="M9.4399,13 L1.1899,13 C0.9139,13 0.6899,13.224 0.6899,13.5 C0.6899,13.776 0.9139,14 1.1899,14 L9.4399,14 C9.7159,14 9.9399,13.776 9.9399,13.5 C9.9399,13.224 9.7159,13 9.4399,13" id="Fill-4" fill="#D3D3D3"></path>
            </g>
        </g>
    </g>
</svg>