
<svg width="16px" height="17px" viewBox="0 0 16 17" version="1.1" xmlns="http://www.w3.org/2000/svg" xmlns:xlink="http://www.w3.org/1999/xlink">
    <g id="Symbols" stroke="none" stroke-width="1" fill="none" fill-rule="evenodd">
        <g id="General/Icons/18/etherscan-off" transform="translate(-1.000000, 0.000000)" fill="#D3D3D3">
            <g id="Group-8" transform="translate(1.000000, 0.000000)">
                <g id="Group-7">
                    <g id="Group-6" transform="translate(0.670742, 0.882250)">
                        <path d="M14.7883502,7.27592622 C15.3131037,9.55016203 14.3565226,13.1482476 10.7147456,14.8673417 C7.52559856,16.3726738 4.24463437,15.2220246 2.84983495,13.4741073 C7.69293015,13.0815367 11.6459596,11.0041731 14.7883502,7.27592622 Z M3.20453749,11.2133897 C3.20434185,11.6319796 3.04685714,11.797094 2.64000532,11.8414375 C2.40368043,11.8671306 2.17146383,11.9317548 1.93500852,11.9549699 C1.40471216,12.0070736 1.05994127,11.8281344 0.842984064,11.3354649 C0.10016485,9.64845466 -0.246953636,7.91038421 0.196025112,6.07260605 C0.765578533,3.71000925 2.09001521,1.90953181 4.22541667,0.751187706 C5.366219,0.132399933 6.61566296,-0.0708629488 7.9192321,0.0210194384 C9.22306208,0.112901826 10.4450522,0.437522495 11.5548793,1.14088902 C12.8544053,1.96450474 13.767295,3.122588 14.4100804,4.50043254 C14.5657392,4.83405234 14.6658382,5.20138625 14.7384181,5.56382934 C14.8215622,5.97857169 14.5862807,6.29960576 14.2938743,6.5527551 C13.5113416,7.23016762 12.7133538,7.88971231 11.8493072,8.61727213 C11.8317654,8.45046223 11.8117456,8.34899382 11.8117456,8.24752541 C11.8119413,7.03055656 11.8120717,5.81358771 11.8185276,4.59668407 C11.8225707,3.82693268 11.5973969,3.58630386 10.8273846,3.56576238 C10.6753777,3.56165408 10.5226534,3.56054549 10.3712333,3.57150095 C9.74005539,3.61747475 9.52622831,3.84493094 9.52701085,4.47265263 C9.52890197,6.03732686 9.53366238,7.6020011 9.53718377,9.16667533 C9.5373142,9.2101059 9.53790109,9.25360168 9.53783588,9.29703225 C9.53744462,10.0090066 9.31292293,10.2066614 8.57029935,10.1119097 C8.56443035,10.015006 8.55262715,9.91092919 8.55275757,9.80691755 C8.55458348,8.50302235 8.54545393,7.19886631 8.56619105,5.89523196 C8.5782551,5.13304506 8.32223647,5.03855423 7.67775553,5.0319027 C7.4281928,5.02929426 7.17849964,5.05146602 6.92880648,5.05681332 C6.51243385,5.06568203 6.27017475,5.3042241 6.26978348,5.72300954 C6.26828363,7.30933385 6.26978348,8.89565816 6.26945743,10.4819825 C6.26939222,10.9638922 6.04474011,11.2699929 5.5236385,11.4593007 C5.5106615,11.3261397 5.48875059,11.2042602 5.48855495,11.0824459 C5.48672904,9.85465204 5.49201114,8.62685816 5.48712031,7.39906427 C5.48555524,6.9989944 5.28411827,6.77473356 4.88848275,6.75353996 C4.5008682,6.73286806 4.11025393,6.73625903 3.72257417,6.75810474 C3.43388479,6.7744075 3.2057765,7.0762043 3.2051896,7.40245525 C3.20316805,8.67276675 3.2051896,9.94314346 3.20453749,11.2133897 Z" id="Combined-Shape"></path>
                    </g>
                </g>
            </g>
        </g>
    </g>
</svg>