
<svg width="11px" height="10px" viewBox="0 0 11 10" version="1.1" xmlns="http://www.w3.org/2000/svg" xmlns:xlink="http://www.w3.org/1999/xlink">
    <g id="Diogo Perillo-OS---FINAL-Sprint-5" stroke="none" stroke-width="1" fill="none" fill-rule="evenodd">
        <g id="9.03-MFOS_More" transform="translate(-839.000000, -181.000000)" fill="#D3D3D3">
            <g id="Group-7" transform="translate(839.000000, 181.000000)">
                <path d="M9.4253,7.1479 C9.7013,7.1479 9.9253,7.3719 9.9253,7.6479 L9.9253,8.3099 C9.9253,9.1999 9.2003,9.9249 8.3103,9.9249 L1.6153,9.9249 C0.7243,9.9249 0.000299999999,9.1999 0.000299999999,8.3099 L0.000299999999,1.6149 C0.000299999999,0.7249 0.7243,-0.000100000001 1.6153,-0.000100000001 L2.2833,-0.000100000001 C2.5603,-0.000100000001 2.7833,0.2239 2.7833,0.4999 C2.7833,0.7759 2.5603,0.9999 2.2833,0.9999 L1.6153,0.9999 C1.2763,0.9999 1.0003,1.2759 1.0003,1.6149 L1.0003,8.3099 C1.0003,8.6489 1.2763,8.9249 1.6153,8.9249 L8.3103,8.9249 C8.6493,8.9249 8.9253,8.6489 8.9253,8.3099 L8.9253,7.6479 C8.9253,7.3719 9.1493,7.1479 9.4253,7.1479 Z M10.0615,0.3135 C10.0845,0.3715 10.0995,0.4335 10.0995,0.5005 L10.0995,5.4495 C10.0995,5.7265 9.8755,5.9495 9.5995,5.9495 C9.3225,5.9495 9.0995,5.7265 9.0995,5.4495 L9.0995,1.7075 L5.0025,5.8035 C4.9045,5.9005 4.7765,5.9495 4.6485,5.9495 C4.5205,5.9495 4.3935,5.9005 4.2955,5.8035 C4.1005,5.6075 4.1005,5.2915 4.2955,5.0965 L8.3925,1.0005 L4.6485,1.0005 C4.3725,1.0005 4.1485,0.7765 4.1485,0.5005 C4.1485,0.2235 4.3725,0.0005 4.6485,0.0005 L9.5995,0.0005 C9.6915,0.0005 9.7735,0.0315 9.8475,0.0755 C9.8655,0.0855 9.8805,0.0965 9.8965,0.1085 C9.9665,0.1615 10.0265,0.2265 10.0605,0.3075 C10.0605,0.3085 10.0615,0.3085 10.0615,0.3085 C10.0615,0.3105 10.0615,0.3125 10.0615,0.3135 Z" id="Combined-Shape"></path>
            </g>
        </g>
    </g>
</svg>