
<svg width="14px" height="15px" viewBox="0 0 14 15" version="1.1" xmlns="http://www.w3.org/2000/svg" xmlns:xlink="http://www.w3.org/1999/xlink">
    <g id="Mainframe-OS---FINAL-Sprint-5" stroke="none" stroke-width="1" fill="none" fill-rule="evenodd">
        <g id="9.00-MFOS_More" transform="translate(-184.000000, -343.000000)" fill="#D3D3D3" fill-rule="nonzero">
            <g id="noun_feedback_1664842" transform="translate(184.000000, 343.500000)">
                <path d="M12.3827586,0.35 L0.917241379,0.35 C0.412758621,0.35 0,0.732727496 0,1.23666164 L0,10.9899397 L0,13.1961976 C0,13.7015283 0.292003793,13.7905491 0.648512586,13.434488 L2.75172414,11.4332705 L12.3827586,11.4332705 C12.8872414,11.4332705 13.3,11.0508976 13.3,10.5466088 L13.3,1.23666164 C13.3,0.732727496 12.8872414,0.35 12.3827586,0.35 Z M6.87931034,8.77328556 L5.96206897,8.77328556 L5.96206897,7.88662392 L6.87931034,7.88662392 L6.87931034,8.77328556 Z M6.87931034,6.99996229 L5.96206897,6.99996229 L5.96206897,3.45331573 L6.87931034,3.45331573 L6.87931034,6.99996229 Z" id="Shape"></path>
            </g>
        </g>
    </g>
</svg>