<svg width="24px" height="24px" viewBox="0 0 24 16" version="1.1" xmlns="http://www.w3.org/2000/svg" xmlns:xlink="http://www.w3.org/1999/xlink">
    <g id="Symbols" stroke="none" stroke-width="1" fill="none" fill-rule="evenodd">
        <g id="Button/Folder/Off" transform="translate(-9.000000, -10.000000)" fill="#D3D3D3">
            <path d="M22.2222222,20.4 C22.2222222,20.84 21.8722222,21.2 21.4444444,21.2 L10.5555556,21.2 C10.1277778,21.2 9.77777778,20.84 9.77777778,20.4 L9.77777778,13.312 C9.77777778,12.872 10.1277778,12.512 10.5555556,12.512 L21.4444444,12.512 C21.8722222,12.512 22.2222222,12.872 22.2222222,13.312 L22.2222222,20.4 Z M9.77777778,11.6 C9.77777778,11.16 10.1277778,10.8 10.5555556,10.8 L14.4444444,10.8 C14.8722222,10.8 15.2222222,11.16 15.2222222,11.6 L15.2222222,11.712 L10.5555556,11.712 C10.2677778,11.712 10.0033333,11.784 9.77777778,11.928 L9.77777778,11.6 Z M16,11.712 L16,11.6 C16,10.72 15.3,10 14.4444444,10 L10.5555556,10 C9.7,10 9,10.72 9,11.6 L9,20.4 C9,21.288 9.69222222,22 10.5555556,22 L21.4444444,22 C22.3077778,22 23,21.288 23,20.4 L23,13.312 C23,12.432 22.3077778,11.712 21.4444444,11.712 L16,11.712 Z" id="Fill-1"></path>
        </g>
    </g>
</svg>