
<svg width="4px" height="6px" viewBox="0 0 4 6" version="1.1" xmlns="http://www.w3.org/2000/svg" xmlns:xlink="http://www.w3.org/1999/xlink">
    <g id="Mainframe-OS---FINAL-Sprint-5" stroke="none" stroke-width="1" fill="none" fill-rule="evenodd">
        <g id="10.03-MFOS_Developers" transform="translate(-223.000000, -40.000000)" fill="#D3D3D3">
            <g id="Group-3" transform="translate(223.828427, 42.828427) rotate(-45.000000) translate(-223.828427, -42.828427) translate(221.828427, 40.828427)">
                <path d="M3.4496,3e-05 C3.1736,3e-05 2.9496,0.22403 2.9496,0.50003 L2.9496,2.95003 L0.4996,2.95003 C0.2236,2.95003 -0.0004,3.17303 -0.0004,3.45003 C-0.0004,3.72603 0.2236,3.95003 0.4996,3.95003 L3.4496,3.95003 C3.5876,3.95003 3.7126,3.89403 3.8036,3.80303 C3.8936,3.71303 3.9496,3.58803 3.9496,3.45003 L3.9496,0.50003 C3.9496,0.22403 3.7256,3e-05 3.4496,3e-05" id="Fill-1"></path>
            </g>
        </g>
    </g>
</svg>