
<svg width="5px" height="9px" viewBox="0 0 5 9" version="1.1" xmlns="http://www.w3.org/2000/svg" xmlns:xlink="http://www.w3.org/1999/xlink">
    <defs>
        <polygon id="path-1" points="0.00025 0.00025 4.5 0.00025 4.5 7.99975 0.00025 7.99975"></polygon>
    </defs>
    <g id="Mainframe-OS---FINAL-Sprint-5" stroke="none" stroke-width="1" fill="none" fill-rule="evenodd">
        <g id="9.03-MFOS_More" transform="translate(-844.000000, -347.000000)">
            <g id="Group-3-Copy" transform="translate(844.000000, 347.500000)">
                <mask id="mask-2" fill="white">
                    <use xlink:href="#path-1"></use>
                </mask>
                <g id="Clip-2"></g>
                <path d="M0.1465,0.1465 C-0.0485,0.3415 -0.0485,0.6585 0.1465,0.8535 L3.2925,4.0005 L0.1465,7.1465 C-0.0485,7.3415 -0.0485,7.6585 0.1465,7.8535 C0.3415,8.0485 0.6585,8.0485 0.8535,7.8535 L4.3535,4.3535 C4.4515,4.2555 4.5005,4.1275 4.5005,4.0005 C4.5005,3.8725 4.4515,3.7445 4.3535,3.6465 L0.8535,0.1465 C0.6585,-0.0485 0.3415,-0.0485 0.1465,0.1465" id="Fill-1" fill="#D3D3D3" mask="url(#mask-2)"></path>
            </g>
        </g>
    </g>
</svg>