
<svg width="24px" height="24px" viewBox="0 0 24 24" version="1.1" xmlns="http://www.w3.org/2000/svg" xmlns:xlink="http://www.w3.org/1999/xlink">
    <g id="Symbols" stroke="none" stroke-width="1" fill="none" fill-rule="evenodd">
        <g id="Navigation/Icons/Identities-on" fill="#D3D3D3">
            <path d="M18.4129334,20.9326351 C21.188999,18.9330381 23,15.6716252 23,11.995 C23,5.933 18.067,1 12.004,1 C5.937,1 1,5.933 1,11.995 C1.00484313,15.6703303 2.81579122,18.9289517 5.58883165,20.9284048 C6.6161919,19.3575883 8.58935447,17.3808 12,17.3808 C15.4137079,17.3808 17.3863516,19.3611398 18.4129334,20.9326351 Z M16.5670827,22.0071319 C15.1442071,22.656241 13.5875444,22.9998 12.003,22.9998 C10.917142,22.9998 9.84434343,22.8388804 8.81876185,22.5292255 C9.82754389,22.8353604 10.8970189,23 12.004,23 C13.6308792,23 15.1763979,22.6445335 16.5670827,22.0071319 Z M12.004,0 C18.631,0 24,5.369 24,11.995 C24,18.622 18.631,24 12.004,24 C5.368,24 0.009,18.631 0,12.005 L0,11.995 C0,5.369 5.368,0 12.004,0 Z M12.001,6 C14.118,6 15.833,7.715 15.833,9.832 C15.833,11.949 14.118,13.667 12.001,13.667 C9.882,13.667 8.169,11.951 8.166,9.835 L8.166,9.832 C8.166,7.715 9.882,6 12.001,6 Z" id="Combined-Shape"></path>
        </g>
    </g>
</svg>