
<svg width="24px" height="24px" viewBox="0 0 24 24" version="1.1" xmlns="http://www.w3.org/2000/svg" xmlns:xlink="http://www.w3.org/1999/xlink">
    <g id="Symbols" stroke="none" stroke-width="1" fill="none" fill-rule="evenodd">
        <g id="Navigation/Icons/Identities-hover" fill="#D3D3D3">
            <path d="M19.2005547,20.3091432 C21.5265875,18.2897626 23,15.3112876 23,11.995 C23,5.933 18.067,1 12.004,1 C5.937,1 1,5.933 1,11.995 C1.00436815,15.3098822 2.47795494,18.2857827 4.80151308,20.3045938 C6.28378816,18.0820061 8.68281976,16.3808 12,16.3808 C15.3194432,16.3808 17.7186981,18.084328 19.2005547,20.3091432 Z M18.4129334,20.9326351 C17.3863516,19.3611398 15.4137079,17.3808 12,17.3808 C8.58935447,17.3808 6.6161919,19.3575883 5.58883165,20.9284048 C6.55963244,21.628384 7.64834701,22.1740398 8.81876185,22.5292255 C9.84434343,22.8388804 10.917142,22.9998 12.003,22.9998 C13.5875444,22.9998 15.1442071,22.656241 16.5670827,22.0071319 C17.2189025,21.7083791 17.8367079,21.3476897 18.4129334,20.9326351 Z M12.004,0 C18.631,0 24,5.369 24,11.995 C24,18.622 18.631,24 12.004,24 C5.368,24 0.009,18.631 0,12.005 L0,11.995 C0,5.369 5.368,0 12.004,0 Z M12.001,6 C14.118,6 15.833,7.715 15.833,9.832 C15.833,11.949 14.118,13.667 12.001,13.667 C9.882,13.667 8.169,11.951 8.166,9.835 L8.166,9.832 C8.166,7.715 9.882,6 12.001,6 Z M12.001,7 C10.439,7 9.166,8.271 9.166,9.832 C9.169,11.396 10.44,12.667 12.001,12.667 C13.563,12.667 14.833,11.395 14.833,9.832 C14.833,8.271 13.563,7 12.001,7 Z" id="Combined-Shape"></path>
        </g>
    </g>
</svg>