
<svg width="14px" height="14px" viewBox="0 0 14 14" version="1.1" xmlns="http://www.w3.org/2000/svg" xmlns:xlink="http://www.w3.org/1999/xlink">
    <g id="Symbols" stroke="none" stroke-width="1" fill="none" fill-rule="evenodd">
        <g id="General/Icons/18/ledger-off" transform="translate(-2.000000, -2.000000)" fill="#D3D3D3" fill-rule="nonzero">
            <g id="ledger-2" transform="translate(2.000000, 2.000000)">
                <g id="ledger">
                    <path d="M11.7731101,0.0188151044 L5.32064183,0.0188151044 L5.32064183,8.64521454 L13.9803572,8.64521454 L13.9803478,2.2632244 C13.9838738,1.05145412 12.989559,0.0188151044 11.7731101,0.0188151044 Z" id="Path"></path>
                    <path d="M3.33906416,0.0188151044 L2.25660091,0.0188151044 C1.04015198,0.0188151044 0,1.00579322 0,2.26673678 L0,3.34503671 L3.33906416,3.34503671 L3.33906416,0.0188151044 Z" id="Path"></path>
                    <polygon id="Path" points="0 5.36465384 3.33906416 5.36465384 3.33906416 8.69087545 0 8.69087545"></polygon>
                    <path d="M10.6448096,13.9910533 L11.7272729,13.9910533 C12.9437218,13.9910533 13.9838738,13.0040752 13.9838738,11.7431316 L13.9838738,10.668344 L10.6448096,10.668344 L10.6448096,13.9910533 Z" id="Path"></path>
                    <polygon id="Path" points="5.32064183 10.668344 8.65970599 10.668344 8.65970599 13.9945656 5.32064183 13.9945656"></polygon>
                    <path d="M0,10.668344 L0,11.746644 C0,12.9584143 0.990788837,13.9945656 2.25660091,13.9945656 L3.33906416,13.9945656 L3.33906416,10.668344 L0,10.668344 Z" id="Path"></path>
                </g>
            </g>
        </g>
    </g>
</svg>