
<svg width="15px" height="10px" viewBox="0 0 15 10" version="1.1" xmlns="http://www.w3.org/2000/svg" xmlns:xlink="http://www.w3.org/1999/xlink">
    <g id="Mainframe-OS---FINAL-Sprint-5" stroke="none" stroke-width="1" fill="none" fill-rule="evenodd">
        <g id="9.00-MFOS_More" transform="translate(-184.000000, -394.000000)">
            <g id="Logo-MF-OS" transform="translate(184.000000, 394.000000)">
                <g id="Group-20">
                    <path d="M10.2854516,6.83575029 C9.27326897,6.83575029 8.45277599,5.99055009 8.45277599,4.9482082 C8.45277599,3.90572293 9.27326897,3.06080948 10.2854516,3.06080948 C11.2976342,3.06080948 12.1181272,3.90572293 12.1181272,4.9482082 C12.1181272,5.99055009 11.2976342,6.83575029 10.2854516,6.83575029 M10.2854516,0.595319636 C9.09689221,0.595319636 8.0237364,1.10129275 7.25586411,1.91466353 C7.99617318,2.69864227 8.45277599,3.76822556 8.45277599,4.9482082 C8.45277599,6.12819083 7.99617318,7.19777412 7.25586411,7.98189624 C8.0237364,8.79512365 9.09689221,9.30109676 10.2854516,9.30109676 C12.6196943,9.30109676 14.5118117,7.35233321 14.5118117,4.9482082 C14.5118117,2.54408318 12.6196943,0.595319636 10.2854516,0.595319636" id="Fill-14" fill="#00A7E7"></path>
                    <path d="M4.22636015,6.83575029 C3.21417752,6.83575029 2.39368455,5.99055009 2.39368455,4.9482082 C2.39368455,3.90572293 3.21417752,3.06080948 4.22636015,3.06080948 C5.23854278,3.06080948 6.05903576,3.90572293 6.05903576,4.9482082 C6.05903576,5.99055009 5.23854278,6.83575029 4.22636015,6.83575029 M7.25594764,1.91466353 C6.48807535,1.10129275 5.41491954,0.595319636 4.22636015,0.595319636 C1.8921175,0.595319636 0,2.54408318 0,4.9482082 C0,7.35233321 1.8921175,9.30109676 4.22636015,9.30109676 C5.41491954,9.30109676 6.48807535,8.79512365 7.25594764,7.98189624 C6.51563857,7.19777412 6.05903576,6.12819083 6.05903576,4.9482082 C6.05903576,3.76822556 6.51563857,2.69864227 7.25594764,1.91466353" id="Fill-15" fill="#DA1157"></path>
                    <path d="M6.05870166,4.94876736 C6.05870166,6.12860662 6.51530447,7.19818991 7.25561354,7.98231203 C7.99592261,7.19818991 8.45238621,6.12860662 8.45238621,4.94876736 C8.45238621,3.76878473 7.99592261,2.69920144 7.25561354,1.91507932 C6.51530447,2.69920144 6.05870166,3.76878473 6.05870166,4.94876736" id="Fill-16" fill="#1F3464"></path>
                </g>
            </g>
        </g>
    </g>
</svg>