
<svg width="26px" height="26px" viewBox="0 0 26 26" version="1.1" xmlns="http://www.w3.org/2000/svg" xmlns:xlink="http://www.w3.org/1999/xlink">
    <defs>
        <circle id="path-1" cx="12" cy="12" r="12"></circle>
    </defs>
    <g id="Mainframe-OS---FINAL-v4" stroke="none" stroke-width="1" fill="none" fill-rule="evenodd">
        <g id="4.06-MFOS_Wallet" transform="translate(-258.000000, -294.000000)">
            <g id="Group-4-Copy" transform="translate(259.000000, 295.000000)">
                <g id="Group-3">
                    <g id="Group-10" transform="translate(4.000000, 8.000000)" fill="#D3D3D3">
                        <g id="Group-9" transform="translate(0.500000, 0.000000)">
                            <path d="M7.473,7.44624 C6.7105,6.65604 6.24014286,5.5782 6.24014286,4.3884 C6.24014286,3.19896 6.7105,2.12076 7.473,1.3302 C8.2355,2.12076 8.70585714,3.19896 8.70585714,4.3884 C8.70585714,5.5782 8.2355,6.65604 7.473,7.44624 Z M10.5936429,-3.59999999e-05 C12.9979286,-3.59999999e-05 14.9468571,1.964484 14.9468571,4.388004 C14.9468571,6.811164 12.9979286,8.775684 10.5936429,8.775684 C9.6265,8.775684 8.73614286,8.453844 8.01364286,7.915644 C8.609,7.288164 9.02542857,6.532884 9.24292857,5.713884 C9.58578571,6.068484 10.0636429,6.290604 10.5936429,6.290604 C11.6361429,6.290604 12.4811429,5.438844 12.4811429,4.388004 C12.4811429,3.337164 11.6361429,2.485404 10.5936429,2.485404 C10.0632857,2.485404 9.58578571,2.707524 9.24292857,3.062124 C9.02507143,2.243124 8.60864286,1.487844 8.01328571,0.860724 C8.73578571,0.322164 9.6265,-3.59999999e-05 10.5936429,-3.59999999e-05 Z M4.35307143,6.29064 C4.88307143,6.29064 5.36021429,6.06888 5.70307143,5.71428 C5.92092857,6.53328 6.33735714,7.28856 6.93271429,7.91604 C6.21021429,8.45388 5.32021429,8.77572 4.35307143,8.77572 C1.94914286,8.77572 0.000214285714,6.8112 0.000214285714,4.38804 C0.000214285714,1.96452 1.94914286,7.25462848e-14 4.35307143,7.25462848e-14 C5.32021429,7.25462848e-14 6.21057143,0.32184 6.93307143,0.8604 C6.33771429,1.48752 5.92128571,2.2428 5.70342857,3.0618 C5.36057143,2.70684 4.88307143,2.48544 4.35307143,2.48544 C3.31057143,2.48544 2.46557143,3.3372 2.46557143,4.38804 C2.46557143,5.43888 3.31057143,6.29064 4.35307143,6.29064 Z" id="Combined-Shape"></path>
                        </g>
                    </g>
                    <mask id="mask-2" fill="white">
                        <use xlink:href="#path-1"></use>
                    </mask>
                    <use id="Oval" stroke="#D3D3D3" xlink:href="#path-1"></use>
                </g>
            </g>
        </g>
    </g>
</svg>