<?xml version="1.0" encoding="UTF-8"?>
<svg width="14px" height="15px" viewBox="0 0 14 15" version="1.1" xmlns="http://www.w3.org/2000/svg" xmlns:xlink="http://www.w3.org/1999/xlink">
    <!-- Generator: Sketch 53 (72520) - https://sketchapp.com -->
    <title>noun_net_40516</title>
    <desc>Created with Sketch.</desc>
    <g id="Mainframe-OS---FINAL-Sprint-5" stroke="none" stroke-width="1" fill="none" fill-rule="evenodd">
        <g id="9.00-MFOS_More" transform="translate(-186.000000, -220.000000)" fill="#D3D3D3" fill-rule="nonzero">
            <g id="noun_net_40516" transform="translate(186.000000, 220.500000)">
                <path d="M13.1716649,5.84004391 C13.3159688,5.84004391 13.4586349,5.87843491 13.5849103,5.95087716 C13.776673,6.06122561 13.9145365,6.24098481 13.9716538,6.45467524 C14.0283342,6.66673134 13.9993994,6.89028051 13.8903515,7.08292673 C13.742755,7.33877916 13.4678858,7.49741557 13.1724061,7.49741557 C13.0274918,7.49741557 12.8845777,7.45895783 12.7584782,7.38618832 C12.5250716,7.2509916 12.3774392,7.01501154 12.3493436,6.75769686 L11.7752111,6.42608614 L11.157809,7.49561366 L11.7317757,7.82712859 C11.8364649,7.78081526 11.9504361,7.75624653 12.0668188,7.75624653 C12.21139,7.75624653 12.3547798,7.79478084 12.4800642,7.86707979 C12.6718269,7.97742824 12.8096903,8.15718743 12.8668076,8.37087786 C12.9238451,8.58426953 12.8940592,8.80845525 12.7834416,8.99977482 C12.6357222,9.25546811 12.3612949,9.41386532 12.0655835,9.41386532 C11.9208817,9.41386532 11.7782024,9.37552194 11.6517912,9.30300174 C11.4604503,9.19284012 11.3226771,9.01304132 11.2656569,8.79971383 C11.2545472,8.75829384 11.2466717,8.71634048 11.2420439,8.67417161 L10.6681608,8.34276787 L9.99959025,9.50102359 L10.5735767,9.83254991 C10.6782585,9.78627719 10.7923563,9.76166107 10.9086079,9.76166107 C11.0529119,9.76166107 11.1955779,9.80005207 11.3218534,9.87249432 C11.5136161,9.98284277 11.6514795,10.162602 11.7085968,10.3762924 C11.7656342,10.5896841 11.7358484,10.8138698 11.6252308,11.0051894 C11.4775114,11.2608826 11.203084,11.4192799 10.9073727,11.4192799 C10.7626709,11.4192799 10.6199916,11.3809365 10.4931746,11.3081822 C10.2595826,11.1731691 10.1121686,10.9371075 10.0842389,10.6795199 L9.51019423,10.34796 L8.89275904,11.4177155 L9.46664847,11.7491858 C9.57131015,11.7029144 9.68544066,11.6783579 9.80178532,11.6783579 C9.94635658,11.6783579 10.0897464,11.7168923 10.2154943,11.7894585 C10.6111015,12.0181255 10.746923,12.5253809 10.5187749,12.9218594 C10.3706624,13.1776906 10.0959446,13.3362239 9.80055003,13.3362239 C9.65584825,13.3362239 9.51316896,13.2978805 9.38640846,13.2251588 C9.19523813,13.1147248 9.05760622,12.9350126 9.00116096,12.7237999 C8.98958113,12.6818668 8.98147142,12.639289 8.97678524,12.5964001 L8.40309347,12.2651068 L8.07351491,12.8358946 C8.09069832,12.87482 8.10487659,12.9151356 8.11587034,12.9565183 C8.17281008,13.1695444 8.1432502,13.3936933 8.03299842,13.5856624 C7.88528184,13.8413508 7.61036313,14 7.31464619,14 C7.16990343,14 7.0267514,13.9615039 6.90093722,13.8888994 C6.50511528,13.6601084 6.36903582,13.1526323 6.59759304,12.7563614 C6.73045037,12.5266373 6.96573767,12.3753453 7.22636463,12.3469777 L7.55609475,11.7756302 L6.48651941,11.1582392 L6.15660138,11.730061 C6.26088951,11.9668132 6.25109696,12.2449006 6.1164373,12.4790125 C5.96828857,12.7349063 5.69378188,12.8933769 5.39821247,12.8933769 C5.2534782,12.8933769 5.11043113,12.8547697 4.98407091,12.7820648 C4.79281859,12.6715834 4.65499729,12.4920747 4.59797656,12.2787456 C4.54093912,12.0653539 4.57072493,11.8411682 4.6813426,11.6498486 C4.81402946,11.4201757 5.04917175,11.2687735 5.3098411,11.2403653 L5.63942709,10.6694162 L4.48179151,10.0007468 L4.15212237,10.5718401 C4.16921597,10.6106814 4.18339571,10.6510031 4.19452484,10.6924955 C4.25159536,10.9056402 4.22207891,11.1298099 4.11162021,11.3211247 C3.96368586,11.5769185 3.68909581,11.7355991 3.39357883,11.7355991 C3.24867266,11.7355991 3.10586524,11.6970308 2.97954466,11.6243489 C2.58359818,11.3958574 2.44764446,10.8879932 2.67612754,10.492222 C2.80877553,10.2622822 3.04397202,10.1109261 3.30480702,10.08257 L3.6345594,9.51118398 L2.56519866,8.8936479 L2.23563792,9.46495935 C2.25262358,9.5035737 2.26671273,9.54363056 2.27775887,9.58481361 C2.33513688,9.79809446 2.30554091,10.0223217 2.19509052,10.2139929 C2.04749404,10.4698454 1.77262486,10.6284818 1.47714511,10.6284818 C1.33211072,10.6284818 1.18906246,10.5900904 1.06276631,10.5174224 C0.667186145,10.288928 0.531275858,9.7812259 0.759661463,9.3849803 C0.892676579,9.15522637 1.12761379,9.00413186 1.38810977,8.97572837 L1.71789053,8.40429314 L1.16332156,8.08397622 C1.05870673,8.13025759 0.944686895,8.15476648 0.828369172,8.15476648 C0.683362334,8.15476648 0.54055902,8.11638977 0.414166085,8.04366589 C0.018356371,7.81488192 -0.117536841,7.30735856 0.110830874,6.91178747 C0.258376701,6.65565109 0.533265566,6.49690057 0.82886329,6.49690057 C0.97414984,6.49690057 1.11714304,6.53542366 1.24306133,6.60824537 C1.4765933,6.74322381 1.62416652,6.97922579 1.65220199,7.23663759 L2.20703586,7.55710751 L2.82443791,6.48757999 L2.26974449,6.16719119 C2.16509539,6.21349489 2.05118773,6.23806961 1.93494473,6.23806961 C1.79021046,6.23806961 1.64716339,6.19946235 1.52150274,6.1271602 C1.32986068,6.01719673 1.19174944,5.83721239 1.13470882,5.62343827 C1.07768975,5.41011536 1.1071875,5.18599003 1.21770815,4.99456815 C1.36585687,4.73867428 1.64036356,4.5802037 1.93593297,4.5802037 C2.08095328,4.5802037 2.22416407,4.61859441 2.35001355,4.69137633 C2.58337411,4.82642387 2.73081036,5.06246446 2.75879227,5.31994922 L3.31360345,5.64040603 L3.98215095,4.48219021 L3.42772858,4.16202003 C3.32321083,4.20819321 3.20936048,4.23265507 3.09315555,4.23265507 C2.94793572,4.23265507 2.80471875,4.19428828 2.67956441,4.12190716 C2.48784646,4.01174199 2.34976681,3.83212213 2.29267257,3.61851799 C2.23568281,3.40530471 2.26535902,3.18101392 2.37570426,2.98952512 C2.5233085,2.73365924 2.79818478,2.57528341 3.09389672,2.57528341 C3.23860873,2.57528341 3.38138925,2.61351454 3.50760065,2.68613396 C3.74119954,2.82115108 3.88875666,3.05721749 3.91675466,3.31478101 L4.47154646,3.63522664 L5.08874724,2.56575243 L4.53419848,2.24550926 C4.42966027,2.29168393 4.31584301,2.31620532 4.19973111,2.31620532 C4.05500192,2.31620532 3.91207713,2.27784711 3.78569183,2.20534174 C3.59435087,2.09518012 3.45657769,1.91538132 3.39952627,1.70193729 C3.34243599,1.48871876 3.37176253,1.26431102 3.48209656,1.07321196 C3.62991816,0.817241603 3.90446673,0.65883366 4.19997817,0.65883366 C4.345198,0.65883366 4.48841496,0.697200449 4.61395191,0.769801838 C4.84767778,0.904601206 4.9953171,1.14068561 5.02332848,1.39831479 L5.5778961,1.71856885 L5.89831634,1.16352554 C5.79371757,0.926269182 5.80355129,0.647865838 5.93853662,0.414488835 C6.08619475,0.158529529 6.36087875,0 6.65672909,0 C6.80133794,0 6.94412795,0.0384243626 7.06997451,0.110833253 C7.2617372,0.221181704 7.39960064,0.4009409 7.45671794,0.614631331 C7.51377201,0.828085181 7.48395486,1.05260452 7.37359019,1.24311501 C7.24122832,1.47313827 7.00606806,1.62457905 6.74522136,1.65300568 L6.42494244,2.2076573 L7.49453593,2.82539987 L7.81480042,2.27037185 C7.71044884,2.03339827 7.7203058,1.75522278 7.85518504,1.52123465 C8.0033701,1.26527803 8.27766557,1.1068702 8.57340986,1.1068702 C8.71870822,1.1068702 8.86179755,1.14527957 8.98665529,1.21770346 C9.17841798,1.32805191 9.31628142,1.5078111 9.37339872,1.72150154 C9.43043616,1.9348932 9.40065035,2.15907892 9.29011998,2.35024728 C9.15750622,2.58012777 8.92264622,2.73140255 8.66187572,2.75985818 L8.34143492,3.31453582 L9.4994606,3.98322872 L9.81963591,3.42864909 C9.80260742,3.38988916 9.78838952,3.3495604 9.77706642,3.30788261 C9.7201312,3.09487339 9.7496775,2.87121761 9.8601533,2.67886136 C10.0083891,2.42318879 10.2826643,2.26489516 10.5782906,2.26489516 C10.7229287,2.26489516 10.8662749,2.30346192 10.99252,2.3762581 C11.3879362,2.60487251 11.5238747,3.11267983 11.2952801,3.50864374 C11.1622205,3.73847453 10.9274811,3.88965408 10.6668346,3.91812177 L10.3467008,4.4727765 L11.4158529,5.09029058 L11.7361463,4.53521257 C11.6317702,4.298103 11.6416155,4.01987909 11.776587,3.78573156 C11.9247713,3.53014774 12.1989952,3.37176536 12.4942302,3.37176536 C12.6390978,3.37176536 12.7825093,3.4104452 12.9076207,3.48264525 C13.099554,3.59272126 13.2375585,3.77256639 13.2947131,3.98639669 C13.3516649,4.19946773 13.3220873,4.42345762 13.2117138,4.61526682 C13.0786453,4.84511292 12.8433843,4.99642263 12.5827488,5.02478881 L12.2626391,5.57940175 L12.836528,5.91087177 C12.9411897,5.86460037 13.0553202,5.84004391 13.1716649,5.84004391 Z M11.5722859,5.66858471 L11.5063305,5.78283945 L11.6188679,5.84783806 L11.6848019,5.73357235 L11.5722859,5.66858471 Z M9.58941079,4.67567721 L9.58952009,4.67548784 L7.58392698,3.51737373 L5.78087374,2.47596068 L4.44806492,1.70637578 L4.45707987,1.63594294 L4.51322171,1.59312888 L5.73284365,2.29744132 L6.43710693,1.07781444 L6.50788538,1.08675726 L6.55051731,1.14275674 L5.78087374,2.47596068 L4.6745269,4.39276503 L4.67410323,4.39252032 L3.51654241,6.39792046 L2.47528046,8.20145593 L4.39184429,9.30823614 L6.28328612,10.4010164 L8.20073515,11.5075398 L9.30723589,9.59043942 L10.4651968,7.58529673 L10.4656739,7.5855722 L11.5063201,5.78285748 L9.58941079,4.67567721 Z M11.7937795,8.5494436 C11.7892311,8.58461104 11.7916478,8.62052969 11.8012438,8.65630655 C11.8203132,8.72765009 11.8650047,8.78597404 11.9280641,8.82227992 C11.9704802,8.84661327 12.0180975,8.85940987 12.0655835,8.85940987 C12.1632589,8.85940987 12.2546905,8.80663629 12.3033961,8.72232989 C12.3405127,8.65813457 12.3501938,8.58526871 12.3311584,8.51405242 C12.3120812,8.44267944 12.2673795,8.38439326 12.2032312,8.34747934 C12.1617777,8.32355752 12.1139411,8.31070198 12.0668188,8.31070198 C12.0065466,8.31070198 11.9479069,8.33077671 11.8997552,8.36752724 L11.808278,8.43734486 L11.7937795,8.5494436 Z M10.6361096,10.554495 C10.6220745,10.6641495 10.6742801,10.7724527 10.7698533,10.8276945 C10.8122694,10.8520278 10.8598867,10.8648244 10.9073727,10.8648244 C11.0050481,10.8648244 11.0964797,10.8120508 11.1451853,10.7277444 C11.1823019,10.6635491 11.191983,10.5906832 11.1729476,10.519467 C11.1538703,10.448094 11.1091687,10.3898078 11.0456332,10.3532465 C11.0032456,10.3289295 10.955631,10.3161165 10.9086079,10.3161165 C10.8484739,10.3161165 10.7894033,10.3363489 10.741736,10.3727954 L10.6504304,10.4426078 L10.6361096,10.554495 Z M8.13547255,11.6206124 L8.24815744,11.6856976 L8.31322702,11.5729468 L8.20054224,11.507874 L8.13547255,11.6206124 Z M9.5287461,12.4718021 C9.52409846,12.5077367 9.52640369,12.5428705 9.53621035,12.578418 C9.55529063,12.6498022 9.60006134,12.7082613 9.66303067,12.7446385 C9.70544676,12.7689718 9.75306411,12.7817684 9.80055003,12.7817684 C9.89801163,12.7817684 9.98991238,12.7287346 10.0385711,12.6446895 C10.1139162,12.5137532 10.0687443,12.3450487 9.93819776,12.2695907 C9.89674432,12.2456689 9.84890765,12.2328134 9.80178532,12.2328134 C9.74141314,12.2328134 9.68255554,12.2529407 9.63527661,12.2892141 L9.54322737,12.3598361 L9.5287461,12.4718021 Z M7.35214559,12.899143 C7.33820186,12.8973996 7.32630377,12.8965895 7.31563443,12.8965895 C7.21820655,12.8965895 7.12634641,12.9495854 7.07772165,13.0336622 C7.00224651,13.1645206 7.04747407,13.3331861 7.17823376,13.4087672 C7.21978094,13.4327431 7.26738456,13.4455446 7.31464619,13.4455446 C7.4123454,13.4455446 7.50425928,13.3925032 7.55255108,13.3089148 C7.58959502,13.2444138 7.59927797,13.1709892 7.58011277,13.0992861 C7.57094236,13.0647672 7.55519489,13.0328655 7.53359286,13.0047508 L7.46310888,12.9130171 L7.35214559,12.899143 Z M5.43226375,11.7923479 C5.42050949,11.790739 5.40961158,11.7899665 5.39920071,11.7899665 C5.30182051,11.7899665 5.21011788,11.8429453 5.16138807,11.9272936 C5.12427146,11.9914889 5.11459034,12.0643547 5.13362573,12.135571 C5.15261929,12.2066308 5.19743273,12.2649991 5.26099895,12.3017201 C5.303246,12.326028 5.3510188,12.3389215 5.39821247,12.3389215 C5.49581471,12.3389215 5.58752145,12.2859799 5.63620813,12.2018867 C5.69177644,12.105278 5.68288541,11.9851997 5.61624167,11.8977458 L5.54799537,11.808189 L5.43226375,11.7923479 Z M3.43022772,10.6346973 C3.41684594,10.6330065 3.40480102,10.6321886 3.39407295,10.6321886 C3.2965376,10.6321886 3.20499125,10.6850429 3.15635093,10.7693589 C3.08089958,10.9000533 3.1260577,11.0687445 3.25636531,11.1439423 C3.29870735,11.1683048 3.34624594,11.1811436 3.39357883,11.1811436 C3.49099276,11.1811436 3.58273603,11.1281269 3.63155358,11.0437164 C3.668393,10.9799104 3.677987,10.9070465 3.65896906,10.8360189 C3.64939621,10.8003288 3.63363,10.7682654 3.61263626,10.7410617 L3.5413915,10.6487428 L3.43022772,10.6346973 Z M2.3621017,8.13609728 L2.29682109,8.24926477 L2.4098455,8.31454724 L2.47515161,8.20138657 L2.43107603,8.17592869 L2.3621017,8.13609728 Z M1.51354694,9.52782709 C1.50005997,9.52612302 1.48827266,9.52531842 1.47763923,9.52531842 C1.38011208,9.52531842 1.28849112,9.57816177 1.23976772,9.66231953 C1.1644008,9.79308036 1.20960233,9.96193373 1.33968453,10.0370721 C1.38164702,10.0612162 1.42937814,10.0740263 1.47714511,10.0740263 C1.57453977,10.0740263 1.66627994,10.0210799 1.71475673,9.93704747 C1.75182803,9.87271537 1.76144429,9.79985992 1.74228828,9.72865446 C1.73277142,9.69317307 1.71706426,9.66125942 1.69609591,9.63405322 L1.6250871,9.54192013 L1.51354694,9.52782709 Z M1.10037855,7.36164545 C1.11437838,7.2523925 1.06206025,7.14403518 0.965545163,7.0882507 C0.923773197,7.06409293 0.876495276,7.05135602 0.82886329,7.05135602 C0.731467984,7.05135602 0.639807021,7.10429096 0.591141275,7.18877339 C0.515692773,7.3194629 0.560826226,7.4880238 0.69115565,7.56335679 C0.733198348,7.58754709 0.780694196,7.60031103 0.828369172,7.60031103 C0.888699574,7.60031103 0.947230817,7.5803054 0.994546616,7.54397499 L1.08601414,7.47374363 L1.10037855,7.36164545 Z M2.20694899,5.44498856 C2.220965,5.33548304 2.16865056,5.2270263 2.07236778,5.1713067 C2.03099957,5.14738243 1.98353725,5.13465914 1.93593297,5.13465914 C1.83833073,5.13465914 1.74662399,5.18760073 1.69771116,5.27208634 C1.66085902,5.33591442 1.65126309,5.4088248 1.67038892,5.48037953 C1.68940641,5.55165235 1.73410674,5.60990509 1.79773121,5.64641279 C1.83997826,5.67072066 1.88775106,5.68361416 1.93494473,5.68361416 C1.99498603,5.68361416 2.05362239,5.66352962 2.10176124,5.6267889 L2.19254852,5.55749786 L2.20694899,5.44498856 Z M3.36491275,3.43982115 C3.37892906,3.33031322 3.32661715,3.22193393 3.23061613,3.16644597 C3.18889974,3.14244343 3.14145239,3.12973886 3.09389672,3.12973886 C2.9961175,3.12973886 2.90444608,3.1825573 2.85603805,3.26647058 C2.81896564,3.3308046 2.80927156,3.40407181 2.82832175,3.47534343 C2.84730298,3.54635706 2.89200283,3.60450453 2.95647367,3.64155206 C2.99785559,3.66548426 3.04531996,3.67819962 3.09315555,3.67819962 C3.15342232,3.67819962 3.21188885,3.65822623 3.25944789,3.62183325 L3.35053799,3.55212959 L3.36491275,3.43982115 Z M5.66755203,2.41051184 L5.73284365,2.29744132 L5.84603054,2.36280496 L5.78076414,2.47589738 L5.66755203,2.41051184 Z M4.47148831,1.5233714 C4.4855007,1.41389416 4.43322847,1.30563189 4.33666004,1.24993667 C4.29527812,1.22600447 4.24781375,1.21328911 4.19997817,1.21328911 C4.10248418,1.21328911 4.01098304,1.26608307 3.96225048,1.35046918 C3.92554536,1.41404261 3.91599449,1.48712625 3.93514437,1.55864655 C3.95421378,1.6299901 3.99890526,1.68831404 4.06196469,1.72461992 C4.1043004,1.74890716 4.15215305,1.76174987 4.19973111,1.76174987 C4.25975884,1.76174987 4.3184384,1.74167163 4.36638678,1.70510595 L4.45707987,1.63594294 L4.47148831,1.5233714 Z M6.61983314,1.10090179 C6.63332011,1.10260587 6.64510742,1.10341046 6.65574085,1.10341046 C6.75324288,1.10341046 6.84466918,1.05060575 6.89342299,0.965881961 C6.9304063,0.902040926 6.94010373,0.829020527 6.92106877,0.757805891 C6.90199149,0.68643291 6.85728983,0.628146724 6.79344849,0.591409687 C6.75143386,0.567235545 6.70394133,0.554455446 6.65672909,0.554455446 C6.55896383,0.554455446 6.46740886,0.607294955 6.41864682,0.691821574 C6.36301133,0.788010253 6.37185907,0.90807892 6.43877998,0.995983355 L6.50788538,1.08675726 L6.61983314,1.10090179 Z M8.53975107,2.20820039 C8.5496722,2.20957283 8.56042843,2.21028067 8.57217457,2.21028067 C8.66985058,2.21028067 8.76120308,2.15751859 8.80998721,2.07295356 C8.84710382,2.00875824 8.85678494,1.93589238 8.83774955,1.86467609 C8.81867227,1.79330311 8.77397061,1.73501693 8.70929026,1.69779519 C8.66821504,1.67397008 8.62110977,1.66132565 8.57340986,1.66132565 C8.47566701,1.66132565 8.38415431,1.71417496 8.33528486,1.79858505 C8.27963625,1.89512443 8.28848704,2.01516476 8.35525017,2.10290148 L8.42309762,2.19206318 L8.53975107,2.20820039 Z M10.5446318,3.36647247 C10.5545529,3.36784491 10.5653091,3.36855275 10.5770553,3.36855275 C10.6747981,3.36855275 10.7663108,3.31570343 10.8152714,3.23113537 C10.8906572,3.10055455 10.8454507,2.93168279 10.7152787,2.85642213 C10.673322,2.8322289 10.6254555,2.81935061 10.5782906,2.81935061 C10.4805483,2.81935061 10.3889566,2.87221129 10.3403857,2.95598032 C10.3033104,3.02053604 10.293675,3.09347239 10.3124187,3.16360635 C10.3223913,3.20031028 10.3382978,3.23275321 10.3593439,3.26014436 L10.4287215,3.35043806 L10.5446318,3.36647247 Z M12.4569778,4.47262236 C12.4709216,4.47436579 12.4828197,4.47517583 12.493489,4.47517583 C12.5909506,4.47517583 12.6828513,4.42214205 12.7315095,4.33809793 C12.7684525,4.27389698 12.7781041,4.20080538 12.759064,4.12957125 C12.7399976,4.05823902 12.6953753,4.00008804 12.6311367,3.96324529 C12.5893583,3.93913592 12.5414735,3.92622081 12.4942302,3.92622081 C12.3969478,3.92622081 12.3053731,3.97911126 12.2565993,4.06323309 C12.2009363,4.15979735 12.2097906,4.27991921 12.2766808,4.36794952 L12.3456391,4.45870131 L12.4569778,4.47262236 Z M12.9011379,6.63267069 C12.8871529,6.74180771 12.9396171,6.85035788 13.0359936,6.90618276 C13.0776348,6.93021289 13.1250052,6.94296012 13.1724061,6.94296012 C13.2698007,6.94296012 13.3615409,6.89001374 13.4089549,6.80784221 C13.4454835,6.74330375 13.4550753,6.66919805 13.4360046,6.5978498 C13.4169273,6.52647682 13.3722257,6.46819063 13.3086901,6.43162931 C13.2663026,6.4073123 13.2186879,6.39449935 13.1716649,6.39449935 C13.1112927,6.39449935 13.0524351,6.41462669 13.0051562,6.45090003 L12.9156285,6.51958745 L12.9011379,6.63267069 Z M12.6229051,4.27497936 C12.6639593,4.20354907 12.6396128,4.11262543 12.5688446,4.07176723 C12.4952935,4.02890168 12.4060856,4.053002 12.3635788,4.12641727 C12.3444745,4.15965099 12.3390075,4.20005665 12.349929,4.24174382 C12.3599944,4.27793429 12.3849442,4.31067045 12.4198382,4.33061486 C12.4414028,4.34297835 12.467665,4.35003916 12.493489,4.35003916 C12.5469937,4.35003916 12.5959249,4.32191393 12.6229051,4.27497936 Z M12.1422038,3.99867224 C12.2144438,3.87300391 12.3491364,3.79558372 12.493489,3.79558372 C12.564878,3.79558372 12.6336219,3.81406605 12.6952945,3.84942466 C12.7886985,3.90281258 12.8555635,3.99054461 12.885251,4.0974175 C12.9122926,4.20097571 12.8975287,4.31009345 12.8438366,4.40349316 C12.7327495,4.59534938 12.4822249,4.66303085 12.2906336,4.55136886 C12.0973141,4.43974821 12.0310114,4.1921359 12.1422038,3.99867224 Z M10.7213825,3.0565311 C10.7110686,3.01732779 10.6851603,2.98366964 10.653395,2.9655752 C10.5789074,2.92185599 10.4891229,2.94642048 10.4470655,3.0195032 C10.4060704,3.09061861 10.4304803,3.18211301 10.5000929,3.22225264 C10.5230642,3.23575186 10.5503327,3.24316896 10.5773023,3.24316896 C10.6305284,3.24316896 10.6792345,3.21519013 10.7060295,3.16954225 C10.7258814,3.13506629 10.7311905,3.09409013 10.7213825,3.0565311 Z M10.5773023,2.68871351 C10.6490932,2.68871351 10.7188073,2.7076759 10.7790573,2.74309281 C10.9730636,2.85498914 11.0391307,3.10262525 10.9275234,3.29623338 C10.8170231,3.48824853 10.5657026,3.55700822 10.3757112,3.44547132 C10.2812891,3.39161298 10.2128135,3.30265446 10.1850462,3.19710893 C10.1579797,3.09345536 10.1724639,2.9838074 10.2267126,2.89084396 C10.2990386,2.76600455 10.4327864,2.68871351 10.5773023,2.68871351 Z M8.64851426,1.80730312 C8.57390181,1.7635106 8.48446707,1.78806615 8.44375372,1.8585445 C8.42297427,1.89367404 8.41743997,1.93566682 8.42735325,1.9733473 C8.43766716,2.01255061 8.46357546,2.04620875 8.49521219,2.06422769 C8.51818347,2.0777269 8.54545199,2.085144 8.57242163,2.085144 C8.62588786,2.085144 8.67479328,2.05691208 8.70151018,2.01089822 C8.74290916,1.93895694 8.71819433,1.84690044 8.64851426,1.80730312 Z M8.57242163,1.53068856 C8.64421249,1.53068856 8.7139266,1.54965095 8.77302452,1.58440708 C8.86744661,1.63826542 8.93592226,1.72722393 8.96356039,1.8322768 C8.99098569,1.93652069 8.97641263,2.04709723 8.9223903,2.1383989 C8.81179771,2.32976694 8.56075191,2.39869505 8.37113971,2.28737535 C8.17589555,2.17634004 8.10927079,1.927218 8.22147349,1.73343886 C8.29371523,1.60823564 8.42766649,1.53068856 8.57242163,1.53068856 Z M6.73152816,0.700501096 C6.65726984,0.657043793 6.56826792,0.68126083 6.52594854,0.75426613 C6.50647995,0.787927939 6.5010201,0.828849252 6.51142108,0.868356662 C6.52168202,0.906275221 6.54689983,0.939036346 6.57970955,0.9579022 C6.6028152,0.971359706 6.62950697,0.978520922 6.65598791,0.978520922 C6.70918745,0.978520922 6.75833509,0.95025831 6.7851989,0.903816766 C6.82626564,0.832421468 6.80184681,0.740928734 6.73152816,0.700501096 Z M6.65598791,0.424065477 C6.72724822,0.424065477 6.79688313,0.442748033 6.8574518,0.478030031 C6.95076,0.531696533 7.01854453,0.619757191 7.04712668,0.7254066 C7.07441049,0.829112695 7.05978938,0.938697244 7.00577221,1.03209437 C6.89488342,1.22338827 6.64394492,1.29166755 6.45330701,1.18009352 C6.2592027,1.06847347 6.19314427,0.820338046 6.30491791,0.626780016 C6.37721045,0.501314742 6.51131077,0.424065477 6.65598791,0.424065477 Z M4.06949431,1.4134417 C4.02842487,1.484686 4.05283331,1.57584103 4.12381672,1.61694748 C4.14608278,1.62987073 4.17284375,1.63710746 4.19923699,1.63710746 C4.25198311,1.63710746 4.30178844,1.60836286 4.32815088,1.56291759 C4.34824932,1.52824583 4.35360015,1.48690166 4.34317096,1.44807926 C4.33294891,1.41058841 4.30780449,1.37769095 4.27294149,1.35763403 C4.20039538,1.31612552 4.11189135,1.34007808 4.06949431,1.4134417 Z M3.8079698,1.59291574 C3.78000635,1.48880183 3.79431131,1.37827175 3.84850763,1.28477787 C3.92128824,1.15931406 4.05411939,1.08265201 4.19923699,1.08265201 C4.27082336,1.08265201 4.34004926,1.10137214 4.40190617,1.13727413 C4.59527592,1.24925484 4.6615171,1.49663722 4.54969978,1.69060948 C4.43917376,1.88186233 4.18967576,1.94919308 3.99706192,1.83858167 C3.90377194,1.78512849 3.83636911,1.69708185 3.8079698,1.59291574 Z M2.96323053,3.33002637 C2.92184346,3.40174419 2.94618496,3.49249576 3.01687718,3.53343274 C3.04063511,3.54727015 3.06741412,3.55429858 3.09315555,3.55429858 C3.14594121,3.55429858 3.19522924,3.5261265 3.22145784,3.48048856 C3.24159023,3.4459667 3.24709601,3.4041116 3.23710381,3.3669142 C3.22681269,3.32809167 3.2013715,3.29482911 3.16667559,3.2747567 C3.09432878,3.23333419 3.00510906,3.25769828 2.96323053,3.33002637 Z M2.70139424,3.50985974 C2.673332,3.40537802 2.68787224,3.29484271 2.74163378,3.20266625 C2.81400653,3.07676708 2.9485876,2.99984314 3.09315555,2.99984314 C3.16414713,2.99984314 3.23377422,3.0181175 3.29533061,3.053971 C3.48857436,3.16587875 3.55506205,3.41376248 3.4432561,3.60750545 C3.33225346,3.79921573 3.08349502,3.8668047 2.89017643,3.75534791 C2.79673323,3.70169762 2.72876109,3.6131051 2.70139424,3.50985974 Z M1.8052711,5.33561526 C1.76423485,5.40701423 1.78859177,5.49773469 1.85916049,5.53860015 C1.88226614,5.55205765 1.90895791,5.55921887 1.93543885,5.55921887 C1.98872877,5.55921887 2.03742691,5.53114938 2.06374114,5.48565597 C2.08394475,5.45101199 2.0894348,5.40919804 2.07901745,5.37070144 C2.06889987,5.33331268 2.0437557,5.30022166 2.00898454,5.28004692 C1.93586195,5.2384453 1.84677837,5.26318506 1.8052711,5.33561526 Z M1.5438134,5.51553107 C1.51554353,5.4110618 1.53011521,5.30007929 1.58429283,5.20718207 C1.65662326,5.08214294 1.79087006,5.00476342 1.93543885,5.00476342 C2.00669916,5.00476342 2.07633406,5.02344598 2.13761391,5.05913841 C2.33078834,5.17100602 2.39720599,5.41838706 2.28615692,5.61160086 C2.17604591,5.80374348 1.92639737,5.87241396 1.73292743,5.76089038 C1.63926333,5.7073324 1.57183776,5.61909309 1.5438134,5.51553107 Z M0.903556106,7.19800013 C0.829633463,7.15522356 0.740909975,7.17945075 0.699116212,7.25207702 C0.657657421,7.32370673 0.682156586,7.41511116 0.751900912,7.45549368 C0.774906321,7.46901295 0.802180608,7.47640999 0.82886329,7.47640999 C0.88254874,7.47640999 0.931635908,7.44794609 0.957624317,7.40273062 C0.999436541,7.33078275 0.974952666,7.23934598 0.903556106,7.19800013 Z M0.625778178,7.67785402 C0.432228747,7.56576927 0.365788669,7.31764409 0.477588581,7.12527191 C0.549752581,6.99973589 0.683889679,6.92195455 0.82886329,6.92195455 C0.900800203,6.92195455 0.970527178,6.94086515 1.03128541,6.97657666 C1.22468692,7.08857577 1.29105696,7.33619707 1.17933138,7.52922729 C1.06903789,7.72088306 0.818406376,7.78932149 0.625778178,7.67785402 Z M1.33245567,9.83833372 C1.3428061,9.87738002 1.36825506,9.91041001 1.4019719,9.9299653 C1.42437816,9.94296992 1.45091514,9.95012527 1.47739217,9.95012527 C1.53062878,9.95012527 1.57901273,9.92219205 1.60632895,9.87546867 C1.64775503,9.80368325 1.62330722,9.71271319 1.55220075,9.67153536 C1.47945026,9.62935854 1.38971199,9.65355183 1.34775986,9.72559543 C1.32794328,9.75994122 1.32259205,9.80133637 1.33245567,9.83833372 Z M1.27422887,10.1512769 C1.0810226,10.0393909 1.01447565,9.79177031 1.12690099,9.59696255 C1.19953028,9.47275683 1.33305493,9.39566983 1.47739217,9.39566983 C1.54875417,9.39566983 1.6182245,9.4144016 1.68022022,9.45038401 C1.77301421,9.50420326 1.84081333,9.59219917 1.86829828,9.69588538 C1.89609125,9.80013675 1.88172293,9.91023246 1.82740176,10.0037368 C1.71630428,10.1956648 1.46716549,10.2631312 1.27422887,10.1512769 Z M3.24964486,10.9470949 C3.2598744,10.9846132 3.28499978,11.0173774 3.31840562,11.0365884 C3.34067167,11.0495116 3.36743265,11.0567484 3.39382589,11.0567484 C3.44744746,11.0567484 3.49669065,11.0283068 3.52307885,10.9823996 C3.56453764,10.9107699 3.54003847,10.8193655 3.46942857,10.7784764 C3.39548968,10.7353849 3.30652669,10.7596148 3.26441788,10.8322565 C3.24459887,10.8664462 3.23925274,10.9070877 3.24964486,10.9470949 Z M3.19090965,11.2579 C2.99750814,11.1459009 2.9311381,10.8982796 3.04279824,10.7053631 C3.11498816,10.579782 3.24915148,10.5022929 3.39382589,10.5022929 C3.46541225,10.5022929 3.53463816,10.521013 3.59578389,10.5565046 C3.68902582,10.610133 3.75642954,10.6980293 3.78546729,10.8046128 C3.81230508,10.9081575 3.79792489,11.0174761 3.7441043,11.1103218 C3.63325709,11.301544 3.3828274,11.3697508 3.19090965,11.2579 Z M5.32199127,12.1936099 C5.34499668,12.2071291 5.37227097,12.2145262 5.39895365,12.2145262 C5.4526391,12.2145262 5.50172627,12.1860623 5.52800478,12.1403464 C5.54765142,12.1063768 5.55318555,12.0644643 5.54328085,12.0278883 C5.53302066,11.9888892 5.50714329,11.9550893 5.47418807,11.9364308 C5.40052082,11.8935474 5.31131801,11.9178639 5.2691923,11.9908929 C5.22792139,12.0625881 5.25227704,12.1532448 5.32199127,12.1936099 Z M5.19801489,12.4171995 C5.10323353,12.3634757 5.03469737,12.2739567 5.00757526,12.1708384 C4.97934319,12.0665088 4.99388152,11.9564036 5.04767894,11.8633881 C5.11984294,11.7378521 5.25398004,11.6600707 5.39895365,11.6600707 C5.47089056,11.6600707 5.54061754,11.6789813 5.60137577,11.7146929 C5.79457134,11.8265727 5.86107404,12.0743607 5.74958547,12.2677353 C5.6390816,12.459572 5.38832411,12.5280039 5.19801489,12.4171995 Z M7.17069793,13.2096048 C7.18105607,13.2486802 7.20676228,13.282123 7.23891911,13.3004801 C7.26223695,13.314183 7.28906689,13.3213964 7.31563443,13.3213964 C7.36931988,13.3213964 7.41840705,13.2929325 7.44439545,13.247717 C7.48613275,13.1758981 7.46164749,13.0841212 7.39111316,13.0434434 C7.31669851,13.0000233 7.22794087,13.024162 7.18557149,13.0974295 C7.16626096,13.1308434 7.16086422,13.1714133 7.17069793,13.2096048 Z M7.11289127,13.523038 C6.91878363,13.4110832 6.85251789,13.1627026 6.96435972,12.9702583 C7.03652372,12.8447223 7.17066082,12.7669409 7.31563443,12.7669409 C7.3872729,12.7669409 7.4574911,12.7858196 7.51694585,12.8207819 C7.61073888,12.8743922 7.67897434,12.9631638 7.70715262,13.0694932 C7.73383146,13.1731872 7.71935534,13.2819342 7.66557999,13.3749384 C7.55504216,13.5661587 7.30388605,13.6344853 7.11289127,13.523038 Z M9.80104415,12.6576202 C9.85453609,12.6576202 9.90338048,12.6293758 9.92923448,12.5846712 C9.94951624,12.5500973 9.95499031,12.5084832 9.94512429,12.4709824 C9.93493613,12.432257 9.90959546,12.3991344 9.8750489,12.3790982 C9.80149631,12.3365831 9.71269636,12.3609172 9.67129489,12.4328651 C9.62947747,12.5048219 9.65382903,12.5958482 9.72438745,12.6372743 C9.74667254,12.6502367 9.77266767,12.6573218 9.80104415,12.6576202 Z M10.1512652,12.7104375 C10.0409572,12.9021186 9.79062786,12.9707169 9.59722787,12.8589269 C9.50410489,12.8049169 9.43636173,12.71637 9.40891715,12.6120529 C9.38154464,12.5080096 9.39604175,12.3978023 9.45014518,12.3055834 C9.52242972,12.1806236 9.65638276,12.1031648 9.80412507,12.1031819 C9.8745117,12.1039642 9.94290335,12.1227112 10.004195,12.1586015 C10.1965661,12.2708562 10.263004,12.5181694 10.1512652,12.7104375 Z M10.8275126,10.7181824 C10.828459,10.7187528 10.8294091,10.719312 10.8303631,10.7198602 C10.831252,10.720393 10.8321474,10.7209172 10.8330494,10.7214327 L10.8306841,10.7200442 C10.8541049,10.7334297 10.8798016,10.7401391 10.9073727,10.7404291 C10.9604075,10.7404291 11.0109839,10.7110755 11.0361337,10.6667497 C11.077871,10.5949308 11.0533857,10.5031539 10.9828514,10.4624761 C10.9085472,10.4191205 10.8194208,10.4432851 10.7781941,10.5149436 C10.7579474,10.5494577 10.7524209,10.5913127 10.7631759,10.6321131 C10.7730874,10.6680183 10.7969939,10.6997483 10.8300425,10.7196675 L10.8275126,10.7181824 Z M11.2985114,10.487809 C11.3258906,10.5918778 11.3113714,10.7018389 11.2575937,10.7934935 C11.1471597,10.9853934 10.8957102,11.0535682 10.7046295,10.9420707 C10.5105219,10.8301159 10.4442561,10.5817353 10.5553621,10.390579 C10.6274708,10.2635713 10.7611719,10.1859737 10.9104536,10.1859908 C10.980587,10.1867703 11.0496116,10.2053619 11.110942,10.2416491 C11.2028207,10.2951249 11.2694052,10.3822941 11.2985114,10.487809 Z M12.0650893,8.7352617 C12.1182671,8.7352617 12.1664379,8.7074188 12.1935091,8.66131896 C12.2135941,8.62667035 12.2187924,8.58599056 12.2090376,8.54837157 C12.1986795,8.50929618 12.1729733,8.47585344 12.1398297,8.45691918 C12.0662374,8.41407952 11.9772082,8.43830399 11.9337085,8.51359975 C11.915582,8.54565808 11.9101845,8.58555014 11.9210353,8.62696636 C11.9311357,8.66328314 11.9553213,8.6949078 11.9883652,8.71438087 C12.0121298,8.72818349 12.0397338,8.73556042 12.0650893,8.7352617 Z M12.4563572,8.48264005 C12.4833061,8.58584297 12.468678,8.69395714 12.415058,8.78876373 C12.3044265,8.98019916 12.0537973,9.04839428 11.8627897,8.93719451 C11.7689967,8.88358422 11.7007612,8.79481263 11.6727068,8.68896274 C11.6459184,8.58560866 11.6598866,8.47629863 11.7146217,8.38188434 C11.7874749,8.25784584 11.9207607,8.18080626 12.0620084,8.18082338 C12.1347039,8.18001544 12.2058551,8.19916016 12.2683083,8.2357881 C12.3600445,8.28930192 12.4268033,8.37624781 12.4563572,8.48264005 Z M7.85192605,4.16216933 L7.234524,5.23169685 L8.39238853,5.90039755 L9.00979058,4.83087002 L7.85192605,4.16216933 Z M8.59532544,6.65787868 L6.47719267,5.43459494 L7.64898914,3.40468819 L9.76712192,4.62797194 L8.59532544,6.65787868 Z M6.74535847,6.07887081 L6.07679933,7.23710678 L7.23466386,7.90580748 L7.903223,6.7475715 L6.74535847,6.07887081 Z M7.43761672,8.66329782 L5.31948394,7.44001408 L6.54240561,5.32138046 L8.66053839,6.54466421 L7.43761672,8.66329782 Z M5.31784119,4.12458306 L6.38750987,4.74236906 L7.00491192,3.67284153 L5.93524324,3.05505553 L5.31784119,4.12458306 Z M7.76223918,3.46995051 L6.5904427,5.49985726 L4.56051393,4.32747408 L5.73231041,2.29756733 L7.76223918,3.46995051 Z M4.16032776,6.13045038 L5.22977819,6.74803825 L5.89834433,5.58979014 L4.82871849,4.97202888 L4.16032776,6.13045038 Z M6.65565564,5.38688991 L5.43274099,7.50551139 L3.40308808,6.33342433 L4.62568403,4.21448198 L6.65565564,5.38688991 Z M4.12321061,8.66519568 L4.74062923,7.59546889 L3.67120505,6.97789618 L3.05378642,8.04745242 L4.12321061,8.66519568 Z M3.4682582,6.22043225 L5.49793735,7.39253447 L4.32615745,9.4227362 L2.2964783,8.25031029 L3.4682582,6.22043225 Z M6.12832676,9.82299363 L6.74576196,8.75323813 L5.58789743,8.08453744 L4.97046224,9.15429294 L6.12832676,9.82299363 Z M5.38492737,7.32703716 L7.50306015,8.5503209 L6.33129682,10.5804939 L4.21316404,9.35721017 L5.38492737,7.32703716 Z M8.66244734,9.86010035 L7.59321024,9.24253722 L6.97541487,10.3123259 L8.044993,10.929889 L8.66244734,9.86010035 Z M6.21797281,10.5152272 L7.39036421,8.48508729 L9.41973633,9.65719908 L8.24799213,11.6873389 L6.21797281,10.5152272 Z M9.81988924,7.85446688 L8.75030804,7.23690195 L8.08211526,8.39510836 L9.15134924,9.0126697 L9.81988924,7.85446688 Z M7.32491766,8.59806242 L8.54721745,6.47939923 L10.5772337,7.65150924 L9.35429289,9.77017601 L7.32491766,8.59806242 Z M10.926476,5.93773225 L9.85723886,5.32016911 L9.23947665,6.38972978 L10.3090548,7.00729293 L10.926476,5.93773225 Z M8.48200143,6.59261192 L9.65442598,4.56273833 L11.6837981,5.73485012 L10.5120208,7.76472371 L8.48200143,6.59261192 Z M13.0414438,6.59413057 L13.0408901,6.5950952 C13.0221537,6.62789259 13.0166818,6.66778124 13.0277565,6.71029716 C13.0379361,6.74662309 13.0621802,6.77819316 13.096695,6.79820919 C13.1188796,6.81096871 13.145273,6.81807058 13.1716649,6.81807058 C13.2251568,6.81807058 13.2740012,6.78982613 13.3006708,6.74372186 C13.342016,6.67228837 13.3176217,6.58076289 13.2470205,6.54004577 C13.173211,6.49702958 13.0833265,6.52149446 13.0414438,6.59413057 Z M13.5223219,6.87012759 C13.4108928,7.0633807 13.1606938,7.13148017 12.9689218,7.01971216 C12.7748462,6.90777592 12.7087096,6.65963708 12.8207659,6.46603378 C12.8930505,6.34107399 13.0270035,6.26361514 13.1716649,6.26361514 C13.2426509,6.26361514 13.3115235,6.28214718 13.3739988,6.3180822 C13.4660868,6.37149195 13.5330681,6.45871335 13.5630593,6.56593498 C13.5898628,6.66934775 13.5749595,6.77798718 13.5223219,6.87012759 Z" id="Shape"></path>
            </g>
        </g>
    </g>
</svg>