
<svg width="22px" height="23px" viewBox="0 0 22 23" version="1.1" xmlns="http://www.w3.org/2000/svg" xmlns:xlink="http://www.w3.org/1999/xlink">
    <g id="Symbols" stroke="none" stroke-width="1" fill="none" fill-rule="evenodd">
        <g id="Navigation/Icons/Notifications-on" transform="translate(-1.000000, -1.000000)" fill="#D3D3D3">
            <path d="M15.2852,20.3281 C15.2852,22.2861 13.6972,23.8731 11.7402,23.8731 C9.7822,23.8731 8.1942,22.2861 8.1942,20.3281 L15.2852,20.3281 Z M12,1 C16.143,1 19.512,4.37 19.512,8.512 L19.512,12.848 C19.512,14.338 20.729,14.896 21.535,15.264 C22.524,15.717 23,15.98 23,17.008 L23,17.088 C23,17.771 22.444,18.328 21.76,18.328 L2.24,18.328 C1.557,18.328 1,17.771 1,17.088 L1,17.008 C1,15.98 1.476,15.717 2.465,15.264 C3.271,14.896 4.488,14.338 4.488,12.848 L4.488,8.516 L4.488,8.485 C4.503,4.355 7.867,1 12,1 Z" id="Combined-Shape-Copy"></path>
        </g>
    </g>
</svg>