
<svg width="24px" height="24px" viewBox="0 0 24 24" version="1.1" xmlns="http://www.w3.org/2000/svg" xmlns:xlink="http://www.w3.org/1999/xlink">
    <g id="Symbols" stroke="none" stroke-width="1" fill="none" fill-rule="evenodd">
        <g id="Navigation/Icons/Notifications-hover" fill="#D3D3D3">
            <path d="M15.2848,20.328 C15.2848,22.286 13.6968,23.873 11.7398,23.873 C9.7818,23.873 8.1938,22.286 8.1938,20.328 L15.2848,20.328 Z M14.0798,21.328 L9.3988,21.328 C9.7888,22.236 10.6908,22.873 11.7398,22.873 C12.7878,22.873 13.6898,22.236 14.0798,21.328 Z M11.9996,-0.0001 C16.7006,-0.0001 20.5116,3.8109 20.5116,8.5119 L20.5116,12.8479 C20.5116,14.7689 23.9996,13.9369 23.9996,17.0079 L23.9996,17.0879 C23.9996,18.3249 22.9966,19.3279 21.7596,19.3279 L2.2396,19.3279 C1.0026,19.3279 -0.0004,18.3249 -0.0004,17.0879 L-0.0004,17.0079 C-0.0004,13.9369 3.4876,14.7689 3.4876,12.8479 L3.4876,8.5159 L3.4876,8.5119 C3.4876,3.8109 7.2986,-0.0001 11.9996,-0.0001 Z M11.9996,0.9999 C7.8666,0.9999 4.5026,4.3549 4.4876,8.4849 L4.4876,8.5159 L4.4876,12.8479 C4.4876,14.3379 3.2706,14.8959 2.4646,15.2639 C1.4756,15.7169 0.9996,15.9799 0.9996,17.0079 L0.9996,17.0879 C0.9996,17.7709 1.5566,18.3279 2.2396,18.3279 L21.7596,18.3279 C22.4436,18.3279 22.9996,17.7709 22.9996,17.0879 L22.9996,17.0079 C22.9996,15.9799 22.5236,15.7169 21.5346,15.2639 C20.7286,14.8959 19.5116,14.3379 19.5116,12.8479 L19.5116,8.5119 C19.5116,4.3699 16.1426,0.9999 11.9996,0.9999 Z" id="Combined-Shape"></path>
        </g>
    </g>
</svg>