
<svg width="14px" height="14px" viewBox="0 0 14 14" version="1.1" xmlns="http://www.w3.org/2000/svg" xmlns:xlink="http://www.w3.org/1999/xlink">
    <g id="Symbols" stroke="none" stroke-width="1" fill="none" fill-rule="evenodd">
        <g id="General/Icons/18/+-off" transform="translate(-2.000000, -2.000000)" fill="#D3D3D3">
            <path d="M9.5,8.5 L9.5,2.5 C9.5,2.224 9.276,2 9,2 C8.724,2 8.5,2.224 8.5,2.5 L8.5,8.5 L2.5,8.5 C2.224,8.5 2,8.724 2,9 C2,9.276 2.224,9.5 2.5,9.5 L8.5,9.5 L8.5,15.5 C8.5,15.776 8.724,16 9,16 C9.276,16 9.5,15.776 9.5,15.5 L9.5,9.5 L15.5,9.5 C15.776,9.5 16,9.276 16,9 C16,8.724 15.776,8.5 15.5,8.5 L9.5,8.5 Z" id="Fill-1"></path>
        </g>
    </g>
</svg>