
<svg width="11px" height="11px" viewBox="0 0 11 11" version="1.1" xmlns="http://www.w3.org/2000/svg" xmlns:xlink="http://www.w3.org/1999/xlink">
    <g id="Mainframe-OS---FINAL-v2" stroke="none" stroke-width="1" fill="none" fill-rule="evenodd">
        <g id="6.0-MFOS_Contacts" transform="translate(-194.000000, -37.000000)" fill="#D3D3D3">
            <g id="Group-8-Copy" transform="translate(186.000000, 30.000000)">
                <path d="M17.9322852,11.6902907 L13.7946621,11.6902907 L13.7946621,7.55270926 C13.7946621,7.24761375 13.5481513,7 13.2419473,7 C12.9368487,7 12.6892325,7.24761375 12.6892325,7.55270926 L12.6892325,11.6902907 L8.55271481,11.6902907 C8.24651081,11.6902907 8,11.9379045 8,12.243 C8,12.5480955 8.24651081,12.7957093 8.55271481,12.7957093 L12.6892325,12.7957093 L12.6892325,16.9332907 C12.6892325,17.2383863 12.9368487,17.486 13.2419473,17.486 C13.5481513,17.486 13.7946621,17.2383863 13.7946621,16.9332907 L13.7946621,12.7957093 L17.9322852,12.7957093 C18.2373838,12.7957093 18.485,12.5480955 18.485,12.243 C18.485,11.9379045 18.2373838,11.6902907 17.9322852,11.6902907" id="Fill-4"></path>
            </g>
        </g>
    </g>
</svg>