
<svg width="18px" height="18px" viewBox="0 0 18 18" version="1.1" xmlns="http://www.w3.org/2000/svg" xmlns:xlink="http://www.w3.org/1999/xlink">
    <g id="Diogo Perillo-OS---FINAL-v2" stroke="none" stroke-width="1" fill="none" fill-rule="evenodd">
        <g id="6.4-MFOS_Contacts" transform="translate(-701.000000, -264.000000)" fill="#D3D3D3">
            <g id="Group-11" transform="translate(701.000000, 264.000000)">
                <path d="M0,5.2197 L5.21925,5.2197 L5.21925,-0.0003 L0,-0.0003 L0,5.2197 Z M1.491,3.7287 L3.72825,3.7287 L3.72825,1.49145 L1.491,1.49145 L1.491,3.7287 Z" id="Fill-1"></path>
                <path d="M0,17.89545 L5.21925,17.89545 L5.21925,12.67545 L0,12.67545 L0,17.89545 Z M1.491,16.40445 L3.72825,16.40445 L3.72825,14.1672 L1.491,14.1672 L1.491,16.40445 Z" id="Fill-2"></path>
                <path d="M12.67575,5.2197 L17.89575,5.2197 L17.89575,-0.0003 L12.67575,-0.0003 L12.67575,5.2197 Z M14.16675,3.7287 L16.404,3.7287 L16.404,1.49145 L14.16675,1.49145 L14.16675,3.7287 Z" id="Fill-3"></path>
                <polygon id="Fill-4" points="16.40385 6.7107 16.40385 11.18445 12.6756 11.18445 12.6756 12.67545 17.8956 12.67545 17.8956 6.7107"></polygon>
                <polygon id="Fill-5" points="12.675825 14.167425 12.675825 17.895675 14.166825 17.895675 14.166825 15.658425 16.404075 15.658425 16.404075 17.895675 17.895825 17.895675 17.895825 14.167425"></polygon>
                <polygon id="Fill-6" points="6.71085 -0.00015 6.71085 1.4916 9.6936 1.4916 9.6936 5.21985 11.1846 5.21985 11.1846 -0.00015"></polygon>
                <polygon id="Fill-7" points="9.693675 6.7107 9.693675 9.69345 6.710925 9.69345 6.710925 14.1672 9.693675 14.1672 9.693675 17.89545 11.184675 17.89545 11.184675 12.67545 8.201925 12.67545 8.201925 11.18445 11.184675 11.18445 11.184675 8.20245 12.675675 8.20245 12.675675 9.69345 14.166675 9.69345 14.166675 6.7107"></polygon>
                <polygon id="Fill-8" points="6.711 17.89545 8.202 17.89545 8.202 15.6582 6.711 15.6582"></polygon>
                <polygon id="Fill-9" points="2.98275 11.18445 5.21925 11.18445 5.21925 9.69345 2.98275 9.69345"></polygon>
                <polygon id="Fill-10" points="6.71085 2.982675 6.71085 6.710925 -0.00015 6.710925 -0.00015 11.184675 1.49085 11.184675 1.49085 8.202675 8.20185 8.202675 8.20185 2.982675"></polygon>
            </g>
        </g>
    </g>
</svg>