
<svg width="18px" height="18px" viewBox="0 0 18 18" version="1.1" xmlns="http://www.w3.org/2000/svg" xmlns:xlink="http://www.w3.org/1999/xlink">
    <g id="Diogo Perillo-OS---FINAL-v0.3" stroke="none" stroke-width="1" fill="none" fill-rule="evenodd">
        <g id="1.00-MFOS_VaultCreation" transform="translate(-319.000000, -154.000000)">
            <rect fill="#FFFFFF" x="0" y="0" width="900" height="600"></rect>
            <g id="Icons/Question-off" transform="translate(319.000000, 154.000000)" fill="#D3D3D3">
                <path d="M9.0033,-0.0001 C13.9733,-0.0001 18.0003,4.0269 18.0003,8.9969 C18.0003,13.9669 13.9733,17.9999 9.0033,17.9999 C4.0263,17.9999 0.0063,13.9739 0.0003,9.0029 L0.0003,8.9969 C0.0003,4.0269 4.0263,-0.0001 9.0033,-0.0001 Z M9.0033,0.9999 C4.5903,0.9999 1.0003,4.5869 1.0003,8.9969 C1.0063,13.4119 4.5963,16.9999 9.0033,16.9999 C13.4133,16.9999 17.0003,13.4099 17.0003,8.9969 C17.0003,4.5869 13.4133,0.9999 9.0033,0.9999 Z M9.2084,11.8065 C9.3524,11.9515 9.4254,12.1275 9.4254,12.3375 C9.4254,12.5465 9.3524,12.7235 9.2084,12.8685 C9.0634,13.0125 8.8864,13.0845 8.6774,13.0845 C8.4754,13.0845 8.3014,13.0125 8.1574,12.8685 C8.0124,12.7235 7.9404,12.5465 7.9404,12.3375 C7.9404,12.1275 8.0124,11.9515 8.1574,11.8065 C8.3014,11.6615 8.4754,11.5895 8.6774,11.5895 C8.8864,11.5895 9.0634,11.6615 9.2084,11.8065 Z M11.1094,5.5215 C11.5544,5.9265 11.7764,6.4785 11.7764,7.1795 C11.7764,7.9595 11.5634,8.5195 11.1374,8.8585 C10.7104,9.1985 10.0784,9.3715 9.2404,9.3795 L9.2404,10.7015 L8.0704,10.7015 L8.0704,8.5345 L8.5904,8.5345 C9.0384,8.5415 9.4054,8.5085 9.6904,8.4365 C9.9754,8.3645 10.1974,8.2305 10.3564,8.0355 C10.5154,7.8405 10.5954,7.5555 10.5954,7.1795 C10.5954,6.7965 10.4844,6.4965 10.2644,6.2805 C10.0444,6.0635 9.7394,5.9545 9.3494,5.9545 C8.9584,5.9545 8.6514,6.0595 8.4284,6.2695 C8.2044,6.4785 8.0924,6.7715 8.0924,7.1465 L6.9324,7.1465 C6.9324,6.7135 7.0304,6.3275 7.2254,5.9875 C7.4204,5.6475 7.7004,5.3845 8.0644,5.1965 C8.4294,5.0085 8.8544,4.9145 9.3384,4.9145 C10.0754,4.9145 10.6654,5.1175 11.1094,5.5215 Z" id="Combined-Shape"></path>
            </g>
        </g>
    </g>
</svg>