
<svg width="15px" height="15px" viewBox="0 0 15 15" version="1.1" xmlns="http://www.w3.org/2000/svg" xmlns:xlink="http://www.w3.org/1999/xlink">
    <g id="Diogo Perillo-OS---FINAL-v2" stroke="none" stroke-width="1" fill="none" fill-rule="evenodd">
        <g id="6.0-MFOS_Contacts" transform="translate(-160.000000, -35.000000)">
            <g id="Group-8" transform="translate(154.000000, 30.000000)">
                <g id="Group-12" transform="translate(6.000000, 5.000000)">
                    <path d="M6.16945,0.166666667 C2.75928333,0.166666667 0.000116666667,2.92583333 0.000116666667,6.33133333 L0.000116666667,6.336 C0.00478333333,9.74266667 2.75928333,12.5006667 6.16945,12.5006667 C9.57495,12.5006667 12.3341167,9.73683333 12.3341167,6.33133333 C12.3341167,2.92583333 9.57495,0.166666667 6.16945,0.166666667 M6.16945,1.33333333 C8.92511667,1.33333333 11.16745,3.57566667 11.16745,6.33133333 C11.16745,9.0905 8.92511667,11.334 6.16945,11.334 C3.41495,11.334 1.17028333,9.09166667 1.16678333,6.33133333 C1.16678333,3.57566667 3.41145,1.33333333 6.16945,1.33333333" id="Fill-1" fill="#D3D3D3"></path>
                    <path d="M10.5723333,10.7429667 L14,14.1706333" id="Stroke-4" stroke="#D3D3D3" stroke-linecap="round" stroke-linejoin="round"></path>
                </g>
            </g>
        </g>
    </g>
</svg>