
<svg width="9px" height="8px" viewBox="0 0 9 8" version="1.1" xmlns="http://www.w3.org/2000/svg" xmlns:xlink="http://www.w3.org/1999/xlink">
    <g id="Mainframe-OS---FINAL-Sprint-5" stroke="none" stroke-width="1" fill="none" fill-rule="evenodd">
        <g id="10.03-MFOS_Developers" transform="translate(-177.000000, -38.000000)" fill="#D3D3D3">
            <g id="Fill-1-Copy-2" transform="translate(177.000000, 38.000000)">
                <path d="M4.49943418,5.16548865 C4.17729159,5.16548865 3.87589589,5.0449254 3.64692569,4.82456053 C3.4089023,4.59436121 3.28366654,4.28840007 3.29460581,3.96313425 C3.31459826,3.35084775 3.82685779,2.85657482 4.46095813,2.83690589 C4.79026782,2.82779991 5.11505092,2.94763468 5.35307431,3.17746977 C5.5910977,3.40730486 5.71633346,3.71326599 5.70539419,4.03889606 C5.68540174,4.65081832 5.17314221,5.14545548 4.53941909,5.16512441 C4.52583931,5.16548865 4.51263674,5.16548865 4.49943418,5.16548865 M2.82761222,8 C2.76801207,8 2.70841192,7.98834434 2.65333836,7.9639403 C2.37570728,7.84337704 2.1097699,7.69476735 1.86193889,7.52138937 C1.76612599,7.45436931 1.70313089,7.35092531 1.68879668,7.23728261 C1.67408525,7.12254718 1.710298,7.00599056 1.78725009,6.91748037 C2.15239532,6.50006197 2.2078461,5.90161657 1.92493399,5.42846953 C1.64277631,4.95714369 1.08223312,4.70472576 0.52546209,4.79760682 C0.407770653,4.81727575 0.284043757,4.78886507 0.188608072,4.7189311 C0.0943040362,4.65008984 0.033949453,4.54518888 0.0222557525,4.43191041 C0.00792153904,4.29022127 0,4.14671093 0,4.00101515 C0,3.84949154 0.00867597133,3.69978913 0.0245190494,3.55227216 C0.0365899661,3.43899369 0.0973217654,3.33482121 0.191248585,3.2663442 C0.286307054,3.19641022 0.407770653,3.16654259 0.526970954,3.18803272 C1.07996982,3.28091377 1.64315353,3.02776736 1.92493399,2.55680576 C2.2055828,2.08730112 2.15277254,1.49249811 1.79403998,1.07580819 C1.71784232,0.986933761 1.68276122,0.871105618 1.69784987,0.756734433 C1.7125613,0.643455966 1.77593361,0.540376204 1.87136929,0.474084625 C2.11769144,0.302892087 2.38211995,0.155739352 2.65824217,0.0359045747 C2.76688042,-0.010718074 2.89060732,-0.0118107924 2.99924557,0.0318979408 C3.10901547,0.0766993923 3.19539796,0.163752619 3.23651452,0.271931734 C3.43153527,0.780045757 3.9392682,1.12133812 4.50018861,1.12133812 C5.06110902,1.12133812 5.56884195,0.780045757 5.76348548,0.271931734 C5.80460204,0.163752619 5.89136175,0.0763351529 6.00113165,0.0318979408 C6.11090155,-0.0118107924 6.23500566,-0.00998959514 6.34175783,0.0359045747 C6.61788005,0.155739352 6.88230856,0.302892087 7.12825349,0.474084625 C7.22406639,0.540376204 7.2874387,0.643455966 7.30215013,0.756370193 C7.31723878,0.870741378 7.28215768,0.986933761 7.20596002,1.07580819 C6.84722746,1.49286235 6.79479442,2.08766536 7.07506601,2.55680576 C7.35684647,3.0281316 7.91889853,3.27982106 8.47302905,3.18803272 C8.59185213,3.16690683 8.71369295,3.19641022 8.80912863,3.2663442 C8.90305545,3.33482121 8.96378725,3.43935793 8.97585817,3.55227216 C8.99170124,3.69978913 9,3.84949154 9,4.00101515 C9,4.14671093 8.99245568,4.29022127 8.97774425,4.43227465 C8.96605055,4.54555312 8.90531875,4.65008984 8.81101471,4.71929534 C8.71520181,4.78922931 8.59298378,4.81727575 8.47416069,4.79760682 C7.9181441,4.70509 7.35684647,4.95750793 7.07506601,5.42846953 C6.7921539,5.90198081 6.84760468,6.50042621 7.21237269,6.91748037 C7.29007922,7.00599056 7.32591475,7.12291142 7.31120332,7.23764685 C7.29686911,7.35128955 7.23387401,7.45473355 7.13806111,7.52138937 C6.88985289,7.69476735 6.6239155,7.84374128 6.34741607,7.9639403 C6.23877782,8.01092718 6.11391928,8.01165566 6.00452659,7.96721845 C5.89437948,7.92168852 5.80799698,7.83354257 5.76725764,7.72427074 C5.57600905,7.20996465 5.06676726,6.86430142 4.50018861,6.86430142 C3.93323274,6.86430142 3.42399095,7.20996465 3.23311958,7.72427074 C3.19238023,7.83354257 3.10599774,7.92168852 2.99585062,7.96721845 C2.94190871,7.98907282 2.88494908,8 2.82761222,8" id="Fill-1-Copy"></path>
            </g>
        </g>
    </g>
</svg>