
<svg width="14px" height="14px" viewBox="0 0 14 14" version="1.1" xmlns="http://www.w3.org/2000/svg" xmlns:xlink="http://www.w3.org/1999/xlink">
    <g id="Mainframe-OS---FINAL-Sprint-5" stroke="none" stroke-width="1" fill="none" fill-rule="evenodd">
        <g id="9.01-MFOS_More" transform="translate(-183.000000, -93.000000)" fill="#D3D3D3">
            <g id="noun_Wrench_625258" transform="translate(183.000000, 93.000000)">
                <path d="M13.7507505,3.28811201 L11.9359478,4.3358015 L10.501995,3.49942872 L10.4945823,1.83953017 L12.3095497,0.791840676 C12.4184346,0.728923307 12.4197524,0.571629884 12.3121854,0.506571348 C11.2480458,-0.135943462 9.87487747,-0.192931446 8.72557379,0.483677331 C7.39852916,1.26487388 6.76778761,2.83484342 7.09592477,4.2847429 L0.542735887,10.8368787 C-0.180911962,11.5604284 -0.180911962,12.7336232 0.542735887,13.4573377 C1.26638374,14.1808874 2.43973762,14.1808874 3.1635502,13.4573377 L9.71311508,6.90866072 C10.5468009,7.10169517 11.4526373,6.99216624 12.2522246,6.53049769 C13.3960922,5.87019472 14.0235392,4.661753 13.9993243,3.4286055 C13.9966886,3.30293547 13.8598001,3.22519464 13.7507505,3.28811201 Z" id="Path"></path>
            </g>
        </g>
    </g>
</svg>