
<svg width="24px" height="22px" viewBox="0 0 24 22" version="1.1" xmlns="http://www.w3.org/2000/svg" xmlns:xlink="http://www.w3.org/1999/xlink">
    <g id="Symbols" stroke="none" stroke-width="1" fill="none" fill-rule="evenodd">
        <g id="Navigation/Icons/Settings-on" transform="translate(0.000000, -1.000000)" fill="#D3D3D3">
            <path d="M11.928,15.1815741 C11.074,15.1815741 10.275,14.8505741 9.668,14.2455741 C9.037,13.6135741 8.705,12.7735741 8.734,11.8805741 C8.787,10.1995741 10.145,8.8425741 11.826,8.7885741 C12.699,8.7635741 13.56,9.0925741 14.191,9.7235741 C14.822,10.3545741 15.154,11.1945741 15.125,12.0885741 C15.072,13.7685741 13.714,15.1265741 12.034,15.1805741 C11.998,15.1815741 11.963,15.1815741 11.928,15.1815741 M7.496,22.9635741 C7.338,22.9635741 7.18,22.9315741 7.034,22.8645741 C6.298,22.5335741 5.593,22.1255741 4.936,21.6495741 C4.682,21.4655741 4.515,21.1815741 4.477,20.8695741 C4.438,20.5545741 4.534,20.2345741 4.738,19.9915741 C5.706,18.8455741 5.853,17.2025741 5.103,15.9035741 C4.355,14.6095741 2.869,13.9165741 1.393,14.1715741 C1.081,14.2255741 0.753,14.1475741 0.5,13.9555741 C0.25,13.7665741 0.09,13.4785741 0.059,13.1675741 C0.021,12.7785741 0,12.3845741 0,11.9845741 C0,11.5685741 0.023,11.1575741 0.065,10.7525741 C0.097,10.4415741 0.258,10.1555741 0.507,9.9675741 C0.759,9.7755741 1.081,9.6935741 1.397,9.7525741 C2.863,10.0075741 4.356,9.3125741 5.103,8.0195741 C5.847,6.7305741 5.707,5.0975741 4.756,3.9535741 C4.554,3.7095741 4.461,3.3915741 4.501,3.0775741 C4.54,2.7665741 4.708,2.4835741 4.961,2.3015741 C5.614,1.8315741 6.315,1.4275741 7.047,1.0985741 C7.335,0.970574098 7.663,0.967574098 7.951,1.0875741 C8.242,1.2105741 8.471,1.4495741 8.58,1.7465741 C9.097,3.1415741 10.443,4.0785741 11.93,4.0785741 C13.417,4.0785741 14.763,3.1415741 15.279,1.7465741 C15.388,1.4495741 15.618,1.2095741 15.909,1.0875741 C16.2,0.967574098 16.529,0.972574098 16.812,1.0985741 C17.544,1.4275741 18.245,1.8315741 18.897,2.3015741 C19.151,2.4835741 19.319,2.7665741 19.358,3.0765741 C19.398,3.3905741 19.305,3.7095741 19.103,3.9535741 C18.152,5.0985741 18.013,6.7315741 18.756,8.0195741 C19.503,9.3135741 20.993,10.0045741 22.462,9.7525741 C22.777,9.6945741 23.1,9.7755741 23.353,9.9675741 C23.602,10.1555741 23.763,10.4425741 23.795,10.7525741 C23.837,11.1575741 23.859,11.5685741 23.859,11.9845741 C23.859,12.3845741 23.839,12.7785741 23.8,13.1685741 C23.769,13.4795741 23.608,13.7665741 23.358,13.9565741 C23.104,14.1485741 22.78,14.2255741 22.465,14.1715741 C20.991,13.9175741 19.503,14.6105741 18.756,15.9035741 C18.006,17.2035741 18.153,18.8465741 19.12,19.9915741 C19.326,20.2345741 19.421,20.5555741 19.382,20.8705741 C19.344,21.1825741 19.177,21.4665741 18.923,21.6495741 C18.265,22.1255741 17.56,22.5345741 16.827,22.8645741 C16.539,22.9935741 16.208,22.9955741 15.918,22.8735741 C15.626,22.7485741 15.397,22.5065741 15.289,22.2065741 C14.782,20.7945741 13.432,19.8455741 11.93,19.8455741 C10.427,19.8455741 9.077,20.7945741 8.571,22.2065741 C8.463,22.5065741 8.234,22.7485741 7.942,22.8735741 C7.799,22.9335741 7.648,22.9635741 7.496,22.9635741" id="Fill-1-Copy"></path>
        </g>
    </g>
</svg>