
<svg width="24px" height="22px" viewBox="0 0 24 22" version="1.1" xmlns="http://www.w3.org/2000/svg" xmlns:xlink="http://www.w3.org/1999/xlink">
    <g id="Symbols" stroke="none" stroke-width="1" fill="none" fill-rule="evenodd">
        <g id="Navigation/Icons/Settings-hover" transform="translate(0.000000, -1.000000)" fill="#D3D3D3">
            <path d="M11.9297,9.7879 C11.9057,9.7879 11.8807,9.7879 11.8567,9.7889 C10.7027,9.8249 9.7697,10.7589 9.7337,11.9119 C9.7137,12.5269 9.9417,13.1039 10.3757,13.5379 C10.8097,13.9729 11.3837,14.2129 12.0017,14.1809 C13.1557,14.1439 14.0887,13.2109 14.1247,12.0579 C14.1447,11.4419 13.9167,10.8649 13.4827,10.4319 C13.0667,10.0149 12.5177,9.7879 11.9297,9.7879 M11.9277,15.1819 C11.0737,15.1819 10.2747,14.8509 9.6677,14.2459 C9.0367,13.6139 8.7047,12.7739 8.7337,11.8809 C8.7867,10.1999 10.1447,8.8429 11.8257,8.7889 C12.6987,8.7639 13.5597,9.0929 14.1907,9.7239 C14.8217,10.3549 15.1537,11.1949 15.1247,12.0889 C15.0717,13.7689 13.7137,15.1269 12.0337,15.1809 C11.9977,15.1819 11.9627,15.1819 11.9277,15.1819 M2.0037,13.1189 C3.6157,13.1189 5.1447,13.9769 5.9677,15.4039 C6.9287,17.0669 6.7417,19.1699 5.5017,20.6369 C5.4667,20.6789 5.4657,20.7249 5.4687,20.7489 C5.4727,20.7749 5.4847,20.8119 5.5227,20.8409 C6.1237,21.2749 6.7707,21.6499 7.4427,21.9529 C7.4877,21.9739 7.5247,21.9659 7.5497,21.9529 C7.5717,21.9439 7.6107,21.9209 7.6287,21.8689 C8.2787,20.0599 10.0057,18.8459 11.9297,18.8459 C13.8517,18.8459 15.5797,20.0599 16.2307,21.8689 C16.2487,21.9209 16.2877,21.9439 16.3097,21.9529 C16.3347,21.9649 16.3717,21.9739 16.4177,21.9529 C17.0867,21.6509 17.7337,21.2759 18.3367,20.8399 C18.3747,20.8119 18.3867,20.7749 18.3897,20.7489 C18.3927,20.7259 18.3917,20.6799 18.3557,20.6369 C17.1167,19.1709 16.9297,17.0679 17.8907,15.4039 C18.8467,13.7469 20.7507,12.8539 22.6387,13.1869 C22.6897,13.1919 22.7357,13.1739 22.7537,13.1599 C22.7747,13.1439 22.8007,13.1149 22.8057,13.0689 C22.8407,12.7129 22.8587,12.3509 22.8587,11.9849 C22.8587,11.6039 22.8387,11.2259 22.8007,10.8559 C22.7957,10.8089 22.7697,10.7809 22.7487,10.7649 C22.7307,10.7509 22.6837,10.7319 22.6337,10.7369 C20.7497,11.0689 18.8457,10.1759 17.8907,8.5199 C16.9377,6.8719 17.1167,4.7799 18.3327,3.3149 C18.3677,3.2719 18.3687,3.2259 18.3667,3.2029 C18.3627,3.1779 18.3507,3.1409 18.3127,3.1119 C17.7157,2.6829 17.0737,2.3119 16.4017,2.0109 C16.3577,1.9899 16.3197,1.9999 16.2957,2.0099 C16.2747,2.0189 16.2357,2.0419 16.2157,2.0929 C15.5567,3.8789 13.8337,5.0789 11.9297,5.0789 C10.0257,5.0789 8.3027,3.8789 7.6427,2.0939 C7.6227,2.0419 7.5847,2.0179 7.5637,2.0099 C7.5377,1.9989 7.4987,1.9909 7.4557,2.0109 C6.7847,2.3119 6.1427,2.6829 5.5457,3.1119 C5.5077,3.1409 5.4957,3.1779 5.4927,3.2039 C5.4907,3.2269 5.4907,3.2719 5.5257,3.3149 C6.7427,4.7789 6.9207,6.8709 5.9677,8.5199 C5.0117,10.1749 3.1067,11.0679 1.2247,10.7369 C1.1627,10.7279 1.1287,10.7509 1.1107,10.7649 C1.0897,10.7799 1.0637,10.8089 1.0587,10.8559 C1.0207,11.2259 0.9997,11.6039 0.9997,11.9849 C0.9997,12.3509 1.0187,12.7129 1.0537,13.0689 C1.0587,13.1159 1.0837,13.1439 1.1047,13.1599 C1.1227,13.1739 1.1637,13.1919 1.2197,13.1869 C1.4817,13.1419 1.7437,13.1189 2.0037,13.1189 M7.4957,22.9639 C7.3377,22.9639 7.1797,22.9319 7.0337,22.8649 C6.2977,22.5339 5.5927,22.1259 4.9357,21.6499 C4.6817,21.4659 4.5147,21.1819 4.4767,20.8699 C4.4377,20.5549 4.5337,20.2349 4.7377,19.9919 C5.7057,18.8459 5.8527,17.2029 5.1027,15.9039 C4.3547,14.6099 2.8687,13.9169 1.3927,14.1719 C1.0807,14.2259 0.7527,14.1479 0.4997,13.9559 C0.2497,13.7669 0.0897,13.4789 0.0587,13.1679 C0.0207,12.7789 -0.0003,12.3849 -0.0003,11.9849 C-0.0003,11.5689 0.0227,11.1579 0.0647,10.7529 C0.0967,10.4419 0.2577,10.1559 0.5067,9.9679 C0.7587,9.7759 1.0807,9.6939 1.3967,9.7529 C2.8627,10.0079 4.3557,9.3129 5.1027,8.0199 C5.8467,6.7309 5.7067,5.0979 4.7557,3.9539 C4.5537,3.7099 4.4607,3.3919 4.5007,3.0779 C4.5397,2.7669 4.7077,2.4839 4.9607,2.3019 C5.6137,1.8319 6.3147,1.4279 7.0467,1.0989 C7.3347,0.9709 7.6627,0.9679 7.9507,1.0879 C8.2417,1.2109 8.4707,1.4499 8.5797,1.7469 C9.0967,3.1419 10.4427,4.0789 11.9297,4.0789 C13.4167,4.0789 14.7627,3.1419 15.2787,1.7469 C15.3877,1.4499 15.6177,1.2099 15.9087,1.0879 C16.1997,0.9679 16.5287,0.9729 16.8117,1.0989 C17.5437,1.4279 18.2447,1.8319 18.8967,2.3019 C19.1507,2.4839 19.3187,2.7669 19.3577,3.0769 C19.3977,3.3909 19.3047,3.7099 19.1027,3.9539 C18.1517,5.0989 18.0127,6.7319 18.7557,8.0199 C19.5027,9.3139 20.9927,10.0049 22.4617,9.7529 C22.7767,9.6949 23.0997,9.7759 23.3527,9.9679 C23.6017,10.1559 23.7627,10.4429 23.7947,10.7529 C23.8367,11.1579 23.8587,11.5689 23.8587,11.9849 C23.8587,12.3849 23.8387,12.7789 23.7997,13.1689 C23.7687,13.4799 23.6077,13.7669 23.3577,13.9569 C23.1037,14.1489 22.7797,14.2259 22.4647,14.1719 C20.9907,13.9179 19.5027,14.6109 18.7557,15.9039 C18.0057,17.2039 18.1527,18.8469 19.1197,19.9919 C19.3257,20.2349 19.4207,20.5559 19.3817,20.8709 C19.3437,21.1829 19.1767,21.4669 18.9227,21.6499 C18.2647,22.1259 17.5597,22.5349 16.8267,22.8649 C16.5387,22.9939 16.2077,22.9959 15.9177,22.8739 C15.6257,22.7489 15.3967,22.5069 15.2887,22.2069 C14.7817,20.7949 13.4317,19.8459 11.9297,19.8459 C10.4267,19.8459 9.0767,20.7949 8.5707,22.2069 C8.4627,22.5069 8.2337,22.7489 7.9417,22.8739 C7.7987,22.9339 7.6477,22.9639 7.4957,22.9639" id="Fill-1"></path>
        </g>
    </g>
</svg>