
<svg width="10px" height="10px" viewBox="0 0 10 10" version="1.1" xmlns="http://www.w3.org/2000/svg" xmlns:xlink="http://www.w3.org/1999/xlink">
    <g id="Mainframe-OS---FINAL-v4" stroke="none" stroke-width="1" fill="none" fill-rule="evenodd">
        <g id="7.12-MFOS_Contacts" transform="translate(-366.000000, -329.000000)" fill="#1F3464">
            <g id="Group-3" transform="translate(366.000000, 327.000000)">
                <g id="Group-6" transform="translate(0.000000, 2.000000)">
                    <path d="M8.5399,8.538 C7.5939,9.483 6.3369,10.004 4.9999,10.004 C3.6649,10.004 2.4099,9.484 1.4669,8.541 C-0.4821,6.593 -0.4831,3.419 1.4659,1.464 C2.4109,0.52 3.6659,0 4.9999,0 C6.3359,0 7.5939,0.521 8.5399,1.468 C9.4839,2.412 10.0049,3.667 10.0049,5.003 C10.0049,6.338 9.4839,7.593 8.5399,8.538 Z M6.8387,3.1654 C6.6437,2.9704 6.3267,2.9704 6.1317,3.1654 L4.9847,4.3124 L3.8377,3.1654 C3.6427,2.9704 3.3257,2.9704 3.1307,3.1654 C2.9357,3.3604 2.9357,3.6774 3.1307,3.8724 L4.2777,5.0194 L3.1307,6.1664 C2.9357,6.3614 2.9357,6.6784 3.1307,6.8734 C3.2287,6.9714 3.3567,7.0194 3.4847,7.0194 C3.6117,7.0194 3.7397,6.9714 3.8377,6.8734 L4.9847,5.7264 L6.1317,6.8734 C6.2297,6.9714 6.3577,7.0194 6.4847,7.0194 C6.6127,7.0194 6.7407,6.9714 6.8387,6.8734 C7.0337,6.6784 7.0337,6.3614 6.8387,6.1664 L5.6917,5.0194 L6.8387,3.8724 C7.0337,3.6774 7.0337,3.3604 6.8387,3.1654 Z" id="Fill-1"></path>
                </g>
            </g>
        </g>
    </g>
</svg>