<svg width="25px" height="24px" viewBox="0 0 25 24" version="1.1" xmlns="http://www.w3.org/2000/svg" xmlns:xlink="http://www.w3.org/1999/xlink">
    <g id="Symbols" stroke="none" stroke-width="1" fill="none" fill-rule="evenodd">
        <g id="Buttons/Large-hover" transform="translate(-152.000000, -12.000000)" fill="#D3D3D3">
            <g id="Navigation/Icons/Identities-on-red" transform="translate(152.000000, 12.000000)">
                <path width="100%" height="100%"  d="M19.180139,20.9326351 C22.071874,18.9330381 23.9583333,15.6716252 23.9583333,11.995 C23.9583333,5.933 18.8197917,1 12.5041667,1 C6.184375,1 1.04166667,5.933 1.04166667,11.995 C1.04671159,15.6703303 2.93311585,18.9289517 5.82169964,20.9284048 C6.89186656,19.3575883 8.94724424,17.3808 12.5,17.3808 C16.0559457,17.3808 18.110783,19.3611398 19.180139,20.9326351 Z M17.2573779,22.0071319 C15.7752157,22.656241 14.1536921,22.9998 12.503125,22.9998 C11.3720229,22.9998 10.2545244,22.8388804 9.18621027,22.5292255 C10.2370249,22.8353604 11.3510614,23 12.5041667,23 C14.1988325,23 15.8087478,22.6445335 17.2573779,22.0071319 Z M12.5041667,0 C19.4072917,0 25,5.369 25,11.995 C25,18.622 19.4072917,24 12.5041667,24 C5.59166667,24 0.009375,18.631 0,12.005 L0,11.995 C0,5.369 5.59166667,0 12.5041667,0 Z M12.5010417,6 C14.70625,6 16.4927083,7.715 16.4927083,9.832 C16.4927083,11.949 14.70625,13.667 12.5010417,13.667 C10.29375,13.667 8.509375,11.951 8.50625,9.835 L8.50625,9.832 C8.50625,7.715 10.29375,6 12.5010417,6 Z" id="Combined-Shape"></path>
            </g>
        </g>
    </g>
</svg>
