
<svg width="24px" height="22px" viewBox="0 0 24 22" version="1.1" xmlns="http://www.w3.org/2000/svg" xmlns:xlink="http://www.w3.org/1999/xlink">
    <defs>
        <polygon id="path-1" points="0 0.695 23.9999 0.695 23.9999 22 0 22"></polygon>
        <polygon id="path-3" points="0.0601 0.5818 9 0.5818 9 5.4178 0.0601 5.4178"></polygon>
    </defs>
    <g id="Symbols" stroke="none" stroke-width="1" fill="none" fill-rule="evenodd">
        <g id="Navigation/Icons/Wallets-on" transform="translate(0.000000, -1.000000)">
            <g id="Group-9">
                <g id="Group-5" transform="translate(0.000000, 0.305500)">
                    <mask id="mask-2" fill="white">
                        <use xlink:href="#path-1"></use>
                    </mask>
                    <g id="Clip-4"></g>
                </g>
                <g id="Group-8" transform="translate(15.000000, 11.305500)">
                    <mask id="mask-4" fill="white">
                        <use xlink:href="#path-3"></use>
                    </mask>
                    <g id="Clip-7"></g>
                </g>
                <path d="M17.4984,14.734 C17.7344,14.734 17.9274,14.542 17.9274,14.305 C17.9274,14.069 17.7344,13.877 17.4984,13.877 C17.2624,13.877 17.0704,14.069 17.0704,14.305 C17.0704,14.542 17.2624,14.734 17.4984,14.734" id="Fill-1" fill="#D3D3D3"></path>
                <path d="M22.2069,4.5705 L22.2069,4.4295 C22.2069,2.5385 20.6689,1.0005 18.7779,1.0005 L3.4409,1.0005 C1.5509,1.0005 0.0129,2.5385 0.0129,4.4295 L0.0129,7.1905 C0.0109,7.2325 -0.0001,7.2715 -0.0001,7.3135 L-0.0001,19.3055 C-0.0001,20.9625 1.3429,22.3055 2.9999,22.3055 L4.9359,22.3055 L4.9359,4.3135 L2.9999,4.3135 C2.2339,4.3135 1.5429,4.6095 1.0129,5.0825 L1.0129,4.4295 C1.0129,3.0905 2.1029,2.0005 3.4409,2.0005 L18.7779,2.0005 C20.0839,2.0005 21.1449,3.0395 21.1969,4.3335 C21.1309,4.3295 21.0669,4.3135 20.9999,4.3135 L6.0619,4.3135 L6.0619,22.3055 L20.9999,22.3055 C22.6569,22.3055 23.9999,20.9625 23.9999,19.3055 L23.9999,17.7235 L17.4779,17.7235 C15.5939,17.7235 14.0609,16.1905 14.0609,14.3055 C14.0609,12.4205 15.5939,10.8875 17.4779,10.8875 L23.9999,10.8875 L23.9999,7.3135 C23.9999,6.0875 23.2619,5.0355 22.2069,4.5705" id="Fill-3" fill="#D3D3D3"></path>
                <path d="M18.9271,14.3053 C18.9271,15.0933 18.2861,15.7343 17.4981,15.7343 C16.7111,15.7343 16.0701,15.0933 16.0701,14.3053 C16.0701,13.5173 16.7111,12.8773 17.4981,12.8773 C18.2861,12.8773 18.9271,13.5173 18.9271,14.3053 M15.0601,14.3053 C15.0601,15.6383 16.1451,16.7233 17.4781,16.7233 L24.0001,16.7233 L24.0001,11.8873 L17.4781,11.8873 C16.1451,11.8873 15.0601,12.9723 15.0601,14.3053" id="Fill-6" fill="#D3D3D3"></path>
            </g>
        </g>
    </g>
</svg>