
<svg width="24px" height="22px" viewBox="0 0 24 22" version="1.1" xmlns="http://www.w3.org/2000/svg" xmlns:xlink="http://www.w3.org/1999/xlink">
    <g id="Symbols" stroke="none" stroke-width="1" fill="none" fill-rule="evenodd">
        <g id="Navigation/Icons/Wallets-hover" transform="translate(0.000000, -1.000000)">
            <g id="Group" transform="translate(0.000000, 1.000000)">
                <path d="M4.935,20.3055 L4.935,4.3135 L2.9998,4.3135 C1.97325756,4.3135 1.12514601,5.09045387 1.0125,6.08732692 L1.0125,7.9814 L0.9998,7.9814 L0.9998,18.3055 C0.9998,19.4085 1.8968,20.3055 2.9998,20.3055 L4.935,20.3055 Z M6.062,20.3055 L20.9998,20.3055 C22.1038,20.3055 22.9998,19.4085 22.9998,18.3055 L22.9998,6.3135 C22.9998,5.2105 22.1038,4.3135 20.9998,4.3135 L6.062,4.3135 L6.062,20.3055 Z M1.0125,4.06668808 C1.54183614,3.59807972 2.23778649,3.3135 2.9998,3.3135 L20.9998,3.3135 C21.0684586,3.3135 21.1365781,3.31580751 21.2040852,3.32034912 C21.1468656,2.03081447 20.0800119,1.0004 18.7785,1.0004 L3.4415,1.0004 C2.1025,1.0004 1.0125,2.0894 1.0125,3.4294 L1.0125,4.06668808 Z M0.0125,6.03581903 L0.0125,3.4294 C0.0125,1.5384 1.5505,0.0004 3.4415,0.0004 L18.7785,0.0004 C20.6685,0.0004 22.2065,1.5384 22.2065,3.4294 L22.2065,3.56616344 C23.2625141,4.0308073 23.9998,5.0865121 23.9998,6.3135 L23.9998,18.3055 C23.9998,19.9615 22.6568,21.3055 20.9998,21.3055 L2.9998,21.3055 C1.3438,21.3055 -0.0002,19.9615 -0.0002,18.3055 L-0.0002,6.3135 C-0.0002,6.21988036 0.00409548865,6.12725788 0.0125,6.03581903 Z" id="Combined-Shape" fill="#D3D3D3"></path>
                <path d="M17.4988,14.2334 C16.9858,14.2334 16.5698,13.8184 16.5698,13.3054 C16.5698,12.7934 16.9858,12.3774 17.4988,12.3774 C18.0118,12.3774 18.4278,12.7934 18.4278,13.3054 C18.4278,13.8184 18.0118,14.2334 17.4988,14.2334 Z M17.4778,10.3874 C15.8668,10.3874 14.5608,11.6944 14.5608,13.3054 C14.5608,14.9174 15.8668,16.2234 17.4778,16.2234 L23.3138,16.2234 L23.3138,10.3874 L17.4778,10.3874 Z" id="Stroke-6" stroke="#D3D3D3"></path>
            </g>
        </g>
    </g>
</svg>